<svg width="315" height="359" viewBox="0 0 315 359" fill="none" xmlns="http://www.w3.org/2000/svg">
<path d="M82.1216 50.6173L253.369 54.5144L274.531 61.4882L287.681 66.3083L295.796 77.5894L306.583 94.7161L310.281 117.791L311 288.443L307.302 305.673L299.803 316.339L294.564 329.568L284.496 338.183L267.957 347.413L243.097 355.617L73.4924 355.515L56.9532 350.182L44.9339 345.977L32.2984 341.465L23.0529 328.748L13.8073 312.441L6 289.572L6.30817 129.893L10.4173 103.126L17.0946 80.3584L33.3257 68.2568L48.1186 56.9757L64.7605 52.1556L84.7925 50.6173H82.1216Z" fill="white"/>
<path d="M158.812 125.915L160.658 125.505C159.838 125.402 159.12 125.505 158.812 125.915Z" fill="#BACFE5"/>
<path d="M207.115 138.324L203.012 137.503C203.423 137.913 203.833 138.221 204.243 138.529C205.679 139.144 207.115 139.554 208.448 140.17C210.294 139.759 208.243 136.991 207.115 138.324Z" fill="#BACFE5"/>
<path d="M310.385 122.018L313.975 92.6878L297.566 72.3823L279.004 56.2816L245.162 56.5892L75.0267 53.1024L81.2824 51.9744L53.3881 51.5641L32.9801 63.4603L8.8802 85.9193L5.90621 103.148L1.70151 130.53L0.881104 283.949L13.4951 302.203L17.5972 319.637L26.9295 331.123C23.9555 320.355 22.1095 309.689 21.8019 299.229C21.1866 282.513 24.3657 264.669 29.5959 247.542C30.2112 242.62 30.8265 237.8 31.852 233.288C37.6975 207.137 50.4141 188.575 69.0787 169.602C70.5144 168.167 72.0527 166.731 73.7961 165.09C81.6926 155.347 90.2045 146.938 99.024 141.195C105.587 136.888 113.176 133.811 121.381 131.453C130.61 125.915 138.814 121.608 144.045 119.146C157.069 113.198 159.735 121.3 161.581 124.787L165.273 123.966C187.219 120.787 208.448 128.889 228.548 144.579C236.445 150.63 245.264 159.039 253.776 168.679C256.442 171.243 259.006 173.91 261.467 176.473C268.133 184.165 273.979 193.189 278.799 203.035C281.67 208.162 284.029 213.085 285.978 218.007C290.798 230.313 293.669 243.85 294.797 257.593C297.361 279.334 295.412 305.587 290.798 329.072L302.284 314.099L315 277.59L310.385 122.018Z" fill="#BFBFBF"/>
<path d="M8.05988 126.735C9.90583 79.1508 30.2112 50.0259 82.2055 54.6407M7.44459 127.556C8.16246 79.2534 32.7751 52.8973 84.154 51.5641M80.4621 351.941C35.0312 352.351 10.0084 330.61 7.03436 279.129M82.8208 353.479C30.8266 353.684 6.21391 329.482 6.11136 280.564M308.334 278.206C307.411 325.585 286.183 352.249 230.702 352.351M308.744 278.206C308.232 330.815 284.132 354.197 231.317 355.735M235.522 51.359C285.362 55.0509 307.104 79.8687 306.283 130.222M233.368 52.282C285.26 51.0514 307.719 79.7661 309.872 126.94M82.8208 53.9228C127.944 51.0514 172.657 51.8718 231.42 51.2565M7.75224 279.026C5.59863 239.748 7.342 201.394 8.36753 126.735L7.75224 279.026ZM6.93183 279.846C9.8033 223.135 10.4186 164.167 5.80371 128.684L6.93183 279.846ZM234.086 354.71C179.528 354.505 124.355 353.172 81.8978 352.967L234.086 354.71ZM235.112 353.172C176.451 352.249 112.356 353.377 84.7693 355.428L235.112 353.172ZM309.257 127.043C308.642 184.062 308.129 243.543 307.719 278.513L309.257 127.043ZM308.129 129.299C307.001 171.448 308.539 218.417 310.693 278.206L308.129 129.299ZM82.6157 53.205C117.176 50.0259 151.634 50.6412 233.266 51.5641L82.6157 53.205Z" stroke="black" stroke-width="4.78"/>
<path d="M114.304 40.8987C122.919 44.1803 130.303 56.5892 135.738 67.5624C141.173 78.5355 145.583 92.7903 146.916 106.532C148.352 120.274 147.429 136.478 144.25 150.015C141.071 163.552 134.815 177.601 128.047 187.754C121.176 197.907 112.561 206.419 103.229 210.726C93.8965 215.033 81.7953 216.264 72.0528 213.495C62.3103 210.623 51.7474 202.624 44.9789 193.805C38.2104 184.985 33.8007 173.909 31.3394 160.578C28.7756 147.246 28.3653 128.171 29.9036 113.916C31.4419 99.6613 34.0058 86.0218 40.364 74.9461C46.7223 63.8704 58.6184 53.3075 68.1558 47.2569C77.6932 41.2063 90.1021 39.1552 97.691 38.5399C105.28 37.9246 111.33 42.3344 113.894 43.4625C116.458 44.5906 113.484 44.5906 112.971 45.6161L114.304 40.8987ZM104.87 39.7706C113.997 40.591 123.842 48.0773 130.713 56.7943C137.481 65.5113 142.814 78.7406 145.583 92.175C148.352 105.609 149.07 123.146 147.224 137.298C145.275 151.45 140.353 165.705 134.097 177.089C127.841 188.575 118.919 199.958 109.792 206.008C100.665 212.059 89.0765 214.315 79.4366 213.597C69.7966 212.982 59.7465 209.393 52.1576 202.214C44.6712 194.933 38.2104 182.319 34.2109 170.218C30.2113 158.116 27.75 143.759 28.2628 129.607C28.7756 115.454 32.4674 98.123 37.39 85.304C42.3125 72.4849 49.5937 60.3837 58.1056 52.6922C66.5149 45.0008 78.6162 40.3859 88.051 38.9502C97.4859 37.5144 109.074 42.3344 114.715 44.1803C120.355 46.0263 122.611 48.7952 122.201 49.8207" fill="white"/>
<path d="M117.689 44.1803C126.303 48.1799 134.507 60.5888 139.738 71.9721C144.968 83.2529 148.147 98.1231 148.865 112.07C149.583 126.12 147.942 142.733 144.045 155.963C140.148 169.295 133.379 182.319 125.278 191.959C117.278 201.496 105.485 210.418 95.845 213.495C86.205 216.674 76.7702 214.623 67.5404 210.726C58.3107 206.829 46.9274 199.65 40.5691 190.01C34.1083 180.37 30.9292 166.321 28.9807 152.681C27.0322 139.144 26.1092 122.838 28.7755 108.583C31.4419 94.4312 38.2104 78.6381 45.184 67.6649C52.1576 56.6918 61.1822 47.7697 70.7196 42.8472C80.257 37.9246 93.794 36.8991 102.306 37.9247C110.818 39.0527 117.894 46.3339 121.996 49.308C126.098 52.3846 127.431 54.8458 126.918 56.2816M105.998 39.0527C115.125 40.3859 123.637 48.8978 130.61 58.1275C137.584 67.4598 145.07 81.407 147.942 94.8414C150.813 108.173 150.198 124.069 148.044 138.221C145.891 152.373 141.276 168.269 134.815 179.858C128.457 191.446 119.124 202.009 109.69 207.649C100.255 213.392 88.2561 215.546 78.411 214.008C68.5659 212.367 58.4133 206.009 50.5167 198.112C42.6202 190.215 35.4415 178.422 31.3394 166.526C27.1347 154.527 24.5709 140.067 25.3913 126.325C26.3143 112.583 30.8266 96.7899 36.6721 84.1759C42.6202 71.6645 51.7473 58.8454 60.8745 51.1539C69.8992 43.3599 83.0259 39.668 91.025 37.7195C98.9216 35.6685 106.305 38.54 108.562 39.1553C110.818 39.7706 104.972 39.4629 104.562 41.3089L105.998 39.0527Z" stroke="black" stroke-width="4.78"/>
<path d="M214.396 40.591C222.908 36.7965 234.701 39.3604 244.444 43.7701C254.186 48.1799 265.672 56.179 272.748 67.0496C279.824 78.0227 283.721 95.2516 286.593 109.301C289.464 123.351 291.208 137.708 289.875 151.45C288.541 165.295 284.644 181.293 278.491 192.061C272.441 202.829 262.083 211.444 253.366 215.956C244.649 220.468 235.624 221.391 226.189 218.93C216.754 216.469 204.756 210.008 196.552 200.983C188.245 191.959 181.169 178.114 176.554 164.885C171.939 151.656 168.862 135.555 168.965 121.3C169.068 107.045 172.144 91.4571 177.067 79.4585C181.989 67.4598 192.142 55.6663 198.705 49.2054C205.269 42.8472 213.678 42.1293 216.344 41.0012C219.011 39.7706 214.909 40.3859 214.806 42.1293L214.396 40.591ZM195.629 51.7693C202.192 43.6676 212.14 40.8987 221.677 40.3859C231.112 39.7706 243.213 42.2318 252.545 48.2824C261.878 54.333 271.107 65.1011 277.466 76.587C283.824 88.0729 288.849 103.251 290.798 117.403C292.746 131.555 292.131 147.861 289.157 161.296C286.183 174.73 280.029 188.78 272.851 198.214C265.672 207.649 255.52 215.136 246.29 218.007C237.06 220.981 226.907 220.161 217.472 215.854C208.038 211.546 197.167 202.317 189.886 191.959C182.604 181.601 177.169 167.551 173.785 153.809C170.401 139.965 168.042 123.043 169.478 109.096C170.914 95.149 177.887 80.3815 182.707 70.2287C187.527 60.076 194.911 52.1794 198.398 48.385C201.884 44.5905 203.423 45.9237 203.833 47.3595" fill="white"/>
<path d="M239.624 42.0268C248.649 43.36 257.673 51.4616 265.57 60.5888C273.364 69.716 282.491 83.5606 286.593 96.995C290.695 110.429 291.208 126.838 290.388 141.195C289.67 155.553 287.208 171.448 282.183 183.037C277.158 194.523 269.159 204.47 260.545 210.418C251.93 216.366 240.239 219.545 230.394 218.725C220.549 217.905 209.884 212.777 201.679 205.496C193.475 198.214 186.297 187.446 181.066 174.935C175.836 162.424 171.426 144.579 170.298 130.325C169.17 115.967 170.401 101.712 174.298 89.0984C178.195 76.4845 185.886 62.9475 193.578 54.8459C201.269 46.6416 211.524 41.514 220.549 40.1808C229.574 38.8476 241.572 44.3855 247.418 46.7442C253.366 49.2054 255.93 53.5127 255.93 54.7433M197.988 52.1795C204.859 44.5906 213.678 39.2578 223.01 39.1553C232.343 39.0527 244.546 44.8982 253.981 51.4616C263.416 58.025 273.261 67.4598 279.517 78.7406C285.67 90.0214 289.772 105.097 291.105 119.351C292.439 133.606 290.49 150.733 287.516 164.27C284.542 177.807 280.337 191.241 273.056 200.471C265.877 209.7 253.879 217.289 244.239 219.443C234.599 221.597 224.344 218.212 215.114 213.597C205.884 209.085 195.936 202.624 188.553 192.061C181.271 181.498 174.4 163.859 171.324 150.015C168.145 136.17 168.042 122.633 169.786 108.994C171.632 95.2516 177.682 77.4074 182.297 67.87C186.912 58.3326 195.014 54.4356 197.475 51.6667C199.936 48.8978 196.347 50.4361 196.962 51.359L197.988 52.1795Z" stroke="black" stroke-width="4.78"/>
<path d="M70.7195 7.26136C61.5923 10.6456 57.3877 20.2856 47.3375 27.3617M267.416 22.5417C259.314 17.9269 251.725 10.338 241.06 1.72353L267.416 22.5417ZM267.723 20.4907C255.519 14.8503 249.879 6.33842 243.316 3.05673L267.723 20.4907ZM70.8221 4.69755C62.9256 11.7737 57.5928 19.9779 48.2605 29.3102L70.8221 4.69755Z" stroke="black" stroke-width="2.39"/>
<path d="M141.173 225.186C141.173 225.391 141.173 225.801 141.173 226.211L140.455 226.314C140.558 227.339 140.865 229.39 141.276 231.749C141.686 234.108 142.199 236.774 142.916 239.133C143.634 241.389 144.557 244.363 145.583 247.132C146.096 248.465 146.608 249.798 147.121 250.927C147.634 252.055 148.147 253.08 148.659 253.798C148.967 254.208 149.172 254.516 149.582 254.824C149.788 255.029 149.993 255.131 150.3 255.336C150.608 255.439 151.018 255.644 151.428 255.644C151.941 255.644 152.351 255.439 152.659 255.336C152.864 255.234 153.069 255.131 153.172 255.029C153.377 255.131 153.685 255.234 154.095 255.234C154.402 255.234 154.608 255.131 154.915 255.131C155.428 254.926 155.633 254.721 155.838 254.516C156.043 254.311 156.043 254.208 156.146 254.208H156.248C156.556 254.208 156.864 254.208 157.274 254.208C158.094 254.311 159.222 254.413 160.453 254.516C162.196 254.721 164.247 254.926 166.093 254.926C167.529 254.926 168.862 254.824 170.093 254.516C172.349 253.901 174.4 252.67 176.144 251.337C177.067 250.619 177.784 250.004 178.502 249.286C179.22 248.568 179.733 247.953 180.143 247.235C180.348 246.824 180.553 246.517 180.758 246.004C180.861 245.594 180.964 245.184 180.964 244.671C180.964 244.056 180.758 243.44 180.656 243.03C180.348 242.415 180.143 242.004 179.938 241.594C179.733 241.184 179.63 240.876 179.528 240.261C179.528 240.056 179.528 239.748 179.425 239.441C179.528 238.415 179.733 237.287 179.938 236.261C180.348 233.698 180.758 231.236 180.861 230.211L178.605 229.903C178.605 229.698 178.605 229.596 178.605 229.596L174.4 228.775C174.298 229.288 174.298 229.801 174.298 230.416C174.298 231.852 174.503 233.903 174.605 235.749C174.708 237.082 174.913 238.415 175.015 239.441C174.81 240.569 174.708 241.492 174.605 242.107C174.605 242.415 174.503 242.722 174.503 242.927C174.503 243.44 174.605 243.85 174.708 244.261V244.363C174.503 244.671 174.195 244.979 173.99 245.286C173.375 246.107 172.554 246.927 171.734 247.645C170.811 248.363 169.888 248.978 168.862 249.286C168.247 249.491 167.221 249.593 166.093 249.696C164.965 249.798 163.632 249.798 162.299 249.798C160.556 249.798 158.812 249.798 157.274 249.696C156.864 249.696 156.556 249.696 156.248 249.593H156.146C155.838 249.593 155.633 249.593 155.325 249.696C155.018 249.696 154.608 249.696 154.402 249.696C154.3 249.696 154.095 249.696 153.992 249.696C153.685 249.183 153.274 248.568 152.762 247.953C151.736 246.312 150.403 244.158 149.275 242.107C148.147 240.056 147.121 237.902 146.608 236.467C146.096 234.928 145.685 233.082 145.48 231.339C145.275 229.596 145.275 227.852 145.275 226.622C145.275 226.006 145.275 225.391 145.275 225.083L141.173 225.186Z" fill="#333333"/>
<path d="M100.46 151.245C107.741 159.552 114.612 168.987 133.687 185.293M183.527 148.374C193.885 158.116 203.525 167.141 217.472 180.986L183.527 148.374ZM182.194 149.81C193.27 160.373 205.166 171.961 217.78 181.293L182.194 149.81ZM136.969 152.681C145.583 161.501 154.71 170.73 171.221 186.421L136.969 152.681ZM137.174 149.297C145.275 160.885 157.069 173.397 171.837 185.19L137.174 149.297ZM98.819 153.091C110.818 165.5 125.278 175.653 133.072 185.293L98.819 153.091Z" stroke="black" stroke-width="2.39"/>
<path d="M128.046 85.7142C124.252 84.8938 120.663 87.0474 117.176 91.3546C113.586 95.6618 109.177 103.969 107.331 111.455C105.485 118.941 105.382 128.171 106.1 136.17C106.818 144.272 109.689 153.502 111.946 160.27C114.304 167.141 116.253 174.012 119.74 176.781C123.124 179.55 128.662 178.832 132.764 176.884C136.763 174.935 140.763 171.243 143.634 165.193C146.608 159.142 149.07 149.092 150.3 140.785C151.531 132.478 151.736 122.531 150.813 115.454C149.788 108.378 147.634 103.353 144.455 98.0205C141.276 92.7903 134.302 86.1244 131.636 84.1759C128.969 82.2274 128.867 85.9193 128.457 86.1244C128.046 86.3295 129.072 85.5091 129.174 86.0219L128.046 85.7142ZM123.739 88.5857C119.842 89.7138 114.509 94.6363 111.433 100.072C108.459 105.609 106.51 113.403 105.792 121.3C105.075 129.094 105.895 139.452 107.228 147.143C108.561 154.937 110.612 162.731 113.997 168.269C117.176 173.807 122.611 179.037 126.713 180.063C130.918 181.088 135.328 177.807 138.814 173.91C142.404 170.013 145.788 163.039 148.044 156.373C150.403 149.605 152.351 141.298 152.557 133.709C152.659 126.12 151.121 117.608 148.865 110.429C146.608 103.148 143.122 94.6363 139.327 90.5342C135.533 86.5346 129.174 86.227 126.098 86.1244C123.021 86.0219 121.791 89.4061 120.97 90.0214C120.15 90.6367 120.56 89.201 120.868 89.6112" fill="black"/>
<path d="M192.655 86.9448C188.86 86.3295 185.373 88.8933 182.194 93.4056C179.118 97.9179 175.221 106.532 173.99 114.121C172.759 121.71 173.375 130.94 174.708 138.836C176.144 146.938 179.63 155.86 182.399 162.321C185.168 168.987 187.835 175.653 191.424 178.217C195.116 180.678 200.654 179.55 204.448 177.396C208.243 175.14 211.934 171.141 214.396 164.885C216.857 158.629 218.6 148.374 219.011 139.965C219.523 131.658 219.011 121.71 217.575 114.634C215.934 107.66 213.37 102.738 209.883 97.8154C206.397 92.8929 198.808 86.7397 196.039 85.0989C193.27 83.3555 193.372 86.9448 192.962 87.355C192.552 87.7652 193.475 86.6372 193.68 87.1499L192.655 86.9448ZM188.655 90.1239C184.861 91.5597 179.938 96.8924 177.374 102.635C174.81 108.276 173.58 116.377 173.477 124.171C173.375 131.965 174.913 142.221 176.861 149.912C178.81 157.604 181.476 165.193 185.168 170.423C188.86 175.55 194.603 180.473 198.808 181.088C203.012 181.703 207.115 178.319 210.499 174.012C213.678 169.807 216.652 162.629 218.293 155.758C220.036 148.887 221.472 140.477 220.959 132.888C220.446 125.299 218.293 116.993 215.524 110.019C212.858 103.046 208.55 94.7388 204.346 90.9444C200.141 87.1499 193.885 87.355 190.911 87.6627C187.835 87.7652 187.014 91.3546 186.091 91.9699C185.271 92.5852 185.578 91.1495 185.989 91.5597" fill="black"/>
</svg>
