<svg width="200" height="209" viewBox="0 0 200 209" fill="none" xmlns="http://www.w3.org/2000/svg">
<path d="M121.781 6.10638C117.897 6.38381 106.522 4.99665 103.378 4.53426M125.85 3.79443C121.689 3.42452 105.135 0.742653 100.974 1.02009L125.85 3.79443Z" stroke="black" stroke-width="2"/>
<path d="M197.985 63.914C196.413 60.0299 186.888 41.6268 184.206 37.8352M197.061 59.1052C194.471 55.406 181.524 41.8118 179.212 38.6675L197.061 59.1052Z" stroke="black" stroke-width="2"/>
<path d="M101.163 204.22L15.6204 149.935C4.24558 142.722 0.823884 127.648 8.03717 116.181L55.2935 41.6432C62.5068 30.2684 77.5807 26.8468 89.048 34.0601L174.59 88.3447C185.965 95.5579 189.387 110.632 182.173 122.099L134.917 196.637C127.704 208.011 112.537 211.433 101.163 204.22Z" fill="white"/>
<path d="M120.214 77.802L121.139 78.1719C120.861 77.8019 120.491 77.7095 120.214 77.802Z" fill="#BACEE5"/>
<path d="M138.524 96.9449L136.952 95.3727C137.045 95.6502 137.137 95.9276 137.23 96.205C137.692 96.8524 138.247 97.4997 138.709 98.1471C139.542 98.517 139.357 96.7599 138.524 96.9449Z" fill="#BACEE5"/>
<path d="M189.48 119.325L199.19 107.488L197.433 93.8932L193.549 81.5012L178.29 71.976L102.828 21.9453L105.972 23.24L93.5802 15.102L81.0956 14.5471L63.9872 17.5064L57.8837 24.2573L48.3584 35.0772L5.3561 102.216L5.91097 113.869L2.95166 122.654L3.96892 130.33C5.63353 124.781 7.76053 119.51 10.5349 114.886C14.8813 107.395 21.2623 100.459 28.3831 94.4481C30.0477 92.4136 31.6199 90.5641 33.377 88.8995C43.2721 79.0968 54.1845 74.5653 67.8713 71.606C68.8885 71.3286 69.9983 71.1436 71.2005 70.9587C77.489 68.9242 83.5926 67.722 89.2337 67.6295C93.3952 67.537 97.6492 68.4618 101.996 69.7565C107.637 69.9414 112.538 70.4038 115.59 70.7737C123.081 71.8835 122.063 76.23 121.878 78.2645L123.821 78.9118C134.548 83.8132 141.854 93.4309 146.57 106.008C148.42 110.909 150.084 117.105 151.194 123.764C151.656 125.706 152.119 127.555 152.489 129.405C153.321 134.676 153.413 140.317 152.859 145.958C152.674 149.01 152.396 151.877 151.934 154.559C150.639 161.31 148.142 168.061 144.813 174.442C139.912 184.707 131.681 195.712 123.081 204.682L132.421 201.353L148.327 188.961L189.48 119.325Z" fill="#BFBFBF"/>
<path d="M178.104 68.5542C199.282 83.9981 202.796 99.9043 189.202 121.729M174.405 69.479C203.073 81.9636 201.039 101.939 192.623 121.174M148.604 187.204C135.564 207.456 115.589 213.93 97.371 198.948M150.731 187.111C135.934 209.861 116.791 211.988 96.1688 202.185M21.0766 152.062C0.176577 138.283 -3.98493 119.787 11.4589 99.9968M20.0594 154.651C-0.00838661 140.04 -4.53979 120.342 7.94475 95.1879M50.5771 33.505C66.6683 13.4373 85.6263 7.88861 101.902 21.4829M50.7621 36.2794C65.1887 11.7727 81.7422 10.0156 104.492 22.0378M102.92 23.9798C135.102 37.5741 161.181 54.9599 178.659 69.1091L102.92 23.9798ZM104.399 22.5002C128.999 38.7763 155.447 56.4396 179.307 68.5542L104.399 22.5002ZM191.976 122.376C176.81 142.444 167.007 158.628 149.621 189.423L191.976 122.376ZM189.572 122.192C180.971 139.392 169.781 152.617 147.124 187.111L189.572 122.192ZM92.3772 200.798C66.8533 183.135 39.7572 167.136 22.1864 151.415L92.3772 200.798ZM94.7817 199.688C74.1591 184.984 56.3108 173.239 19.8744 151.23L94.7817 199.688ZM9.33192 100.182C24.0359 73.2706 41.6992 50.9834 52.5192 31.1931L9.33192 100.182ZM8.68456 99.3494C23.0187 78.9118 36.243 55.8847 49.3749 33.505L8.68456 99.3494Z" stroke="black" stroke-width="2"/>
<path d="M116.727 131.542C121.92 133.518 125.879 140.218 127.481 144.394C129.155 148.63 128.656 152.163 126.251 157.005C123.774 161.789 118.292 169.371 112.645 173.356C107.058 177.269 99.2183 179.699 92.751 180.743C86.2838 181.787 79.2562 181.178 73.6987 179.502C68.1413 177.825 61.6854 175.056 59.4193 170.815C57.1531 166.573 57.8527 159.142 59.887 153.878C61.9214 148.613 66.1026 142.475 71.5277 138.907C76.9528 135.339 84.773 133.371 91.9495 132.19C99.1259 131.009 110.038 131.688 114.326 131.849C118.614 132.009 116.877 132.381 117.892 133.331C118.908 134.28 120.523 137.273 120.419 137.546L116.727 131.542ZM85.7106 134.854C92.0472 132.509 98.84 132.089 105.249 132.432C111.659 132.774 120.281 134.208 124.238 136.965C128.137 139.794 129.16 144.094 128.804 149.059C128.449 154.024 125.869 161.71 122.149 166.552C118.357 171.336 112.321 175.36 105.835 178.18C99.2773 180.942 89.4404 183.77 82.8294 183.382C76.2183 182.995 69.7881 179.172 65.9802 175.939C62.1008 172.649 60.2512 168.628 59.8262 163.742C59.4012 158.855 60.3609 151.398 63.8011 147.044C67.1697 142.631 77.013 139.211 80.1549 137.121C83.2251 134.972 81.5465 135.272 82.3074 134.341C83.0098 133.482 83.8548 131.426 84.6293 131.939" fill="#681717"/>
<path d="M117.203 134.32C123.073 136.491 128.696 140.132 130.37 144.367C132.103 148.531 130.414 155.273 127.637 159.692C124.861 164.111 119.93 167.367 114.03 170.785C108.13 174.204 98.71 178.567 91.8785 179.91C84.9885 181.325 78.2213 180.691 73.1389 179.164C67.9848 177.578 63.806 173.923 61.2017 170.242C58.7276 166.547 55.9733 162.026 57.8906 156.904C59.7494 151.854 66.682 143.666 72.2566 139.623C77.8311 135.58 84.6234 133.846 91.4811 132.763C98.3387 131.68 109.388 133.068 113.318 132.936C117.189 132.876 114.365 132.239 114.768 132.33C115.23 132.349 115.628 133.032 115.654 133.293M115.42 133.579C120.424 135.639 124.968 140.309 126.616 144.284C128.264 148.259 127.758 152.385 125.353 157.227C122.947 162.069 117.133 169.619 111.793 173.376C106.452 177.132 100.415 178.527 93.4856 179.552C86.5433 180.446 76.113 180.639 70.3993 178.716C64.6856 176.792 60.8772 172.246 59.2617 167.939C57.6462 163.632 58.7367 157.476 60.7779 152.934C62.819 148.391 66.2462 143.907 71.6258 140.54C76.8753 137.187 85.5866 134.275 92.5482 132.919C99.5229 131.692 108.606 131.832 113.409 132.532C118.224 133.363 119.188 136.421 121.297 137.786C123.347 139.223 126.146 140.914 125.944 140.869L115.42 133.579Z" stroke="black" stroke-width="2"/>
<path d="M68.0308 128.475C73.2751 130.311 78.9498 134.281 82.9573 138.411C86.9648 142.54 91.2288 148.061 92.6305 153.261C94.0308 158.554 93.9142 166.322 91.1757 170.073C88.4373 173.823 81.6677 175.017 76.1982 175.859C70.7288 176.702 64.5251 177.164 58.7288 175.135C52.9325 173.105 45.3188 168.922 41.4149 164.053C37.511 159.185 35.6871 151.297 35.3039 146.019C35.0118 140.835 36.5579 136.419 39.4786 132.856C42.3978 129.385 45.1641 123.785 52.8236 124.917C60.5756 126.051 78.9595 133.634 85.5283 139.652C92.0957 145.762 92.322 161.488 92.3179 161.766L68.0308 128.475ZM54.949 125.042C60.6062 124.017 67.5302 124.861 72.7578 127.806C78.0779 130.753 82.7862 137.483 86.5949 142.535C90.3097 147.677 94.8526 153.11 95.1419 158.479C95.3402 163.753 91.8077 171.099 88.1501 174.467C84.4 177.832 78.5579 178.854 72.8291 178.491C67.1003 178.127 58.7288 175.135 53.2251 172.092C47.7215 169.05 42.7824 165.369 39.9895 160.425C37.1966 155.481 35.9346 147.138 36.6554 142.247C37.2838 137.355 41.0422 133.434 43.7641 130.793C46.4845 128.244 51.1217 127.389 52.7958 126.767C54.5625 126.146 53.9993 126.692 54.1829 126.787" fill="#681717"/>
<path d="M64.6384 126.482C70.0704 128.136 79.1178 135.393 84.1327 140.186C89.149 144.885 93.3275 149.942 94.6395 154.956C95.9502 160.063 94.6412 167.165 91.722 170.636C88.8027 174.106 82.592 175.031 77.0301 175.872C71.4682 176.713 63.9686 177.248 58.077 175.402C52.1855 173.557 45.4026 169.478 41.7761 164.614C38.151 159.658 36.9856 151.039 36.601 145.854C36.2164 140.668 36.7273 137.439 39.4644 133.781C42.2001 130.215 48.3766 125.405 53.0152 124.458C57.6553 123.418 64.8136 127.132 67.3972 127.541C69.9793 128.042 68.7 127.005 68.4184 127.279M85.0176 136.684C89.6682 141.101 92.9785 148.55 93.8254 153.742C94.5812 158.84 92.6666 163.158 89.8273 167.463C86.9894 171.675 81.7168 177.885 76.5206 179.009C71.3243 180.133 64.627 176.518 58.7479 173.84C52.8689 171.162 45.6195 167.354 41.2477 162.849C36.8759 158.344 33.0783 152.552 32.604 147.181C32.1297 141.809 34.8285 134.543 38.4917 130.806C42.1549 127.069 48.1944 125.218 54.0241 125.028C59.8537 124.838 66.6949 125.033 73.4667 129.852C80.2385 134.67 91.7986 147.052 94.5624 153.938C97.42 160.733 91.0747 170.626 90.4246 170.801L85.0176 136.684Z" stroke="black" stroke-width="2"/>
<path d="M100.315 138.622C103.885 140.799 105.867 147.065 107.194 151.798C108.515 156.439 109.895 162.002 108.233 166.373C106.57 170.744 102.25 175.565 97.5023 178.097C92.755 180.63 84.6375 182.639 79.9335 181.555C75.2234 180.378 72.1075 175.205 69.4446 171.3C66.7817 167.395 63.77 162.401 64.1165 157.745C64.5553 153.083 68.1281 146.735 71.8807 143.155C75.6333 139.575 81.2615 136.337 86.7422 136.537C92.2229 136.737 100.82 142.111 104.5 144.559C108.261 146.817 109.06 150.565 109.239 150.461L100.315 138.622ZM97.6137 135.554C101.802 135.838 104.498 138.814 106.458 143.32C108.425 147.919 110.45 157.703 109.401 162.961C108.352 168.219 104.04 171.742 100.049 174.503C96.0641 177.357 90.0872 179.506 85.5772 179.984C81.0733 180.554 76.5394 180.663 72.9332 177.931C69.333 175.292 64.6447 168.739 64.1427 163.86C63.6407 158.981 66.8863 153.302 69.7424 148.761C72.5986 144.22 77.1243 138.273 81.2675 136.429C85.4107 134.585 92.3391 137.101 94.6821 137.505C97.0252 137.909 95.6469 138.091 95.4863 138.472" fill="#681717"/>
<path d="M78.5424 153.009C84.6727 154.65 91.6226 158.925 96.4584 162.04C101.294 165.155 106.824 168.966 107.656 171.785C108.487 174.604 105.898 177.552 101.356 178.959C96.8138 180.366 87.3266 181.26 80.4077 180.319C73.4889 179.378 65.9289 175.698 59.7268 172.95C53.6169 170.196 46.1673 166.787 43.6505 163.707C41.0415 160.633 41.6145 156.611 44.2572 154.493C46.8999 152.375 52.2429 150.453 59.5009 150.909C66.8512 151.358 81.8478 155.389 88.3531 157.099C94.8645 158.9 98.4527 161.355 98.539 161.256L78.5424 153.009ZM72.936 150.871C78.7115 151.33 84.3119 153.376 89.892 156.535C95.5644 159.689 104.891 166.312 106.964 169.699C109.037 173.086 105.749 175.245 102.424 176.851C99.1054 178.549 92.4969 179.534 86.9479 179.709C81.3989 179.884 75.4568 179.714 68.9275 177.635C62.4101 175.741 51.8192 171.054 47.8139 167.885C43.9009 164.71 44.4056 161.063 45.2411 158.229C45.9842 155.4 47.9654 151.657 52.1685 150.736C56.3717 149.814 67.3426 151.79 70.6084 152.134C73.9666 152.472 72.3055 152.58 72.2252 152.77" fill="#C90606"/>
<path d="M82.1744 158.39C89.0772 160.463 96.7333 162.792 100.776 165.63C104.819 168.468 107.367 173.399 106.573 175.57C105.778 177.741 100.88 178.155 95.8588 178.799C90.9524 179.505 83.5753 180.666 76.9575 179.859C70.3397 179.052 61.7097 177.017 56.3291 173.906C50.9485 170.795 46.4582 164.228 44.4084 161.272C42.3318 158.227 41.968 157.661 43.9232 155.816C45.8785 153.971 50.2766 150.617 55.9543 150.548C61.7206 150.452 73.8342 154.432 78.2287 155.233C82.6232 156.033 82.1793 155.201 82.4097 155.325C82.6402 155.449 80.355 155.558 79.8152 156.01M54.3957 150.825C59.0364 150.199 66.5918 149.95 73.2023 152.015C79.8128 154.079 89.0857 160.171 94.2359 163.158C99.386 166.145 103.56 167.495 104.537 170.098C105.426 172.728 103.377 176.823 99.6941 178.705C96.0116 180.588 88.7413 182.103 82.3272 181.331C75.9132 180.56 67.6531 176.868 61.6442 174.236C55.6353 171.604 49.2625 168.405 46.0968 165.592C42.931 162.78 41.5628 159.522 42.5428 157.005C43.5229 154.488 49.6131 151.3 52.1542 150.438C54.6953 149.576 56.4516 151.557 57.7895 151.83C59.1274 152.103 60.0128 151.836 59.8891 152.067L54.3957 150.825Z" stroke="black" stroke-width="2"/>
<path d="M124.234 24.3358C127.655 28.6822 130.06 37.2827 129.597 44.311C129.042 51.3393 125.898 59.3849 121.459 66.3208C117.02 73.2566 109.345 80.7474 102.686 85.8337C96.0278 90.92 88.6295 95.3589 81.6012 96.8386C74.5729 98.3182 65.3251 97.9483 60.3313 95.0815C55.3374 92.1222 52.6556 85.7412 51.4534 79.4527C50.2512 73.1642 51.2684 64.6562 53.3029 57.2579C55.3374 49.8597 58.6667 41.3517 63.568 35.1557C68.4693 28.9597 75.7751 23.5034 82.8959 19.6194C90.1092 15.7353 99.6344 12.0362 106.293 12.1287C112.951 12.2211 119.98 17.5849 123.216 20.1742C126.453 22.7636 125.528 26.5552 126.083 27.7574C126.638 28.9597 127.1 27.3875 126.453 27.5725L124.234 24.3358ZM121.644 18.3247C126.268 21.0065 128.58 25.9079 129.412 32.3813C130.245 38.8548 129.505 49.4898 126.546 57.073C123.494 64.6562 117.575 72.1469 111.379 77.973C105.183 83.7992 96.1203 88.7005 89.1844 92.2147C82.2486 95.7288 75.4052 99.4279 69.949 98.6881C64.4003 97.8558 59.0366 92.4921 56.0773 87.4058C53.118 82.412 51.2684 75.7536 52.1932 68.4478C53.118 61.0495 57.0945 50.7845 61.3485 43.0163C65.6025 35.3406 71.891 27.1101 77.7171 22.2088C83.4508 17.3999 89.1844 15.1804 96.0278 13.8857C102.871 12.4986 114.708 13.3309 118.87 14.0707C123.031 14.8105 120.719 17.8623 120.997 18.4171C121.274 19.0645 120.812 17.3999 120.35 17.6773" fill="white"/>
<path d="M127.932 42.2764C128.024 48.2875 124.603 54.9459 120.996 62.4367C117.389 69.8349 112.026 81.0248 106.2 86.7584C100.373 92.492 92.7902 96.0062 85.8543 97.1159C78.826 98.3182 69.9481 96.0987 64.122 93.6018C58.2959 91.1049 53.3945 87.3133 51.0826 82.042C48.7706 76.7708 48.6782 69.0026 50.3428 61.7893C52.0074 54.6685 56.1689 45.6057 61.0702 39.1322C65.9716 32.6587 72.7225 27.1101 79.8433 22.6711C86.9641 18.2322 96.6743 13.5158 103.61 12.406C110.546 11.2963 117.204 12.6835 121.643 16.1052C125.99 19.6193 128.949 28.8671 130.059 33.1211C131.169 37.3751 128.209 40.6118 128.394 41.6291C128.579 42.6464 131.539 39.3172 131.169 39.3172M127.377 31.1791C129.874 36.3579 130.521 44.0335 128.487 51.4318C126.452 58.83 121.366 68.7252 115.447 75.3836C109.621 82.042 100.466 87.5907 93.4376 91.1974C86.4092 94.804 79.3809 97.0235 73.1849 97.2084C66.9888 97.3934 60.1454 96.746 56.4463 92.3071C52.7472 87.8681 51.2676 77.973 50.8976 70.8522C50.5277 63.7314 50.8052 56.2406 54.1344 49.3973C57.4636 42.5539 64.307 35.618 70.7804 29.9769C77.2539 24.3357 85.8543 18.5096 92.7902 15.8277C99.8185 13.2383 107.309 12.6835 112.765 14.0706C118.314 15.5503 123.4 18.787 125.712 24.3357C128.024 29.8844 127.932 40.4269 126.822 47.8251C125.712 55.2234 119.424 68.1703 118.962 68.1703L127.377 31.1791Z" stroke="black" stroke-width="2"/>
<path d="M163.722 50.8771C163.63 50.3223 162.335 51.3395 163.722 51.3395C165.109 51.3395 168.069 48.8426 171.86 50.6922C175.652 52.5417 183.42 56.5183 186.379 62.6218C189.339 68.7254 190.078 78.9905 189.616 86.9436C189.154 95.0816 187.397 103.867 183.79 110.988C180.276 118.109 173.987 124.767 168.161 129.761C162.335 134.755 155.029 139.286 148.833 140.951C142.637 142.615 135.701 142.985 130.892 139.564C126.176 136.234 121.83 128.096 120.165 121.068C118.5 114.04 119.333 105.439 121.09 97.3011C122.847 89.163 126.453 78.9905 130.8 72.0546C135.146 65.1187 141.065 58.7378 147.261 55.3161C153.365 51.8944 162.242 50.4147 167.606 51.617L163.722 50.8771ZM175.467 52.5417C175.467 51.9869 173.802 52.2643 174.45 52.2643C175.097 52.2643 176.854 48.8426 179.351 52.3568C181.848 55.871 187.581 66.136 189.246 72.8869C190.911 79.6378 191.466 85.7414 189.524 93.0471C187.581 100.353 182.865 109.508 177.686 116.722C172.508 123.935 164.924 131.888 158.543 135.864C152.255 139.749 145.596 140.951 139.77 140.488C133.944 140.026 126.731 137.437 123.587 132.72C120.442 128.096 120.997 120.328 121.182 112.56C121.367 104.792 121.922 94.5268 124.604 86.3887C127.286 78.2506 131.447 69.6502 137.088 63.7316C142.73 57.813 152.07 52.5417 158.173 50.5997C164.369 48.5652 169.918 48.5652 174.172 51.617" fill="white"/>
<path d="M151.145 51.8018C150.96 51.5243 149.203 55.5934 150.22 55.3159C151.237 55.0385 152.902 50.9695 157.248 50.2296C161.595 49.3973 171.212 48.0102 176.206 50.5995C181.2 53.0965 185.269 58.5527 187.211 65.3036C189.153 72.0545 189.153 82.8744 188.043 91.1049C187.026 99.428 184.899 107.843 181.107 115.149C177.316 122.363 170.935 129.946 165.201 134.477C159.468 139.009 152.347 142.245 146.613 142.43C140.879 142.615 135.331 139.748 130.614 135.587C125.898 131.425 120.164 124.305 118.222 117.461C116.28 110.618 116.28 102.387 118.962 94.6191C121.644 86.851 129.505 77.3257 134.683 70.8522C139.862 64.3788 144.486 58.4602 149.942 55.9633M129.967 75.0138C129.875 74.5514 138.937 63.3615 145.041 59.2C151.145 55.0385 160.577 50.4146 166.773 50.2296C172.877 49.9522 177.963 53.1889 181.57 57.5354C185.176 61.8819 187.951 68.9102 188.506 76.3084C189.153 83.7992 187.396 94.0642 185.084 102.295C182.772 110.433 179.35 119.773 174.542 125.599C169.825 131.518 163.167 134.94 156.508 137.621C149.85 140.303 140.232 143.263 134.683 141.69C129.135 140.118 125.621 134.292 123.124 128.651C120.627 123.01 119.61 115.704 119.887 107.751C120.164 99.7979 121.367 89.2554 124.881 81.0248C128.395 72.8868 135.238 64.0089 141.064 59.0151C146.891 54.0212 154.196 51.3394 159.93 51.4319L129.967 75.0138Z" stroke="black" stroke-width="2"/>
<path d="M116.304 39.0121C113.9 38.2723 109.553 39.1046 106.132 40.9542C102.802 42.8037 99.1958 46.3179 96.2365 50.1095C93.2772 53.9011 90.3179 59.5423 88.4683 64.0737C86.6188 68.6051 85.1391 73.3215 85.0466 77.2056C84.8617 81.0896 85.9714 85.6211 87.821 87.5631C89.6705 89.4127 92.9997 89.2277 96.144 88.3954C99.2882 87.5631 103.357 85.0662 106.686 82.2919C110.108 79.5175 113.9 75.9109 116.489 72.0268C119.079 68.1427 121.021 63.2414 122.223 58.71C123.425 54.271 124.442 48.6298 123.795 45.2082C123.148 41.8789 119.911 39.6595 118.339 38.5497C116.767 37.44 115.01 38.8272 114.362 38.9196C113.715 38.9196 114.455 38.3648 114.455 38.6422L116.304 39.0121ZM119.448 38.9196C117.784 37.255 115.194 37.1626 111.958 38.2723C108.721 39.2896 103.635 42.2489 100.213 45.4856C96.7913 48.7223 93.7396 53.5312 91.4276 57.9701C89.1157 62.4091 87.5435 68.1427 86.5263 72.4892C85.509 76.8357 84.2143 80.9972 85.1391 83.679C85.9714 86.2684 89.1157 87.7481 91.89 88.0255C94.6643 88.3029 97.9011 87.7481 101.415 85.5286C104.929 83.4016 109.553 78.9627 112.883 75.0786C116.304 71.1945 119.633 66.1082 121.483 62.0392C123.333 58.0626 123.795 54.6409 123.887 50.9418C123.98 47.2427 122.5 41.4166 121.76 39.4745C121.021 37.5325 119.726 39.4745 119.448 39.4745C119.171 39.4745 120.003 39.382 119.911 39.6595" fill="black"/>
<path d="M149.665 62.4368C147.169 61.9744 142.915 63.0841 139.678 65.2111C136.441 67.2457 133.204 71.1297 130.522 75.1063C127.841 79.1753 125.344 84.909 123.864 89.6253C122.292 94.2492 121.275 99.1506 121.46 103.035C121.645 106.919 123.032 111.358 124.974 113.022C126.916 114.687 130.245 114.317 133.389 113.207C136.441 112.098 140.325 109.323 143.469 106.271C146.614 103.312 150.22 99.3355 152.44 95.2665C154.659 91.1975 156.324 86.1112 157.156 81.5798C157.988 77.0483 158.543 71.3147 157.619 67.9855C156.694 64.6563 153.365 62.7142 151.7 61.7895C150.035 60.8647 148.463 62.4368 147.816 62.4368C147.169 62.4368 147.816 61.7894 147.908 62.1594L149.665 62.4368ZM152.81 62.0669C151.053 60.4948 148.371 60.6797 145.226 61.9744C142.175 63.3616 137.273 66.5058 134.129 70.02C130.985 73.5342 128.303 78.528 126.361 83.1519C124.419 87.8683 123.309 93.6019 122.569 97.9484C121.83 102.295 120.997 106.641 122.015 109.231C123.124 111.728 126.361 112.93 129.043 113.022C131.725 113.115 134.961 112.282 138.291 109.786C141.62 107.381 145.874 102.572 148.926 98.4108C151.885 94.2492 154.937 88.8855 156.509 84.724C157.988 80.5625 158.266 77.1408 157.988 73.4417C157.804 69.7426 155.861 64.1014 155.029 62.2518C154.104 60.4023 152.995 62.3443 152.717 62.3443C152.44 62.3443 153.18 62.1594 153.18 62.4368" fill="black"/>
</svg>
