<svg width="414" height="895" viewBox="0 0 414 895" fill="none" xmlns="http://www.w3.org/2000/svg">
  <defs>
    <linearGradient id="paint0_linear" x1="215.057" y1="235.527" x2="215.057" y2="681.049"
      gradientUnits="userSpaceOnUse">
      <stop offset="2.02456e-07" stop-color="#37BAE6" />
      <stop offset="0.2071" stop-color="#4EC6EB" />
      <stop offset="0.7416" stop-color="#86E3F6" />
      <stop offset="1" stop-color="#9CEEFA" />
    </linearGradient>
    <linearGradient id="paint1_linear" x1="-77.7135" y1="894.782" x2="511.489" y2="894.782"
      gradientUnits="userSpaceOnUse">
      <stop stop-color="#A8D90B" />
      <stop offset="0.3239" stop-color="#7DB708" />
      <stop offset="0.7796" stop-color="#458B04" />
      <stop offset="1" stop-color="#2F7A03" />
    </linearGradient>
  </defs>

  <mask id="mask0" mask-type="alpha" maskUnits="userSpaceOnUse" x="0" y="0" width="414" height="895">
    <rect width="414" height="895" fill="#C4C4C4" />
  </mask>
  <g>
    <path d="M437.813 -9.77686H-7.69873V906.539H437.813V-9.77686Z" fill="url(#paint0_linear)" />
    <path opacity="0.49" fill-rule="evenodd" clip-rule="evenodd"
      d="M-27.8415 451.814L-16.253 419.348L-8.06751 417.141L11.2466 407.3L36.8148 406.656L42.8849 407.208L56.2209 421.832L63.6706 443.077L75.8109 517.482L65.4181 553.995L69.0969 542.775L86.0198 530.91L108.001 531.922L118.394 530.266L133.845 551.604L142.583 598.234L144.79 631.62L143.502 639.437L161.805 621.595L176.612 619.479L199.789 622.33L225.909 632.907L232.531 638.793L248.166 680.273L254.696 687.079L255.34 662.062L259.571 619.479L263.893 610.834L278.793 593.819L316.685 577.816L335.724 587.565L344.093 589.312L325.331 539.74L306.476 495.409L305.741 485.108L302.43 460.92L311.259 451.722L318.985 429.741L372.512 420.728L367.362 413.922L358.716 405.185L347.312 362.97L346.392 354.048L352.37 338.505L359.36 319.467L361.752 304.383L383.825 290.68L402.403 287.461L415.831 288.932L432.938 276.332L443.055 267.135L453.907 271.365L479.476 279.735L483.982 307.418L482.879 365.269L489.133 400.678L490.42 448.779L492.076 556.846L499.342 601.361V622.698L492.444 657.556L496.49 686.527L500.905 695.08L499.617 799.928L509.458 829.267L516.356 860.538L514.701 867.16L512.861 867.62L490.604 885.186L467.151 893.372L427.512 892.268L404.427 895.947L323.215 893.096L241.36 888.405L96.0447 881.507L45.828 868.079L-31.7963 849.409L-33.6357 845.086L-46.4198 818.69L-47.9833 792.294L-51.2943 709.152L-40.8095 651.669L-43.7526 548.109L-42.0052 493.478L-22.783 458.068L-29.1291 450.343"
      fill="white" />
    <path opacity="0.49"
      d="M-32.9866 451.273C-32.8947 450.261 -31.6991 445.939 -29.3998 442.444C-27.1005 438.949 -20.6624 432.971 -19.2828 430.579C-17.9033 428.188 -21.4902 429.476 -21.1223 427.912C-20.7544 426.349 -18.5471 422.578 -17.1675 421.106C-15.7879 419.635 -16.4317 421.842 -12.6609 419.267C-8.89 416.6 -2.81987 408.414 5.54958 405.379C14.011 402.344 32.2215 401.148 37.8318 400.964C43.3501 400.78 37.7398 403.08 38.7515 404.275C39.7632 405.471 41.3266 405.655 43.9938 408.322C46.753 410.989 51.7195 415.772 55.1225 420.186C58.5254 424.601 61.1006 420.37 64.3197 434.994C67.5387 449.617 73.5168 491.833 74.0687 507.56C74.6205 523.287 68.7343 523.379 67.9065 529.633C67.0788 535.887 69.654 542.509 69.1022 544.9C68.5504 547.292 64.4116 543.705 64.5956 544.165C64.8715 544.532 70.3898 547.384 70.2978 547.384C70.2059 547.384 64.9634 545.36 64.4116 544.073C63.7678 542.877 63.9518 542.049 66.619 539.934C69.1942 537.91 72.2292 533.956 79.9549 531.84C87.6805 529.633 106.075 525.77 112.973 526.966C119.779 528.161 118.215 534.875 121.066 538.922C123.917 542.969 127.32 548.671 129.804 551.062C132.379 553.546 134.494 547.843 136.242 553.73C137.989 559.708 139.829 581.137 140.288 586.748C140.748 592.358 138.357 583.804 139.093 587.483C139.829 591.162 143.691 602.107 144.611 608.913C145.531 615.719 145.071 624.088 144.795 628.411C144.519 632.734 140.288 636.137 143.048 635.033C145.807 633.929 153.44 624.548 161.258 621.973C169.076 619.398 182.871 619.674 190.229 619.766C197.587 619.857 200.162 620.777 205.405 622.617C210.647 624.456 216.349 627.675 221.592 630.894C226.834 634.113 232.26 633.561 237.043 641.931C241.917 650.208 247.62 677.616 250.655 680.835C253.69 684.054 254.242 671.914 255.069 661.429C255.897 650.944 254.334 624.64 255.345 617.65C256.357 610.66 259.852 620.501 261.048 619.49C262.243 618.478 259.852 615.995 262.979 611.672C266.198 607.349 270.705 598.704 280.086 593.37C289.467 588.035 311.632 582.425 318.99 579.39C326.44 576.355 320.829 573.596 324.508 575.159C328.187 576.723 338.488 587.943 340.971 588.495C343.454 589.047 342.443 586.748 339.5 578.378C336.557 570.009 328.187 552.994 323.129 538.37C317.978 523.747 311.54 500.754 308.781 490.545C305.93 480.336 306.574 482.175 306.022 477.485C305.47 472.702 305.93 466.08 305.746 462.126C305.47 458.171 303.907 458.171 304.642 453.664C305.47 449.158 306.758 439.225 310.437 434.994C314.023 430.855 317.151 431.499 326.532 428.556C335.913 425.613 359.642 418.991 366.999 417.059C374.449 415.128 373.437 419.727 371.046 416.967C368.655 414.208 357.158 409.794 352.928 400.596C348.697 391.399 347.225 369.97 345.846 361.508C344.466 353.047 343.73 354.61 344.834 349.92C345.938 345.229 350.26 339.711 352.284 333.549C354.307 327.387 353.847 319.017 357.066 313.039C360.285 307.061 365.804 302.186 371.598 297.588C377.3 292.989 384.934 287.195 391.372 285.631C397.81 283.976 405.719 287.379 409.95 287.931C414.181 288.483 412.709 292.253 416.572 289.034C420.435 285.815 426.137 271.56 433.127 268.525C440.025 265.49 451.705 269.72 458.327 271.1C464.949 272.479 469.088 274.503 473.043 276.802C476.906 279.101 479.573 278.274 481.78 284.712C483.896 291.15 485.827 309.636 485.827 315.43C485.919 321.225 482.608 311.476 482.056 319.569C481.504 327.755 482.24 351.391 482.516 364.635C482.884 377.879 482.7 385.697 484.079 398.849C485.459 412.001 490.426 430.027 490.977 443.823C491.621 457.619 486.931 471.783 487.666 481.44C488.402 491.189 494.104 489.993 495.3 502.041C496.496 514.09 494.472 540.302 494.932 554.098C495.392 567.893 497.324 577.366 498.059 585C498.887 592.634 499.255 594.381 499.899 599.9C500.543 605.418 502.474 611.028 501.83 618.386C501.186 625.836 496.956 636.412 496.128 644.414C495.208 652.416 495.576 659.313 496.404 666.487C497.231 673.569 500.543 680.835 500.818 687.365C501.094 693.803 498.703 688.193 498.059 705.391C497.415 722.59 495.852 774.002 496.956 790.833C498.059 807.664 502.474 801.87 504.221 806.469C505.877 811.067 505.509 814.01 507.072 818.241C508.636 822.38 512.407 827.53 513.786 831.669C515.074 835.808 515.074 837.187 515.074 843.073C515.074 848.96 515.81 861.56 513.695 866.894C511.579 872.228 508.084 871.401 502.658 874.988C497.232 878.667 487.758 885.748 481.228 888.691C474.698 891.635 472.583 892.186 463.386 892.37C454.189 892.554 435.426 889.795 425.677 889.887C415.836 889.979 428.62 892.646 404.524 893.014C380.427 893.382 333.246 894.762 281.006 892.278C228.765 889.795 138.265 884.369 91.2674 878.299C44.2698 872.136 19.6213 861.284 -0.980407 855.674C-21.4901 850.063 -27.1924 845.833 -32.0669 844.545C-36.9414 843.257 -28.48 852.455 -30.1355 847.856C-31.791 843.257 -39.3327 827.898 -41.9999 817.137C-44.6671 806.285 -44.5751 797.639 -46.2306 783.2C-47.8861 768.76 -51.2891 741.72 -51.7489 730.132C-52.3007 718.451 -50.3694 718.819 -49.3577 713.393C-48.346 708.059 -46.7824 707.783 -45.7707 698.034C-44.6671 688.285 -42.0919 679.087 -42.8276 654.623C-43.5634 630.158 -49.0817 572.768 -50.1854 551.246C-51.289 529.725 -50.1854 535.151 -49.3577 525.586C-48.5299 516.021 -46.2306 500.754 -45.2189 493.948C-44.2072 487.142 -46.4145 491.925 -43.5634 484.751C-40.6203 477.669 -30.9633 456.423 -27.7443 451.089C-24.4333 445.755 -23.4215 452.653 -23.7894 452.469C-24.0653 452.377 -28.388 451.917 -29.4917 450.353M-29.8596 445.939C-29.3998 445.755 -28.2961 450.077 -27.3764 447.042C-26.4566 444.007 -25.353 431.315 -24.3413 427.636C-23.3296 423.957 -21.6741 426.257 -21.1223 425.061C-20.4785 423.865 -21.6741 421.474 -20.6624 420.738C-19.7427 420.002 -19.9266 422.946 -15.604 420.83C-11.2813 418.715 -3.92352 411.265 5.27367 408.23C14.3789 405.195 33.0492 402.804 39.1193 402.62C45.1895 402.436 41.2347 406.299 41.8785 407.31C42.5223 408.23 40.6829 406.575 42.8902 408.414C45.0975 410.253 51.9954 413.656 54.8466 418.163C57.7897 422.67 57.3298 421.382 60.2729 435.27C63.216 449.158 71.2175 485.67 72.873 501.306C74.5285 516.941 70.9416 521.631 70.1139 529.265C69.3781 536.807 68.4584 543.521 68.2744 546.832C68.0905 550.143 69.4701 549.775 69.1942 549.499C68.8263 549.223 66.435 546.188 66.1591 545.176C65.8832 544.257 66.9868 544.624 67.4467 543.705C67.9985 542.785 67.2628 542.325 69.3781 539.75C71.5854 537.175 73.7927 530.093 80.3227 528.437C86.9447 526.782 102.212 528.805 108.926 529.633C115.64 530.553 117.295 531.197 120.79 533.772C124.377 536.347 128.056 541.405 130.172 545.268C132.287 549.131 132.287 550.327 133.574 556.949C134.862 563.571 136.15 579.482 137.897 584.908C139.645 590.334 142.956 585.552 143.783 589.507C144.611 593.462 142.956 601.647 142.864 608.729C142.68 615.811 143.14 626.755 143.048 631.906C142.956 637.056 139.737 642.391 142.404 639.999C145.071 637.608 151.141 621.513 159.051 617.466C166.96 613.419 182.412 615.443 190.229 615.719C198.047 616.087 201.082 616.822 205.956 619.674C210.831 622.433 214.97 627.767 219.66 632.458C224.351 637.148 229.317 639.447 234.192 647.725C238.974 656.094 245.136 680.559 248.631 682.49C252.218 684.422 253.874 669.522 255.529 659.405C257.185 649.288 258.013 629.147 258.748 621.513C259.484 613.787 259.024 615.259 260.036 613.235C261.14 611.212 262.335 612.684 265.094 609.557C267.945 606.43 268.129 599.9 276.867 594.657C285.604 589.323 309.793 581.045 317.334 577.826C324.968 574.699 319.174 574.147 322.393 575.803C325.612 577.458 333.981 587.759 336.741 587.759C339.5 587.851 340.787 584.264 338.856 575.987C336.924 567.709 330.486 552.074 324.876 538.094C319.174 524.115 308.781 501.949 304.918 492.016C301.055 482.084 301.607 483.923 301.515 478.313C301.423 472.702 303.814 461.942 304.366 458.263C304.918 454.492 303.171 459.642 304.918 455.872C306.666 452.193 311.908 441.34 315.219 436.19C318.53 431.039 316.139 428.004 324.876 425.061C333.613 422.118 360.101 419.911 367.551 418.531C375.001 417.151 371.782 419.911 369.758 416.691C367.735 413.472 358.906 407.77 355.227 398.941C351.548 390.02 349.617 372.177 347.685 363.348C345.846 354.518 342.719 350.932 343.914 346.149C345.11 341.366 353.019 339.987 354.859 334.469C356.698 328.95 352.376 318.557 355.135 312.947C357.894 307.337 364.792 305.405 371.046 300.623C377.392 295.932 386.681 287.195 392.751 284.712C398.822 282.229 403.88 285.172 407.835 285.815C411.79 286.459 411.514 290.966 416.112 288.391C420.711 285.815 428.528 273.491 435.61 270.18C442.692 266.869 451.797 267.605 458.695 268.341C465.593 269.077 473.319 272.204 477.09 274.779C480.86 277.354 480.677 275.699 481.78 283.7C482.884 291.61 483.712 316.258 483.712 322.604C483.712 328.858 482.608 313.867 481.688 321.501C480.769 329.134 477.917 355.346 478.469 368.774C479.021 382.202 482.884 389.1 485.183 402.252C487.483 415.404 491.437 434.442 492.449 447.41C493.461 460.286 490.794 470.679 491.161 479.784C491.529 488.889 494.472 489.717 494.564 502.225C494.656 514.734 491.805 541.497 491.713 554.649C491.621 567.801 493.369 573.963 494.104 581.413C494.84 588.863 495.668 591.898 496.22 599.164C496.68 606.43 497.232 616.822 496.772 624.824C496.312 632.917 494.196 641.103 493.461 647.449C492.633 653.703 491.069 655.543 492.081 662.44C493.001 669.246 497.783 681.571 499.163 688.56C500.451 695.458 500.45 687.365 500.267 703.92C500.083 720.475 497.599 771.427 497.783 787.89C497.967 804.353 500.267 797.915 501.462 802.974C502.75 807.94 503.762 813.274 505.417 817.873C507.165 822.472 510.2 825.139 511.947 830.381C513.694 835.624 515.35 843.533 515.81 849.236C516.362 854.846 517.465 860.272 514.89 864.319C512.315 868.366 506.245 870.021 500.542 873.516C494.748 877.011 486.011 881.61 480.217 885.197C474.422 888.783 474.882 893.566 465.501 895.038C456.12 896.509 434.783 894.302 423.93 894.21C413.169 894.118 423.838 894.578 400.937 894.302C377.944 893.934 337.016 895.038 286.248 892.278C235.387 889.427 143.599 883.081 95.6821 877.379C47.7647 871.677 20.1731 862.204 -1.16436 857.973C-22.5018 853.742 -27.3764 853.742 -32.4348 852.087C-37.4933 850.523 -29.4917 854.57 -31.3311 848.316C-33.1706 842.062 -40.2525 825.323 -43.3795 814.746C-46.5985 804.169 -49.8175 798.743 -50.6452 784.671C-51.473 770.599 -48.9897 742.548 -48.3459 730.408C-47.7941 718.267 -47.3343 717.072 -47.1503 711.645C-46.9664 706.219 -47.7022 707.507 -47.3343 697.666C-46.9664 687.917 -44.5751 677.984 -44.7591 653.059C-44.943 628.043 -48.254 569.457 -48.438 547.568C-48.6219 525.586 -46.0467 530.369 -45.7707 521.356C-45.4948 512.434 -46.9664 500.202 -46.8744 493.856C-46.7824 487.418 -48.7139 489.349 -45.2189 483.095C-41.724 476.841 -28.7559 461.758 -25.8128 456.239C-22.8697 450.721 -27.1005 450.905 -27.5603 450.077C-28.0202 449.25 -28.572 451.273 -28.664 451.181L-29.8596 445.939Z"
      stroke="black" />
    <path fill-rule="evenodd" clip-rule="evenodd"
      d="M-34.4285 565.622L-7.02091 550.539L0.336842 546.86L27.1008 546.676L39.8848 555.413L63.5216 594.593L75.386 691.164L87.9861 674.977L93.9643 665.871L121.924 668.814L137.467 672.953L150.435 683.99L156.873 692.083L162.483 750.394V728.872L179.038 709.374L188.787 704.592L209.573 703.12L223.829 701.373L278 724.09L262.641 709.098L262.089 700.085L260.342 690.796L262.457 676.632L278.092 664.676L297.774 648.489L310.926 640.763L358.2 643.154L355.44 641.775L345.14 628.255L329.504 599.192L327.665 585.304L334.287 565.438L333.643 553.758L349.922 536.375L361.419 521.016L387.815 507.404L402.806 504.737L409.704 510.347L423.5 519.452L422.672 524.97L425.799 507.312L430.857 502.805L444.653 494.252L476.935 483.675L494.594 481.652L519.978 497.103L522.462 501.885L527.152 510.531L532.211 553.942L534.694 603.882L533.682 649.316L526.416 680.219L528.9 729.976L519.61 760.143L525.405 799.047L520.806 912.448L524.025 976.828L521.542 1002.3L515.288 1019.6L488.432 1020.7L425.707 1025.02L355.533 1031.74L301.821 1039.65L162.024 1043.88L115.302 1036.98L53.1287 1028.24L7.60265 1024.93L-12.0794 1016.93L-37.6475 1017.39L-34.1526 999.638L-25.1393 969.563L-7.48077 888.995L-11.6195 874.096L-12.6312 825.259L-25.0474 796.471L-34.0606 734.85L-50.3397 702.384L-50.4316 697.05L-43.4418 661.181L-49.4199 621.725L-50.9834 599.376L-52.0872 585.028L-47.7644 579.97L-33.4168 573.532L-27.5306 562.403L-28.2664 563.415"
      fill="white" />
    <path
      d="M-26.2825 572.963C-23.7992 571.308 -18.097 564.502 -13.4064 560.547C-8.71584 556.592 -3.01358 551.626 1.76896 549.327C6.5515 547.027 10.2304 546.292 15.2888 546.659C20.3473 547.027 26.8773 549.051 31.8438 551.442C36.7183 553.833 41.7767 558.892 44.8118 561.283C47.8469 563.674 47.2951 561.559 49.9623 565.79C52.6295 570.02 58.6996 579.585 60.9989 586.851C63.2982 594.209 60.631 592.369 63.85 609.66C67.069 626.951 77.1859 676.892 80.221 690.412C83.2561 703.931 80.5889 692.711 82.1525 690.871C83.716 688.94 88.0387 681.03 89.6942 678.915C91.4416 676.8 90.8898 679.467 92.4533 678.087C94.0168 676.8 93.9248 672.569 99.2592 670.914C104.594 669.258 118.113 667.786 124.368 668.246C130.622 668.706 131.725 670.546 136.6 673.489C141.474 676.432 150.028 681.122 153.431 686.089C156.834 691.055 155.454 692.619 157.294 703.104C159.133 713.588 162.904 743.755 164.283 748.814C165.663 753.872 162.26 737.869 165.571 733.638C168.882 729.408 180.93 726.281 184.333 723.705C187.644 721.13 185.069 719.751 185.621 718.095C186.173 716.44 186.265 715.796 187.828 713.772C189.392 711.749 188.472 706.874 195.186 705.771C201.808 704.575 214.5 704.023 227.744 706.875C240.988 709.726 267.844 721.038 274.742 722.786C281.64 724.533 270.695 720.854 269.315 717.451C268.028 714.14 267.66 707.334 266.832 702.828C266.004 698.321 264.165 693.723 264.533 690.32C264.901 686.825 266.74 684.985 268.855 682.042C270.971 679.007 274.834 675.42 277.133 672.385C279.432 669.35 278.972 666.407 282.651 663.924C286.238 661.532 292.492 660.98 298.93 657.761C305.46 654.542 311.438 646.449 321.555 644.61C331.672 642.77 354.757 647.553 359.816 646.909C364.874 646.357 355.125 646.541 351.722 641.115C348.319 635.688 342.525 621.433 339.398 614.443C336.271 607.453 333.052 605.521 332.684 599.359C332.316 593.197 336.823 582.253 337.007 577.378C337.191 572.504 331.948 575.447 333.696 570.02C335.443 564.686 344.916 550.43 347.583 545.188C350.251 539.945 346.664 541.509 349.791 538.474C352.826 535.347 360.827 530.196 366.07 526.702C371.312 523.207 375.543 520.08 381.061 517.596C386.579 515.113 394.949 512.354 398.904 511.802C402.859 511.25 400.467 512.63 404.974 514.101C409.48 515.481 421.805 518.792 426.035 520.355C430.266 521.919 430.45 521.643 430.358 523.482C430.266 525.414 425.484 533.599 425.484 531.852C425.484 530.104 429.163 516.952 430.45 512.63C431.738 508.307 430.358 507.571 432.933 505.824C435.509 503.984 440.199 503.984 445.809 501.777C451.42 499.57 460.617 495.339 466.595 492.764C472.481 490.281 477.08 488.073 481.403 486.694C485.725 485.314 488.025 483.383 492.623 484.762C497.314 486.234 505.499 493.04 509.362 495.431C513.225 497.822 512.581 498.65 515.616 499.386C518.651 500.122 524.17 496.995 527.205 499.754C530.24 502.513 532.907 506.836 533.735 515.757C534.654 524.678 531.619 545.372 532.539 553.373C533.459 561.375 538.517 555.397 538.977 563.674C539.437 571.952 536.034 588.599 535.39 602.854C534.746 617.11 535.206 637.62 535.022 649.208C534.838 660.797 535.114 665.487 534.194 672.293C533.275 679.007 530.792 678.915 529.504 689.768C528.124 700.62 526.009 728.028 526.101 737.317C526.193 746.606 530.516 738.973 530.056 745.411C529.596 751.941 523.986 766.104 523.434 776.313C522.882 786.522 525.365 783.119 526.561 806.848C527.756 830.577 530.056 894.865 530.608 918.87C531.159 942.874 530.24 938.736 529.596 951.06C529.044 963.292 527.848 981.227 527.021 992.539C526.193 1003.85 525.825 1014.06 524.629 1018.84C523.434 1023.63 525.457 1020.87 520.031 1021.05C514.696 1021.23 506.603 1018.48 492.347 1019.95C478.092 1021.42 457.306 1027.67 434.405 1029.88C411.504 1032 378.854 1030.52 355.033 1032.91C331.304 1035.21 325.694 1041.28 291.848 1043.77C258.003 1046.25 191.875 1049.1 151.867 1047.91C111.859 1046.71 76.0823 1039.81 51.8937 1036.87C27.705 1033.93 16.3925 1031.35 6.55152 1029.88C-3.28948 1028.41 -0.898223 1028.68 -6.96837 1027.95C-13.0385 1027.21 -25.3628 1026.66 -29.9614 1025.37C-34.56 1024.09 -34.376 1024.09 -34.8359 1020.31C-35.2957 1016.45 -34.6519 1010.75 -32.9045 1002.38C-31.157 994.011 -26.7423 979.387 -24.2591 970.19C-21.7758 960.993 -20.6722 954.831 -18.189 947.289C-15.7977 939.747 -12.3027 933.033 -9.72753 924.848C-7.15231 916.662 -3.10555 903.97 -2.82963 897.992C-2.55372 892.014 -6.87641 891.462 -8.07204 888.887C-9.17571 886.312 -9.45161 891.094 -9.72753 882.449C-10.0034 873.804 -9.4516 845.568 -10.0034 836.739C-10.5553 827.91 -10.9231 833.52 -13.0385 829.381C-15.0619 825.334 -20.8561 817.241 -22.3277 812.274C-23.7992 807.308 -20.5802 804.181 -21.7758 799.49C-22.8795 794.8 -28.2139 787.902 -29.2256 784.039C-30.2373 780.268 -27.754 783.395 -27.938 776.681C-28.1219 769.967 -28.9496 751.021 -30.3292 743.755C-31.7088 736.489 -34.4679 739.249 -36.3074 733.087C-38.1468 727.016 -40.5381 714.14 -41.4578 707.058C-42.4695 700.069 -41.9177 697.861 -42.1936 690.871C-42.4695 683.882 -42.1936 671.281 -43.0214 665.395C-43.8491 659.509 -45.9644 661.716 -47.0681 655.738C-48.1718 649.76 -49.7353 637.068 -49.8273 629.71C-49.9192 622.26 -47.436 616.65 -47.7119 611.132C-47.9878 605.613 -52.7704 600.923 -51.3908 596.6C-50.0112 592.277 -43.2053 587.955 -39.6184 585.012C-36.0315 582.069 -31.8927 581.425 -29.8693 579.125C-27.754 576.734 -27.4781 572.32 -27.2022 570.848C-26.9263 569.376 -27.3861 570.48 -28.2139 570.204M-30.4212 567.997C-27.754 565.974 -18.005 560.823 -12.5786 557.42C-7.15229 554.017 -2.27778 549.695 2.13687 547.671C6.55153 545.648 9.67854 544.912 14.0012 545.464C18.3239 546.016 23.2904 548.867 27.981 550.798C32.6715 552.638 38.6497 554.017 41.9607 556.776C45.3637 559.535 44.8118 562.019 48.2148 567.261C51.6178 572.504 59.0675 580.965 62.1945 588.323C65.3216 595.68 64.5858 594.117 67.3449 611.316C70.1041 628.606 76.1743 679.007 78.7495 691.883C81.2327 704.667 81.2327 690.136 82.4284 688.112C83.624 686.089 84.0839 682.502 85.8313 679.927C87.5788 677.352 90.246 674.316 92.8212 672.845C95.3964 671.373 96.0402 671.741 101.191 671.281C106.341 670.73 118.113 668.614 123.816 669.718C129.518 670.821 131.265 675.052 135.588 677.719C139.819 680.295 145.337 681.398 149.384 685.445C153.431 689.492 156.742 691.147 159.777 701.816C162.812 712.485 166.491 743.203 167.41 749.182C168.422 755.068 163.64 742.376 165.663 737.409C167.686 732.535 176.332 722.694 179.367 719.751C182.402 716.807 182.586 721.682 184.057 719.843C185.529 718.003 185.989 710.829 188.38 708.806C190.771 706.783 191.231 708.07 198.313 707.61C205.395 707.15 217.259 703.104 230.779 705.863C244.299 708.622 273.454 722.418 279.34 724.349C285.318 726.281 268.947 720.394 266.372 717.359C263.797 714.324 264.257 710.186 263.981 706.323C263.613 702.46 263.981 697.769 264.349 694.09C264.625 690.412 264.717 688.296 265.82 684.065C267.016 679.927 268.488 672.845 271.339 668.982C274.19 665.027 278.88 663.464 282.927 660.613C287.066 657.762 290.009 653.991 295.895 652.059C301.781 650.128 306.932 649.852 318.244 649.116C329.557 648.288 358.068 648.932 363.679 647.277C369.289 645.621 356.413 645.161 351.906 638.999C347.308 632.837 339.582 616.834 336.271 610.396C332.96 603.958 332.96 606.073 332.224 600.463C331.488 594.853 330.845 582.161 331.58 576.826C332.316 571.584 334.247 574.343 336.823 568.917C339.398 563.49 344.272 549.511 347.124 544.36C349.975 539.21 350.894 540.865 354.205 537.83C357.516 534.795 361.379 530.38 366.806 526.518C372.232 522.563 381.521 516.953 386.947 514.377C392.374 511.802 395.777 511.434 399.364 511.066C402.951 510.698 404.606 510.514 408.193 512.354C411.78 514.193 417.574 519.712 420.977 522.103C424.38 524.494 427.415 525.598 428.427 526.61C429.438 527.621 426.679 530.564 426.863 528.081C427.047 525.598 427.507 515.849 429.254 511.618C431.002 507.387 435.233 504.168 437.716 502.513C440.199 500.857 439.739 503.525 444.338 501.869C448.937 500.214 459.789 494.971 465.124 492.304C470.366 489.637 471.194 486.786 475.976 485.866C480.759 484.946 488.668 486.05 493.911 486.97C499.153 487.889 503.292 489.361 507.431 491.384C511.569 493.408 515.708 496.903 518.559 499.294C521.502 501.685 522.606 502.605 524.813 505.824C527.021 509.043 530.332 509.779 531.895 518.608C533.367 527.437 533.091 551.534 533.735 558.616C534.378 565.79 535.758 553.097 535.942 561.375C536.126 569.652 534.746 593.565 534.838 608.465C534.93 623.364 537.505 640.563 536.494 650.864C535.482 661.164 530.332 663.28 528.768 670.27C527.205 677.26 527.572 681.95 527.205 692.895C526.837 703.839 526.561 726.373 526.561 736.122C526.561 745.871 528.032 744.307 527.573 751.113C527.113 758.011 523.526 767.576 523.71 777.233C523.894 786.89 527.756 785.327 528.768 809.239C529.78 833.152 529.136 896.337 529.596 920.525C530.056 944.714 531.343 941.955 531.435 954.555C531.527 967.155 531.527 985.457 530.332 995.942C529.136 1006.52 526.653 1013.51 524.353 1017.74C522.054 1022.06 521.87 1020.68 516.72 1021.69C511.661 1022.71 508.35 1022.34 493.819 1023.72C479.379 1025.1 452.615 1027.67 429.806 1029.88C406.997 1032.09 379.406 1034.75 356.965 1037.05C334.523 1039.35 330.385 1042.66 295.435 1043.77C260.486 1044.87 187.736 1045.15 147.085 1043.86C106.433 1042.57 75.0706 1038.53 51.8937 1036.04C28.8087 1033.56 18.5078 1031.08 8.4829 1028.96C-1.54204 1026.84 -1.45002 1024.82 -8.25594 1023.44C-15.0619 1022.06 -28.6737 1021.79 -32.3526 1020.77C-36.0315 1019.76 -30.1453 1019.58 -30.2373 1017.19C-30.4212 1014.8 -34.6519 1013.78 -33.2723 1006.43C-31.8927 999.161 -24.9029 982.606 -22.2357 973.409C-19.5685 964.12 -18.9247 958.326 -17.2692 950.784C-15.6137 943.242 -14.2342 936.712 -12.2108 928.251C-10.2794 919.79 -6.32456 906.086 -5.40484 899.832C-4.48512 893.577 -5.4968 894.405 -6.60046 890.634C-7.70412 886.864 -10.9231 886.404 -12.1188 877.298C-13.3144 868.193 -13.4064 844.464 -13.6823 836.187C-13.9582 827.818 -13.2225 831.68 -13.8663 827.358C-14.5101 823.035 -16.0736 814.574 -17.5451 810.067C-19.0167 805.652 -20.7641 804.089 -22.5116 800.594C-24.2591 797.099 -27.4781 793.052 -28.2139 789.097C-29.0416 785.143 -26.8343 784.959 -27.2941 777.049C-27.846 769.139 -30.1453 748.814 -31.2489 741.64C-32.3526 734.466 -31.5249 738.789 -33.9161 733.822C-36.2154 728.856 -43.2973 719.475 -45.3207 711.933C-47.3441 704.391 -46.2404 696.298 -46.1484 688.388C-46.0564 680.479 -44.4009 670.638 -44.7688 664.843C-45.1367 659.049 -47.7119 659.049 -48.2637 653.439C-48.8156 647.829 -47.528 638.08 -48.0798 631.182C-48.6317 624.284 -50.839 617.11 -51.5748 612.143C-52.3105 607.177 -53.966 606.165 -52.4945 601.291C-51.0229 596.416 -46.7002 586.391 -42.7454 583.08C-38.7906 579.769 -31.6168 584 -28.6737 581.241C-25.8226 578.482 -25.6387 568.457 -25.4547 566.525C-25.2708 564.594 -27.2022 569.101 -27.754 569.836L-30.4212 567.997Z"
      stroke="black" />
    <path fill-rule="evenodd" clip-rule="evenodd"
      d="M-68.0542 429.547L-61.4615 447.801L-36.3715 468.739L23.3167 484.548L29.6698 483.973L24.4279 490.042L16.308 509.535L16.4304 514.827L26.771 517.476L43.3881 516.134L142.413 500.115L92.5948 533.22L89.3669 533.136L87.6883 540.146L84.5916 540.31L214.901 546.064L131.676 557.718L102.667 555.788L35.1603 542.983L17.6648 539.092L-85.7671 515.568L-99.4546 497.7L-109.114 493.175L-110.509 481.327L-90.2396 456.703L-82.8585 452.391L-74.2808 426.297L-71.348 435.352L-70.5123 428.721"
      fill="#73D2DE" />
    <path fill-rule="evenodd" clip-rule="evenodd"
      d="M378.107 122.993L365.2 140.67L356.866 157.794L361.745 173.31L393.091 186.347L403.53 196.972L366.304 238.187L372.671 240.814L389.322 247.832L387.254 253.162L383.509 258.517L369.638 266.788L268.093 286.337L255.661 288.131L240.623 296.662L239.669 296.041L239.772 300.462L301.065 310.621L308.936 316.386L306.786 316.637L294.622 324.271L260.548 336.825L255.515 345.125L262.778 351.654L265.415 352.53L241.65 362.415L241.165 363.858L246.039 374.468L242.404 374.521L206.327 386.599L157.065 389.393L106.89 394.876L161.034 393.484L323.475 368.558L373.439 350.356L470.935 308.037L467.225 302.029L470.148 294.721L474.448 277.77L519.366 225.669L516.162 221.158L506.208 198.808L501.399 180.85L490.317 155.387L488.041 137.482L471.809 132.771L382.208 126.266L379.584 129.828"
      fill="#73D2DE" />
    <path fill-rule="evenodd" clip-rule="evenodd"
      d="M233.024 -20.8625L241.345 -20.1433L162.624 -16.783L131.356 -9.09497L115.762 -0.0813748L106.311 30.1883L101.403 37.2633L80.4468 48.7626L70.8732 54.4178L13.2633 63.0091L-10.0797 61.3743L-16.6265 71.0604L-20.7584 75.0115L-25.7928 83.2894L-16.0032 94.856L-63.9335 108.756L-70.359 113.291L-65.0097 114.463L-61.2703 128.239L-13.4872 146.11L12.6046 150.847L70.0924 156.25L82.4078 159.495L83.4716 168.81L85.7305 173.589L72.3854 189.947L129.098 204.608L117.873 207.689L132.268 220.183L115.828 226.454L93.6206 222.313L21.9735 199.913L-80.7044 156.877L-105.974 148.838L-123.388 131.744L-118.352 119.852L-115.215 109.03L-92.2289 88.7463L-108.035 69.6983L-106.614 50.055L-100.781 31.5273L-82.6754 15.3301L-61.8983 -18.9443L-49.8497 -28.9397L-20.7049 -47.6954L-10.8747 -57.7525L7.66948 -58.4759L57.2743 -49.6823L111.986 -43.4891L131.758 -41.6543L159.371 -43.4112L215.38 -33.1198L227.631 -30.8899L233.558 -23.4318"
      fill="#73D2DE" />
    <path
      d="M-65.954 427.004C-64.9924 428.718 -68.3748 433.389 -64.7923 438.445C-61.2098 443.501 -49.7712 452.764 -44.3863 457.41C-38.9868 462.1 -35.8299 463.711 -32.4971 466.571C-29.1643 469.432 -32.7372 472.809 -24.4041 474.53C-16.071 476.25 9.38693 475.538 17.4142 476.779C25.4414 478.02 22.5058 479.245 23.8175 482.006C25.1292 484.767 26.6601 488.473 25.2988 493.243C23.9229 497.97 17.9857 506.308 15.635 510.44C13.2844 514.572 10.9169 516.77 11.2817 517.86C11.6464 518.95 14.8438 517.784 18.0126 517.111C21.2105 516.381 23.6643 513.426 30.3672 513.608C37.0701 513.789 41.3366 519.44 58.2301 518.199C75.1237 516.959 117.932 507.968 131.685 506.179C145.437 504.389 142.399 505.454 140.817 507.39C139.234 509.325 130.151 513.043 122.189 517.792C114.227 522.541 98.201 532.461 92.9706 535.811C87.7402 539.161 89.8163 536.527 90.952 537.892C92.0876 539.258 79.8631 542.136 99.6972 544.033C119.531 545.929 193.947 548.083 209.869 549.156C225.791 550.228 209.142 548.72 195.084 550.612C181.026 552.504 140.817 558.831 125.524 560.505C110.23 562.18 110.839 560.668 103.293 560.574C95.7467 560.481 91.4019 562.711 80.2177 559.859C69.0336 557.008 46.0347 546.522 36.1879 543.465C26.3412 540.408 38.837 546.021 21.0355 541.505C3.234 536.989 -53.4161 520.551 -70.5341 516.194C-87.6521 511.837 -75.7654 518.817 -81.6578 515.407C-87.5502 511.997 -101.143 500.207 -105.801 495.559C-110.459 490.912 -110.3 490.083 -109.635 487.436C-109.012 484.804 -103.795 482.573 -101.952 479.678C-100.167 476.753 -98.589 470.747 -98.6915 470.151C-98.7939 469.555 -104.062 478.153 -102.552 476C-101.057 473.803 -92.3773 460.911 -89.6773 457.098C-86.9919 453.242 -88.6451 456.995 -86.4106 452.951C-84.1762 448.906 -78.738 436.469 -76.3286 432.802C-73.9628 429.15 -73.4086 430.661 -72.0997 430.951C-70.7908 431.24 -68.7958 434.015 -68.3153 434.581C-67.8349 435.148 -68.5621 434.858 -69.3042 434.379M-69.5703 430.541C-68.2737 432.822 -65.8558 436.57 -62.2584 441.961C-58.661 447.351 -52.5848 458.99 -47.9567 462.968C-43.3286 466.947 -37.5889 463.96 -34.4463 465.817C-31.3036 467.675 -37.5073 471.738 -29.1008 474.113C-20.6942 476.488 7.16539 478.172 16.0221 480.009C24.8787 481.845 22.0157 482.997 23.9228 485.074C25.8298 487.151 29.5683 488.76 27.4497 492.427C25.3311 496.093 13.4468 504.045 11.2984 507.043C9.14998 510.04 13.8306 509.105 14.6609 510.427C15.4911 511.749 14.2725 514.048 16.2655 515.078C18.2586 516.108 19.5236 516.121 26.634 516.651C33.7444 517.18 41.3957 520.196 59.0591 518.358C76.7079 516.477 119.459 508.185 132.614 505.48C145.77 502.775 140.242 500.455 138.019 502.217C135.797 503.979 127.517 510.676 119.207 516.124C110.882 521.527 92.5293 531.304 88.0114 534.755C83.4935 538.206 90.9201 535.479 92.1722 536.902C93.4242 538.326 76.3297 541.864 95.6691 543.441C115.008 545.018 192.387 544.436 208.354 546.221C224.335 548.049 205.103 551.575 191.511 554.28C177.92 556.985 141.46 561.331 126.747 562.569C112.035 563.807 111.597 562.79 103.163 561.636C94.7143 560.439 86.6428 558.631 76.1417 555.502C65.597 552.388 49.5661 545.049 40.0257 542.908C30.4854 540.767 37.8057 546.851 18.8851 542.758C-0.0354782 538.665 -56.0737 523.331 -73.4541 518.335C-90.8346 513.339 -80.4213 515.915 -85.4992 512.765C-90.5481 509.558 -100.544 503.448 -103.849 499.221C-107.154 494.994 -105.399 491.255 -105.302 487.489C-105.204 483.723 -104.352 478.735 -103.191 476.553C-102.002 474.313 -98.9919 474.469 -98.1926 474.105C-97.3934 473.74 -99.6149 476.375 -98.4831 474.396C-97.3513 472.417 -94.1454 465.914 -91.4307 462.291C-88.7159 458.667 -84.4563 458.212 -82.1507 452.786C-79.8451 447.36 -78.4356 433.895 -77.597 429.736C-76.7585 425.576 -78.5311 426.654 -77.0758 427.816C-75.6205 428.977 -70.3348 435.936 -68.9382 436.632C-67.5126 437.27 -68.4773 432.793 -68.5802 431.761L-69.5703 430.541Z"
      stroke="black" stroke-width="0.5" />
    <path
      d="M379.253 127.151C377.016 129.24 368.381 136.746 365.519 139.51C362.657 142.274 364.092 140.657 362.065 143.643C360.046 146.674 354.68 154.941 353.443 157.643C352.205 160.345 353.805 158.605 354.586 159.818C355.368 161.031 356.828 163.149 358.23 164.95C359.633 166.751 359.078 167.553 363.083 170.563C367.089 173.573 377.009 180.834 382.211 182.972C387.414 185.11 392.163 182.19 394.508 183.259C396.852 184.328 394.537 187.272 396.239 189.439C397.897 191.615 402.709 193.917 404.535 196.249C406.361 198.58 409.376 201.537 407.196 203.429C405.017 205.321 397.335 202.138 391.413 207.608C385.492 213.079 375.711 230.981 371.706 236.196C367.709 241.456 367.269 237.751 367.417 239.079C367.565 240.407 371.435 243.442 372.488 244.092C373.504 244.795 371.517 242.866 373.623 243.137C375.728 243.409 382.354 244.119 385.183 245.801C388.05 247.429 390.546 250.62 390.711 253.067C390.876 255.514 388.519 257.718 386.073 260.453C383.671 263.18 379.416 267.786 376.151 269.362C372.885 270.937 373.046 268.478 366.565 269.844C360.084 271.21 353.599 274.867 337.347 277.496C321.095 280.126 282.961 283.465 268.991 285.539C255.022 287.613 257.304 288.6 253.546 290.031C249.787 291.463 248.003 293.47 246.432 294.083C244.861 294.696 245.148 292.68 244.083 293.762C243.018 294.844 240.613 299.861 240.058 300.663C239.503 301.465 240.169 297.933 240.79 298.521C241.411 299.109 235.469 302.152 243.793 304.236C252.116 306.321 280.348 309.69 290.716 310.935C301.128 312.171 303.189 310.395 306.125 311.636C309.061 312.878 309.222 316.587 308.235 318.356C307.249 320.124 303.983 320.671 300.286 322.185C296.59 323.699 291.56 324.567 286.038 327.348C280.515 330.128 271.053 335.915 267.225 338.762C263.396 341.608 264.741 343.606 263.039 344.524C261.291 345.449 256.294 343.414 256.858 344.199C257.421 344.985 264.902 347.83 266.42 349.236C267.974 350.589 265.182 351.424 266.066 352.431C266.951 353.439 271.026 354.52 271.853 355.211C272.679 355.902 274.267 355.893 270.952 356.683C267.629 357.428 256.037 358.696 251.978 359.761C247.919 360.827 249.038 361.838 246.682 363.015C244.325 364.191 239.222 365.166 238.029 366.832C236.837 368.497 244.437 370.713 239.634 373.082C234.831 375.452 222.268 379.092 209.137 381.154C196.007 383.216 177.172 382.951 160.834 385.362C144.495 387.774 118.473 394.237 111.054 395.587C103.689 396.973 108.887 394.205 116.49 393.616C124.139 393.019 125.912 395.314 156.821 392.074C187.729 388.834 272.998 377.948 301.986 374.17C331.011 370.338 320.019 371.824 330.896 369.191C341.781 366.603 357.079 363.353 367.318 358.499C377.566 353.69 379.136 345.881 392.455 340.233C405.82 334.577 434.849 329.483 447.445 324.481C460.04 319.479 464.785 313.195 468.067 310.168C471.348 307.141 466.812 306.611 467.186 306.356C467.606 306.092 470.44 309.082 470.555 308.687C470.662 308.247 467.993 308.733 467.844 303.806C467.696 298.879 468.224 284.062 469.692 279.029C471.123 274.048 475.457 274.241 476.547 273.809C477.637 273.377 474.541 278.707 476.087 276.416C477.633 274.126 480.745 265.802 485.914 260.048C491.082 254.294 501.622 247.236 507.053 241.902C512.485 236.568 516.667 230.526 518.361 228.021C520.055 225.517 517.312 228.68 517.246 226.776C517.18 224.872 520.268 220.524 517.957 216.552C515.645 212.58 506.458 206.774 503.414 202.888C500.37 199.002 499.071 195.967 499.551 193.216C500.024 190.42 506.041 190.353 506.184 186.261C506.274 182.133 501.223 172.864 500.207 168.562C499.191 164.261 501.136 163.393 500.087 160.453C499.038 157.512 496.673 154.017 493.95 150.867C491.227 147.717 485.63 143.922 483.705 141.562C481.817 139.148 484.535 137.906 482.557 136.537C480.587 135.213 476.253 133.992 471.951 133.466C467.649 132.94 462.62 133.808 456.731 133.291C450.842 132.773 441.182 130.278 436.535 130.422C431.843 130.575 431.637 134.071 428.697 134.091C425.748 134.067 423.832 131.752 418.823 130.42C413.814 129.088 401.447 126.104 398.659 126.191C395.871 126.277 404.668 130.705 402.221 130.87C399.774 131.035 387.256 127.471 383.896 127.241C380.536 127.011 382.979 129.651 382.087 129.626C381.186 129.556 378.846 127.739 378.607 126.941M382.6 128.084C380.359 129.894 369.873 133.904 366.633 137.158C363.446 140.448 365.556 144.597 363.365 147.706C361.218 150.807 354.746 153.761 353.648 155.689C352.55 157.618 356.408 157.244 356.794 159.37C357.181 161.496 355.047 165.95 355.952 168.355C356.857 170.761 357.766 172.418 362.187 173.857C366.608 175.296 377.827 174.797 382.634 176.82C387.442 178.843 388.878 183.909 391.058 186.129C393.283 188.342 393.834 188.802 395.865 190.208C397.905 191.66 402.24 193.395 403.28 194.748C404.321 196.101 402.869 196.084 401.965 198.305C401.052 200.481 402.738 201.529 397.812 207.846C392.886 214.164 377.462 230.849 372.508 236.237C367.553 241.625 368.416 239.178 368.054 240.272C367.639 241.329 368.737 241.456 370.131 242.698C371.534 243.985 373.315 247.353 376.354 247.875C379.393 248.396 385.709 245.098 388.382 245.92C391.056 246.742 393.022 250.871 392.491 252.837C392.006 254.794 387.906 255.633 385.365 257.591C382.877 259.586 380.694 262.226 377.458 264.731C374.176 267.244 372.725 271.34 365.722 272.661C358.719 273.982 352.064 270.286 335.5 272.738C318.935 275.191 280.399 284.538 266.343 287.423C252.287 290.307 254.82 288.818 251.119 290.052C247.418 291.286 245.724 293.791 244.075 294.745C242.426 295.699 242.389 295.239 241.254 295.679C240.128 296.164 237.265 296.358 237.208 297.583C237.151 298.809 239.166 301.667 240.811 303.003C242.464 304.385 238.377 304.007 247.021 305.799C255.665 307.591 282.82 312.231 292.822 313.776C302.786 315.375 303.814 314.347 306.935 315.321C310.102 316.287 312.163 317.595 311.715 319.499C311.266 321.403 307.73 325.084 304.231 326.655C300.731 328.226 297.141 327.244 290.672 328.935C284.249 330.617 270.999 334.85 265.6 336.767C260.246 338.676 260.069 338.989 258.437 340.547C256.804 342.106 254.296 344.759 255.698 346.046C257.101 347.333 264.561 347.238 266.79 348.187C269.019 349.137 268.455 350.922 268.998 351.851C269.541 352.781 270.323 352.966 270.031 353.673C269.747 354.425 270.183 355.281 267.288 356.322C264.438 357.354 256.489 359.127 252.813 359.983C249.136 360.839 247.405 360.313 245.337 361.53C243.268 362.748 240.797 364.319 240.522 367.173C240.246 370.027 249.71 376.063 243.702 378.745C237.694 381.427 218.435 381.659 204.544 383.392C190.652 385.125 175.556 386.656 160.246 389.067C144.936 391.479 120.138 396.972 112.564 397.976C104.989 398.98 107.575 395.472 114.903 395.167C122.223 394.816 125.32 399.253 156.447 395.927C187.573 392.601 271.757 379.856 301.69 375.112C331.632 370.412 325.061 370.766 336.164 367.578C347.267 364.39 358.46 360.157 368.301 355.937C378.133 351.671 381.332 348.192 395.273 342.104C409.168 336.024 440.223 324.346 451.709 319.406C463.194 314.466 460.706 313.89 464.119 312.615C467.487 311.348 471.147 312.972 472.035 311.689C472.924 310.406 470.02 306.775 469.51 304.998C469.045 303.214 468.297 304.752 469.127 301.096C469.957 297.44 473.608 286.681 474.59 283.091C475.573 279.501 474.565 280.899 475.129 279.628C475.684 278.312 475.844 277.909 478.019 275.224C480.149 272.546 483.468 268.438 487.945 263.511C492.423 258.583 499.948 250.625 504.94 245.698C509.887 240.779 515.928 237.25 517.778 234.063C519.628 230.875 516.034 229.099 515.898 226.554C515.762 224.008 518.472 222.207 516.871 218.806C515.263 215.36 508.847 209.891 506.227 206.021C503.607 202.152 501.834 198.315 501.151 195.589C500.477 192.908 502.99 194.647 502.306 189.864C501.623 185.082 498.476 171.634 497.007 166.901C495.584 162.16 494.679 163.866 493.667 161.387C492.656 158.907 492.059 154.857 490.965 151.924C489.879 149.038 488.192 146.447 487.217 143.914C486.197 141.389 487.361 138.794 484.979 136.75C482.553 134.715 477.934 132.19 472.712 131.739C467.489 131.287 460.469 133.545 453.663 133.896C446.857 134.246 436.218 134.078 431.872 134.075C427.525 134.071 429.491 134.601 427.611 133.775C425.732 132.948 425.263 129.856 420.595 129.116C415.936 128.422 403.257 129.887 399.647 129.563C396.036 129.238 401.925 127.699 398.931 127.169C395.937 126.639 384.603 126.505 381.564 126.497C378.525 126.489 380.96 127.541 380.803 127.196C380.647 126.85 380.314 124.247 380.589 124.478L382.6 128.084Z"
      stroke="black" stroke-width="0.5" />
    <path
      d="M231.962 -21.5403C233.223 -21.6358 248.135 -21.7474 239.043 -20.625C229.951 -19.5027 193.662 -16.0382 177.184 -14.6751C160.706 -13.312 147.971 -14.2433 140.074 -12.4254C132.133 -10.6193 132.448 -5.49643 129.639 -3.85929C126.83 -2.22215 124.921 -3.81886 123.233 -2.64702C121.545 -1.47518 121.08 -1.69299 119.569 3.13902C118.057 7.97102 116.223 20.7058 113.988 26.2981C111.754 31.8905 108.989 33.5393 106.14 36.5923C103.291 39.6452 103.332 41.6532 96.9143 44.7165C90.4963 47.7799 82.5943 51.7835 67.6532 55.0732C52.7121 58.3628 20.5912 62.0699 7.36817 64.4334C-5.81045 66.8087 -7.18694 68.0625 -11.5402 69.2451C-15.9379 70.416 -17.4399 69.2594 -18.8612 71.4048C-20.2942 73.5948 -20.1348 79.4852 -20.1475 82.2396C-20.1602 84.994 -18.9974 85.6333 -18.9163 88.0321C-18.8025 90.487 -12.7238 93.9433 -19.542 96.9013C-26.3928 99.803 -52.513 102.571 -59.9443 105.51C-67.3755 108.449 -62.6006 112.703 -64.0406 114.559C-65.4805 116.414 -70.8574 113.903 -68.5041 116.52C-66.1952 119.126 -59.7546 124.817 -50.0423 130.182C-40.3628 135.491 -19.8163 143.949 -10.3167 148.497C-0.817019 153.045 2.47926 156.054 6.81049 157.48C11.1417 158.907 6.10153 157.103 15.7596 157.081C25.4177 157.059 54.2517 156.622 64.951 157.16C75.6502 157.697 75.6451 158.979 80.0232 160.228C84.4013 161.477 90.0363 162.106 91.0979 164.573C92.1477 167.085 88.5001 171.544 86.3458 175.208C84.2032 178.827 79.4367 183.562 78.1182 186.401C76.7996 189.239 70.8158 188.851 78.5795 192.228C86.3431 195.605 117.231 204.696 124.744 206.677C132.258 208.657 124.635 203.843 123.706 204.121C122.777 204.399 121.103 207.143 119.179 208.491C117.255 209.838 110.103 210.093 112.262 212.183C114.421 214.274 129.371 219.07 132.123 221.079C134.862 223.132 130.568 224.092 128.634 224.391C126.713 224.646 127.416 222.881 120.615 222.706C113.815 222.53 104.848 226.063 87.7771 223.181C70.7062 220.298 45.0829 214.687 18.2463 205.379C-8.63479 196.06 -53.1714 176.335 -73.3877 167.346C-93.6039 158.357 -95.3096 157.432 -103.028 151.356C-110.701 145.292 -116.075 134.652 -119.507 130.894C-122.939 127.137 -123.814 131.899 -123.719 128.833C-123.612 125.723 -122.774 118.574 -118.815 112.391C-114.811 106.218 -104.185 96.7515 -99.8283 91.766C-95.4714 86.7806 -91.5021 85.9723 -92.795 82.3983C-94.0878 78.8243 -105.571 72.4221 -107.585 70.3222C-109.611 68.2667 -105.335 72.2466 -104.838 70.0002C-104.341 67.7538 -105.077 63.3282 -104.417 57.0355C-103.757 50.7429 -102.6 36.0702 -100.834 32.2563C-99.0684 28.4424 -97.1475 36.1283 -93.8541 34.0959C-90.5607 32.0634 -84.5701 26.6526 -81.0083 20.1738C-77.402 13.7068 -78.0323 2.74731 -72.3381 -4.78614C-66.644 -12.3196 -55.1632 -17.9952 -46.8225 -24.9262C-38.4818 -31.8573 -27.9986 -42.4079 -22.2589 -46.5059C-16.5192 -50.6039 -15.0409 -48.455 -12.2955 -49.4908C-9.49385 -50.5592 -8.27661 -51.5698 -5.57321 -52.8068C-2.86981 -54.0438 -6.519 -58.2388 3.86874 -56.88C14.2565 -55.5213 35.4043 -47 56.6106 -44.8347C77.8168 -42.6694 114.371 -43.3536 131.083 -43.7993C147.795 -44.2449 143.163 -50.1252 156.859 -47.6092C170.556 -45.0932 200.35 -33.2949 213.184 -28.7713C225.974 -24.2594 230.186 -22.1985 233.688 -20.5146M233.873 -19.2298C234.146 -18.8248 242.801 -18.8264 233.538 -18.3196C224.275 -17.8127 194.077 -17.9734 178.308 -16.2332C162.527 -14.4486 147.656 -9.6191 138.912 -7.83432C130.168 -6.04954 128.97 -6.55546 125.822 -5.43563C122.674 -4.3158 121.506 -2.76933 120.101 -1.04744C118.697 0.674456 119.392 0.382178 117.56 4.98707C115.74 9.5475 110.545 21.682 109.235 26.4719C107.925 31.2619 112.194 30.5801 109.768 33.6496C107.331 36.7635 101.659 41.6877 94.6465 45.0223C87.634 48.3569 82.8638 50.7609 67.7145 53.758C52.5652 56.755 17.1775 60.4094 3.71554 63.138C-9.70191 65.8782 -9.23243 68.4269 -12.9119 70.1199C-16.5913 71.8129 -16.7502 71.1528 -18.1505 73.399C-19.5507 75.6451 -20.8396 80.5357 -21.3813 83.6737C-21.9231 86.8117 -22.0319 90.1114 -21.4897 92.2038C-20.9358 94.2516 -10.6712 93.0103 -17.9925 96.0734C-25.3138 99.1364 -56.9378 107.634 -65.373 110.594C-73.8083 113.553 -67.9151 112.301 -68.6271 113.92C-69.2947 115.551 -71.7269 117.383 -69.4883 120.255C-67.2498 123.127 -64.7327 126.025 -55.1607 131.021C-45.5886 136.016 -22.8175 146.677 -12.0795 150.315C-1.32988 153.908 3.81224 152.078 9.23667 152.604C14.6611 153.13 11.8646 152.916 20.5677 153.451C29.2708 153.985 52.0666 154.81 61.4762 155.911C70.8858 157.012 72.6966 158.44 77.0699 160.068C81.4432 161.696 86.5819 162.765 87.6597 165.712C88.693 168.647 85.1481 173.799 83.3026 177.734C81.457 181.67 76.6762 187.542 76.6194 189.381C76.5625 191.221 74.8137 186.671 82.9381 188.86C91.1071 191.06 118.833 199.698 125.464 202.682C132.152 205.633 124.455 205.792 122.905 206.62C121.355 207.448 117.178 207.06 116.111 207.682C115.044 208.304 114.367 207.983 116.513 210.308C118.658 212.633 126.909 219.752 128.97 221.674C131.019 223.641 131.102 221.523 128.876 222.03C126.651 222.537 122.901 224.497 115.761 224.707C108.576 224.906 101.829 226.694 85.8908 223.302C69.9528 219.91 46.2884 213.721 20.21 204.423C-5.86833 195.125 -49.7759 176.802 -70.514 167.628C-91.252 158.454 -96.3825 154.106 -104.127 149.212C-111.871 144.318 -114.089 141.547 -116.968 138.22C-119.86 134.938 -121.254 134.095 -121.44 129.387C-121.637 124.722 -121.999 116.354 -118.084 110.158C-114.124 103.974 -102.311 96.6749 -97.7715 92.2605C-93.2767 87.8345 -89.7754 86.9979 -91.0706 83.6135C-92.3542 80.1846 -103.124 74.6836 -105.452 71.7879C-107.791 68.9367 -105.446 69.6022 -105.115 66.3611C-104.828 63.1083 -104.216 57.8968 -103.711 52.3717C-103.205 46.8467 -103.471 37.0294 -102.04 33.2223C-100.653 29.4036 -98.5758 31.8054 -95.28 29.5834C-91.9959 27.4058 -86.9309 25.5074 -82.2111 20.047C-77.4912 14.5867 -73.1279 4.7055 -66.9843 -3.0899C-60.8408 -10.8853 -53.3466 -19.6561 -45.4856 -26.5709C-37.5685 -33.5185 -25.0273 -40.1509 -19.6385 -44.7217C-14.2496 -49.2926 -14.6884 -52.4988 -13.0638 -53.9726C-11.4836 -55.458 -13.4081 -53.2074 -10.0684 -53.6111C-6.7288 -54.0147 -4.23774 -56.9719 7.01608 -56.1932C18.2254 -55.4263 36.7142 -51.79 57.2977 -48.8854C77.8367 -45.9925 113.303 -40.0215 130.384 -38.8008C147.465 -37.5801 145.138 -43.1858 159.839 -41.5938C174.551 -40.0463 206.09 -33.0658 218.59 -29.4386C231.09 -25.8115 232.17 -21.2477 234.952 -19.8964L233.873 -19.2298Z"
      stroke="black" stroke-width="0.5" />
    <path
      d="M447.544 792.137C465.663 800.231 476.791 814.027 486.632 826.351C496.473 838.675 503.187 852.931 506.958 866.359C510.729 879.787 511.189 893.49 509.349 906.918C507.602 920.254 503.555 933.682 496.197 946.65C488.84 959.618 477.619 973.506 465.387 984.818C453.155 996.131 440.187 1004.96 422.988 1014.34C405.789 1023.63 383.072 1033.66 362.378 1040.74C341.685 1047.82 321.451 1053.43 298.734 1056.92C276.017 1060.42 249.989 1061.16 226.26 1061.89C202.531 1062.63 179.078 1063.91 156.177 1061.06C133.276 1058.21 109.823 1050.76 88.4859 1044.88C67.1484 1038.99 46.3628 1034.12 28.0604 1025.65C9.75794 1017.19 -7.34883 1004.87 -21.5125 993.648C-35.6762 982.427 -48.1844 970.839 -56.8297 958.239C-65.4751 945.638 -69.5218 931.751 -72.9248 918.323C-76.3278 904.803 -78.995 890.363 -77.0635 877.211C-75.1321 864.059 -69.7058 851.735 -61.3363 839.503C-52.9669 827.271 -40.0908 814.762 -26.9388 803.818C-13.7869 792.873 -0.266991 783.124 17.2996 773.743C34.9583 764.362 57.3994 754.337 78.7369 747.439C100.166 740.541 123.067 735.667 145.692 732.264C168.41 728.861 191.586 726.837 214.947 726.837C238.308 726.837 263.141 728.585 286.042 732.264C308.851 735.942 330.924 742.105 351.985 748.91C372.955 755.624 391.349 761.603 412.135 772.823C432.829 784.044 463.18 804.002 476.24 816.326C489.299 828.65 494.818 845.297 490.495 846.861L447.544 792.137ZM123.987 737.69C143.577 730.884 171.537 727.849 194.989 726.469C218.442 725.09 241.803 727.021 264.888 729.412C288.065 731.804 311.978 735.023 333.775 740.725C355.572 746.427 377.186 755.257 395.764 763.442C414.342 771.628 430.621 779.445 445.061 789.746C459.501 800.047 472.469 811.911 482.402 825.063C492.335 838.215 499.968 855.414 504.751 868.75C509.533 882.086 512.293 892.479 511.281 905.079C510.269 917.679 506.038 931.659 498.681 944.351C491.231 957.043 480.01 969.643 466.858 981.14C453.706 992.636 436.6 1003.67 419.769 1013.24C402.938 1022.8 385.463 1031.17 365.689 1038.53C345.915 1045.89 324.026 1053.15 300.941 1057.29C277.764 1061.43 251.092 1063.36 226.812 1063.55C202.623 1063.73 178.618 1061.25 155.533 1058.4C132.448 1055.54 109.731 1052.6 88.21 1046.62C66.6886 1040.65 44.7992 1031.26 26.2209 1022.53C7.64259 1013.79 -9.0963 1004.96 -22.8921 994.2C-36.5959 983.439 -47.5406 970.839 -56.1859 957.963C-64.9232 945.271 -72.189 930.463 -75.2241 917.311C-78.2592 904.159 -76.4197 892.019 -74.2124 879.051C-72.0051 866.083 -69.7058 852.195 -61.9801 839.411C-54.3465 826.627 -41.6544 813.751 -28.2265 802.254C-14.7986 790.758 0.652725 779.537 18.4953 770.34C36.3378 761.235 61.4462 752.865 78.8289 747.531C96.2115 742.197 114.606 739.437 122.975 738.242C131.345 737.046 126.746 738.242 128.954 740.449"
      fill="url(#paint1_linear)" />
    <path
      d="M272.798 731.804C295.147 732.079 317.496 738.885 339.293 744.864C361.091 750.842 385.095 759.211 403.49 767.948C421.884 776.778 436.048 786.803 449.66 797.655C463.272 808.508 475.504 820.464 485.253 832.881C495.002 845.297 504.475 859.185 508.246 871.785C512.017 884.385 510.453 896.065 507.97 908.666C505.487 921.266 500.336 934.234 493.07 947.294C485.897 960.262 477.435 974.885 464.743 986.75C452.051 998.614 434.576 1008.73 417.01 1018.3C399.443 1027.86 379.669 1037.61 359.251 1044.32C338.834 1051.04 316.76 1055.08 294.319 1058.58C271.878 1062.07 248.333 1065.11 224.696 1065.11C201.06 1065.11 175.675 1062.26 152.498 1058.49C129.322 1054.72 106.512 1048.74 85.4509 1042.58C64.3893 1036.41 43.9716 1030.16 25.9451 1021.79C7.82662 1013.33 -9.09621 1003.3 -23.0759 992.084C-37.0557 980.863 -49.4719 966.976 -57.7494 954.376C-66.0268 941.775 -70.4415 929.083 -73.0167 916.483C-75.5919 903.883 -75.316 892.111 -73.2006 878.775C-71.1773 865.439 -68.878 849.987 -60.6925 836.468C-52.507 822.948 -38.1593 808.968 -24.2716 797.931C-10.2918 786.895 5.15943 779.077 23.002 770.432C40.8445 761.694 61.6302 751.486 82.7837 745.599C104.029 739.621 127.298 737.874 150.199 734.747C173.1 731.62 199.404 727.297 220.006 727.021C240.608 726.745 265.256 731.528 274.177 732.907C283.099 734.287 275.097 732.999 273.533 735.206M436.324 783.676C455.086 791.217 464.283 804.369 475.32 816.142C486.448 827.914 497.117 841.158 502.911 854.126C508.706 867.094 510.085 880.338 510.269 894.042C510.453 907.838 509.441 923.565 504.107 936.717C498.773 949.869 490.219 961.457 478.723 973.138C467.226 984.818 451.775 996.959 435.496 1006.98C419.217 1017.01 400.823 1025.56 381.233 1033.29C361.643 1041.01 340.213 1048.83 318.14 1053.43C296.067 1058.03 272.154 1059.68 248.701 1060.7C225.248 1061.71 200.784 1061.15 177.239 1059.5C153.694 1057.84 129.138 1055.27 107.34 1050.58C85.5429 1045.89 65.585 1039.27 46.6388 1031.72C27.6926 1024.18 9.2062 1015.35 -6.33706 1005.24C-21.8803 995.119 -35.5841 983.531 -46.4368 971.022C-57.3815 958.422 -66.4867 943.063 -71.7291 929.911C-76.9715 916.759 -78.443 905.355 -77.8912 892.295C-77.3394 879.235 -75.0401 865.255 -68.4181 851.735C-61.7961 838.215 -50.0237 823.224 -38.2513 811.267C-26.4789 799.311 -13.8787 789.378 2.12436 779.813C18.0355 770.248 37.1657 761.235 57.4915 754.061C77.8173 746.887 101.178 741.461 123.987 737.046C146.796 732.631 170.525 728.493 194.346 727.389C218.166 726.285 243.827 728.309 267.003 730.608C290.18 732.907 311.518 735.482 333.131 741.093C354.745 746.703 375.53 754.153 396.868 764.454C418.205 774.754 448.188 792.505 461.248 802.806C474.4 813.107 479.643 824.603 475.504 826.075L436.324 783.676Z"
      stroke="black" stroke-width="2" />
  </g>
</svg>