<svg width="401" height="42" viewBox="0 0 401 42" fill="none" xmlns="http://www.w3.org/2000/svg">
<path d="M17.3278 4.50211L390.736 3.54057L398.039 6.46366L400.803 9.69442L401 34.6944L398.96 37.8098L389.42 39.579L17.7885 39.8098L10.3532 38.3483L6.33947 35.2713L1.53613 13.1175L7.72123 7.07904L17.4595 2.84827" fill="#D81159"/>
<path d="M381.975 2.46156C393.095 1.53848 399.016 4.15386 398.358 12.5M380.395 2.53846C393.687 3.15385 398.293 6.42308 397.174 11.5769M397.898 30.3846C398.687 36.1154 390.726 40.5 383.883 41M398.095 30.4231C397.108 37 393.818 39.1154 382.238 38.2692M19.0946 39.6538C9.35644 38.8462 3.36877 36.5385 4.22415 30.5769M17.9761 41C6.39553 40.0385 5.86909 36.6154 5.3427 31.4615M2.31597 29.7308C1.39479 22.0769 4.75053 17.4615 1 11.3462M3.17139 11.7692C1.00003 4.84615 6.59291 3.80769 18.6999 1M1.9212 13.2692C1.658 6.42309 7.5141 3.00002 18.9631 2.84617M18.1077 2.88462C108.252 1.15386 198.33 0.653865 380.856 1.30771L18.1077 2.88462ZM18.9631 1.92309C150.297 1.57693 280.908 2.00001 382.04 2.38463L18.9631 1.92309ZM397.503 13C399.609 15.8846 399.016 22.4615 398.358 28.8846L397.503 13ZM398.358 12.4231C398.358 17.8846 398.161 24.9231 397.108 30.6923L398.358 12.4231ZM382.435 40.7692C261.037 40.4615 142.401 41.3462 20.6738 40.6923L382.435 40.7692ZM382.764 39.8077C288.475 38.4231 194.711 39.2692 19.3579 39.1154L382.764 39.8077ZM3.63195 30.8077C1.92118 23.6538 4.15832 15.4615 4.35572 12.5L3.63195 30.8077Z" stroke="black" stroke-width="2" stroke-miterlimit="8"/>
</svg>
