<svg width="601" height="42" viewBox="0 0 601 42" fill="none" xmlns="http://www.w3.org/2000/svg">
<path d="M38.3395 2.89626L568.321 2.1237L581.358 1.6087L594.916 6.93055L601 34.3983L594.916 36.8018L588.659 38.1323L565.54 40.922L30.8651 40.3211L21.6525 37.8748L15.5687 35.2138L4.44434 11.9949L17.481 2.76748H38.6871" fill="#8F2D56"/>
<path d="M556.012 1.72964C578.956 2.75969 588.517 6.10732 599.989 11.6009M550.624 2.20174C580.521 0.141652 593.557 4.4764 597.208 9.75537M594.948 30.5708C589.56 38.0386 587.822 38.5536 552.362 39.6266M594.253 30.9142C601.032 36.3648 589.386 40.7854 551.145 40.4849M45.4983 40.1845C13.1675 41.3863 12.2984 36.1073 1 29.5407M44.2816 40.3991C27.0733 41.3863 12.4721 35.721 6.73598 31.7725M6.5622 11.3434C1.34756 3.7039 14.2105 1.90129 47.758 1M4.99777 10.0558C5.34541 4.90562 26.5516 2.80259 45.8458 2.63092M49.67 2.93133C226.62 2.07296 410.871 1.38631 561.401 2.97429L49.67 2.93133ZM48.4532 1.55796C150.834 2.588 254.432 3.18884 555.143 1.21459L48.4532 1.55796ZM591.124 9.88414C595.991 17.309 597.903 20.8712 594.427 31.6438L591.124 9.88414ZM594.6 11.2146C596.86 17.4378 594.427 21.8584 596.339 30.4421L594.6 11.2146ZM555.49 38.8112C435.38 39.7125 306.404 40.6996 50.8867 39.1116L555.49 38.8112ZM553.231 40.8712C392.446 38.9828 225.925 39.8841 42.7172 41L553.231 40.8712ZM2.56444 29.5407C9.86494 27.4807 3.25955 23.3176 11.0815 11.9872L2.56444 29.5407ZM6.04087 30.1416C5.34558 25.5064 5.51923 21.9871 4.99777 11.7296L6.04087 30.1416Z" stroke="black" stroke-width="2" stroke-miterlimit="8"/>
</svg>
