<svg width="202" height="42" viewBox="0 0 202 42" fill="none" xmlns="http://www.w3.org/2000/svg">
<path d="M13.0528 2.24829L189.909 1.49175L194.263 1L198.754 6.14452L200.816 32.7371L198.8 35.0445L196.692 36.3306L188.992 39.0542L10.5322 38.449L7.4616 36.0659L5.44509 33.4936L1.73291 11.0242L6.08671 2.097H13.1903" fill="#FFBC42"/>
<path d="M187.939 2.49189C193.759 1.28142 198.571 5.44243 198.296 13.3105M188.397 3.51323C193.667 2.11362 198.892 7.10682 197.563 13.2348M199.35 30.7488C199.075 35.7799 197.379 41.5675 188.076 38.8817M201 30.711C198.021 37.2551 193.896 38.9195 189.497 41M14.3823 40.1678C8.47024 38.7304 2.83323 38.163 2.19161 30.2193M14.3364 40.8109C6.27044 39.8652 1.13749 36.0068 1 29.7653M2.97069 11.9109C1.22917 6.95551 7.41613 3.24843 12.6865 2.30275M3.1082 13.1214C4.39143 6.31245 4.66641 2.26492 16.1696 3.43757M13.6031 3.1728C64.7488 4.76154 112.916 2.45407 189.588 3.02148L13.6031 3.1728ZM13.7864 2.75668C76.3896 1.47056 139.222 1.0923 188.443 2.22712L13.7864 2.75668ZM198.892 12.1C197.654 17.5093 198.709 19.7411 199.717 31.0893L198.892 12.1ZM198.846 11.6083C199.671 15.618 199.304 20.6868 199.396 31.3163L198.846 11.6083ZM186.518 40.2813C128.635 40.5839 72.1274 40.13 14.6572 40.3191L186.518 40.2813ZM188.58 40.1678C127.26 40.2056 65.6197 41.6431 13.649 39.7517L188.58 40.1678ZM4.43721 31.0136C4.07058 24.9613 3.06236 17.9254 2.69573 13.1214L4.43721 31.0136ZM3.5665 30.4462C3.06237 23.8265 3.5665 16.5636 3.79564 11.3057L3.5665 30.4462Z" stroke="black" stroke-width="2" stroke-miterlimit="8"/>
</svg>
