<svg width="326" height="433" viewBox="0 0 326 433" fill="none" xmlns="http://www.w3.org/2000/svg">
<path d="M87.4036 0L266.504 4.53301L278.567 3.74465L298.501 14.4859L312.404 28.0849L318.129 39.3189L319.457 55.8742L326 79.8202L322.831 362.147L320.991 390.331L316.493 402.452L305.964 410.532L288.585 420.386L274.682 427.974L243.708 433L63.2781 429.551L48.5575 428.861L25.761 414.572L22.2854 409.645L9.71151 397.623L8.58701 378.407L0 357.91L5.21354 61.2941L7.25807 42.1766L16.8674 34.4902L27.4989 13.599L40.4816 5.12427L60.2113 3.05485L83.1101 4.13884" fill="white"/>
</svg>
