<svg width="58" height="58" viewBox="0 0 58 58" fill="none" xmlns="http://www.w3.org/2000/svg">
<path d="M1 16.3027C1 5.10072 2.01082 3.35361 2.31407 3.14807M2.51624 5.5118C14.2419 -0.962767 25.1588 0.681568 55.0794 3.35361L2.51624 5.5118ZM2.6173 5.10071C19.7003 2.42867 36.5812 3.86746 55.3826 4.48409L2.6173 5.10071ZM55.2816 4.07301C56.4946 4.07301 56.6967 8.90324 56.7978 14.9667L55.2816 4.07301ZM55.5848 1.50373C55.9891 4.99794 57 11.3697 56.7978 17.0221L55.5848 1.50373ZM57 17.8443C57 21.2357 56.5957 27.1964 56.4946 43.3315L57 17.8443ZM56.6967 18.1526C56.7978 25.6549 56.7978 33.9793 56.7978 42.4065L56.6967 18.1526ZM56.6967 42.4065C56.8989 50.4227 56.2924 55.1501 55.4838 52.5809L56.6967 42.4065ZM56.6967 40.2483C57.101 54.6363 55.8881 55.0474 55.5848 54.739L56.6967 40.2483ZM55.2816 56.2806C37.3899 57.2055 20.0036 55.9723 2.6173 57L55.2816 56.2806ZM55.1805 54.2252C37.2888 55.5612 19.4982 54.2252 2.81948 54.6363L55.1805 54.2252ZM2.81948 55.2529C1.60649 56.2806 1.30326 49.4977 1.20218 44.7703L2.81948 55.2529ZM2.71842 54.5335C2.01084 58.6443 1.00001 47.4423 1.20218 40.5567L2.71842 54.5335ZM1.10106 41.1733C1.30322 36.6514 1.30324 24.2161 1.30324 19.0776L1.10106 41.1733ZM1.30324 43.7426C1.30324 34.9043 1.20219 27.8131 1.40436 17.6388L1.30324 43.7426ZM1.30324 16.9194C1.70757 10.7531 1.6065 6.84782 3.02166 1.29819L1.30324 16.9194Z" stroke="black" stroke-width="2"/>
</svg>
