<svg width="200" height="60" viewBox="0 0 200 60" fill="none" xmlns="http://www.w3.org/2000/svg">
<path d="M192.598 59.3072H7.56258C3.49183 59.3072 0.161133 55.9712 0.161133 51.8939V7.41344C0.161133 3.33603 3.49176 0 7.56258 0H192.598C196.669 0 200 3.33603 200 7.41344V51.8938C200 55.9712 196.669 59.3072 192.598 59.3072" fill="black"/>
<path d="M70.354 15.1877C70.354 16.4299 69.9867 17.4191 69.2512 18.157C68.4156 19.0345 67.3268 19.4735 65.9881 19.4735C64.7062 19.4735 63.6162 19.0287 62.7199 18.1379C61.822 17.2477 61.3739 16.1438 61.3739 14.8268C61.3739 13.5091 61.822 12.4059 62.7199 11.515C63.6162 10.6249 64.7062 10.1794 65.9881 10.1794C66.6242 10.1794 67.2332 10.3041 67.8114 10.5525C68.3896 10.8016 68.8534 11.1323 69.2003 11.5463L68.4196 12.3288C67.8317 11.6251 67.0221 11.2735 65.9881 11.2735C65.0532 11.2735 64.2448 11.6026 63.5625 12.2611C62.8801 12.9202 62.539 13.775 62.539 14.8268C62.539 15.8786 62.8801 16.7334 63.5625 17.3926C64.2448 18.0511 65.0532 18.38 65.9881 18.38C66.9799 18.38 67.8068 18.0493 68.4688 17.3868C68.8986 16.9552 69.147 16.3553 69.2135 15.5849H65.9881V14.5163H70.292C70.3336 14.7487 70.3539 14.9717 70.3539 15.1877" fill="white"/>
<path d="M70.354 15.1878H70.2059C70.2047 16.4016 69.8507 17.3445 69.1464 18.0523L69.1449 18.0535L69.1442 18.0547C68.3353 18.9019 67.2954 19.3235 65.988 19.3253C64.7404 19.3235 63.696 18.8973 62.8239 18.0331C61.9538 17.1673 61.5235 16.1103 61.5219 14.8269C61.5235 13.5429 61.9538 12.4864 62.8239 11.6212C63.696 10.7564 64.7404 10.3296 65.988 10.3278C66.6051 10.3278 67.1926 10.4484 67.7529 10.6887C68.3137 10.9308 68.7568 11.2481 69.0869 11.6421L69.2003 11.5464L69.0956 11.4416L68.3149 12.2246L68.4196 12.3288L68.5336 12.2339C67.9182 11.4954 67.0545 11.1231 65.9881 11.1253C65.0185 11.1241 64.1656 11.4712 63.46 12.1547C62.7477 12.8403 62.3898 13.7432 62.391 14.8269C62.3898 15.9105 62.7477 16.8134 63.46 17.4991C64.1656 18.1826 65.0185 18.5296 65.988 18.5284C67.0127 18.5302 67.8859 18.182 68.5734 17.4917C69.0325 17.0306 69.2928 16.3919 69.3611 15.5977L69.3748 15.4367H66.1361V14.6647H70.292V14.5164L70.1462 14.5425C70.1867 14.7673 70.2059 14.9809 70.2059 15.1878H70.5019C70.5019 14.9624 70.4811 14.7308 70.4377 14.4899L70.4158 14.3681H65.8401V15.7332H69.2135V15.585L69.0661 15.5722C69.0008 16.3183 68.7637 16.8801 68.3641 17.2821C67.7281 17.9168 66.9475 18.2301 65.9881 18.2319C65.0879 18.2307 64.324 17.9202 63.6654 17.286C63.0132 16.6541 62.6887 15.8474 62.6871 14.8269C62.6887 13.8063 63.0132 12.9996 63.6654 12.3677C64.324 11.7335 65.0878 11.4231 65.9881 11.4219C66.9891 11.4243 67.7449 11.7555 68.3064 12.4245L68.4105 12.5484L69.305 11.6513L69.401 11.5552L69.3136 11.4514C68.9499 11.0171 68.4653 10.6724 67.8698 10.4165C67.273 10.1599 66.6433 10.0313 65.9881 10.0313C64.6721 10.0301 63.5365 10.4934 62.6153 11.4103C61.6907 12.3254 61.2247 13.4757 61.226 14.8269C61.2247 16.1774 61.6907 17.3283 62.6159 18.244C63.5365 19.1603 64.6721 19.6231 65.9881 19.6219C67.3586 19.6231 68.4955 19.1671 69.3582 18.2596L69.2511 18.1571L69.3558 18.262C70.1226 17.4945 70.503 16.4578 70.502 15.1878H70.3539H70.354ZM77.177 11.4717H73.1323V14.2924H76.7799V15.3613H73.1323V18.182H77.177V19.2749H71.992V10.3788H77.177V11.4717Z" fill="white"/>
<path d="M77.177 11.4716V11.3234H72.9843V14.4405H76.6318V15.2126L72.9842 15.213V18.3302H77.029V19.1265H72.1401V10.527H77.029V11.4716H77.177V11.3234V11.4716H77.325V10.2305H71.844V19.4231H77.325V18.0337H73.2803V15.5095H76.9279V14.144H73.2803V11.6199H77.325V11.4716H77.177ZM81.9897 19.2749H80.8477V11.4716H78.367V10.3787H84.4704V11.4716H81.9897V19.2747" fill="white"/>
<path d="M81.9898 19.2749V19.1265H80.9958V11.3234H78.5152V10.5271H84.3224V11.3234H81.8418V19.2748H81.9898V19.1265V19.2748H82.1379V11.6199H84.6185V10.2305H78.2191V11.6198H80.6997V19.423H82.1379V19.2747H81.9898V19.2749ZM88.8865 19.2749V10.3787H90.0274V19.2747H88.8865" fill="white"/>
<path d="M88.8864 19.2749H89.0345V10.527H89.8792V19.1265H88.8864V19.2748H89.0345H88.8864V19.4231H90.1753V10.2305H88.7384V19.4231H88.8864V19.2748V19.2749ZM95.0897 19.2749H93.9477V11.4716H91.4671V10.3787H97.5704V11.4716H95.0897V19.2747" fill="white"/>
<path d="M95.0896 19.2749V19.1266H94.0956V11.3234H91.6152V10.5271H97.4223V11.3234H94.9417V19.2748H95.0896V19.1266V19.2748H95.2377V11.6199H97.7183V10.2305H91.3191V11.6198H93.7996V19.423H95.2377V19.2748H95.0896V19.2749ZM103.454 17.3804C104.112 18.047 104.916 18.38 105.867 18.38C106.819 18.38 107.624 18.047 108.28 17.3804C108.938 16.7138 109.268 15.8617 109.268 14.8268C109.268 13.7919 108.938 12.9398 108.28 12.2732C107.624 11.6066 106.819 11.2735 105.867 11.2735C104.916 11.2735 104.112 11.6066 103.454 12.2732C102.798 12.9398 102.469 13.7919 102.469 14.8268C102.469 15.8617 102.798 16.7138 103.454 17.3804ZM109.124 18.1252C108.251 19.0245 107.165 19.4735 105.867 19.4735C104.569 19.4735 103.483 19.0245 102.612 18.1252C101.738 17.2268 101.303 16.1271 101.303 14.8268C101.303 13.5265 101.738 12.4266 102.612 11.5284C103.483 10.6288 104.569 10.1794 105.867 10.1794C107.158 10.1794 108.241 10.6312 109.118 11.5342C109.994 12.4371 110.433 13.5346 110.433 14.8268C110.433 16.1271 109.995 17.2268 109.124 18.1252Z" fill="white"/>
<path d="M103.455 17.3805L103.349 17.4847C104.031 18.178 104.882 18.5302 105.868 18.5284C106.853 18.5302 107.705 18.178 108.385 17.4847C109.072 16.7908 109.417 15.8931 109.416 14.8269C109.417 13.7607 109.072 12.8629 108.385 12.169C107.705 11.4757 106.853 11.1236 105.868 11.1253C104.882 11.1236 104.031 11.4757 103.349 12.169C102.665 12.8629 102.319 13.7607 102.321 14.8269C102.319 15.893 102.665 16.7908 103.349 17.4847L103.455 17.3805L103.56 17.2762C102.932 16.6362 102.618 15.8311 102.617 14.8269C102.618 13.8227 102.932 13.0176 103.56 12.3775C104.193 11.7376 104.95 11.4237 105.868 11.4219C106.784 11.4237 107.543 11.7376 108.175 12.3775C108.804 13.0176 109.118 13.8227 109.119 14.8269C109.118 15.8311 108.804 16.6362 108.175 17.2762C107.543 17.9162 106.784 18.2301 105.868 18.2318C104.95 18.2301 104.193 17.9162 103.56 17.2762L103.455 17.3805ZM109.124 18.1252L109.018 18.0222C108.17 18.8933 107.132 19.3236 105.868 19.3253C104.603 19.3235 103.565 18.8933 102.718 18.0222L102.714 18.0176L102.718 18.0222C101.871 17.1482 101.453 16.0941 101.452 14.8269C101.453 13.5596 101.871 12.5056 102.718 11.6316C103.565 10.7604 104.603 10.3296 105.868 10.3278C107.123 10.3296 108.159 10.7622 109.013 11.6379C109.863 12.5159 110.283 13.5683 110.285 14.8269C110.283 16.0941 109.864 17.1482 109.018 18.0222L109.124 18.1252L109.231 18.2283C110.128 17.3052 110.582 16.1601 110.581 14.8269C110.582 13.5012 110.126 12.3585 109.225 11.4313C108.323 10.5004 107.193 10.0297 105.868 10.0313C104.535 10.0297 103.402 10.4982 102.506 11.4255V11.4248C101.607 12.3486 101.154 13.4936 101.156 14.8269C101.154 16.1601 101.607 17.3052 102.506 18.2289L102.51 18.2331L102.506 18.2283C103.402 19.1556 104.535 19.6231 105.868 19.6219C107.199 19.6231 108.333 19.1556 109.231 18.2283L109.124 18.1252ZM112.034 19.275V10.3788H113.423L117.74 17.2993H117.789L117.74 15.5849V10.3788H118.882V19.2748H117.691L113.175 12.0189H113.126L113.175 13.7339V19.2748H112.034" fill="white"/>
<path d="M112.034 19.2749H112.182V10.527H113.341L117.658 17.4475H117.941L117.888 15.5827V10.5271H118.734V19.1265H117.773L113.257 11.8706H112.974L113.027 13.7363V19.1265H112.034V19.2748H112.182H112.034V19.4231H113.323V13.7316L113.274 12.0149L113.126 12.0189V12.1672H113.175V12.0189L113.049 12.0977L117.609 19.4231H119.03V10.2305H117.592V15.5866L117.641 17.3033L117.789 17.2993V17.151H117.74V17.2993L117.865 17.2206L113.505 10.2305H111.887V19.4231H112.035V19.2748L112.034 19.2749ZM158.457 44.4804H161.219V25.9451H158.457L158.457 44.4804ZM183.336 32.622L180.17 40.6579H180.075L176.789 32.6219H173.814L178.742 43.8537L175.932 50.1013H178.814L186.408 32.6219L183.336 32.622ZM167.672 42.3752C166.766 42.3752 165.505 41.9222 165.505 40.801C165.505 39.3703 167.077 38.8219 168.433 38.8219C169.648 38.8219 170.218 39.0842 170.957 39.4423C170.742 41.1589 169.266 42.3752 167.672 42.3752ZM168.005 32.2164C166.005 32.2164 163.934 33.099 163.077 35.0544L165.528 36.0795C166.052 35.0544 167.028 34.7202 168.052 34.7202C169.481 34.7202 170.933 35.5791 170.957 37.1053V37.2958C170.456 37.0096 169.386 36.5805 168.076 36.5805C165.434 36.5805 162.743 38.0348 162.743 40.7534C162.743 43.2335 164.91 44.8314 167.337 44.8314C169.195 44.8314 170.218 43.9967 170.862 43.0192H170.957V44.4497H173.623V37.3432C173.623 34.053 171.171 32.2164 168.005 32.2164ZM150.934 34.8782H147.006V28.5248H150.934C152.999 28.5248 154.172 30.2374 154.172 31.7015C154.172 33.1379 152.999 34.8782 150.934 34.8782ZM150.863 25.9451H144.245V44.4804H147.006V37.458H150.863C153.925 37.458 156.934 35.2379 156.934 31.7015C156.934 28.1651 153.925 25.9451 150.863 25.9451ZM114.772 42.3786C112.864 42.3786 111.267 40.7783 111.267 38.5804C111.267 36.3593 112.864 34.7347 114.772 34.7347C116.656 34.7347 118.135 36.3593 118.135 38.5804C118.135 40.7783 116.656 42.3786 114.772 42.3786H114.772ZM117.944 33.6598H117.849C117.229 32.9195 116.036 32.2507 114.534 32.2507C111.386 32.2507 108.5 35.0214 108.5 38.5804C108.5 42.1157 111.386 44.8627 114.534 44.8627C116.036 44.8627 117.229 44.1937 117.849 43.4297H117.944V44.3373C117.944 46.7502 116.656 48.04 114.582 48.04C112.888 48.04 111.839 46.8214 111.409 45.7945L109.001 46.7977C109.693 48.4697 111.529 50.5241 114.582 50.5241C117.825 50.5241 120.567 48.6128 120.567 43.9551V32.6329H117.944V33.6598ZM122.475 44.4804H125.241V25.9445H122.475V44.4804ZM129.32 38.3655C129.248 35.9289 131.204 34.6871 132.61 34.6871C133.708 34.6871 134.638 35.2362 134.947 36.0252L129.32 38.3655ZM137.905 36.2637C137.381 34.8539 135.782 32.2507 132.515 32.2507C129.272 32.2507 126.577 34.8065 126.577 38.5566C126.577 42.092 129.248 44.8627 132.825 44.8627C135.711 44.8627 137.381 43.095 138.072 42.0681L135.926 40.6346C135.211 41.6858 134.232 42.3786 132.825 42.3786C131.418 42.3786 130.417 41.7334 129.772 40.4678L138.191 36.9801L137.905 36.2637ZM70.8357 34.1856V36.8608H77.2268C77.0361 38.3655 76.5352 39.4642 75.772 40.2287C74.8422 41.1606 73.3874 42.1875 70.8356 42.1875C66.9006 42.1875 63.8245 39.0106 63.8245 35.0694C63.8245 31.1281 66.9006 27.9509 70.8357 27.9509C72.9583 27.9509 74.508 28.7871 75.6529 29.862L77.5368 27.9752C75.9392 26.4461 73.8164 25.2757 70.8357 25.2757C65.4459 25.2757 60.9148 29.671 60.9148 35.0694C60.9148 40.4678 65.4459 44.8627 70.8357 44.8627C73.7453 44.8627 75.9392 43.9077 77.656 42.1157C79.4208 40.348 79.9695 37.864 79.9695 35.8577C79.9695 35.2362 79.922 34.6634 79.8261 34.1856H70.8357ZM87.2357 42.3786C85.3274 42.3786 83.6818 40.802 83.6818 38.5566C83.6818 36.2874 85.3274 34.7347 87.2357 34.7347C89.1432 34.7347 90.7888 36.2874 90.7888 38.5566C90.7888 40.8021 89.1432 42.3786 87.2357 42.3786ZM87.2357 32.2507C83.7534 32.2507 80.9154 34.902 80.9154 38.5566C80.9154 42.1875 83.7534 44.8627 87.2357 44.8627C90.7171 44.8627 93.5551 42.1875 93.5551 38.5566C93.5551 34.902 90.7171 32.2507 87.2357 32.2507ZM101.022 42.3786C99.1144 42.3786 97.4686 40.802 97.4686 38.5566C97.4686 36.2874 99.1144 34.7347 101.022 34.7347C102.93 34.7347 104.575 36.2874 104.575 38.5566C104.575 40.8021 102.93 42.3786 101.022 42.3786H101.022ZM101.022 32.2507C97.5398 32.2507 94.7024 34.902 94.7024 38.5566C94.7024 42.1875 97.5398 44.8627 101.022 44.8627C104.504 44.8627 107.342 42.1875 107.342 38.5566C107.342 34.902 104.504 32.2507 101.022 32.2507H101.022Z" fill="white"/>
<path d="M15.7169 11.2853C15.2201 11.7342 14.9236 12.483 14.9236 13.4769V13.2522V46.0507V45.8347C14.9236 46.7526 15.1779 47.4615 15.6087 47.918L15.7186 48.0234V48.0239C16.0672 48.339 16.5143 48.5063 17.0267 48.5058C17.5273 48.5058 18.0906 48.3459 18.685 48.0083L40.1717 35.7802L47.5522 31.5795C48.4896 31.0461 49.0158 30.3581 49.1037 29.6572V29.6543C49.0158 28.9519 48.4896 28.2643 47.5523 27.7309L40.1711 23.5307L18.6851 11.3026C18.0894 10.9644 17.5257 10.804 17.0237 10.804C16.512 10.804 16.0655 10.9707 15.717 11.2853H15.7169Z" fill="#00C1FF"/>
<path d="M15.7187 48.0232L15.6087 47.9178C15.1779 47.4613 14.9236 46.7524 14.9236 45.8345V46.0505V13.2601V13.4767C14.9236 12.4827 15.2201 11.734 15.7169 11.285L34.0574 29.6547L15.7187 48.0232Z" fill="url(#paint0_linear_80_2929)"/>
<path d="M40.1717 35.78L34.0574 29.6548L40.1712 23.5305L47.5523 27.7307C48.4896 28.2642 49.0158 28.9516 49.1037 29.6542V29.657C49.0158 30.3579 48.4896 31.046 47.5523 31.5793L40.1718 35.78" fill="url(#paint1_linear_80_2929)"/>
<path d="M17.0267 48.5056C16.5144 48.5061 16.0673 48.3387 15.7188 48.0236V48.0232L34.0574 29.6547L40.1718 35.7799L18.685 48.0081C18.0906 48.3458 17.5273 48.5056 17.0267 48.5056Z" fill="url(#paint2_linear_80_2929)"/>
<path d="M34.0573 29.6548L15.7168 11.2851C16.0654 10.9706 16.5119 10.8038 17.0236 10.8038C17.5255 10.8038 18.0893 10.9642 18.6849 11.3024L40.1711 23.5305L34.0573 29.6548" fill="url(#paint3_linear_80_2929)"/>
<path d="M17.0272 48.7229C16.5149 48.7229 16.0673 48.5555 15.7186 48.2405L15.718 48.241C15.7166 48.2396 15.7151 48.2382 15.7134 48.237L15.6181 48.1437C15.6151 48.1408 15.6123 48.1374 15.6088 48.134L15.7187 48.0238C16.0673 48.3389 16.5143 48.5063 17.0268 48.5057C17.5273 48.5057 18.0906 48.3459 18.685 48.0082L40.1717 35.7801L40.3094 35.9181L40.17 35.9974L18.685 48.2248C18.1432 48.5324 17.6279 48.6928 17.1625 48.7195C17.1174 48.7217 17.0723 48.7228 17.0272 48.7228" fill="url(#paint4_linear_80_2929)"/>
<path d="M15.6087 48.1338C15.1779 47.6773 14.9236 46.969 14.9236 46.0505V45.8345C14.9236 46.7524 15.1779 47.4612 15.6087 47.9178L15.7186 48.0232L15.6087 48.1338Z" fill="url(#paint5_linear_80_2929)"/>
<path d="M40.3093 35.9179L40.1716 35.78L47.5522 31.5793C48.4895 31.046 49.0157 30.3579 49.1037 29.657C49.1037 29.9142 49.0464 30.1713 48.9326 30.4216C48.7029 30.9261 48.2428 31.4027 47.5522 31.7959L40.3093 35.918" fill="url(#paint6_linear_80_2929)"/>
<path d="M49.1037 29.6543C49.0157 28.9518 48.4895 28.2643 47.5522 27.7308L40.171 23.5307L40.3087 23.3927H40.3093L47.5522 27.5148C48.5856 28.1032 49.1031 28.8787 49.1037 29.6543Z" fill="url(#paint7_linear_80_2929)"/>
<path d="M14.9236 13.4768V13.2502C14.9236 13.1686 14.9258 13.0887 14.93 13.0111V13.0076C14.93 13.0065 14.93 13.0054 14.9304 13.0042V12.9954C14.975 12.2048 15.2201 11.5881 15.6087 11.1763L15.7169 11.2851C15.2201 11.7341 14.9236 12.4829 14.9236 13.4768Z" fill="url(#paint8_linear_80_2929)"/>
<path d="M40.1711 23.5305L18.685 11.3023C18.0894 10.9641 17.5257 10.8037 17.0238 10.8037C16.512 10.8037 16.0655 10.9705 15.717 11.285L15.6088 11.1761C15.6426 11.1403 15.6777 11.1057 15.714 11.0725C15.7152 11.0713 15.717 11.0701 15.7181 11.069C16.064 10.7569 16.5057 10.5901 17.0128 10.5871H17.0238C17.5257 10.5871 18.0894 10.7475 18.685 11.0859L40.3094 23.3921L40.3088 23.3926L40.1711 23.5305Z" fill="url(#paint9_linear_80_2929)"/>
<defs>
<linearGradient id="paint0_linear_80_2929" x1="26.6443" y1="12.9135" x2="10.8389" y2="28.7444" gradientUnits="userSpaceOnUse">
<stop stop-color="#00A0FF"/>
<stop offset="0.00657" stop-color="#00A1FF"/>
<stop offset="0.2601" stop-color="#00BEFF"/>
<stop offset="0.5122" stop-color="#00D2FF"/>
<stop offset="0.7604" stop-color="#00DFFF"/>
<stop offset="1" stop-color="#00E3FF"/>
</linearGradient>
<linearGradient id="paint1_linear_80_2929" x1="50.2458" y1="29.5489" x2="14.4273" y2="29.5489" gradientUnits="userSpaceOnUse">
<stop stop-color="#FFE000"/>
<stop offset="0.4087" stop-color="#FFBD00"/>
<stop offset="0.7754" stop-color="#FFA500"/>
<stop offset="1" stop-color="#FF9C00"/>
</linearGradient>
<linearGradient id="paint2_linear_80_2929" x1="36.9256" y1="35.4784" x2="10.1422" y2="62.109" gradientUnits="userSpaceOnUse">
<stop stop-color="#FF3A44"/>
<stop offset="1" stop-color="#C31162"/>
</linearGradient>
<linearGradient id="paint3_linear_80_2929" x1="10.9899" y1="8.56172" x2="22.9267" y2="20.4486" gradientUnits="userSpaceOnUse">
<stop stop-color="#32A071"/>
<stop offset="0.0685" stop-color="#2DA771"/>
<stop offset="0.4762" stop-color="#15CF74"/>
<stop offset="0.8009" stop-color="#06E775"/>
<stop offset="1" stop-color="#00F076"/>
</linearGradient>
<linearGradient id="paint4_linear_80_2929" x1="36.9122" y1="39.7273" x2="15.4627" y2="61.2115" gradientUnits="userSpaceOnUse">
<stop stop-color="#CC2E36"/>
<stop offset="1" stop-color="#9C0E4E"/>
</linearGradient>
<linearGradient id="paint5_linear_80_2929" x1="17.3668" y1="12.9135" x2="3.44249" y2="26.8605" gradientUnits="userSpaceOnUse">
<stop stop-color="#008DE0"/>
<stop offset="0.00657" stop-color="#008DE0"/>
<stop offset="0.2601" stop-color="#00A7E0"/>
<stop offset="0.5122" stop-color="#00B8E0"/>
<stop offset="0.7604" stop-color="#00C4E0"/>
<stop offset="1" stop-color="#00C7E0"/>
</linearGradient>
<linearGradient id="paint6_linear_80_2929" x1="50.2458" y1="29.6556" x2="14.4272" y2="29.6556" gradientUnits="userSpaceOnUse">
<stop stop-color="#E0C500"/>
<stop offset="0.4087" stop-color="#E0A600"/>
<stop offset="0.7754" stop-color="#E09100"/>
<stop offset="1" stop-color="#E08900"/>
</linearGradient>
<linearGradient id="paint7_linear_80_2929" x1="50.2457" y1="29.6558" x2="14.4273" y2="29.6558" gradientUnits="userSpaceOnUse">
<stop stop-color="#FFE840"/>
<stop offset="0.4087" stop-color="#FFCE40"/>
<stop offset="0.7754" stop-color="#FFBC40"/>
<stop offset="1" stop-color="#FFB540"/>
</linearGradient>
<linearGradient id="paint8_linear_80_2929" x1="17.3517" y1="12.9389" x2="3.94012" y2="25.7902" gradientUnits="userSpaceOnUse">
<stop stop-color="#40B8FF"/>
<stop offset="0.00657" stop-color="#40B9FF"/>
<stop offset="0.2601" stop-color="#40CEFF"/>
<stop offset="0.5122" stop-color="#40DDFF"/>
<stop offset="0.7604" stop-color="#40E7FF"/>
<stop offset="1" stop-color="#40EAFF"/>
</linearGradient>
<linearGradient id="paint9_linear_80_2929" x1="10.9633" y1="12.4465" x2="20.5415" y2="22.0402" gradientUnits="userSpaceOnUse">
<stop stop-color="#65B895"/>
<stop offset="0.0685" stop-color="#62BD95"/>
<stop offset="0.4762" stop-color="#50DB97"/>
<stop offset="0.8009" stop-color="#44ED98"/>
<stop offset="1" stop-color="#40F498"/>
</linearGradient>
</defs>
</svg>
