<svg width="200" height="60" viewBox="0 0 200 60" fill="none" xmlns="http://www.w3.org/2000/svg">
<path d="M193.008 59.1189H6.83042C3.05743 59.1189 0 55.9899 0 52.1285V6.99042C0 3.12904 3.05743 0 6.83042 0H193.008C196.781 0 199.839 3.12904 199.839 6.99042V52.1285C199.839 55.9899 196.781 59.1189 193.008 59.1189Z" fill="black"/>
<path d="M68.127 15.267L67.338 12.796C67.1445 12.1857 66.9808 11.5047 66.8319 10.9241H66.8022C66.657 11.5047 66.5044 12.2006 66.3295 12.796L65.5555 15.267H68.127ZM65.2578 16.6477L64.3944 19.4908H62.5039L65.7192 9.46533H68.0525L71.3088 19.4908H69.3476L68.4396 16.6477" fill="white"/>
<path d="M74.044 12.249L75.22 15.9183C75.4284 16.5584 75.5735 17.139 75.7075 17.7344H75.7521C75.8861 17.139 76.0499 16.5733 76.2434 15.9183L77.4045 12.249H79.321L76.556 19.4909H74.7585L72.0642 12.249" fill="white"/>
<path d="M84.8399 15.948C83.5448 15.9332 82.3093 16.2011 82.3093 17.3026C82.3093 18.0172 82.7707 18.3446 83.3513 18.3446C84.0918 18.3446 84.6166 17.8683 84.7915 17.3473C84.8398 17.2133 84.8399 17.0794 84.8399 16.9454V15.948ZM86.6224 17.7492C86.6224 18.4042 86.6522 19.0443 86.7415 19.4871H85.0892L84.9589 18.687H84.9106C84.4826 19.2489 83.7234 19.6509 82.7707 19.6509C81.3119 19.6509 80.4969 18.5977 80.4969 17.4962C80.4969 15.6801 82.1158 14.746 84.7915 14.7609V14.6418C84.7915 14.1655 84.6017 13.3765 83.3215 13.3765C82.607 13.3765 81.8627 13.5998 81.3715 13.9124L81.0142 12.7216C81.5501 12.3941 82.4879 12.0852 83.6341 12.0852C85.9526 12.0852 86.6224 13.5552 86.6224 15.1479" fill="white"/>
<path d="M89.2088 12.2491H91.036V19.491H89.2088V12.2491ZM90.1131 11.2071C89.5065 11.2071 89.1046 10.7605 89.1046 10.2246C89.1046 9.65898 89.5177 9.22729 90.1317 9.22729C90.7532 9.22729 91.1402 9.65898 91.1551 10.2246C91.1551 10.7605 90.7532 11.2071 90.1317 11.2071" fill="white"/>
<path d="M93.6671 19.4908H95.4981V8.91455H93.6671V19.4908Z" fill="white"/>
<path d="M101.981 15.948C100.686 15.9332 99.4502 16.2011 99.4502 17.3026C99.4502 18.0172 99.9116 18.3446 100.492 18.3446C101.236 18.3446 101.757 17.8683 101.936 17.3473C101.981 17.2133 101.981 17.0794 101.981 16.9454V15.948ZM103.763 17.7492C103.763 18.4042 103.793 19.0443 103.882 19.4871H102.234L102.1 18.687H102.055C101.623 19.2489 100.864 19.6509 99.9116 19.6509C98.4565 19.6509 97.6378 18.5977 97.6378 17.4962C97.6378 15.6801 99.2604 14.746 101.936 14.7609V14.6418C101.936 14.1655 101.743 13.3765 100.462 13.3765C99.7479 13.3765 99.0036 13.5998 98.5161 13.9124L98.1588 12.7216C98.6947 12.3941 99.6288 12.0852 100.775 12.0852C103.093 12.0852 103.763 13.5552 103.763 15.1479" fill="white"/>
<path d="M108.181 16.4988C108.181 16.6477 108.196 16.7965 108.225 16.9305C108.419 17.6748 109.059 18.2107 109.844 18.2107C110.99 18.2107 111.69 17.3026 111.69 15.8327C111.69 14.5525 111.08 13.5105 109.859 13.5105C109.115 13.5105 108.434 14.0464 108.24 14.8502C108.21 14.9842 108.181 15.1479 108.181 15.3266V16.4988ZM106.35 8.91455H108.181V13.2426H108.21C108.657 12.5429 109.442 12.0852 110.529 12.0852C112.3 12.0852 113.562 13.5552 113.547 15.7582C113.547 18.3595 111.898 19.6546 110.261 19.6546C109.323 19.6546 108.493 19.2973 107.972 18.4042H107.942L107.853 19.4908H106.29C106.32 18.9996 106.35 18.1958 106.35 17.4664" fill="white"/>
<path d="M115.702 19.4908H117.529V8.91455H115.702V19.4908Z" fill="white"/>
<path d="M124.652 15.1033C124.666 14.4334 124.369 13.3319 123.152 13.3319C122.021 13.3319 121.544 14.359 121.47 15.1033H124.652ZM121.47 16.3797C121.514 17.6897 122.542 18.2553 123.703 18.2553C124.547 18.2553 125.143 18.1214 125.708 17.9278L125.976 19.1745C125.351 19.4462 124.488 19.636 123.45 19.636C121.098 19.636 119.713 18.1958 119.713 15.9815C119.713 13.972 120.934 12.0852 123.256 12.0852C125.604 12.0852 126.378 14.0166 126.378 15.6094C126.378 15.9518 126.349 16.2197 126.319 16.3797" fill="white"/>
<path d="M135.462 18.3298C136.501 18.3298 137.23 17.3175 137.23 15.8476C137.23 14.7163 136.724 13.4063 135.477 13.4063C134.182 13.4063 133.661 14.6716 133.661 15.8773C133.661 17.2729 134.361 18.3298 135.444 18.3298H135.462ZM135.403 19.6546C133.363 19.6546 131.774 18.2553 131.774 15.922C131.774 13.5403 133.334 12.0852 135.522 12.0852C137.677 12.0852 139.121 13.5998 139.121 15.8029C139.121 18.4637 137.245 19.6546 135.418 19.6546" fill="white"/>
<path d="M141.272 14.4037C141.272 13.5701 141.245 12.8704 141.216 12.2452H142.805L142.894 13.3319H142.939C143.266 12.7662 144.055 12.0852 145.261 12.0852C146.522 12.0852 147.832 12.9002 147.832 15.1926V19.4871H146.001V15.401C146.001 14.359 145.614 13.5701 144.621 13.5701C143.891 13.5701 143.385 14.0911 143.192 14.6418C143.132 14.7907 143.102 15.014 143.102 15.2224V19.4871H141.272" fill="white"/>
<path d="M156.261 10.3882V12.2452H157.999V13.6147H156.261V16.7965C156.261 17.6896 156.5 18.1362 157.195 18.1362C157.523 18.1362 157.702 18.1213 157.91 18.0618L157.94 19.4424C157.672 19.5503 157.181 19.6359 156.615 19.6359C155.934 19.6359 155.383 19.4126 155.041 19.0442C154.639 18.6274 154.46 17.9576 154.46 17.0049V13.6147H153.433V12.2452H154.46V10.8943" fill="white"/>
<path d="M160.035 8.91455H161.866V13.2277H161.896C162.119 12.8853 162.432 12.6025 162.804 12.409C163.176 12.2043 163.604 12.0852 164.065 12.0852C165.301 12.0852 166.592 12.9002 166.592 15.2224V19.4908H164.765V15.4159C164.765 14.3739 164.378 13.5701 163.366 13.5701C162.655 13.5701 162.149 14.0464 161.94 14.5972C161.881 14.7609 161.866 14.9544 161.866 15.1479V19.4908H160.035" fill="white"/>
<path d="M173.67 15.1033C173.685 14.4334 173.387 13.3319 172.167 13.3319C171.035 13.3319 170.563 14.359 170.488 15.1033H173.67ZM170.488 16.3797C170.533 17.6897 171.556 18.2553 172.718 18.2553C173.566 18.2553 174.161 18.1214 174.723 17.9278L174.995 19.1745C174.37 19.4462 173.507 19.636 172.465 19.636C170.116 19.636 168.732 18.1958 168.732 15.9815C168.732 13.972 169.953 12.0852 172.271 12.0852C174.619 12.0852 175.393 14.0166 175.393 15.6094C175.393 15.9518 175.364 16.2197 175.334 16.3797" fill="white"/>
<path d="M42.5049 29.2112C42.4565 24.2505 46.565 21.8353 46.7548 21.7237C44.4289 18.3298 40.8228 17.8683 39.5538 17.8311C36.5283 17.5148 33.5921 19.6471 32.0514 19.6471C30.4773 19.6471 28.0993 17.8646 25.5427 17.9167C22.2455 17.9688 19.1641 19.8779 17.4746 22.8364C13.9914 28.8763 16.5889 37.7481 19.9307 42.6306C21.6054 45.0198 23.5554 47.6918 26.112 47.595C28.6128 47.4908 29.5469 46.0023 32.565 46.0023C35.557 46.0023 36.4353 47.595 39.044 47.5355C41.7271 47.4908 43.4167 45.1352 45.028 42.72C46.9632 39.981 47.7372 37.283 47.767 37.1453C47.7037 37.1229 42.557 35.158 42.5049 29.2112Z" fill="white"/>
<path d="M37.5778 14.6233C38.9212 12.9412 39.8479 10.6488 39.5874 8.32666C37.6411 8.41597 35.2073 9.67382 33.8043 11.3187C32.565 12.77 31.4523 15.148 31.7426 17.3809C33.9308 17.5446 36.1748 16.2793 37.5778 14.6233Z" fill="white"/>
<path d="M72.6856 38.6822L70.9589 33.3494C70.7766 32.806 70.4342 31.5222 69.9281 29.5051H69.8685C69.6676 30.3722 69.3401 31.6561 68.8972 33.3494L67.2003 38.6822H72.6856ZM78.6548 47.2005H75.1678L73.2587 41.2016H66.6272L64.8074 47.2005H61.4135L67.9929 26.7773H72.0493" fill="white"/>
<path d="M92.2306 39.7763C92.2306 38.3398 91.9069 37.1601 91.2593 36.2298C90.5523 35.2622 89.6033 34.7747 88.4125 34.7747C87.6049 34.7747 86.8681 35.0463 86.2168 35.5785C85.5618 36.1181 85.1302 36.8177 84.9255 37.6885C84.825 38.0905 84.7766 38.4217 84.7766 38.6822V41.1383C84.7766 42.2101 85.1041 43.1144 85.7591 43.8512C86.4178 44.5918 87.27 44.9565 88.3194 44.9565C89.5549 44.9565 90.5151 44.4839 91.1961 43.5312C91.8883 42.5822 92.2306 41.3318 92.2306 39.7763ZM95.565 39.6535C95.565 42.158 94.8877 44.1415 93.5331 45.5929C92.32 46.8879 90.8128 47.5317 89.0191 47.5317C87.0765 47.5317 85.6847 46.8321 84.8362 45.4403H84.7766V53.1994H81.5018V37.3201C81.5018 35.746 81.4646 34.1309 81.3827 32.4711H84.2594L84.4417 34.8082H84.505C85.5953 33.0479 87.2514 32.1697 89.4731 32.1697C91.2072 32.1697 92.6623 32.8581 93.8197 34.2313C94.9808 35.6083 95.565 37.4132 95.565 39.6535Z" fill="white"/>
<path d="M109.167 39.7763C109.167 38.3398 108.843 37.1601 108.196 36.2298C107.488 35.2622 106.54 34.7747 105.349 34.7747C104.541 34.7747 103.808 35.0463 103.153 35.5785C102.494 36.1181 102.07 36.8177 101.869 37.6885C101.765 38.0905 101.717 38.4217 101.717 38.6822V41.1383C101.717 42.2101 102.04 43.1144 102.695 43.8512C103.354 44.5918 104.206 44.9565 105.259 44.9565C106.491 44.9565 107.451 44.4839 108.136 43.5312C108.821 42.5822 109.167 41.3318 109.167 39.7763ZM112.498 39.6535C112.498 42.158 111.824 44.1415 110.469 45.5929C109.256 46.8879 107.753 47.5317 105.955 47.5317C104.016 47.5317 102.625 46.8321 101.772 45.4403H101.717V53.1994H98.4417V37.3201C98.4417 35.746 98.4008 34.1309 98.3226 32.4711H101.199L101.382 34.8082H101.445C102.532 33.0479 104.188 32.1697 106.409 32.1697C108.147 32.1697 109.595 32.8581 110.76 34.2313C111.921 35.6083 112.498 37.4132 112.498 39.6535Z" fill="white"/>
<path d="M131.44 41.4732C131.44 43.2074 130.837 44.6216 129.624 45.7157C128.291 46.9065 126.442 47.5019 124.064 47.5019C121.864 47.5019 120.1 47.0777 118.764 46.2292L119.524 43.5051C120.964 44.3722 122.538 44.8039 124.257 44.8039C125.489 44.8039 126.449 44.5285 127.138 43.974C127.822 43.4158 128.165 42.6715 128.165 41.7412C128.165 40.915 127.886 40.2117 127.32 39.646C126.754 39.0804 125.813 38.5556 124.499 38.0681C120.923 36.7321 119.137 34.7784 119.137 32.2106C119.137 30.5322 119.762 29.1553 121.016 28.0835C122.266 27.0118 123.933 26.4722 126.014 26.4722C127.874 26.4722 129.419 26.7997 130.651 27.4435L129.832 30.1117C128.682 29.4865 127.38 29.1702 125.924 29.1702C124.771 29.1702 123.874 29.453 123.23 30.0187C122.687 30.5248 122.411 31.1426 122.411 31.8682C122.411 32.6758 122.72 33.3419 123.349 33.8666C123.893 34.3504 124.882 34.8751 126.319 35.4445C128.075 36.1516 129.367 36.9777 130.197 37.9267C131.023 38.8757 131.44 40.0591 131.44 41.4732Z" fill="white"/>
<path d="M142.254 34.9274H138.648V42.0763C138.648 43.896 139.284 44.8041 140.561 44.8041C141.141 44.8041 141.629 44.7557 142.012 44.6552L142.101 47.1374C141.461 47.383 140.609 47.5021 139.56 47.5021C138.268 47.5021 137.256 47.1076 136.527 46.3224C135.801 45.5335 135.436 44.2086 135.436 42.3516V34.9274H133.285V32.4713H135.436V29.777L138.648 28.8057V32.4713H142.254" fill="white"/>
<path d="M155.134 39.8209C155.134 38.4626 154.84 37.3015 154.252 36.3265C153.571 35.1505 152.588 34.5626 151.316 34.5626C150.002 34.5626 149.001 35.1505 148.316 36.3265C147.728 37.3015 147.442 38.4849 147.442 39.8842C147.442 41.2425 147.728 42.4036 148.316 43.3749C149.023 44.5509 150.013 45.1388 151.29 45.1388C152.536 45.1388 153.519 44.5434 154.226 43.3451C154.832 42.3552 155.134 41.1792 155.134 39.8209ZM158.528 39.7167C158.528 41.9794 157.884 43.8363 156.589 45.2914C155.234 46.7874 153.437 47.5317 151.197 47.5317C149.031 47.5317 147.311 46.8135 146.028 45.3807C144.747 43.948 144.107 42.1394 144.107 39.9586C144.107 37.6737 144.766 35.8055 146.091 34.3542C147.412 32.8954 149.194 32.1697 151.435 32.1697C153.597 32.1697 155.339 32.8879 156.648 34.3207C157.903 35.7199 158.528 37.5136 158.528 39.7167Z" fill="white"/>
<path d="M169.164 35.3515C168.84 35.292 168.498 35.2622 168.133 35.2622C166.983 35.2622 166.09 35.6976 165.465 36.5647C164.921 37.335 164.65 38.3026 164.65 39.4711V47.2005H161.378L161.404 37.1117C161.404 35.411 161.364 33.8666 161.285 32.4711H164.136L164.255 35.292H164.341C164.687 34.3244 165.234 33.5429 165.978 32.9586C166.708 32.4339 167.496 32.1697 168.345 32.1697C168.646 32.1697 168.922 32.192 169.164 32.2292" fill="white"/>
<path d="M180.674 38.2914C180.696 37.3238 180.484 36.4828 180.041 35.7757C179.476 34.8677 178.601 34.41 177.433 34.41C176.365 34.41 175.494 34.8565 174.828 35.746C174.284 36.453 173.957 37.3015 173.864 38.2914H180.674ZM183.793 39.1399C183.793 39.7279 183.755 40.2191 183.677 40.6247H173.864C173.897 42.0798 174.374 43.1925 175.285 43.9591C176.112 44.6476 177.183 44.9862 178.497 44.9862C179.948 44.9862 181.273 44.7555 182.468 44.2903L182.981 46.5641C181.586 47.167 179.941 47.4759 178.039 47.4759C175.758 47.4759 173.964 46.8023 172.662 45.4551C171.363 44.1154 170.708 42.3105 170.708 40.0479C170.708 37.8262 171.311 35.9767 172.528 34.503C173.797 32.9251 175.516 32.1399 177.675 32.1399C179.796 32.1399 181.407 32.9251 182.497 34.503C183.365 35.7534 183.793 37.3015 183.793 39.1399Z" fill="white"/>
</svg>
