<?xml version="1.0" standalone="no"?>
<svg xmlns="http://www.w3.org/2000/svg" xmlns:xlink="http://www.w3.org/1999/xlink" width="1024" height="303" stroke-linecap="round"><rect fill="white" height="303" width="1024"/><g><path d="M987.416 299.492 L25.682 303.921 L8.098 289.414 L-0.391 277.986 L2.496 31.255 L9.864 19.354 L13.553 4.959 L35.574 -3.821 L996.367 -1.702 L1013.117 13.973 L1026.955 24.621 L1025.182 265.061 L1018.455 282.025 L1013.561 293.414 L1002.318 300.837 L988.805 300.657" stroke="none" stroke-width="0" fill="rgb(0, 0, 0)"/><path d="M989 302.933 M989 302.933 C760.536 278.601, 531.298 278.6, 35 302.933 M989 302.933 C726.074 258.13, 462.9 259.308, 35 302.933 M35 302.933 C14.632 299.413, -0.125 289.38, 0 267.113 M35 302.933 C12.614 299.195, -2.276 287.25, 0 267.113 M0 267.113 C-10.632 190.509, -8.998 117.742, 0 35.82 M0 267.113 C-16.11 193.445, -15.048 118.923, 0 35.82 M0 35.82 C-2.036 13.563, 13.923 -3.747, 35 0 M0 35.82 C4.228 16.73, 12.206 -1.498, 35 0 M35 0 C413.965 33.623, 794.172 33.189, 989 0 M35 0 C383.687 -44.754, 732.492 -44.167, 989 0 M989 0 C1006.611 -3.289, 1021.803 17.183, 1024 35.82 M989 0 C1005.17 2.818, 1019.54 17.417, 1024 35.82 M1024 35.82 C1014.091 87.483, 1013.695 140.136, 1024 267.113 M1024 35.82 C1017.865 100.822, 1018.343 166.6, 1024 267.113 M1024 267.113 C1021.594 288.024, 1009.481 302.671, 989 302.933 M1024 267.113 C1025.795 284.174, 1004.171 298.925, 989 302.933 M989 302.933 C989 302.933, 989 302.933, 989 302.933 M989 302.933 C989 302.933, 989 302.933, 989 302.933" stroke="rgb(0, 0, 0)" stroke-width="1" fill="none"/></g><g><path d="M350.617 82.116 L340.626 56.566 L339.024 75.943 L347.245 75.923 M336.943 82.153 L330.703 96.528 L321.599 100.141 L339.781 46.887 L348.556 45.812 L361.764 102.62 L354.564 97.012 L354.556 85.577" stroke="none" stroke-width="0" fill="rgb(255, 255, 255)"/><path d="M349.092 78.23 M349.092 78.23 C345.818 76.186, 347.295 69.759, 345.049 65.569 M345.049 65.569 C346.952 64.275, 339.363 55.012, 342.456 55.977 M342.456 55.977 C342.402 55.959, 342.342 56.003, 342.303 55.977 M342.303 55.977 C344.959 55.239, 343.898 58.714, 339.881 65.569 M339.881 65.569 C339.698 70.501, 338.838 72.031, 335.915 78.23 M335.915 78.23 C339.907 79.877, 342.57 78.801, 349.092 78.23 M349.092 78.23 C349.092 78.23, 349.092 78.23, 349.092 78.23 M334.389 85.305 M334.389 85.305 C334.97 87.942, 333.083 92.235, 329.965 99.874 M329.965 99.874 C327.625 99.921, 322.435 100.94, 320.278 99.874 M320.278 99.874 C326.246 81.689, 330.801 68.028, 336.754 48.502 M336.754 48.502 C341.524 50.512, 345.776 51.594, 348.71 48.502 M348.71 48.502 C348.372 68.614, 357.188 89.171, 365.396 99.874 M365.396 99.874 C363.546 97.838, 358.914 100.767, 355.346 99.874 M355.346 99.874 C356.588 98.357, 356.09 93.56, 350.693 85.305" stroke="rgb(255, 255, 255)" stroke-width="1" fill="none"/></g><g><path d="M379.034 62.138 L390.596 94 L394.472 61.483 L402.818 59.741 L392.532 102.309 L380.094 99.015 L366.241 65.801" stroke="none" stroke-width="0" fill="rgb(255, 255, 255)"/><path d="M379.412 62.766 M379.412 62.766 C376.454 67.23, 384.539 77.285, 385.438 81.568 M385.438 81.568 C385.557 81.086, 385.984 85.378, 387.936 90.873 M387.936 90.873 C387.995 90.924, 388.106 90.858, 388.165 90.873 M388.165 90.873 C387.702 89.064, 386.217 82.374, 390.682 81.568 M390.682 81.568 C391.113 77.334, 395.908 73.561, 396.632 62.766 M396.632 62.766 C401.545 61.916, 403.842 61.802, 406.452 62.766 M406.452 62.766 C403.777 75.185, 402.664 80.499, 392.284 99.874 M392.284 99.874 C389.632 99.498, 386.066 99.623, 383.074 99.874 M383.074 99.874 C381.369 94.017, 377.322 79.933, 369.268 62.766" stroke="rgb(255, 255, 255)" stroke-width="1" fill="none"/></g><g><path d="M435.774 81.337 L424.131 84.935 L423.759 87.954 L426.821 96.173 L430.17 88.885 L436.086 86.607 L433.012 83.208 M442.024 89.243 L446.647 103.561 L438.293 100.299 L434.322 93.985 L420.327 102.859 L415.422 97.365 L413.123 91.832 L411.96 84.656 L414.676 76.682 L437.165 73.436 L430.531 69.871 L429.843 72.355 L417.171 73.886 L418.443 68.325 L414.752 66.427 L428.276 65.216 L432.277 64.773 L444.796 65.697 L446.422 78.289" stroke="none" stroke-width="0" fill="rgb(255, 255, 255)"/><path d="M434.731 81.72 M434.731 81.72 C430.742 84.22, 421.849 82.601, 421.764 88.661 M421.764 88.661 C424.823 91.873, 426.804 91.947, 427.104 94 M427.104 94 C430.396 92.898, 432.526 93.251, 434.483 88.89 M434.483 88.89 C436.702 86.563, 432.979 87.018, 434.731 86.831 M434.731 86.831 C435.263 84.871, 434.935 85.221, 434.731 81.72 M434.731 81.72 C434.731 81.72, 434.731 81.72, 434.731 81.72 M443.865 90.949 M443.865 90.949 C446.372 97.549, 444.34 100.548, 444.475 99.855 M444.475 99.855 C440.032 99.258, 437.519 101.087, 436.009 99.855 M436.009 99.855 C436.692 99.453, 436.486 97.803, 435.341 95.755 M435.341 95.755 C435.246 95.727, 435.237 95.773, 435.093 95.755 M435.093 95.755 C432.074 99.913, 426.566 98.208, 424.129 100.694 M424.129 100.694 C412.807 97.873, 408.578 91.828, 412.478 89.653 M412.478 89.653 C409.191 83.386, 420.476 74.543, 434.483 75.637 M434.483 75.637 C434.516 75.556, 434.532 75.208, 434.483 75.027 M434.483 75.027 C437.569 71.393, 436.432 65.275, 426.951 68.543 M426.951 68.543 C423.949 71.234, 417 70.038, 416.959 71.289 M416.959 71.289 C416.872 68.724, 415.643 67.644, 415.128 65.187 M415.128 65.187 C418.446 65.39, 425.742 64.527, 428.553 61.926 M428.553 61.926 C441.479 62.563, 447.023 72.563, 443.865 77.62" stroke="rgb(255, 255, 255)" stroke-width="1" fill="none"/></g><g><path d="M458.037 61.715 L464.117 60.564 L468.474 100.793 L457.969 101.441 L453.632 66.547 M463.76 54.181 L461.801 53.855 L457.984 56.283 L455.193 47.896 L462.828 50.224 L468.835 49.24 L463.361 49.642 L468.345 57.51 L462.843 57.522" stroke="none" stroke-width="0" fill="rgb(255, 255, 255)"/><path d="M457.117 62.766 M457.117 62.766 C461.609 63.624, 462.04 63.573, 466.48 62.766 M466.48 62.766 C467.322 77.773, 466.334 89.899, 466.48 99.874 M466.48 99.874 C461.965 99.156, 459.177 98.325, 457.117 99.874 M457.117 99.874 C454.448 88.242, 458.058 68.639, 457.117 62.766 M457.117 62.766 C457.117 62.766, 457.117 62.766, 457.117 62.766 M461.751 57.427 M461.751 57.427 C458.564 56.724, 455.321 57.449, 456.583 52.392 M456.583 52.392 C456.577 51.122, 458.396 48.965, 461.846 47.282 M461.846 47.282 C462.446 48.674, 469.849 48.671, 467.09 52.392 M467.09 52.392 C465.822 54.857, 465.832 57.206, 461.846 57.427" stroke="rgb(255, 255, 255)" stroke-width="1" fill="none"/></g><g><path d="M481.699 103.353 L492.222 100.281 L487.254 48.015 L479.45 47.488 L480.646 101.648" stroke="none" stroke-width="0" fill="rgb(255, 255, 255)"/><path d="M477.078 96.352 M479.089 100.132 C481.63 101.633, 485.232 99.281, 489.928 100.736 M489.431 96.896 C488.259 78.195, 485.857 63.042, 490.695 42.703 M488.54 45.608 C484.648 46.151, 483.891 47.632, 481.206 47.148 M483.714 44.8 C470.471 61.15, 471.911 73.975, 477.028 102.352 M479.962 99.874 C479.962 99.874, 479.962 99.874, 479.962 99.874" stroke="rgb(255, 255, 255)" stroke-width="1" fill="none"/></g><g><path d="M524.942 80.206 L513.796 80.211 L513.418 85.59 L509.172 89.249 L523.669 90.225 L518.428 92.073 L525.167 81.668 M534.296 87.613 L530.672 102.436 L524.606 100.455 L520.618 98.368 L514.272 103.547 L504.04 98.12 L498.689 89.608 L504.796 86.118 L504.458 78.704 L525.807 72.291 L517.96 70.768 L513.783 71.077 L502.83 71.199 L505.946 65.875 L502.884 67.964 L513.954 58.059 L523.992 59.838 L527.092 67.96 L530.134 76.078" stroke="none" stroke-width="0" fill="rgb(255, 255, 255)"/><path d="M522.562 81.72 M522.562 81.72 C518.613 79, 506.209 81.131, 509.595 88.661 M522.562 81.72 C512.045 82.499, 512.198 78.864, 509.595 88.661 M509.595 88.661 C506.498 93.76, 509.025 90.97, 514.935 94 M509.595 88.661 C511.892 92.148, 508.441 90.742, 514.935 94 M514.935 94 C519.009 97.159, 520.843 89.821, 522.333 88.89 M514.935 94 C522.254 93.434, 522.875 95.73, 522.333 88.89 M522.333 88.89 C520.881 92.116, 520.206 86.247, 522.562 86.831 M522.333 88.89 C522.333 91.694, 520.972 84.056, 522.562 86.831 M522.562 86.831 C523.456 84.675, 522.844 85.385, 522.562 81.72 M522.562 86.831 C523.102 84.962, 523.466 83.236, 522.562 81.72 M522.562 81.72 C522.562 81.72, 522.562 81.72, 522.562 81.72 M522.562 81.72 C522.562 81.72, 522.562 81.72, 522.562 81.72 M531.696 90.949 M531.696 90.949 C533.932 92.664, 528.81 100.246, 532.306 99.855 M531.696 90.949 C531.129 95.787, 528.058 96.657, 532.306 99.855 M532.306 99.855 C528.729 99.057, 528.18 100.41, 523.859 99.855 M532.306 99.855 C528.833 100.086, 526.968 100.523, 523.859 99.855 M523.859 99.855 C523.486 98.487, 522.718 96.076, 523.172 95.755 M523.859 99.855 C523.148 98.688, 523.508 97.234, 523.172 95.755 M523.172 95.755 C523.135 95.789, 523.081 95.821, 522.944 95.755 M523.172 95.755 C523.076 95.758, 523.012 95.772, 522.944 95.755 M522.944 95.755 C523.022 96.738, 518.143 100.662, 511.96 100.694 M522.944 95.755 C520.648 100.335, 513.241 103.126, 511.96 100.694 M511.96 100.694 C507.796 103.224, 501.266 93.517, 500.309 89.653 M511.96 100.694 C507.405 101.245, 504.22 95.527, 500.309 89.653 M500.309 89.653 C500.148 81.554, 508.763 77.311, 522.333 75.637 M500.309 89.653 C504.732 83.664, 509.586 78.042, 522.333 75.637 M522.333 75.637 C522.344 75.39, 522.442 75.262, 522.333 75.027 M522.333 75.637 C522.321 75.453, 522.355 75.127, 522.333 75.027 M522.333 75.027 C519.735 70.765, 519.872 66.937, 514.782 68.543 M522.333 75.027 C523.155 76.661, 523.727 72.187, 514.782 68.543 M514.782 68.543 C510.329 71.56, 508.457 71.062, 504.809 71.289 M514.782 68.543 C507.623 66.808, 505.665 70.808, 504.809 71.289 M504.809 71.289 C504.853 69.992, 502.716 68.32, 502.978 65.187 M504.809 71.289 C504.256 69.85, 504.698 68.287, 502.978 65.187 M502.978 65.187 C504.634 67.298, 512.592 59.952, 516.384 61.926 M502.978 65.187 C502.51 61.283, 511.343 57.524, 516.384 61.926 M516.384 61.926 C531.566 58.667, 534.192 66.294, 531.696 77.62 M516.384 61.926 C530.175 62.06, 529.395 72.429, 531.696 77.62" stroke="rgb(255, 255, 255)" stroke-width="1" fill="none"/></g><g><path d="M550.775 80.642 L559.65 93.856 L567.636 91.658 L569.806 85.318 L568.761 70.794 L565.804 70.43 L557.57 67.301 L556.238 74.153 L555.499 84.96 M542.149 44.674 L554.724 43.931 L552.283 64.923 L564.496 59.759 L575.169 60.553 L578.63 66.067 L583.842 76.837 L581.055 95.426 L565.971 100.072 L556.741 96.596 L553.084 92.278 L552.789 102.168 L548.509 98.356 L542.853 87.678" stroke="none" stroke-width="0" fill="rgb(255, 255, 255)"/><path d="M554.331 84.542 M554.331 84.542 C551.05 88.839, 553.067 88.861, 554.56 86.754 M554.56 86.754 C557.62 93.583, 557.316 90.123, 562.855 93.314 M562.855 93.314 C570.249 97.045, 574.812 85.366, 572.313 81.129 M572.313 81.129 C572.898 72.413, 568.423 72.246, 562.931 69.23 M562.931 69.23 C562.662 66.029, 558.929 68.87, 554.636 76.095 M554.636 76.095 C555.34 78.731, 555.642 80.737, 554.331 78.535 M554.331 78.535 C555.826 79.994, 555.683 81.1, 554.331 84.542 M554.331 84.542 C554.331 84.542, 554.331 84.542, 554.331 84.542 M544.949 45.679 M544.949 45.679 C549.694 46.297, 551.258 44.97, 554.331 45.679 M554.331 45.679 C550.726 55.263, 553.808 60.226, 554.331 67.857 M554.331 67.857 C554.369 67.874, 554.419 67.879, 554.484 67.857 M554.484 67.857 C556.574 67.674, 559.927 64.89, 566.364 61.926 M566.364 61.926 C578.084 59.341, 584.573 66.147, 581.829 80.748 M581.829 80.748 C581.243 96.114, 573.693 98.15, 564.991 100.713 M564.991 100.713 C560.389 103.644, 556.59 96.063, 553.263 94.306 M553.263 94.306 C553.239 94.336, 553.18 94.306, 553.111 94.306 M553.111 94.306 C553.315 95.952, 553.629 96.096, 552.653 99.874 M552.653 99.874 C550.193 99.672, 548.417 99.972, 544.644 99.874 M544.644 99.874 C544.46 97.213, 547.175 95.174, 544.949 89.5" stroke="rgb(255, 255, 255)" stroke-width="1" fill="none"/></g><g><path d="M592.079 96.566 L601.336 98.94 L600.297 48.532 L590.404 42.964 L589.093 100.841" stroke="none" stroke-width="0" fill="rgb(255, 255, 255)"/><path d="M596.423 98.658 M593.996 99.306 C595.157 99.498, 595.429 99.579, 602.623 101.591 M600.531 97.054 C600.454 79.68, 596.08 61.9, 603.678 42.326 M600.542 44.639 C599.383 43.243, 595.064 44.751, 594.457 44.439 M592.165 48.73 C597.203 66.586, 598.794 85.918, 593.489 102.977 M592.871 99.874 C592.871 99.874, 592.871 99.874, 592.871 99.874" stroke="rgb(255, 255, 255)" stroke-width="1" fill="none"/></g><g><path d="M639.302 80.893 L633.88 70.908 L630.447 70.031 L626.11 75.246 L625.386 81.153 L641.166 77.611 M619.355 80.264 L625.812 90.116 L630.796 95.755 L645.053 89.667 L646.945 99.709 L640.377 100.77 L624.949 97.443 L615.748 93.294 L617.085 89.139 L614.539 78.75 L616.226 68.368 L622.177 66.843 L632.243 60.606 L641.069 64.697 L643.2 69.538 L647.988 80.102" stroke="none" stroke-width="0" fill="rgb(255, 255, 255)"/><path d="M638.732 77.391 M638.732 77.391 C639.6 76.306, 640.282 64.622, 631.047 68.314 M638.732 77.391 C642.81 78.503, 640.905 68.667, 631.047 68.314 M631.047 68.314 C628.183 64.374, 622.795 76.58, 622.428 77.391 M631.047 68.314 C622.611 69.687, 624.874 70.788, 622.428 77.391 M622.428 77.391 C631.884 79.144, 635.552 79.108, 638.732 77.391 M622.428 77.391 C626.855 77.166, 632.37 77.118, 638.732 77.391 M638.732 77.391 C638.732 77.391, 638.732 77.391, 638.732 77.391 M638.732 77.391 C638.732 77.391, 638.732 77.391, 638.732 77.391 M622.428 83.932 M622.428 83.932 C624.13 91.698, 630.673 89.88, 633.869 93.543 M622.428 83.932 C625.36 87.619, 627.653 91.182, 633.869 93.543 M633.869 93.543 C634.319 90.823, 644.686 91.524, 644.148 91.865 M633.869 93.543 C638.824 93.096, 641.971 95.041, 644.148 91.865 M644.148 91.865 C643.475 93.189, 644.872 95.968, 645.52 98.253 M644.148 91.865 C645.278 93.579, 645.827 96.415, 645.52 98.253 M645.52 98.253 C645.023 95.909, 641.797 98.027, 632.573 100.617 M645.52 98.253 C645.424 96.236, 634.001 101.896, 632.573 100.617 M632.573 100.617 C620.373 98.475, 614.283 93.312, 613.427 81.892 M632.573 100.617 C619.885 104.749, 615.021 95.069, 613.427 81.892 M613.427 81.892 C611.506 68.036, 621.014 58.799, 631.581 61.926 M613.427 81.892 C609.956 67.498, 622.407 63.233, 631.581 61.926 M631.581 61.926 C643.079 59.257, 649.527 69.72, 647.58 79.985 M631.581 61.926 C646.668 62.33, 649.326 70.579, 647.58 79.985 M647.58 79.985 C649.678 83.808, 644.612 82.412, 647.275 83.932 M647.58 79.985 C651.211 80.76, 644.155 86.359, 647.275 83.932" stroke="rgb(255, 255, 255)" stroke-width="1" fill="none"/></g><g><path d="M690.167 95.065 L701.815 90.539 L699.63 82.064 L700.337 76.152 L693.441 64.779 L690.572 72.227 L687.822 84.162 L691.194 93.741 L695.437 90.947 M694.085 102.525 L681.786 96.776 L680.345 89.393 L671.765 83.372 L673.882 77.248 L682.334 67.808 L691.414 58.339 L711.039 70.94 L715.14 83.503 L715.086 87.883 L709.87 97.392 L692.186 97.956" stroke="none" stroke-width="0" fill="rgb(255, 255, 255)"/><path d="M694.127 93.924 M694.127 93.924 C697.323 93.356, 702.629 91.144, 703.185 81.205 M703.185 81.205 C705.712 72.24, 697.837 71.68, 694.203 68.696 M694.203 68.696 C686.559 66.28, 687.235 75.354, 684.898 81.358 M684.898 81.358 C686.752 86.74, 685.888 95.201, 694.032 93.924 M694.032 93.924 C694.038 93.948, 694.073 93.932, 694.127 93.924 M694.127 93.924 C694.127 93.924, 694.127 93.924, 694.127 93.924 M693.822 100.713 M693.822 100.713 C679.93 98.779, 678.258 89.767, 675.229 81.587 M675.229 81.587 C679.049 66.561, 682.339 61.642, 694.432 61.926 M694.432 61.926 C704.935 59.598, 711.412 71.249, 712.872 80.976 M712.872 80.976 C715.242 92.815, 706.889 99.262, 693.898 100.713" stroke="rgb(255, 255, 255)" stroke-width="1" fill="none"/></g><g><path d="M724.225 72.397 L720.965 61.761 L734.103 63.023 L733.952 66.504 L736.543 66.559 L744.241 61.491 L756.899 68.765 L754.111 79.266 L756.949 96.638 L747.386 102.503 L748.163 76.331 L745.733 66.665 L743.907 68.342 L735.511 73.492 L734.582 96.567 L725.233 102.368" stroke="none" stroke-width="0" fill="rgb(255, 255, 255)"/><path d="M723.894 73.806 M723.894 73.806 C723.128 70.968, 725.63 62.602, 723.608 62.746 M723.608 62.746 C725.596 62.494, 726.265 62.937, 731.751 62.746 M731.751 62.746 C730.286 64.352, 732.472 67.359, 732.209 68.314 M732.209 68.314 C732.242 68.266, 732.301 68.329, 732.437 68.314 M732.437 68.314 C733.219 66.18, 739.714 63.914, 744.336 61.926 M744.336 61.926 C748.449 62.383, 754.375 65.241, 757.513 77.849 M757.513 77.849 C759.572 88.978, 760.776 98.305, 757.513 99.855 M757.513 99.855 C755.811 98.792, 748.682 99.411, 748.131 99.855 M748.131 99.855 C751.206 93.754, 748.842 87.265, 748.131 78.917 M748.131 78.917 C747.198 74.792, 747.791 72.663, 741.057 69.535 M741.057 69.535 C739.892 65.841, 735.085 75.611, 733.734 75.027 M733.734 75.027 C732.976 77.338, 733.487 80.466, 733.276 78.001 M733.276 78.001 C733.472 85.676, 730.697 91.565, 733.276 99.855 M733.276 99.855 C730.895 97.933, 726.523 97.875, 723.894 99.855" stroke="rgb(255, 255, 255)" stroke-width="1" fill="none"/></g><g><path d="M800.626 56.522 L804.458 61.483 L812.987 66.718 L810.41 70.993 L798.898 69.864 L799.914 88.727 L802.898 93.81 L809.103 94.363 L805.867 99.179 L800.686 96.893 L790.896 97.774 L787.868 71.43 L786.402 73.34 L789.882 61.125 L787.953 66.243 L795.347 54.912" stroke="none" stroke-width="0" fill="rgb(255, 255, 255)"/><path d="M800.704 53.23 M800.704 53.23 C802.082 57.354, 802.008 57.794, 800.704 62.746 M800.704 62.746 C804.597 61.834, 805.788 63.358, 809.609 62.746 M809.609 62.746 C811.591 64.834, 811.631 67.841, 809.609 69.763 M809.609 69.763 C808.008 69.976, 805.122 71.324, 800.704 69.763 M800.704 69.763 C801.71 76.944, 800.315 78.512, 800.704 86.067 M800.704 86.067 C803.762 93.513, 800.664 92.305, 805.49 92.932 M805.49 92.932 C805.159 94.191, 810.023 95.436, 809.152 92.551 M809.152 92.551 C810.036 94.798, 810.347 99.262, 809.304 99.626 M809.304 99.626 C804.316 97.871, 806.492 101.877, 802.515 100.617 M802.515 100.617 C799.375 102.203, 798.864 100.389, 794.449 97.585 M794.449 97.585 C790.441 97.673, 794.141 94.461, 791.474 87.135 M791.474 87.135 C795.625 81.924, 792.425 82.172, 791.474 69.763 M791.474 69.763 C790.977 69.425, 788.025 70.279, 786.211 69.763 M786.211 69.763 C786.643 67.781, 788.214 66.502, 786.211 62.746 M786.211 62.746 C787.446 62.736, 788.412 62.393, 791.474 62.746 M791.474 62.746 C791.349 59.157, 790.582 56.975, 791.474 55.824" stroke="rgb(255, 255, 255)" stroke-width="1" fill="none"/></g><g><path d="M823.916 48.717 L830.274 47.45 L825.595 67.415 L835.399 65.405 L845.369 63.087 L849.397 70.676 L857.404 76.597 L856.554 100.528 L844.141 96.059 L841.846 73.681 L842.98 68.933 L835.962 65.626 L831.777 72.6 L829.632 96.616 L819.218 96.729" stroke="none" stroke-width="0" fill="rgb(255, 255, 255)"/><path d="M820.04 45.679 M820.04 45.679 C824.633 44.869, 827.5 46.696, 829.422 45.679 M820.04 45.679 C822.074 45.195, 824.568 44.914, 829.422 45.679 M829.422 45.679 C834.714 52.25, 828.271 52.411, 829.422 67.781 M829.422 45.679 C829.122 52.677, 831.214 59.21, 829.422 67.781 M829.422 67.781 C829.46 67.748, 829.495 67.784, 829.575 67.781 M829.422 67.781 C829.444 67.754, 829.5 67.772, 829.575 67.781 M829.575 67.781 C828.876 62.645, 830.76 66.409, 834.227 63.585 M829.575 67.781 C833.881 67.522, 833.651 66.616, 834.227 63.585 M834.227 63.585 C836.418 59.31, 836.289 61.676, 840.692 61.926 M834.227 63.585 C840.291 63.078, 842.341 59.329, 840.692 61.926 M840.692 61.926 C845.455 58.023, 853.189 69.516, 853.64 78.001 M840.692 61.926 C849.768 59.549, 850.607 61.691, 853.64 78.001 M853.64 78.001 C855.046 89.609, 849.498 92.978, 853.64 99.874 M853.64 78.001 C855.102 84.563, 855.081 93.95, 853.64 99.874 M853.64 99.874 C851.041 100.556, 848.417 98.844, 844.277 99.874 M853.64 99.874 C849.203 100.624, 847.314 99.599, 844.277 99.874 M844.277 99.874 C848.433 99.154, 849.242 89.196, 844.277 78.993 M844.277 99.874 C843.222 96.691, 843.553 90.349, 844.277 78.993 M844.277 78.993 C843.493 72.864, 840.805 67.987, 837.107 69.535 M844.277 78.993 C848.455 70.323, 846.485 67.951, 837.107 69.535 M837.107 69.535 C829.681 67.993, 827.635 68.693, 829.803 74.798 M837.107 69.535 C837.693 71.703, 828.456 72.676, 829.803 74.798 M829.803 74.798 C831.971 73.51, 830.238 79.498, 829.422 77.62 M829.803 74.798 C833.738 71.431, 827.741 73.618, 829.422 77.62 M829.422 77.62 C830.214 80.699, 830.125 90.385, 829.422 99.874 M829.422 77.62 C829.789 85.322, 828.163 91.067, 829.422 99.874 M829.422 99.874 C826.539 100.386, 820.8 100.23, 820.04 99.874 M829.422 99.874 C827.617 99.802, 825.64 100.632, 820.04 99.874" stroke="rgb(255, 255, 255)" stroke-width="1" fill="none"/></g><g><path d="M893.562 80.898 L889.915 69.449 L879.447 69.273 L875.233 71.558 L870.742 75.888 L888.871 74.141 M872.419 84.246 L877.347 91.464 L878.076 89.587 L893.972 93.257 L893.116 99.722 L885.189 100.594 L879.087 97.715 L867.112 98.857 L864.489 87.158 L868.514 83.559 L864.324 74.989 L875.278 59.921 L883.744 63.836 L891.002 66.961 L892.8 71.838 L899.396 87.111" stroke="none" stroke-width="0" fill="rgb(255, 255, 255)"/><path d="M889.909 77.391 M889.909 77.391 C893.014 72.219, 885.173 70.682, 882.205 68.314 M882.205 68.314 C875.952 71.929, 875.85 75.517, 873.605 77.391 M873.605 77.391 C875.395 79, 880.626 74.003, 889.909 77.391 M889.909 77.391 C889.909 77.391, 889.909 77.391, 889.909 77.391 M873.605 83.932 M873.605 83.932 C870.479 93.561, 879.355 96.732, 885.028 93.543 M885.028 93.543 C892.535 91.558, 891.617 93.779, 895.306 91.865 M895.306 91.865 C894.817 95.21, 897.654 97.51, 896.698 98.253 M896.698 98.253 C890.321 102.396, 893.068 97.216, 883.731 100.617 M883.731 100.617 C870.513 100.88, 864.028 93.848, 864.605 81.892 M864.605 81.892 C866.851 69.988, 870.523 64.999, 882.739 61.926 M882.739 61.926 C891.246 65.844, 899.148 73.68, 898.738 79.985 M898.738 79.985 C895.599 82.568, 900.887 84.325, 898.433 83.932" stroke="rgb(255, 255, 255)" stroke-width="1" fill="none"/></g><g><path d="M217.8 146.256 L218.952 142.082 L226.848 125.516 L237.163 107.856 L229.601 99.571 L216.134 93.716 L208.721 93.092 L190.935 88.667 L163.417 99.354 L127.928 93.858 L109.846 92.331 L99.51 104.568 L93.184 109.194 L87.48 132.761 L84.51 152.77 L83.561 186.278 L96.563 209.407 L109.833 231.213 L120.852 242.03 L133.357 246.741 L162.973 233.355 L203.644 247.471 L213.467 241.413 L222.882 228.912 L235.854 211.354 L245.409 190.587 L226.51 174.46 L222.195 161.474 L217.135 152.893" stroke="none" stroke-width="0" fill="rgb(255, 255, 255)"/><path d="M217.802 149.682 M217.802 149.682 C215.186 123.1, 240.747 108.721, 239.579 111.315 M239.579 111.315 C227.617 95.768, 213.092 92.849, 202.68 91.369 M202.68 91.369 C184.371 90.526, 173.519 102.147, 164.237 100.675 M164.237 100.675 C158.308 103.08, 143.806 94.646, 130.885 91.807 M130.885 91.807 C117.207 94.308, 99.439 100.501, 89.543 117.017 M89.543 117.017 C73.357 148.792, 88.306 195.249, 102.129 218.445 M102.129 218.445 C112.82 233.805, 122.812 248.366, 133.803 243.883 M133.803 243.883 C145.078 246.815, 154.967 237.747, 166.869 235.722 M166.869 235.722 C185.847 231.803, 186.888 245.178, 200.068 243.578 M200.068 243.578 C214.893 246.234, 225.832 232.033, 230.731 218.903 M230.731 218.903 C237.144 206.258, 245.627 187.853, 244.766 190.337 M244.766 190.337 C244.455 192.624, 218.499 179.857, 217.802 149.682 M217.802 149.682 C217.802 149.682, 217.802 149.682, 217.802 149.682" stroke="rgb(255, 255, 255)" stroke-width="1" fill="none"/></g><g><path d="M190.696 75.55 L199.919 63.777 L201.261 39.707 L184.285 47.087 L176.211 59.287 L162.918 75.821 L160.694 90.599 L180.511 82.039 L190.008 71.676" stroke="none" stroke-width="0" fill="rgb(255, 255, 255)"/><path d="M192.555 74.932 M192.555 74.932 C201.005 69.131, 206.891 57.676, 202.852 42.667 M192.555 74.932 C200.695 65.109, 204.294 57.78, 202.852 42.667 M202.852 42.667 C192.644 46.391, 182.07 46.3, 173.219 57.998 M202.852 42.667 C191.151 47.271, 183.467 53.32, 173.219 57.998 M173.219 57.998 C170.383 67.92, 164.89 76.573, 162.655 89.062 M173.219 57.998 C170.892 62.462, 159.71 79.801, 162.655 89.062 M162.655 89.062 C172.78 92.434, 182.859 84.406, 192.555 74.932 M162.655 89.062 C176.107 91.655, 185.205 81.185, 192.555 74.932 M192.555 74.932 C192.555 74.932, 192.555 74.932, 192.555 74.932 M192.555 74.932 C192.555 74.932, 192.555 74.932, 192.555 74.932" stroke="rgb(255, 255, 255)" stroke-width="1" fill="none"/></g><g><path d="M368.527 198.599 L360.762 155.124 L347.86 197.194 L375.755 196.893 M403.799 238.965 L386.809 242.507 L375.527 214.791 L342.151 210.058 L329.222 240.578 L315.838 239.841 L346.183 139.056 L372.636 140.653" stroke="none" stroke-width="0" fill="rgb(255, 255, 255)"/><path d="M372.452 198.213 M372.452 198.213 C371.557 193.04, 366.191 179.194, 363.604 170.887 M363.604 170.887 C363.751 167.983, 362.299 157.832, 358.321 151.188 M358.321 151.188 C358.238 151.138, 358.233 151.135, 358.016 151.188 M358.016 151.188 C356.235 158.712, 355.073 161.718, 353.039 170.887 M353.039 170.887 C351.481 176.767, 348.307 192.355, 344.344 198.213 M344.344 198.213 C350.696 203.33, 368.479 196.911, 372.452 198.213 M372.452 198.213 C372.452 198.213, 372.452 198.213, 372.452 198.213 M403.038 241.862 M403.038 241.862 C398.204 244.299, 392.648 245.719, 385.171 241.862 M385.171 241.862 C384.776 229.336, 375.5 222.905, 375.388 211.122 M375.388 211.122 C367.013 214.292, 353.951 208.025, 341.407 211.122 M341.407 211.122 C340.924 217.653, 342.698 230.105, 332.082 241.862 M332.082 241.862 C327.675 237.58, 319.552 244.052, 314.691 241.862 M314.691 241.862 C334.378 206.573, 346.489 177.01, 348.406 137.211 M348.406 137.211 C353.807 142.414, 359.193 136.659, 369.191 137.211" stroke="rgb(255, 255, 255)" stroke-width="1" fill="none"/></g><g><path d="M471.721 204.052 L468.874 187.531 L461.657 180.996 L457.752 176.721 L443.724 175.933 L440.822 181.96 L438.339 194.008 L437.894 220.267 L448.489 232.639 L449.97 226.554 L457.708 227.904 L466.395 222.334 L472.277 206.958 M490.932 204.706 L489.303 218.342 L481.655 230.705 L465.16 240.272 L447.992 241.008 L445.439 244.716 L435.802 236.266 L437.345 274.956 L421.116 272.768 L420.189 163.017 L434.104 168.993 L429.352 177.691 L437.723 171.046 L446.84 169.158 L460.717 167.718 L468.778 167.222 L484.879 178.536 L488.797 199.195" stroke="none" stroke-width="0" fill="rgb(255, 255, 255)"/><path d="M472.602 203.819 M472.602 203.819 C475.208 196.042, 470.96 193.001, 467.625 185.646 M472.602 203.819 C473.307 194.061, 468.042 190.747, 467.625 185.646 M467.625 185.646 C461.298 178.938, 457.004 181.589, 453.038 178.19 M467.625 185.646 C460.016 183.565, 461.592 182.231, 453.038 178.19 M453.038 178.19 C445.4 180.922, 447.656 176.179, 441.787 182.309 M453.038 178.19 C449.133 179.145, 446.902 180.892, 441.787 182.309 M441.787 182.309 C437.905 188.474, 434.244 187.666, 435.17 193.121 M441.787 182.309 C439.119 183.676, 432.704 187.079, 435.17 193.121 M435.17 193.121 C434.61 194.542, 430.867 192.914, 434.407 198.213 M435.17 193.121 C436.926 196.089, 429.926 198.955, 434.407 198.213 M434.407 198.213 C432.146 202.54, 432.786 203.232, 434.407 210.798 M434.407 198.213 C434.153 202.046, 434.914 208.263, 434.407 210.798 M434.407 210.798 C432.481 215.157, 438.984 224.468, 439.441 224.7 M434.407 210.798 C434.709 217.276, 440.134 219.25, 439.441 224.7 M439.441 224.7 C439.023 225.675, 450.328 229.56, 452.561 230.363 M439.441 224.7 C444.937 226.581, 451.575 225.845, 452.561 230.363 M452.561 230.363 C455.212 226.605, 465.652 228.763, 467.301 223.06 M452.561 230.363 C460.969 230.227, 465.704 231.135, 467.301 223.06 M467.301 223.06 C472.769 217.045, 472.249 211.075, 472.602 203.819 M467.301 223.06 C473.49 222.491, 473.705 211.902, 472.602 203.819 M472.602 203.819 C472.602 203.819, 472.602 203.819, 472.602 203.819 M472.602 203.819 C472.602 203.819, 472.602 203.819, 472.602 203.819 M489.688 203.19 M489.688 203.19 C491.294 218.007, 488.446 222.345, 479.277 233.624 M489.688 203.19 C492.252 219.13, 482.678 228.119, 479.277 233.624 M479.277 233.624 C473.201 240.881, 465.463 242.352, 456.146 243.559 M479.277 233.624 C470.402 244.187, 460.925 239.137, 456.146 243.559 M456.146 243.559 C447.273 242.299, 438.426 243.109, 434.712 232.842 M456.146 243.559 C444.943 240.873, 443.276 242.482, 434.712 232.842 M434.712 232.842 C434.562 232.873, 434.518 232.868, 434.407 232.842 M434.712 232.842 C434.594 232.869, 434.53 232.865, 434.407 232.842 M434.407 232.842 C437.41 238.845, 436.837 247.169, 434.407 272.601 M434.407 232.842 C431.66 242.933, 431.995 252.032, 434.407 272.601 M434.407 272.601 C433.011 271.552, 424.037 273.902, 417.626 272.601 M434.407 272.601 C430.668 271.378, 428.39 269.901, 417.626 272.601 M417.626 272.601 C418.633 245.158, 416.065 214.809, 417.626 191.233 M417.626 272.601 C423.451 241.292, 421.354 211.913, 417.626 191.233 M417.626 191.233 C416.377 180.261, 414.395 175.902, 417.016 166.386 M417.626 191.233 C417.826 185.574, 420.316 174.634, 417.016 166.386 M417.016 166.386 C417.56 165.981, 421.39 167.768, 431.757 166.386 M417.016 166.386 C423.247 168.677, 427.959 166.864, 431.757 166.386 M431.757 166.386 C429.561 171.561, 432.782 172.023, 432.691 178.362 M431.757 166.386 C431.567 168.088, 431.244 173.034, 432.691 178.362 M432.691 178.362 C432.778 178.291, 432.974 178.268, 433.015 178.362 M432.691 178.362 C432.796 178.36, 432.948 178.322, 433.015 178.362 M433.015 178.362 C437.459 172.302, 446.917 163.517, 458.472 164.842 M433.015 178.362 C435.212 169.148, 443.889 164.156, 458.472 164.842 M458.472 164.842 C465.489 168.543, 473.446 168.223, 480.745 175.406 M458.472 164.842 C462.812 164.952, 476.84 166.255, 480.745 175.406 M480.745 175.406 C483.871 181.319, 489.374 195.005, 489.688 203.19 M480.745 175.406 C482.473 181.422, 485.35 192.177, 489.688 203.19 M489.688 203.19 C489.688 203.19, 489.688 203.19, 489.688 203.19 M489.688 203.19 C489.688 203.19, 489.688 203.19, 489.688 203.19" stroke="rgb(255, 255, 255)" stroke-width="1" fill="none"/></g><g><path d="M561.296 207.367 L554.063 190.652 L554.18 186.37 L541.507 175.68 L537.318 180.143 L528.399 183.044 L524.344 189.853 L520.319 214.501 L528.165 226.852 L540.387 232.523 L551.737 230.391 L559.048 215.369 L557.135 207.321 M577.783 205.559 L571.052 220.255 L567.127 227.619 L557.381 241.523 L532.728 239.281 L532.12 243.259 L521.155 236.627 L517.863 273.28 L504.194 269.093 L507.369 168.287 L515.178 163.655 L519.713 176.077 L525.931 169.19 L539.994 161.889 L544.022 168.707 L557.065 168.328 L574.897 183.06 L576.173 206.044" stroke="none" stroke-width="0" fill="rgb(255, 255, 255)"/><path d="M559.386 203.819 M559.386 203.819 C559.329 194.149, 556.495 187.839, 554.409 185.646 M559.386 203.819 C560.021 194.335, 555.14 186.541, 554.409 185.646 M554.409 185.646 C553.108 183.523, 548.507 181.296, 539.821 178.19 M554.409 185.646 C547.521 178.87, 545.205 179.701, 539.821 178.19 M539.821 178.19 C537.139 178.884, 531.858 180.097, 528.57 182.309 M539.821 178.19 C539.746 178.28, 535.669 183.895, 528.57 182.309 M528.57 182.309 C522.351 186.072, 523.866 188.871, 521.992 193.121 M528.57 182.309 C522.168 185.615, 521.6 187.081, 521.992 193.121 M521.992 193.121 C523.786 194.763, 517.427 194.228, 521.21 198.213 M521.992 193.121 C518.043 193.043, 517.882 198.807, 521.21 198.213 M521.21 198.213 C520.177 200.028, 521.315 204.964, 521.21 210.798 M521.21 198.213 C521.863 204.186, 520.07 208.405, 521.21 210.798 M521.21 210.798 C520.037 218.497, 521.335 224.611, 526.225 224.7 M521.21 210.798 C517.382 217.85, 518.662 223.882, 526.225 224.7 M526.225 224.7 C529.443 226.271, 533.374 234.233, 539.364 230.363 M526.225 224.7 C531.725 230.424, 532.114 231.523, 539.364 230.363 M539.364 230.363 C545.29 227.232, 549.354 227.399, 554.104 223.06 M539.364 230.363 C543.405 231.398, 553.375 228.06, 554.104 223.06 M554.104 223.06 C556.279 219.236, 559.882 208.691, 559.386 203.819 M554.104 223.06 C556.339 217.487, 555.445 211.642, 559.386 203.819 M559.386 203.819 C559.386 203.819, 559.386 203.819, 559.386 203.819 M559.386 203.819 C559.386 203.819, 559.386 203.819, 559.386 203.819 M576.453 203.19 M576.453 203.19 C577.74 213.008, 573.977 224.264, 566.06 233.624 M576.453 203.19 C579.818 219.279, 572.66 222.772, 566.06 233.624 M566.06 233.624 C559.447 240.536, 548.19 240.16, 542.93 243.559 M566.06 233.624 C560.563 240.487, 554.279 242.551, 542.93 243.559 M542.93 243.559 C535.164 241.483, 521.887 241.882, 521.496 232.842 M542.93 243.559 C531.192 246.546, 527.376 235.74, 521.496 232.842 M521.496 232.842 C521.474 232.833, 521.327 232.763, 521.21 232.842 M521.496 232.842 C521.363 232.866, 521.267 232.849, 521.21 232.842 M521.21 232.842 C526.534 243.438, 523.192 261.064, 521.21 272.601 M521.21 232.842 C518.192 248.609, 521.821 266.132, 521.21 272.601 M521.21 272.601 C516.853 273.873, 517.566 271.798, 504.429 272.601 M521.21 272.601 C514.241 272.305, 509.405 271.861, 504.429 272.601 M504.429 272.601 C499.511 250.901, 493.692 235.532, 504.429 191.233 M504.429 272.601 C501.806 242.908, 498.676 215.255, 504.429 191.233 M504.429 191.233 C504.512 179.782, 503.053 171.584, 503.819 166.386 M504.429 191.233 C506.534 179.47, 507.34 178.884, 503.819 166.386 M503.819 166.386 C505.323 164.833, 510.301 167.734, 518.559 166.386 M503.819 166.386 C507.689 165.141, 513.286 165.227, 518.559 166.386 M518.559 166.386 C518.083 171.45, 517.872 170.948, 519.494 178.362 M518.559 166.386 C519.881 171.054, 518.986 174.407, 519.494 178.362 M519.494 178.362 C519.593 178.345, 519.669 178.369, 519.818 178.362 M519.494 178.362 C519.618 178.362, 519.671 178.361, 519.818 178.362 M519.818 178.362 C525.442 169.561, 529.953 162.45, 545.256 164.842 M519.818 178.362 C524.817 164.895, 534.814 161.608, 545.256 164.842 M545.256 164.842 C553.73 167.546, 564.014 170.963, 567.548 175.406 M545.256 164.842 C550.251 168.021, 564.132 165.573, 567.548 175.406 M567.548 175.406 C571.246 180.359, 576.053 188.738, 576.453 203.19 M567.548 175.406 C569.982 186.645, 578.952 196.291, 576.453 203.19 M576.453 203.19 C576.453 203.19, 576.453 203.19, 576.453 203.19 M576.453 203.19 C576.453 203.19, 576.453 203.19, 576.453 203.19" stroke="rgb(255, 255, 255)" stroke-width="1" fill="none"/></g><g><path d="M675.557 214.268 L668.151 233.637 L652.785 243.167 L626.289 240.966 L605.021 233.896 L612.577 225.559 L623.608 228.66 L638.15 230.831 L647.98 229.182 L654.748 219.74 L655.458 211.032 L650.365 207.122 L624.074 185.981 L610.915 175.697 L607.952 156.723 L621.631 141.688 L633.639 140.438 L644.055 133.409 L673.447 141.883 L666.905 152.073 L652.932 153.148 L638.453 149.864 L625.943 159.409 L630.426 164.596 L635.964 175.839 L658.199 188.347 L667.234 197.882 L669.541 205.397 L671.217 213.213" stroke="none" stroke-width="0" fill="rgb(255, 255, 255)"/><path d="M673.513 212.514 M673.513 212.514 C670.627 225.058, 666.429 225.795, 664.207 234.253 M664.207 234.253 C661.016 241.127, 645.271 244.773, 635.718 243.406 M635.718 243.406 C621.956 243.099, 617.616 245.185, 608.563 236.885 M608.563 236.885 C613.359 234.181, 613.236 229.141, 612.454 222.926 M612.454 222.926 C617.874 231.333, 626.313 232.424, 636.709 229.581 M636.709 229.581 C639.399 231.576, 645.056 227.403, 651.469 225.329 M651.469 225.329 C655.288 223.892, 659.824 216.593, 656.732 213.887 M656.732 213.887 C653.519 209.168, 656.367 203.368, 652.403 203.151 M652.403 203.151 C649.394 196.394, 646.809 195.624, 637.949 195.066 M637.949 195.066 C618.513 189.142, 613.785 179.104, 610.47 165.051 M610.47 165.051 C612.815 156.729, 611.14 149.547, 620.1 143.904 M620.1 143.904 C630.309 135.066, 636.574 134.232, 645.71 135.647 M645.71 135.647 C653.27 133.778, 665.848 139.679, 669.47 140.624 M669.47 140.624 C669.092 147.617, 665.255 151.241, 665.275 154.297 M665.275 154.297 C657.571 151.372, 656.296 149.412, 645.252 149.472 M645.252 149.472 C637.359 148.758, 637.347 151.137, 631.446 153.82 M631.446 153.82 C628.854 154.563, 631.077 157.92, 627.251 163.297 M627.251 163.297 C630.743 166.925, 628.876 168.06, 632.057 173.537 M632.057 173.537 C633.743 174.281, 639.207 178.021, 647.274 181.622 M647.274 181.622 C657.011 188.426, 660.179 190.914, 667.144 194.342 M667.144 194.342 C669.026 199.19, 676.456 208.709, 673.513 212.514 M673.513 212.514 C673.513 212.514, 673.513 212.514, 673.513 212.514" stroke="rgb(255, 255, 255)" stroke-width="1" fill="none"/></g><g><path d="M726.601 179.54 L711.518 182.407 L713.426 219.945 L718.619 225.779 L726.485 230.102 L724.536 239.816 L718.167 245.65 L708.22 244.89 L700.977 240.354 L696.12 230.428 L690.704 178.624 L686.046 178.699 L682.989 166.195 L691.764 168.641 L697.183 154.867 L707.948 147.037 L707.022 168.336 L727.27 168.281" stroke="none" stroke-width="0" fill="rgb(255, 255, 255)"/><path d="M728.927 178.973 M728.927 178.973 C724.716 180.533, 722.646 177.993, 710.449 178.973 M710.449 178.973 C710.06 188.841, 706.494 193.427, 710.449 215.604 M710.449 215.604 C712.702 227.613, 714.617 225.868, 720.251 229.582 M720.251 229.582 C722.884 230.846, 727.861 227.923, 727.688 228.819 M727.688 228.819 C731.468 230.237, 728.078 233.473, 728.145 241.538 M728.145 241.538 C725.874 243.372, 716.571 247.129, 715.121 243.407 M715.121 243.407 C711.011 241.768, 699.71 240.774, 699.58 237.362 M699.58 237.362 C696.1 231.544, 695.998 223.717, 693.993 217.015 M693.993 217.015 C693.024 204.716, 694.804 191.803, 693.993 178.973 M693.993 178.973 C689.575 176.829, 689.128 179.059, 682.971 178.973 M682.971 178.973 C683.645 175.962, 683.606 171.497, 682.971 166.387 M682.971 166.387 C686.734 165.783, 688.061 163.979, 693.993 166.387 M693.993 166.387 C696.229 160.901, 695.066 158.452, 693.993 152.581 M693.993 152.581 C697.072 148.43, 704.154 149.23, 710.449 147.604 M710.449 147.604 C708.41 151.573, 712.813 161.03, 710.449 166.387 M710.449 166.387 C717.855 167.662, 718.887 171.365, 728.927 166.387" stroke="rgb(255, 255, 255)" stroke-width="1" fill="none"/></g><g><path d="M791.135 203.589 L794.442 192.771 L786.586 179.716 L776.119 180.854 L773.111 175.748 L766.891 184.508 L755.844 192.013 L753.766 201.197 L757.986 216.89 L756.441 224.519 L768.097 227.412 L782.213 233.321 L790.609 220.832 L796.687 203.961 M810.656 207.432 L807.999 221.639 L801.408 228.522 L792.377 236.794 L777.352 241.394 L763.134 242.913 L750.662 231.764 L739.349 221.858 L734.578 201.871 L736.99 188.094 L747.929 179.311 L757.83 169.807 L774.015 166.604 L792.729 169.634 L801.787 172 L809.264 187.624 L811.536 206.891" stroke="none" stroke-width="0" fill="rgb(255, 255, 255)"/><path d="M794.926 204.048 M794.926 204.048 C795.394 200.76, 789.549 194.768, 790.407 186.142 M790.407 186.142 C789.912 183.261, 782.041 175.189, 775.361 177.103 M775.361 177.103 C769.573 175.256, 762.878 181.549, 759.991 186.142 M759.991 186.142 C760.4 191.488, 753.017 194.773, 755.51 204.372 M755.51 204.372 C752.542 211.405, 756.039 216.404, 759.991 222.259 M759.991 222.259 C767.005 230.143, 770.615 228.898, 775.228 231.297 M775.228 231.297 C778.81 232.979, 787.787 229.045, 790.273 222.106 M790.273 222.106 C793.951 214.411, 794.127 214.365, 794.926 204.048 M794.926 204.048 C794.926 204.048, 794.926 204.048, 794.926 204.048 M812.317 203.514 M812.317 203.514 C814.133 216.998, 805.18 223.742, 802.382 232.079 M802.382 232.079 C799.357 242.031, 788.713 247.13, 774.751 243.559 M774.751 243.559 C760.261 245.794, 757.181 241.996, 748.264 232.537 M748.264 232.537 C738.777 221.414, 736.7 217.287, 738.424 204.753 M738.424 204.753 C739.39 190.376, 738.244 181.361, 748.588 176.035 M748.588 176.035 C755.862 168.392, 764.936 165.053, 775.971 164.842 M775.971 164.842 C784.81 160.92, 794.519 171.942, 802.687 175.864 M802.687 175.864 C811.174 180.844, 814.229 191.734, 812.317 203.514 M812.317 203.514 C812.317 203.514, 812.317 203.514, 812.317 203.514" stroke="rgb(255, 255, 255)" stroke-width="1" fill="none"/></g><g><path d="M865.601 184.683 L851.672 179.809 L845.024 193.109 L846.95 204.304 L846.125 238.232 L825.366 239.117 L822.479 163.926 L837.958 163.227 L840.973 181.889 L847.265 171.878 L862.387 164.246 L863.726 161.594" stroke="none" stroke-width="0" fill="rgb(255, 255, 255)"/><path d="M866.817 181.146 M866.817 181.146 C866.684 180.406, 860.459 182.937, 861.535 180.688 M866.817 181.146 C865.286 180.927, 863.585 178.982, 861.535 180.688 M861.535 180.688 C854.088 180.153, 854.942 183.206, 847.862 187.362 M861.535 180.688 C852.299 176.722, 853.601 186.825, 847.862 187.362 M847.862 187.362 C848.498 190.651, 847.501 196.223, 843.686 202.255 M847.862 187.362 C845.51 187.252, 842.22 200.768, 843.686 202.255 M843.686 202.255 C850.177 208.994, 850.682 226.581, 843.686 241.862 M843.686 202.255 C840.577 212.521, 839.086 224.682, 843.686 241.862 M843.686 241.862 C839.495 243.581, 836.727 240.627, 826.924 241.862 M843.686 241.862 C838.732 239.722, 832.968 240.896, 826.924 241.862 M826.924 241.862 C830.207 226.335, 833.52 201.76, 827.058 190.166 M826.924 241.862 C833.611 222.976, 832.768 200.881, 827.058 190.166 M827.058 190.166 C824.602 180.188, 824.859 171.333, 826.448 166.386 M827.058 190.166 C822.668 182.203, 828.527 169.16, 826.448 166.386 M826.448 166.386 C829.593 162.043, 833.772 162.449, 841.055 166.386 M826.448 166.386 C830.012 165.828, 832.138 163.821, 841.055 166.386 M841.055 166.386 C841.801 170.253, 840.288 174.487, 841.665 180.841 M841.055 166.386 C839.958 171.286, 840.324 175.405, 841.665 180.841 M841.665 180.841 C841.811 180.822, 842.066 180.856, 842.103 180.841 M841.665 180.841 C841.761 180.786, 841.834 180.871, 842.103 180.841 M842.103 180.841 C843.528 173.542, 846.2 172.443, 850.494 168.884 M842.103 180.841 C846.577 172.819, 849.285 168.146, 850.494 168.884 M850.494 168.884 C850.66 166.516, 854.985 164.347, 862.622 164.842 M850.494 168.884 C850.627 168.12, 861.025 164.826, 862.622 164.842 M862.622 164.842 C862.849 166.514, 863.933 162.709, 866.817 165.147 M862.622 164.842 C868.633 163.616, 861.136 166.067, 866.817 165.147" stroke="rgb(255, 255, 255)" stroke-width="1" fill="none"/></g><g><path d="M922.092 193.24 L924.079 189.481 L917.408 176.47 L907.375 176.096 L899.145 177.871 L892.901 181.713 L891.246 197.019 L926.718 195.145 M939.523 199.305 L937.213 207.502 L894.385 205.389 L889.4 221.068 L905.187 225.593 L911.552 229.021 L937.677 227.843 L940.722 237.133 L923.737 241.99 L901.478 241.336 L887.848 239.578 L881.751 228.994 L877.578 210.767 L877.555 199.258 L879.772 184.719 L891.683 171.178 L899.601 161.857 L920.274 167.627 L931.947 172.101 L941.465 180.466 L945.719 203.459" stroke="none" stroke-width="0" fill="rgb(255, 255, 255)"/><path d="M925.797 196.21 M925.797 196.21 C926.686 190.995, 928.128 184.097, 922.556 183.319 M922.556 183.319 C920.198 179.369, 912.257 174.505, 909.188 176.321 M909.188 176.321 C903.826 174.311, 897.149 177.908, 895.84 183.167 M895.84 183.167 C891.215 184.885, 888.905 192.72, 890.901 196.21 M890.901 196.21 C905.365 195.671, 913.578 193.706, 925.797 196.21 M925.797 196.21 C925.797 196.21, 925.797 196.21, 925.797 196.21 M941.777 200.558 M941.777 200.558 C941.846 204.008, 939.301 209.746, 941.186 208.166 M941.186 208.166 C920.37 205.54, 898.438 205.319, 890.901 208.166 M890.901 208.166 C893.6 216.518, 894.347 217.561, 898.185 225.252 M898.185 225.252 C903.56 232.699, 907.094 227.241, 914.642 230.515 M914.642 230.515 C922.443 232.885, 932.701 229.633, 934.989 226.949 M934.989 226.949 C934.268 227.877, 933.919 231.153, 937.62 238.601 M937.62 238.601 C926.786 240.767, 918.114 242.394, 912.297 243.273 M912.297 243.273 C896.83 245.282, 887.665 240.228, 884.742 232.918 M884.742 232.918 C874.829 222.178, 872.752 213.616, 874.73 205.211 M874.73 205.211 C872.848 191.624, 874.899 182.945, 884.055 176.798 M884.055 176.798 C887.725 166.751, 896.36 166.478, 910.428 164.689 M910.428 164.689 C923.295 161.085, 926.725 166.766, 935.141 176.798 M935.141 176.798 C936.979 180.639, 940.239 189.502, 941.777 200.558 M941.777 200.558 C941.777 200.558, 941.777 200.558, 941.777 200.558" stroke="rgb(255, 255, 255)" stroke-width="1" fill="none"/></g></svg>