<svg width="252" height="252" viewBox="0 0 252 252" fill="none" xmlns="http://www.w3.org/2000/svg">
<rect width="252" height="252" fill="url(#paint0_linear_449_2)"/>
<path d="M112.376 47.1957L246.581 46.5052L249.208 48.5935L250.201 50.9007L250.252 68.8193L249.511 71.0592L246.075 72.3222L112.511 72.4906L109.833 71.4465L108.385 69.2404L106.65 53.3594L108.873 49.0314L112.376 46" fill="#D81159"/>
<path d="M7.54703 118.825L105.426 118.32L107.834 118L110.327 121.419L111.472 139.102L110.36 140.634L109.198 141.493L104.938 143.312L6.16608 142.908L4.46515 141.325L3.35366 139.607L1.29907 124.669L3.70731 118.724H7.63123" fill="#FFBC42"/>
<path d="M155.296 204.893L247.988 204.354L251.5 204.354V214V224.531V230.594H243.5H237.425L153.982 231.181L152.366 229.463L151.305 227.594L149.351 211.275L151.625 204.792H155.33" fill="#8F2D56"/>
<path d="M243.564 47.121C247.555 46.4642 249.694 48.3336 249.458 54.3121M242.991 47.1716C247.774 47.6094 249.424 49.9503 249.02 53.6553M249.289 67.128C249.576 71.2371 246.713 74.3695 244.254 74.74M249.357 67.1953C249.003 71.9108 247.824 73.4264 243.665 72.8202M113.148 73.7969C109.645 73.2243 107.49 71.5571 107.809 67.2964M112.744 74.74C108.584 74.0495 108.399 71.5908 108.197 67.9026M107.422 53.79C106.647 48.822 108.652 48.081 112.996 46.0769M106.984 54.8678C106.883 49.9671 108.988 47.5084 113.114 47.3905M112.794 47.4242C145.196 46.1779 177.564 45.8243 243.159 46.2958L112.794 47.4242ZM113.098 46.7674C160.302 46.5148 207.238 46.8179 243.58 47.1042L113.098 46.7674ZM249.138 54.6994C249.896 56.7708 249.677 61.4863 249.441 66.0838L249.138 54.6994ZM249.458 54.2616C249.458 58.1686 249.39 63.2209 249.003 67.3469L249.458 54.2616ZM243.732 74.5716C200.097 74.3527 157.473 74.9926 113.721 74.5211L243.732 74.5716ZM243.85 73.9148C209.966 72.9212 176.268 73.5275 113.249 73.4096L243.85 73.9148ZM107.119 66.6564C106.782 61.1663 107.995 57.8655 106.647 53.4869L107.119 66.6564ZM107.591 67.4311C106.967 62.3115 107.776 56.434 107.843 54.3121L107.591 67.4311Z" stroke="black" stroke-width="2" stroke-miterlimit="8"/>
<path d="M104.47 119.133C107.687 118.325 110.348 121.104 110.196 126.324M104.723 119.807C107.636 118.881 110.533 122.198 109.792 126.274M110.785 137.928C110.634 141.279 109.691 145.119 104.538 143.334M111.695 137.928C110.044 142.273 107.771 143.384 105.329 144.765M8.40997 144.192C5.14285 143.232 2.01045 142.862 1.6568 137.574M8.3763 144.647C3.91347 144.024 1.06736 141.447 1 137.305M2.09465 125.398C1.13473 122.097 4.55342 119.638 7.46689 119.015M2.16202 126.223C2.86934 121.693 3.02091 118.999 9.38675 119.79M7.97211 119.605C36.2816 120.666 62.9406 119.133 105.38 119.504L7.97211 119.605ZM8.07316 119.318C42.7148 118.46 77.4911 118.207 104.74 118.965L8.07316 119.318ZM110.55 125.533C109.859 129.137 110.449 130.619 111.004 138.163L110.55 125.533ZM110.499 125.196C110.954 127.857 110.752 131.242 110.802 138.298L110.499 125.196ZM103.679 144.26C71.6473 144.462 40.3739 144.159 8.56154 144.277L103.679 144.26ZM104.824 144.209C70.8895 144.226 36.77 145.186 8.0058 143.94L104.824 144.209ZM2.90302 138.096C2.70093 134.071 2.14518 129.389 1.94309 126.19L2.90302 138.096ZM2.41464 137.726C2.12834 133.33 2.41463 128.497 2.54936 124.994L2.41464 137.726Z" stroke="black" stroke-width="2" stroke-miterlimit="8"/>
<path d="M156.697 231.531C151.038 232.373 150.887 228.668 148.916 224.053M156.495 231.682C153.48 232.373 150.937 228.398 149.927 225.62M149.893 211.271C148.984 205.899 151.224 204.636 157.101 204.013M149.641 210.362C149.708 206.741 153.413 205.259 156.781 205.141M157.438 205.36C188.391 204.754 224.996 204.282 251.318 205.394L157.438 205.36ZM157.253 204.4C175.154 205.124 197.663 205.545 250.257 204.164L157.253 204.4ZM251.672 230.571C230.671 231.211 202.319 231.901 157.64 230.79L251.672 230.571ZM251.318 232.019C223.194 230.689 188.29 231.329 156.242 232.103L251.318 232.019ZM149.186 224.037C150.466 222.588 149.304 219.658 150.668 211.709L149.186 224.037ZM149.792 224.458C149.674 221.207 149.708 218.732 149.607 211.524L149.792 224.458Z" stroke="black" stroke-width="2" stroke-miterlimit="8"/>
<path d="M115.168 47.8443C112.268 49.0852 103.149 50.9396 100.514 51.3579M117.761 45C114.457 45.8226 100.96 47.9838 97.851 49.3083L117.761 45Z" stroke="black" stroke-width="2"/>
<path d="M188.925 72.7474C186.722 70.182 174.592 58.3864 171.525 56.1695M186.946 69.2757C184.004 67.1006 170.479 59.948 167.9 58.1075L186.946 69.2757Z" stroke="black" stroke-width="2"/>
<path d="M150.203 205.864L70.2196 186.098C59.5579 183.469 53.0633 172.716 55.6974 162.075L72.9512 92.5247C75.5852 81.8835 86.3584 75.4014 97.0201 78.0304L177.003 97.7967C187.665 100.426 194.16 111.178 191.526 121.819L174.286 191.3C171.652 201.956 160.851 208.493 150.203 205.864Z" fill="white"/>
<path d="M132.485 103.549L133.308 103.563C132.959 103.41 132.653 103.396 132.485 103.549Z" fill="#BACEE5"/>
<path d="M151.545 113.644L149.9 112.863C150.039 113.086 150.179 113.253 150.332 113.407C150.862 113.797 151.42 114.118 151.963 114.508C152.716 114.564 152.159 113.226 151.545 113.644Z" fill="#BACEE5"/>
<path d="M196.636 117.715L201.112 106.045L196.259 95.9923L190.097 87.4454L175.833 84.0434L104.628 64.9139L107.36 65.0812L95.6625 61.9999L85.8747 64.7605L73.4657 71.4809L70.454 78.2571L65.8808 89.0767L50 151.986L53.4439 160.812L53.402 168.383L56.1627 174.058C56.0093 169.345 56.3161 164.744 57.2642 160.422C58.7282 153.506 61.8513 146.507 65.7971 140.024C66.5361 138.058 67.3169 136.161 68.1953 134.419C73.2983 124.296 80.5486 117.994 90.3364 112.138C91.0753 111.692 91.884 111.26 92.7624 110.772C97.0847 107.607 101.518 105.041 105.799 103.563C108.978 102.448 112.505 102.002 116.2 101.904C120.634 100.593 124.538 99.6732 126.992 99.1991C133.071 98.1116 133.378 101.737 133.81 103.354L135.441 103.382C145.006 104.358 153.107 109.907 159.98 118.44C162.699 121.772 165.53 126.137 168.137 130.961C169.001 132.313 169.81 133.652 170.563 134.976C172.585 138.824 174.104 143.119 175.136 147.678C175.805 150.062 176.321 152.335 176.656 154.566C177.423 160.129 177.242 165.971 176.321 171.743C175.178 180.945 171.678 191.528 167.384 200.702L173.728 195.767L182.805 182.075L196.636 117.715Z" fill="#BFBFBF"/>
<path d="M175.022 81.189C195.321 87.7022 202.129 99.062 197.27 119.568M172.474 82.8418C197.744 85.0689 201.322 101.079 199.818 118.238M182.888 180.849C178.071 199.913 164.371 210.152 146.453 203.218M184.503 180.177C178.962 201.664 164.789 208.233 146.314 206.048M75.5177 186.634C55.8591 181.353 47.8675 168.131 54.6618 148.731M75.4063 188.889C56.1375 182.754 47.603 168.691 50.7495 145.902M67.6933 87.0439C74.8912 67.308 88.0759 58.0773 104.198 64.4365M68.5704 89.173C73.3458 66.4115 85.723 60.7947 106.287 64.1984M105.618 66.1314C133.923 68.3585 158.538 75.0539 175.593 81.4691L105.618 66.1314ZM106.37 64.6046C129.509 70.8798 154.486 77.6732 175.969 80.9228L106.37 64.6046ZM199.609 119.33C193.094 138.856 189.71 153.9 184.253 182.264L199.609 119.33ZM197.716 119.806C195.516 135.396 190.281 148.507 181.733 181.185L197.716 119.806ZM143.07 205.936C118.859 198.89 93.8537 193.483 76.2278 185.864L143.07 205.936ZM144.629 204.479C124.901 198.428 108.138 193.932 74.4039 186.354L144.629 204.479ZM53.1581 149.487C57.5298 124.793 65.4378 102.928 68.6957 84.8168L53.1581 149.487ZM52.4481 148.997C58.1981 129.471 62.5001 108.111 66.8579 87.3521L52.4481 148.997Z" stroke="black" stroke-width="2"/>
<path d="M143.601 145.996C148.13 146.205 152.893 150.315 155.239 153.151C157.595 155.996 158.188 158.839 157.533 163.166C156.877 167.492 154.59 174.807 151.274 179.282C147.958 183.757 142.571 187.637 137.835 190.104C133.098 192.571 127.507 193.926 122.787 194.083C118.066 194.24 112.397 193.729 109.551 191.042C106.694 188.347 105.349 182.457 105.524 177.882C105.699 173.306 107.404 167.497 110.641 163.317C113.877 159.138 119.426 155.588 124.638 152.825C129.85 150.063 138.476 147.75 141.818 146.79C145.215 145.785 143.911 146.52 144.947 146.971C145.983 147.422 147.984 149.292 147.986 149.599L143.601 145.996ZM120.503 156.54C124.757 153.121 129.936 151.015 134.959 149.629C139.982 148.242 147.032 147.108 150.804 148.265C154.577 149.422 156.456 152.543 157.473 156.454C158.49 160.365 158.507 166.952 156.82 171.66C155.133 176.367 151.535 180.99 147.215 184.842C142.895 188.694 136.032 193.367 130.802 194.764C125.597 196.218 119.64 194.914 115.878 193.369C112.059 191.85 109.546 189.219 108.017 185.538C106.488 181.857 105.291 175.854 106.775 171.593C108.259 167.332 114.973 162.159 116.852 159.751C118.696 157.296 117.424 157.949 117.762 157.073C118.111 156.206 118.23 154.43 118.912 154.609" fill="#681717"/>
<path d="M144.703 147.996C149.778 148.111 155.053 149.523 157.49 152.38C159.901 155.179 160.324 160.765 159.339 164.877C158.355 168.989 155.39 172.814 151.686 176.971C147.981 181.128 141.884 186.913 136.958 189.766C132.033 192.619 126.632 193.894 122.265 194.016C117.906 194.127 113.689 192.39 110.755 190.208C107.878 188 104.634 185.204 104.777 180.8C104.928 176.386 108.149 168.304 111.43 163.783C114.712 159.262 119.501 156.136 124.52 153.521C129.538 150.906 138.439 149.16 141.441 148.066C144.405 146.996 142.05 147.232 142.404 147.197C142.722 147.115 143.271 147.545 143.339 147.727M143.154 147.864C147.583 148.153 152.269 150.615 154.567 153.268C156.864 155.92 157.563 159.229 156.933 163.613C156.304 167.996 153.807 175.302 150.616 179.536C147.424 183.77 143.169 186.487 138.071 189C132.938 191.468 124.949 194.301 120.034 194.299C115.119 194.298 111.021 191.776 108.677 188.851C106.332 185.926 105.57 180.909 105.975 176.845C106.379 172.782 107.875 168.44 111.168 164.523C114.36 160.595 120.35 156.11 125.367 153.277C130.409 150.502 137.488 148.275 141.38 147.656C145.28 147.027 146.814 149.181 148.797 149.686C150.734 150.224 153.364 150.862 153.137 150.875L143.154 147.864Z" stroke="black" stroke-width="2"/>
<path d="M105.309 156.139C109.868 156.193 115.212 157.794 119.42 159.921C123.627 162.047 128.306 165.241 130.691 168.917C133.131 172.676 135.049 178.631 133.907 182.268C132.765 185.904 127.817 188.535 123.84 190.595C119.862 192.655 115.176 194.592 110.171 194.545C105.165 194.498 98.2131 193.166 93.9171 190.452C89.6212 187.738 86.1645 182.067 84.5362 178.138C82.9633 174.238 83.0213 170.376 84.3839 166.924C85.7465 163.473 86.4215 158.449 92.6848 157.372C98.9341 156.294 115.108 157.318 121.742 160.332C128.376 163.346 132.587 175.443 132.668 175.653L105.309 156.139ZM94.3091 156.922C98.3863 154.696 103.953 153.567 108.737 154.447C113.576 155.343 119.01 159.315 123.247 162.265C127.469 165.284 132.388 168.287 133.986 172.327C135.53 176.352 134.692 182.921 132.673 186.446C130.654 189.972 126.436 192.293 121.858 193.493C117.28 194.693 110.101 194.516 105.081 193.576C100.062 192.636 95.2598 191.114 91.8345 187.995C88.4092 184.875 85.3073 178.791 84.5717 174.848C83.7666 170.889 85.7089 166.902 87.1306 164.163C88.5372 161.493 91.9394 159.647 93.0833 158.688C94.283 157.73 93.9947 158.354 94.1901 158.343" fill="#681717"/>
<path d="M102.181 155.492C106.84 155.381 115.632 158.651 120.714 161.014C125.796 163.377 130.342 166.15 132.631 169.741C134.92 173.331 135.808 179.145 134.39 182.582C133.042 186.034 128.503 188.322 124.386 190.422C120.283 192.508 114.641 194.905 109.606 194.969C104.572 195.033 98.2609 193.697 94.2457 190.862C90.1897 187.956 87.036 181.606 85.393 177.733C83.7497 173.873 83.3016 171.217 84.4835 167.721C85.6508 164.28 89.1883 158.993 92.5088 157.021C95.8295 155.035 102.285 156.038 104.409 155.707C106.505 155.432 105.298 154.995 105.155 155.272M120.521 158.11C125.215 160.3 129.756 165.235 131.68 168.987C133.604 172.739 133.239 176.569 132.119 180.596C130.999 184.623 128.55 190.763 124.808 192.952C121.066 195.141 114.988 194.101 109.739 193.548C104.491 192.996 97.9107 191.949 93.3858 189.622C88.861 187.295 84.3962 183.755 82.6574 179.755C80.9189 175.741 81.1398 169.386 82.9533 165.62C84.7671 161.841 89.0102 158.781 93.4412 157.146C97.8722 155.511 103.251 153.891 109.72 155.843C116.189 157.794 128.276 164.418 132.224 168.954C136.172 173.489 133.872 182.714 133.338 183.026L120.521 158.11Z" stroke="black" stroke-width="2"/>
<path d="M132.847 155.644C136.139 156.423 139.353 160.741 141.563 164.007C143.797 167.215 146.25 171.205 146.133 174.999C146.015 178.78 143.899 183.639 140.879 186.839C137.884 189.982 132.102 193.683 128.171 194.036C124.25 194.332 120.523 191.165 117.45 188.807C114.377 186.45 110.744 183.43 109.86 179.715C108.962 176.001 110.148 170.167 112.116 166.463C114.083 162.758 117.611 158.785 121.891 157.557C126.17 156.329 134.177 158.268 137.698 159.144C141.174 159.952 142.815 162.626 142.891 162.509L132.847 155.644ZM129.97 153.945C133.297 153.114 136.137 154.676 138.846 157.658C141.544 160.696 145.634 167.738 146.167 172.077C146.7 176.416 144.264 180.221 141.943 183.417C139.621 186.614 135.553 189.812 132.219 191.398C128.885 192.983 125.417 194.228 121.934 193.099C118.452 191.97 113.16 188.15 111.501 184.555C109.842 180.946 110.914 175.721 111.924 171.477C112.934 167.234 114.908 161.475 117.666 158.977C120.367 156.468 126.375 156.679 128.308 156.33C130.243 155.995 129.213 156.495 129.153 156.862" fill="#681717"/>
<path d="M119.736 172.367C124.843 172.036 131.37 173.582 135.901 174.714C140.431 175.845 145.712 177.346 147.043 179.342C148.374 181.323 147.165 184.224 144.003 186.525C140.851 188.77 133.804 191.924 128.186 192.973C122.567 194.022 115.806 193.176 110.349 192.636C104.893 192.095 98.2909 191.336 95.5411 189.657C92.7209 187.967 92.12 184.737 93.6025 182.391C95.085 180.045 98.7042 177.254 104.47 175.678C110.236 174.102 122.904 173.377 128.331 173.039C133.815 172.711 137.246 173.704 137.271 173.647L119.736 172.367ZM114.844 172.126C119.421 170.949 124.253 171.138 129.432 172.129C134.61 173.121 143.487 175.786 145.982 177.846C148.478 179.919 146.475 182.424 144.278 184.523C142.142 186.702 137.34 189.137 133.057 190.742C128.774 192.348 124.167 193.695 118.6 193.819C113.079 194.009 103.679 193.194 99.827 191.754C95.975 190.313 95.4469 187.343 95.3055 184.949C95.178 182.554 95.7265 179.165 98.7374 177.335C101.748 175.505 110.707 174.253 113.365 173.661C116.024 173.083 114.825 173.553 114.781 173.737" fill="#C90606"/>
<path d="M123.949 175.545C129.839 175.372 136.289 175.176 140.146 176.329C144.02 177.491 147.256 180.593 147.218 182.498C147.194 184.398 143.452 185.948 139.8 187.791C136.204 189.632 130.812 192.422 125.524 193.477C120.235 194.532 113.013 195.209 108.043 194.231C103.074 193.253 97.961 189.333 95.5429 187.542C93.1822 185.749 92.7263 185.348 93.7429 183.454C94.7595 181.561 97.3256 177.802 101.672 176.23C106.076 174.655 116.464 174.626 120.057 174.082C123.65 173.538 123.084 173.01 123.329 173.052C123.579 173.108 121.761 173.743 121.548 174.245M100.55 176.903C103.972 175.26 109.761 173.064 115.41 172.964C121.059 172.863 129.786 175.198 134.563 176.118C139.347 177.108 142.912 177.053 144.29 178.822C145.668 180.591 145.114 184.311 142.778 186.705C140.441 189.098 135.182 192.183 130.083 193.239C124.984 194.295 117.626 193.556 112.315 193.089C107.005 192.622 101.251 191.793 98.0439 190.429C94.837 189.066 92.958 186.938 93.0888 184.714C93.2195 182.491 97.0807 178.487 98.7991 177.183C100.518 175.879 102.41 176.94 103.512 176.826C104.613 176.712 105.2 176.244 105.219 176.501L100.55 176.903Z" stroke="black" stroke-width="2"/>
<path d="M121.812 61.2449C125.562 63.6988 129.634 69.75 131.097 75.2992C132.506 80.8345 132.157 87.8895 130.484 94.3729C128.811 100.856 124.865 108.664 121.073 114.311C117.28 119.944 112.679 125.256 107.632 128.24C102.585 131.224 95.3762 133.301 90.7472 132.339C86.1182 131.377 82.4233 127.124 79.8858 122.565C77.3482 118.006 75.94 111.16 75.5775 104.942C75.2149 98.723 75.6053 91.2916 77.8083 85.1986C80.0113 79.1056 84.222 73.0684 88.7115 68.2302C93.2569 63.406 99.6426 58.0381 104.857 56.4207C110.072 54.8034 116.834 57.1039 120.013 58.2751C123.206 59.4463 123.429 62.5974 124.182 63.42C124.935 64.2426 124.879 62.9041 124.433 63.169L121.812 61.2449ZM118.228 57.327C122.439 58.1775 125.562 61.4122 127.863 66.1667C130.149 70.963 132.38 79.3566 132.004 85.9654C131.613 92.6301 128.992 99.8942 125.702 106.029C122.411 112.164 116.667 118.271 112.205 122.732C107.743 127.194 103.435 131.879 98.9873 132.674C94.4978 133.454 88.9207 130.694 85.3374 127.529C81.7402 124.42 78.6449 119.804 77.4597 113.879C76.2746 107.953 76.665 98.9461 77.9756 91.8771C79.2723 84.8639 82.0051 76.8747 85.2119 71.6044C88.4048 66.3898 92.2809 63.2387 97.2166 60.4084C102.152 57.578 111.48 55.1519 114.882 54.6639C118.284 54.1759 117.308 57.1039 117.657 57.4943C118.005 57.8987 117.266 56.7693 116.946 57.0621" fill="white"/>
<path d="M129.229 74.1558C130.874 78.743 129.94 84.822 129.048 91.5006C128.156 98.1792 126.943 108.176 123.889 114.13C120.836 120.083 115.956 124.74 110.867 127.403C105.764 130.122 98.346 130.749 93.2011 130.303C88.0562 129.857 83.3436 128.24 80.1646 124.74C77.0414 121.254 74.9221 115.287 74.3644 109.333C73.8067 103.38 74.6572 95.3628 76.7905 89.0746C78.9237 82.7864 82.6883 76.7492 87.0245 71.5067C91.3606 66.2642 97.6209 60.0876 102.696 57.4942C107.785 54.8312 113.251 54.1619 117.545 55.7374C121.84 57.299 126.455 63.6988 128.42 66.7104C130.386 69.722 128.95 72.9707 129.341 73.7097C129.731 74.4347 131.181 71.1302 130.916 71.186M125.939 65.7483C129.159 69.0807 131.711 74.8948 132.06 81.1133C132.408 87.3317 131.014 96.3387 128.225 102.989C125.437 109.64 119.818 116.277 115.314 120.906C110.811 125.535 105.973 129.021 101.246 130.763C96.5195 132.506 91.0818 133.761 87.0802 131.307C83.0647 128.853 79.3559 121.617 77.2366 116.165C75.0895 110.769 73.3884 104.9 74.2111 98.7787C75.0337 92.6579 78.5054 85.4913 82.0329 79.468C85.5465 73.4447 90.6914 66.6965 95.3762 62.8483C100.117 59.0279 105.75 56.6856 110.323 56.3649C114.952 56.0581 119.72 57.2433 122.969 60.952C126.218 64.6608 128.811 72.8313 129.871 78.7848C130.93 84.7384 129.438 96.3806 129.076 96.5479L125.939 65.7483Z" stroke="black" stroke-width="2"/>
<path d="M159.095 71.5486C158.885 71.1163 158.16 72.2596 159.206 71.8971C160.252 71.5207 161.925 68.8437 165.285 69.2898C168.715 69.7639 175.728 70.7957 179.563 74.7136C183.397 78.6315 186.604 86.3837 188.332 92.6858C190.103 99.0716 190.968 106.294 190.061 112.777C189.169 119.191 186.046 125.939 182.825 131.279C179.604 136.619 175.171 142.029 170.793 144.874C166.428 147.718 161.158 149.823 156.627 148.443C152.095 147.063 146.672 141.932 143.604 136.94C140.537 131.949 138.947 125.103 138.222 118.34C137.497 111.578 137.637 102.836 139.184 96.3248C140.732 89.8136 143.716 83.4139 147.536 79.1753C151.37 74.9367 157.854 71.4789 162.315 71.0745L159.095 71.5486ZM168.631 69.8057C168.478 69.3874 167.307 70.0427 167.795 69.8476C168.283 69.6524 168.785 66.6128 171.573 68.6345C174.362 70.6562 181.473 77.1536 184.526 81.9638C187.58 86.7741 189.546 91.3055 189.922 97.4681C190.312 103.575 189.002 111.913 186.855 118.773C184.707 125.646 180.915 133.803 177.039 138.474C173.163 143.145 168.353 145.738 163.71 146.867C159.067 147.997 152.848 147.843 149.237 145.055C145.626 142.266 144.05 136.117 142.196 130.094C140.342 124.071 138.097 115.998 138.055 109.027C138.013 102.055 139.031 94.345 141.847 88.3356C144.664 82.3263 150.492 75.8708 154.744 72.7477C159.011 69.5687 163.277 68.1605 167.39 69.4293" fill="white"/>
<path d="M149.627 75.5372C149.418 75.356 149.098 78.9532 149.837 78.4931C150.52 78.033 150.771 74.4915 153.922 72.7347C157.073 70.9919 164.156 67.4225 168.659 68.1057C173.191 68.7192 177.708 71.9261 180.971 76.5969C184.233 81.3235 186.966 89.6473 188.291 96.298C189.671 102.963 190.201 110.046 189.141 116.613C188.082 123.18 185.098 130.653 181.835 135.672C178.573 140.692 173.902 144.958 169.524 146.603C165.132 148.235 160.154 147.44 155.4 145.446C150.645 143.452 144.427 139.437 141.122 134.641C137.888 129.858 135.726 123.5 135.796 116.822C135.866 110.143 139.463 100.718 141.792 94.4018C144.12 88.0857 146.184 82.2716 149.725 78.9811M139.296 98.9053C139.115 98.6125 143.228 87.6117 146.881 82.8293C150.534 78.0469 156.641 72.0237 161.311 70.2808C165.926 68.5101 170.695 69.6952 174.641 72.1213C178.587 74.5473 182.49 79.246 184.833 84.8231C187.245 90.4141 188.583 98.7798 188.89 105.737C189.197 112.639 188.988 120.684 186.799 126.47C184.666 132.27 180.427 136.648 176.007 140.427C171.601 144.205 164.923 148.932 160.238 149.225C155.553 149.517 151.328 145.878 147.954 142.142C144.58 138.405 141.917 133.065 140.105 126.86C138.292 120.656 136.465 112.179 137.051 104.984C137.665 97.8038 140.634 89.1732 143.841 83.8471C147.048 78.521 152.026 74.5473 156.431 73.1112L139.296 98.9053Z" stroke="black" stroke-width="2"/>
<path d="M119.915 75.5083C117.88 75.578 114.729 77.3208 112.568 79.6353C110.476 81.9638 108.58 85.5331 107.269 89.2698C105.973 92.9925 105.15 98.0955 104.871 102.013C104.578 105.987 104.662 109.989 105.61 113.07C106.488 116.137 108.482 119.344 110.392 120.32C112.303 121.296 114.826 120.278 117.029 118.801C119.232 117.323 121.742 114.339 123.61 111.383C125.548 108.385 127.514 104.565 128.546 100.912C129.522 97.2311 129.759 92.9367 129.564 89.1443C129.369 85.3519 128.671 80.7647 127.305 78.3386C125.939 75.9126 122.871 75.0342 121.407 74.602C119.929 74.1698 118.925 75.6895 118.437 75.8847C117.949 76.0799 118.368 75.4246 118.423 75.6895L119.915 75.5083ZM122.341 74.6578C120.599 73.7794 118.605 74.4347 116.36 76.0799C114.115 77.7252 110.964 81.2527 109.179 84.6687C107.381 88.0846 106.224 92.5324 105.61 96.5618C104.997 100.577 105.262 105.388 105.568 109.013C105.875 112.638 106 116.207 107.395 118.006C108.719 119.79 111.494 120.097 113.697 119.623C115.9 119.163 118.242 117.838 120.403 115.273C122.551 112.708 124.963 108.12 126.552 104.216C128.156 100.312 129.466 95.5161 129.843 91.9468C130.219 88.3774 129.759 85.6586 128.839 82.7167C127.919 79.7748 125.325 75.7174 124.252 74.4347C123.178 73.1519 122.676 74.9227 122.467 75.0063C122.258 75.076 122.843 74.7832 122.843 75.0342" fill="black"/>
<path d="M151.245 84.0971C149.223 84.348 146.197 86.3279 144.259 88.8237C142.335 91.2497 140.76 95.0421 139.756 98.8345C138.752 102.627 138.306 107.772 138.334 111.759C138.362 115.747 138.752 119.763 139.923 122.718C141.094 125.674 143.297 128.742 145.249 129.536C147.201 130.331 149.641 129.174 151.761 127.487C153.81 125.842 156.111 122.677 157.77 119.553C159.429 116.43 161.158 112.485 161.841 108.734C162.524 104.983 162.455 100.661 161.981 96.9383C161.507 93.2156 160.433 88.6563 158.857 86.3C157.296 83.9576 154.215 83.3163 152.709 83.0653C151.203 82.7586 150.366 84.3759 149.864 84.5711C149.376 84.7663 149.725 84.0971 149.85 84.3759L151.245 84.0971ZM153.601 83.0235C151.83 82.2706 149.85 83.1071 147.759 84.9336C145.723 86.7741 142.781 90.4689 141.276 94.0104C139.77 97.5518 138.961 102.097 138.654 106.141C138.389 110.254 138.989 115.008 139.575 118.508C140.146 122.063 140.592 125.646 142.07 127.347C143.562 128.979 146.379 129.104 148.484 128.491C150.603 127.877 152.876 126.358 154.814 123.611C156.752 120.864 158.83 116.068 160.07 112.08C161.311 108.093 162.273 103.199 162.413 99.5735C162.483 95.9902 161.813 93.2993 160.684 90.4828C159.541 87.6664 156.654 83.7903 155.483 82.6191C154.312 81.4479 153.95 83.1908 153.727 83.3163C153.503 83.4557 154.047 83.0235 154.117 83.2884" fill="black"/>
<defs>
<linearGradient id="paint0_linear_449_2" x1="126" y1="0" x2="126" y2="252" gradientUnits="userSpaceOnUse">
<stop stop-color="#39BBE7"/>
<stop offset="1" stop-color="#9AEDFA"/>
</linearGradient>
</defs>
</svg>
