<svg width="1440" height="2026" viewBox="0 0 1440 2026" fill="none" xmlns="http://www.w3.org/2000/svg">
<g clip-path="url(#clip0_1204_2464)">
<rect width="1440" height="2026" fill="white"/>
<rect x="-39" y="-34" width="1562" height="983" fill="url(#paint0_linear_1204_2464)"/>
<g filter="url(#filter0_f_1204_2464)">
<path fill-rule="evenodd" clip-rule="evenodd" d="M694.8 -94.2126L716.031 -95.8501L519.396 -54.7944L443.924 -22.505L408.43 6.62726L397.191 86.6861L387.776 106.516L339.823 144.122L318.082 162.313L176.72 207.784L117.323 213.339L104.866 240.416L96.108 252.067L86.8719 274.975L116.289 300.017L1.47458 354.833L-12.8108 368.903L1.13105 369.636L16.243 402.741L143.845 427.906L211.441 429.016L358.292 418.799L390.616 421.863L397.149 444.853L404.811 455.941L378.016 502.617L526.75 516.009L499.789 528.407L541.175 553.877L502.416 576.459L444.838 575.24L255.33 548.563L-20.7841 482.828L-87.6788 473.073L-138.565 437.283L-130.822 405.285L-127.412 376.761L-77.9907 316.217L-125.64 274.847L-130.202 224.845L-123.2 175.822L-84.3641 127.579L-46.2933 32.7553L-20.124 2.62143L45.4232 -56.6297L65.9863 -85.9999L112.335 -95.4999L240.76 -93.9231L380.955 -101.003L431.452 -104.576L500.186 -120.432L645.342 -117.74L677.081 -117.204L695.081 -100.897" fill="url(#paint1_linear_1204_2464)"/>
</g>
<g filter="url(#filter1_f_1204_2464)">
<path fill-rule="evenodd" clip-rule="evenodd" d="M1537.42 -36.1271L1490.28 3.95514L1457.98 43.0329L1468.56 79.1722L1564.78 111.147L1594.78 136.315L1462.01 229.349L1481.55 235.796L1532.64 252.995L1524.27 265.189L1510.52 277.341L1463.36 295.634L1378.29 338.822L1337.86 342.234L1286.87 361.057L1284.02 359.566L1282.91 369.788L1229.25 392.869L1252.6 406.654L1245.63 407.107L1204.15 424.028L1090.83 451.026L1071.99 469.906L1056.12 472.12L1025.8 485.928L942.686 506.417L940.66 509.724L952.823 534.526L941.152 534.436L823.941 550.792L741.966 566.382L579.343 576.089L753.353 576.07L1282.18 528.065L1448.28 488.955L1774.61 396.927L1764.68 382.826L1776.43 366.112L1795.74 327.196L1956.72 209.462L1947.93 198.849L1923.31 146.619L1913.75 104.839L1886.54 45.349L1885.08 3.84192L1834.59 -8.00216L1549.5 -28.3221L1539.92 -20.2473" fill="url(#paint2_linear_1204_2464)"/>
</g>
<g filter="url(#filter2_f_1204_2464)">
<path fill-rule="evenodd" clip-rule="evenodd" d="M1334.29 -386.968L1301.38 -341.904L1280.14 -298.246L1292.57 -258.69L1372.49 -225.453L1399.1 -198.365L1304.2 -93.2933L1320.43 -86.5956L1362.88 -68.7036L1357.61 -55.1156L1348.06 -41.4642L1312.7 -20.3768L1053.82 29.4605L1022.12 34.0349L983.785 55.783L981.352 54.2002L981.616 65.4707L1137.87 91.3711L1157.94 106.068L1152.46 106.708L1121.45 126.17L1034.58 158.177L1021.75 179.335L1040.27 195.982L1046.99 198.214L986.402 223.414L985.166 227.094L997.592 254.142L988.324 254.279L896.35 285.07L770.761 292.192L642.845 306.17L780.879 302.622L1195.01 239.077L1322.39 192.671L1570.94 84.7838L1561.48 69.4674L1568.94 50.8362L1579.9 7.61942L1694.41 -125.206L1686.25 -136.706L1660.87 -193.685L1648.61 -239.468L1620.36 -304.383L1614.55 -350.03L1573.17 -362.041L1344.74 -378.624L1338.05 -369.544" fill="url(#paint3_linear_1204_2464)"/>
</g>
<g filter="url(#filter3_f_1204_2464)">
<path d="M404.136 507.347C378.413 491.381 364.221 489.164 359.786 485.616V607.136L1442.82 595.605V422.195C1428.78 416.577 1389.33 406.849 1343.92 412.881C1287.15 420.421 1300.01 403.124 1234.37 422.195C1168.74 441.265 1186.03 437.274 1140.79 448.361C1095.56 459.449 1080.48 469.65 1060.08 468.763C1039.68 467.876 1048.1 474.972 1045 485.616C1041.89 496.26 1023.27 494.486 1013.95 496.703C1004.64 498.921 1007.3 507.347 984.681 520.209C962.063 533.071 949.201 507.347 913.721 502.025C878.241 496.703 879.128 500.695 829.899 520.209C790.516 535.82 616.278 536.175 534.082 534.401C511.168 530.41 462.501 521.983 451.147 520.209C436.955 517.991 429.859 523.313 404.136 507.347Z" fill="#86ACA0"/>
<path d="M1400.24 409.333C1386.06 409.945 1371.4 409.576 1357.25 410.671C1344.55 411.654 1332.25 414.532 1319.48 415.22C1314.26 415.502 1309.28 415.175 1304.15 416.023C1292.2 417.995 1281.71 420.171 1269.39 420.171C1259.53 420.171 1247.74 421.251 1238.19 422.847C1209.04 427.716 1189.54 447.868 1159.38 447.868C1145.2 447.868 1136.77 449.463 1124.18 455.093C1100.8 465.55 1076.98 469.543 1049.98 469.543C1041.62 469.543 1045 480.745 1042.09 485.198C1036.28 494.091 1024.6 491.956 1014.43 495.366C1002.14 499.488 1008.78 513.59 993.687 515.771C964.193 520.033 933.3 503.81 903.795 502.19C895.626 501.742 887.477 502.949 880.036 503.261C867.39 503.791 853.255 501.238 841.738 506.204C825.244 513.317 813.084 521.45 793.512 523.464C780.898 524.762 769.289 521.323 757.165 521.323" stroke="black" stroke-width="2" stroke-linecap="round" stroke-linejoin="round"/>
<path d="M381.074 489.164C390.289 495.422 399.612 501.091 404.906 509.598C406.552 512.243 433.057 511.865 437.864 512.883C449.176 515.28 454.609 520.137 466.569 521.096C488.252 522.835 509.457 529.08 530.978 531.74" stroke="black" stroke-width="2" stroke-linecap="round" stroke-linejoin="round"/>
<g filter="url(#filter4_f_1204_2464)">
<path d="M-45.616 386.132C-47.0353 374.429 -116.872 366.627 -151.613 364.189V909.438H1645.46V359.534C1627.43 364.965 1588.96 377.022 1579.38 381.81C1567.4 387.794 1541.24 391.451 1532.37 391.451C1523.5 391.451 1539.91 400.096 1511.52 405.415C1483.14 410.735 1455.64 399.431 1422.82 400.096C1390 400.761 1403.31 420.709 1393.55 429.685C1383.79 438.662 1370.93 431.015 1331.46 429.685C1291.99 428.355 1308.84 447.306 1269.37 447.971C1229.9 448.636 1245.86 454.62 1235.22 459.94C1224.58 465.259 1188.65 467.254 1173.13 472.574C1157.61 477.893 1174.02 493.852 1149.62 503.493C1125.23 513.135 1083.54 498.839 1052.05 515.13C1026.86 528.163 1004.89 534.302 997.06 535.743C984.642 533.859 950.314 531.221 912.351 535.743C864.896 541.395 865.339 541.727 846.712 526.101C828.085 510.475 774.865 520.449 738.497 520.449C702.13 520.449 673.302 539.4 652.901 535.743C632.5 532.086 624.074 544.719 616.534 535.743C608.995 526.766 628.065 520.449 576.175 530.091C524.285 539.732 418.732 524.106 389.017 520.449C359.302 516.792 377.486 505.488 380.147 493.852C382.759 482.428 380.242 482.86 365.463 485.396L364.624 485.54C349.102 488.2 305.638 481.883 276.811 477.561C247.983 473.239 226.695 456.948 175.692 447.971C124.689 438.994 133.559 444.314 103.844 426.693C74.1298 409.072 57.7202 415.057 41.7541 415.722C25.7879 416.387 9.37834 420.709 5.38681 409.072C1.39528 397.436 -7.47478 398.766 -24.7714 400.761C-42.068 402.755 -43.842 400.761 -45.616 386.132Z" fill="url(#paint4_linear_1204_2464)"/>
<path d="M1639.86 357C1607.21 369.609 1573.57 387.292 1536.15 389.296C1528.89 389.684 1526.84 393.68 1523.12 397.669C1515.27 406.066 1503.07 407.497 1490.14 406.839C1466.67 405.647 1444 399.861 1420.55 398.732C1406.04 398.034 1402.74 406.129 1400.52 415.345C1399.42 419.9 1399.59 427.061 1394.31 430.297C1386.18 435.286 1370.91 433.444 1361.51 432.822C1350.34 432.083 1337.66 429.227 1326.41 430.231C1314.59 431.285 1302.9 437.13 1292.19 440.531C1281.31 443.989 1270.66 446.82 1258.86 447.641C1252.83 448.061 1246.71 447.169 1241.49 449.901C1235.35 453.112 1230.46 457.524 1223.94 460.334C1213.94 464.637 1201.72 466.129 1190.87 468.84C1180.37 471.464 1167.06 471.669 1165.61 480.469C1164.69 486.058 1164.33 493.344 1159.05 497.747C1152.29 503.372 1138.25 503.82 1129.09 505.322C1105.43 509.202 1079.68 509.37 1056.84 515.622C1045.3 518.782 1036.78 524.94 1026.43 529.644C1009.13 537.515 989.045 538.297 969.346 536.821C953.635 535.643 938.159 532.727 922.275 533.033C910.641 533.256 904.242 536.735 894.44 540.409C874.924 547.724 842.404 533.89 840.455 517.815C839.908 513.303 834.722 515.596 829.64 516.154C805.736 518.776 781.457 519.947 757.394 521.47C730.668 523.161 701.075 522.483 677.879 532.833C670.707 536.034 663.61 537.485 655.274 537.485C648.307 537.485 640.55 534.945 633.822 535.425C630.01 535.697 619.104 540.404 616.359 536.289C614.384 533.328 614.751 528.994 614.231 525.789C613.194 519.398 604.991 524.139 598.807 525.391C548.01 535.67 493.185 535.799 441.372 528.979C423.635 526.645 406.899 522.176 389.78 518.147C387.27 517.557 374.463 516.257 373.292 513.429C372.127 510.614 377.934 505.73 379.143 503.262C380.923 499.629 386.007 485.901 381.891 482.595C379.338 480.545 356.368 484.647 352.904 484.722C322.209 485.387 292.25 480.582 263.372 473.026C222.243 462.265 187.034 444.936 143.168 441.395C128.908 440.244 125.141 440.222 115.156 431.693C101.922 420.388 82.4828 414.932 62.8552 412.554C44.777 410.364 26.343 425.177 10.5542 411.823C5.32061 407.397 8.6514 401.993 4.88092 397.802C2.0505 394.656 -17.8705 400.312 -21.8901 400.726C-26.1462 401.164 -36.5494 402.709 -40.5943 400.925C-44.3175 399.283 -41.6355 388.636 -41.1262 386.04C-40.2134 381.387 -43.8567 380.919 -49.7248 379.993C-70.2729 376.75 -91.3285 376.048 -111.6 371.62C-117.015 370.437 -129.682 368.896 -134.47 366.503C-141.953 362.763 -151.255 364.177 -160 364.177" stroke="black" stroke-width="2" stroke-linecap="round" stroke-linejoin="round"/>
</g>
</g>
<path d="M865.916 657.404C522.831 643.092 76.3532 696.166 -104 724.492V2026H1654V724.492C1534.26 708.093 1209 671.716 865.916 657.404Z" fill="url(#paint5_radial_1204_2464)"/>
<path d="M1703.14 694.307C1606.81 701.196 1477.84 677.01 1364.75 677.01C1204.2 666.686 1033.74 677.683 875.903 666.686C687.99 653.595 475.731 665.673 288.811 678.224C169.271 686.251 78.3156 688.062 -22.8845 685.513C-66.5971 684.411 -112.455 688.827 -156.322 683.488C-167.006 682.188 -135.026 679.314 -124.334 678.224C-93.4493 675.078 -40.0074 687.829 -12.5 685.76C196.463 670.038 415.357 652.896 624.5 649.668C967.075 644.381 1325.01 652.11 1667.22 677.01" stroke="black" stroke-width="2" stroke-linecap="round" stroke-linejoin="round"/>
</g>
<defs>
<filter id="filter0_f_1204_2464" x="-171.565" y="-153.432" width="920.597" height="762.891" filterUnits="userSpaceOnUse" color-interpolation-filters="sRGB">
<feFlood flood-opacity="0" result="BackgroundImageFix"/>
<feBlend mode="normal" in="SourceGraphic" in2="BackgroundImageFix" result="shape"/>
<feGaussianBlur stdDeviation="16.5" result="effect1_foregroundBlur_1204_2464"/>
</filter>
<filter id="filter1_f_1204_2464" x="546.343" y="-69.1272" width="1443.38" height="678.216" filterUnits="userSpaceOnUse" color-interpolation-filters="sRGB">
<feFlood flood-opacity="0" result="BackgroundImageFix"/>
<feBlend mode="normal" in="SourceGraphic" in2="BackgroundImageFix" result="shape"/>
<feGaussianBlur stdDeviation="16.5" result="effect1_foregroundBlur_1204_2464"/>
</filter>
<filter id="filter2_f_1204_2464" x="609.845" y="-419.968" width="1117.57" height="759.138" filterUnits="userSpaceOnUse" color-interpolation-filters="sRGB">
<feFlood flood-opacity="0" result="BackgroundImageFix"/>
<feBlend mode="normal" in="SourceGraphic" in2="BackgroundImageFix" result="shape"/>
<feGaussianBlur stdDeviation="16.5" result="effect1_foregroundBlur_1204_2464"/>
</filter>
<filter id="filter3_f_1204_2464" x="-163" y="354" width="1810.46" height="557.438" filterUnits="userSpaceOnUse" color-interpolation-filters="sRGB">
<feFlood flood-opacity="0" result="BackgroundImageFix"/>
<feBlend mode="normal" in="SourceGraphic" in2="BackgroundImageFix" result="shape"/>
<feGaussianBlur stdDeviation="1" result="effect1_foregroundBlur_1204_2464"/>
</filter>
<filter id="filter4_f_1204_2464" x="-163" y="354" width="1810.46" height="557.438" filterUnits="userSpaceOnUse" color-interpolation-filters="sRGB">
<feFlood flood-opacity="0" result="BackgroundImageFix"/>
<feBlend mode="normal" in="SourceGraphic" in2="BackgroundImageFix" result="shape"/>
<feGaussianBlur stdDeviation="1" result="effect1_foregroundBlur_1204_2464"/>
</filter>
<linearGradient id="paint0_linear_1204_2464" x1="742" y1="-34" x2="742" y2="1070.05" gradientUnits="userSpaceOnUse">
<stop stop-color="#37BAE6"/>
<stop offset="0.450585" stop-color="#9CEEFA"/>
<stop offset="0.946209" stop-color="#F8E7CD"/>
</linearGradient>
<linearGradient id="paint1_linear_1204_2464" x1="-157.999" y1="150.61" x2="961.402" y2="631.811" gradientUnits="userSpaceOnUse">
<stop stop-color="#7FD9F7"/>
<stop offset="1" stop-color="white"/>
</linearGradient>
<linearGradient id="paint2_linear_1204_2464" x1="1819.42" y1="164.573" x2="540.335" y2="773.546" gradientUnits="userSpaceOnUse">
<stop stop-color="#7CD9F7"/>
<stop offset="1" stop-color="white"/>
</linearGradient>
<linearGradient id="paint3_linear_1204_2464" x1="1631.74" y1="-5.59254" x2="419.199" y2="415.292" gradientUnits="userSpaceOnUse">
<stop stop-color="#7CD9F7"/>
<stop offset="1" stop-color="white"/>
</linearGradient>
<linearGradient id="paint4_linear_1204_2464" x1="746.52" y1="416.179" x2="746.52" y2="707.754" gradientUnits="userSpaceOnUse">
<stop stop-color="#559F80"/>
<stop offset="1" stop-color="#2E675C"/>
</linearGradient>
<radialGradient id="paint5_radial_1204_2464" cx="0" cy="0" r="1" gradientUnits="userSpaceOnUse" gradientTransform="translate(749.278 959.299) rotate(90.1883) scale(1889.66 2423.7)">
<stop stop-color="#9ACE0A"/>
<stop offset="0.74783" stop-color="#438A04"/>
</radialGradient>
<clipPath id="clip0_1204_2464">
<rect width="1440" height="2026" fill="white"/>
</clipPath>
</defs>
</svg>
