<svg width="1440" height="2333" viewBox="0 0 1440 2333" fill="none" xmlns="http://www.w3.org/2000/svg">
<g clip-path="url(#clip0_1204_1118)">
<rect width="1440" height="2333" fill="white"/>
<rect x="-15" y="577" width="1454" height="1361" fill="url(#paint0_linear_1204_1118)"/>
<path d="M21.5 1341.5C-54.5 1417.5 -211.833 1373.17 -281 1341.5V512H1646.5V1166C1634 1181.17 1597.3 1213.9 1550.5 1223.5C1492 1235.5 1449.5 1234 1358 1189C1266.5 1144 1252.5 1013 1249.5 958.5C1246.5 904 1243.5 928.5 1216.5 945C1189.5 961.5 1114.5 961.5 1058.5 907.5C1002.5 853.5 1046.5 876 989.5 916.5C932.5 957 856 972 744.5 972C655.3 972 587 887 564 844.5C564 853 561.9 873.6 553.5 888C543 906 513 961.5 425.5 981.5C338 1001.5 269.5 996.5 230.5 972C191.5 947.5 194 937.5 203 972C212 1006.5 204.5 1052 179 1097C158.6 1133 78.5 1144 41 1145C66.1667 1178.83 97.5 1265.5 21.5 1341.5Z" fill="white" fill-opacity="0.5"/>
<path d="M-295 1324C-261.333 1353.33 -162.8 1403.2 -38 1368C118 1324 68 1169.5 44.5 1147.5" stroke="black" stroke-opacity="0.5" stroke-width="2"/>
<path d="M39 1144C69 1145.83 138.6 1139.2 177 1098C215.4 1056.8 206.333 977.833 197 943.5" stroke="black" stroke-opacity="0.5" stroke-width="2"/>
<path d="M190 929C205.167 961 268.6 1017.6 401 988C533.4 958.4 565.167 877.667 564.5 841" stroke="black" stroke-opacity="0.5" stroke-width="2"/>
<path d="M555.5 826C575.5 879.833 652.7 984.6 801.5 973C950.3 961.4 1019.17 898.5 1035 868.5" stroke="black" stroke-opacity="0.5" stroke-width="2"/>
<path d="M1029.5 868.5C1041.17 888.667 1078.1 933.4 1132.5 951C1186.9 968.6 1233.5 937.667 1250 920" stroke="black" stroke-opacity="0.5" stroke-width="2"/>
<path d="M1248 920C1244.5 991.5 1267.6 1148.5 1388 1204.5C1508.4 1260.5 1605.83 1205.83 1639.5 1171.5" stroke="black" stroke-opacity="0.5" stroke-width="2"/>
<path d="M-233.5 106.745L-233.5 1032.5C-233.5 1048.5 -91.0001 1088.5 -1.00012 1072C88.9999 1055.5 133 953.5 140.5 963.5C148 973.5 218 1008 317 989.5C416 971 393.5 896.5 386 877.5C378.5 858.5 378.5 862 405 868.5C431.5 875 497 879.5 555 868.5C601.4 859.7 618.667 800.5 621.5 772C634.667 783.333 682.8 807 770 811C879 816 957 769.5 980 757.5C1003 745.5 996.5 736.5 1005 757.5L1005.28 758.192C1013.72 779.069 1024.1 804.752 1123.5 827.5C1203.9 845.9 1248 813.5 1260 795C1259 797.833 1259 809.6 1267 834C1277 864.5 1280 914 1398.5 954C1493.3 986 1651.5 921.5 1684 899L1684 106.745C1666.17 85.9121 1408.8 11.3455 800 1.74548C191.2 -7.85452 -177 77.912 -233.5 106.745Z" fill="white"/>
<path d="M1608.5 75.2454C1570.17 64.4722 1567.34 60.4442 1513.03 51.4247C1458.73 42.4053 1395.48 34.6386 1328.4 27.9575C1261.32 21.1929 1187.85 15.4305 1110.23 11.1714C1032.61 6.91219 944.448 3.90571 862.674 2.40247C780.9 0.899234 699.126 1.40031 618.629 2.48598C538.133 3.57165 455.4 4.32328 379.056 8.66597C302.713 13.0087 228.285 21.6105 161.205 28.7927C94.1244 35.9748 16.8222 41.1526 -23.4261 51.5918L295.366 19.9403C284.185 17.9359 189.953 23.0302 118.721 32.1332C47.4875 41.2361 -71.66 61.6134 -131.394 74.5579M-97.5339 63.4506C-51.5359 53.095 9.79468 44.1591 73.0419 36.0583C136.289 27.9575 208.8 20.4413 281.311 14.9295C353.821 9.5011 426.013 5.49246 507.467 3.2376C588.922 0.982747 685.71 1.48382 770.359 1.48382C855.008 1.48382 936.782 0.314636 1014.4 3.15409C1092.34 5.99354 1167.41 12.257 1237.05 18.27C1307 24.2829 1377.92 32.1332 1433.18 39.3153C1488.44 46.4975 1548.81 57.1036 1568.94 61.1958C1589.06 65.2879 1567.98 61.7804 1553.92 63.7012" stroke="black" stroke-width="2"/>
<path d="M140.542 958.007C111.266 994.221 84.054 1027.5 42.9833 1051.02C16.0478 1066.45 -12.4059 1074.28 -43.2702 1075.4C-71.2051 1076.41 -100.283 1074.63 -126.546 1065.21" stroke="black" stroke-width="2" stroke-linecap="round"/>
<path d="M142.359 960.733C161.535 976.201 179.728 982.549 204.034 985.311C237.083 989.067 271.696 992.575 304.671 986.371C335.917 980.493 372.62 970.111 388.755 939.939C394.923 928.403 395.978 916.842 394.609 903.903C393.757 895.848 390.828 882.317 388.351 874.328C371.696 820.618 392.586 887.671 383.102 864.436" stroke="black" stroke-width="2" stroke-linecap="round"/>
<path d="M623.5 770C620 806 602.948 834.01 578.825 852.323C559.35 867.107 532.472 870.349 508.873 871.703C478.538 873.444 447.915 871.168 417.926 866.505C403.154 864.208 387.891 862.242 375.834 853.534" stroke="black" stroke-width="2" stroke-linecap="round"/>
<path d="M623.5 769C647 785 718.6 814.7 817 805.5C915.4 796.3 980.333 758 1000.5 740" stroke="black" stroke-width="2"/>
<path d="M1001.5 742.5C1003.5 760.5 1024.7 800.7 1093.5 817.5C1179.5 838.5 1228.5 827.5 1263.5 797" stroke="black" stroke-width="2"/>
<path d="M1263.5 786C1260.5 822.667 1274.6 904.1 1355 936.5C1455.5 977 1553.5 953 1594 936.5" stroke="black" stroke-width="2"/>
</g>
<defs>
<linearGradient id="paint0_linear_1204_1118" x1="712" y1="577" x2="712" y2="1938" gradientUnits="userSpaceOnUse">
<stop stop-color="#37BAE6"/>
<stop offset="0.609375" stop-color="#9CEEFA"/>
<stop offset="1" stop-color="white"/>
</linearGradient>
<clipPath id="clip0_1204_1118">
<rect width="1440" height="2333" fill="white"/>
</clipPath>
</defs>
</svg>
