<svg width="1440" height="2026" viewBox="0 0 1440 2026" fill="none" xmlns="http://www.w3.org/2000/svg">
<g clip-path="url(#clip0_1204_3)">
<rect width="1440" height="2026" fill="white"/>
<rect x="-2" y="1050" width="1454" height="976" fill="url(#paint0_linear_1204_3)"/>
<rect x="-39" y="-34" width="1562" height="983" fill="url(#paint1_linear_1204_3)"/>
<g filter="url(#filter0_f_1204_3)">
<path fill-rule="evenodd" clip-rule="evenodd" d="M694.8 -94.2126L716.031 -95.8501L519.396 -54.7944L443.924 -22.505L408.43 6.62726L397.191 86.6861L387.776 106.516L339.823 144.122L318.082 162.313L176.72 207.784L117.323 213.339L104.866 240.416L96.108 252.067L86.8719 274.975L116.289 300.017L1.47458 354.833L-12.8108 368.903L1.13105 369.636L16.243 402.741L143.845 427.906L211.441 429.016L358.292 418.799L390.616 421.863L397.149 444.853L404.811 455.941L378.016 502.617L526.75 516.009L499.789 528.407L541.175 553.877L502.416 576.459L444.838 575.24L255.33 548.563L-20.7841 482.828L-87.6788 473.073L-138.565 437.283L-130.822 405.285L-127.412 376.761L-77.9907 316.217L-125.64 274.847L-130.202 224.845L-123.2 175.822L-84.3641 127.579L-46.2933 32.7553L-20.124 2.62143L45.4232 -56.6297L65.9863 -85.9999L112.335 -95.4999L240.76 -93.9231L380.955 -101.003L431.452 -104.576L500.186 -120.432L645.342 -117.74L677.081 -117.204L695.081 -100.897" fill="url(#paint2_linear_1204_3)"/>
</g>
<g filter="url(#filter1_f_1204_3)">
<path fill-rule="evenodd" clip-rule="evenodd" d="M1537.42 -36.1271L1490.28 3.95514L1457.98 43.0329L1468.56 79.1722L1564.78 111.147L1594.78 136.315L1462.01 229.349L1481.55 235.796L1532.64 252.995L1524.27 265.189L1510.52 277.341L1463.36 295.634L1378.29 338.822L1337.86 342.234L1286.87 361.057L1284.02 359.566L1282.91 369.788L1229.25 392.869L1252.6 406.654L1245.63 407.107L1204.15 424.028L1090.83 451.026L1071.99 469.906L1056.12 472.12L1025.8 485.928L942.686 506.417L940.66 509.724L952.823 534.526L941.152 534.436L823.941 550.792L741.966 566.382L579.343 576.089L753.353 576.07L1282.18 528.065L1448.28 488.955L1774.61 396.927L1764.68 382.826L1776.43 366.112L1795.74 327.196L1956.72 209.462L1947.93 198.849L1923.31 146.619L1913.75 104.839L1886.54 45.349L1885.08 3.84192L1834.59 -8.00216L1549.5 -28.3221L1539.92 -20.2473" fill="url(#paint3_linear_1204_3)"/>
</g>
<g filter="url(#filter2_f_1204_3)">
<path fill-rule="evenodd" clip-rule="evenodd" d="M1334.29 -386.968L1301.38 -341.904L1280.14 -298.246L1292.57 -258.69L1372.49 -225.453L1399.1 -198.365L1304.2 -93.2933L1320.43 -86.5956L1362.88 -68.7036L1357.61 -55.1156L1348.06 -41.4642L1312.7 -20.3768L1053.82 29.4605L1022.12 34.0349L983.785 55.783L981.352 54.2002L981.616 65.4707L1137.87 91.3711L1157.94 106.068L1152.46 106.708L1121.45 126.17L1034.58 158.177L1021.75 179.335L1040.27 195.982L1046.99 198.214L986.402 223.414L985.166 227.094L997.592 254.142L988.324 254.279L896.35 285.07L770.761 292.192L642.845 306.17L780.879 302.622L1195.01 239.077L1322.39 192.671L1570.94 84.7838L1561.48 69.4674L1568.94 50.8362L1579.9 7.61942L1694.41 -125.206L1686.25 -136.706L1660.87 -193.685L1648.61 -239.468L1620.36 -304.383L1614.55 -350.03L1573.17 -362.041L1344.74 -378.624L1338.05 -369.544" fill="url(#paint4_linear_1204_3)"/>
</g>
<g filter="url(#filter3_f_1204_3)">
<path d="M404.136 507.347C378.413 491.381 364.221 489.164 359.786 485.616V607.136L1442.82 595.605V422.195C1428.78 416.577 1389.33 406.849 1343.92 412.881C1287.15 420.421 1300.01 403.124 1234.37 422.195C1168.74 441.265 1186.03 437.274 1140.79 448.361C1095.56 459.449 1080.48 469.65 1060.08 468.763C1039.68 467.876 1048.1 474.972 1045 485.616C1041.89 496.26 1023.27 494.486 1013.95 496.703C1004.64 498.921 1007.3 507.347 984.681 520.209C962.063 533.071 949.201 507.347 913.721 502.025C878.241 496.703 879.128 500.695 829.899 520.209C790.516 535.82 616.278 536.175 534.082 534.401C511.168 530.41 462.501 521.983 451.147 520.209C436.955 517.991 429.859 523.313 404.136 507.347Z" fill="#86ACA0"/>
<path d="M1400.24 409.333C1386.06 409.945 1371.4 409.576 1357.25 410.671C1344.55 411.654 1332.25 414.532 1319.48 415.22C1314.26 415.502 1309.28 415.175 1304.15 416.023C1292.2 417.995 1281.71 420.171 1269.39 420.171C1259.53 420.171 1247.74 421.251 1238.19 422.847C1209.04 427.716 1189.54 447.868 1159.38 447.868C1145.2 447.868 1136.77 449.463 1124.18 455.093C1100.8 465.55 1076.98 469.543 1049.98 469.543C1041.62 469.543 1045 480.745 1042.09 485.198C1036.28 494.091 1024.6 491.956 1014.43 495.366C1002.14 499.488 1008.78 513.59 993.687 515.771C964.193 520.033 933.3 503.81 903.795 502.19C895.626 501.742 887.477 502.949 880.036 503.261C867.39 503.791 853.255 501.238 841.738 506.204C825.244 513.317 813.084 521.45 793.512 523.464C780.898 524.762 769.289 521.323 757.165 521.323" stroke="black" stroke-width="2" stroke-linecap="round" stroke-linejoin="round"/>
<path d="M381.074 489.164C390.289 495.422 399.612 501.091 404.906 509.598C406.552 512.243 433.057 511.865 437.864 512.883C449.176 515.28 454.609 520.137 466.569 521.096C488.252 522.835 509.457 529.08 530.978 531.74" stroke="black" stroke-width="2" stroke-linecap="round" stroke-linejoin="round"/>
<g filter="url(#filter4_f_1204_3)">
<path d="M-45.616 386.132C-47.0353 374.429 -116.872 366.627 -151.613 364.189V909.438H1645.46V359.534C1627.43 364.965 1588.96 377.022 1579.38 381.81C1567.4 387.794 1541.24 391.451 1532.37 391.451C1523.5 391.451 1539.91 400.096 1511.52 405.415C1483.14 410.735 1455.64 399.431 1422.82 400.096C1390 400.761 1403.31 420.709 1393.55 429.685C1383.79 438.662 1370.93 431.015 1331.46 429.685C1291.99 428.355 1308.84 447.306 1269.37 447.971C1229.9 448.636 1245.86 454.62 1235.22 459.94C1224.58 465.259 1188.65 467.254 1173.13 472.574C1157.61 477.893 1174.02 493.852 1149.62 503.493C1125.23 513.135 1083.54 498.839 1052.05 515.13C1026.86 528.163 1004.89 534.302 997.06 535.743C984.642 533.859 950.314 531.221 912.351 535.743C864.896 541.395 865.339 541.727 846.712 526.101C828.085 510.475 774.865 520.449 738.497 520.449C702.13 520.449 673.302 539.4 652.901 535.743C632.5 532.086 624.074 544.719 616.534 535.743C608.995 526.766 628.065 520.449 576.175 530.091C524.285 539.732 418.732 524.106 389.017 520.449C359.302 516.792 377.486 505.488 380.147 493.852C382.759 482.428 380.242 482.86 365.463 485.396L364.624 485.54C349.102 488.2 305.638 481.883 276.811 477.561C247.983 473.239 226.695 456.948 175.692 447.971C124.689 438.994 133.559 444.314 103.844 426.693C74.1298 409.072 57.7202 415.057 41.7541 415.722C25.7879 416.387 9.37834 420.709 5.38681 409.072C1.39528 397.436 -7.47478 398.766 -24.7714 400.761C-42.068 402.755 -43.842 400.761 -45.616 386.132Z" fill="url(#paint5_linear_1204_3)"/>
<path d="M1639.86 357C1607.21 369.609 1573.57 387.292 1536.15 389.296C1528.89 389.684 1526.84 393.68 1523.12 397.669C1515.27 406.066 1503.07 407.497 1490.14 406.839C1466.67 405.647 1444 399.861 1420.55 398.732C1406.04 398.034 1402.74 406.129 1400.52 415.345C1399.42 419.9 1399.59 427.061 1394.31 430.297C1386.18 435.286 1370.91 433.444 1361.51 432.822C1350.34 432.083 1337.66 429.227 1326.41 430.231C1314.59 431.285 1302.9 437.13 1292.19 440.531C1281.31 443.989 1270.66 446.82 1258.86 447.641C1252.83 448.061 1246.71 447.169 1241.49 449.901C1235.35 453.112 1230.46 457.524 1223.94 460.334C1213.94 464.637 1201.72 466.129 1190.87 468.84C1180.37 471.464 1167.06 471.669 1165.61 480.469C1164.69 486.058 1164.33 493.344 1159.05 497.747C1152.29 503.372 1138.25 503.82 1129.09 505.322C1105.43 509.202 1079.68 509.37 1056.84 515.622C1045.3 518.782 1036.78 524.94 1026.43 529.644C1009.13 537.515 989.045 538.297 969.346 536.821C953.635 535.643 938.159 532.727 922.275 533.033C910.641 533.256 904.242 536.735 894.44 540.409C874.924 547.724 842.404 533.89 840.455 517.815C839.908 513.303 834.722 515.596 829.64 516.154C805.736 518.776 781.457 519.947 757.394 521.47C730.668 523.161 701.075 522.483 677.879 532.833C670.707 536.034 663.61 537.485 655.274 537.485C648.307 537.485 640.55 534.945 633.822 535.425C630.01 535.697 619.104 540.404 616.359 536.289C614.384 533.328 614.751 528.994 614.231 525.789C613.194 519.398 604.991 524.139 598.807 525.391C548.01 535.67 493.185 535.799 441.372 528.979C423.635 526.645 406.899 522.176 389.78 518.147C387.27 517.557 374.463 516.257 373.292 513.429C372.127 510.614 377.934 505.73 379.143 503.262C380.923 499.629 386.007 485.901 381.891 482.595C379.338 480.545 356.368 484.647 352.904 484.722C322.209 485.387 292.25 480.582 263.372 473.026C222.243 462.265 187.034 444.936 143.168 441.395C128.908 440.244 125.141 440.222 115.156 431.693C101.922 420.388 82.4828 414.932 62.8552 412.554C44.777 410.364 26.343 425.177 10.5542 411.823C5.32061 407.397 8.6514 401.993 4.88092 397.802C2.0505 394.656 -17.8705 400.312 -21.8901 400.726C-26.1462 401.164 -36.5494 402.709 -40.5943 400.925C-44.3175 399.283 -41.6355 388.636 -41.1262 386.04C-40.2134 381.387 -43.8567 380.919 -49.7248 379.993C-70.2729 376.75 -91.3285 376.048 -111.6 371.62C-117.015 370.437 -129.682 368.896 -134.47 366.503C-141.953 362.763 -151.255 364.177 -160 364.177" stroke="black" stroke-width="2" stroke-linecap="round" stroke-linejoin="round"/>
</g>
</g>
<path d="M865.916 652.566C522.831 649.195 76.3532 661.699 -104 668.372V975H1654V668.372C1534.26 664.508 1209 655.938 865.916 652.566Z" fill="url(#paint6_radial_1204_3)"/>
<path d="M1703.14 674.741C1606.81 678.714 1477.84 664.767 1364.75 664.767C1204.2 658.814 1033.74 665.155 875.903 658.814C687.99 651.265 475.731 658.229 288.811 665.467C169.271 670.096 78.3156 671.14 -22.8845 669.67C-66.5971 669.035 -112.455 671.581 -156.322 668.503C-167.006 667.753 -135.026 666.095 -124.334 665.467C-93.4493 663.653 -40.0074 671.006 -12.5 669.812C196.463 660.747 415.357 650.861 624.5 649C967.075 645.951 1325.01 650.408 1667.22 664.767" stroke="black" stroke-width="2" stroke-linecap="round" stroke-linejoin="round"/>
<path d="M-23.1618 503.828C-10.5832 501.094 16.3241 500 23.3244 517.501C30.3246 535.001 30.6163 550.314 29.8871 555.783C41.0073 553.414 67.5136 553.486 84.5767 572.737C105.906 596.801 114.109 607.739 100.984 631.255C87.8581 654.772 104.812 625.239 155.673 623.599C206.535 621.958 260.677 644.928 268.334 660.241C274.459 672.491 275.99 697.065 275.99 707.821C286.199 707.456 309.242 710.774 319.742 726.962C330.242 743.15 329.586 755.218 327.946 759.229C338.883 748.656 369.4 731.447 403.964 747.197C447.169 766.885 422.559 797.512 411.074 805.168C399.839 812.658 402.734 811.774 433.069 802.518L435.137 801.887C460.951 794.011 492.561 809.543 505.14 818.294C521.729 800.611 564.97 766.776 605.222 772.901C655.536 780.558 669.209 814.465 668.115 829.778C667.021 845.092 670.302 839.623 704.21 839.623C738.118 839.623 756.165 851.107 763.275 862.045C770.385 872.983 790.073 840.169 821.246 851.107C852.419 862.045 852.419 878.999 852.419 899.234C852.419 919.469 851.872 887.203 898.358 878.999C930.035 873.409 947.559 879.59 954.65 885.038C940.395 870.692 919.284 843.306 931.172 829.778C947.032 811.731 977.111 801.887 1002.82 807.356C1023.38 811.731 1032.53 812.095 1034.54 811.731C1029.25 803.527 1022.5 785.699 1037.82 780.011C1053.13 774.323 1078.47 770.349 1089.22 769.073C1082.12 755.218 1073.91 725.212 1097.98 716.024C1128.05 704.539 1157.59 696.883 1195.87 703.992C1234.15 711.102 1217.75 713.29 1219.39 697.43C1221.03 681.57 1220.48 670.085 1246.73 663.522C1267.73 658.272 1286.11 665.345 1292.67 669.538C1267.51 643.105 1223.11 584.003 1246.73 559.065C1276.26 527.892 1300.87 537.736 1319.47 545.392C1334.34 551.518 1358.84 572.373 1369.24 582.034C1361.76 570.003 1353.59 544.08 1380.72 536.642C1414.63 527.345 1433.77 526.798 1452.91 531.72C1472.05 536.642 1476.43 543.205 1478.62 549.221C1480.8 555.237 1489.55 1069.32 1478.62 1094.48C1467.68 1119.63 -4.02045 1124.01 -23.1618 1094.48C-42.3032 1064.94 -35.1935 534.454 -23.1618 503.828Z" fill="url(#paint7_linear_1204_3)"/>
<path d="M-15.1067 500C10.7868 504.742 27.3508 507.932 31.2281 531.422C31.5355 533.285 34.7612 549.419 31.8211 552.37C30.36 553.837 30.6352 555.473 30.6352 552.642" stroke="black" stroke-width="3" stroke-linecap="round"/>
<path d="M27.5852 553.867C49.8581 554.224 63.6071 555.466 80.1037 567.469C89.8589 574.568 99.5295 584.368 104.33 594.267C111.287 608.613 108.127 626.313 94.6733 637.115" stroke="black" stroke-width="3" stroke-linecap="round"/>
<path d="M94.6741 638.339C131.015 623.659 181.06 615.905 219.532 630.926C237.098 637.783 258.351 647.358 267.985 661.668C275.766 673.226 274.592 686.857 274.592 699.551" stroke="black" stroke-width="3" stroke-linecap="round"/>
<path d="M266.968 703.224C301.927 708.721 326.432 719.041 326.432 749.746" stroke="black" stroke-width="3" stroke-linecap="round"/>
<path d="M329.481 755.867C345.58 744.077 362.209 737.599 384.372 740.496C403.268 742.966 416.428 753.014 423.083 766.953C428.939 779.219 427.003 789.046 416.476 799.055C410.706 804.542 404.042 807.648 401.144 814.63" stroke="black" stroke-width="3" stroke-linecap="round"/>
<path d="M399.62 814.63C436.778 795.324 475.061 796.965 504.826 818.303" stroke="black" stroke-width="3" stroke-linecap="round"/>
<path d="M503.302 818.303C529.313 791.81 566.947 767.238 612.404 775.591C645.32 781.639 676.885 809.265 667.972 837.891" stroke="black" stroke-width="3" stroke-linecap="round"/>
<path d="M663.398 842.788C700.373 839.378 746.842 831.308 764.03 864.824" stroke="black" stroke-width="3" stroke-linecap="round"/>
<path d="M762.505 868.497C784.62 852.809 808.56 841.291 835.353 857.479C856.771 870.419 854.893 888.626 850.939 907.673" stroke="black" stroke-width="3" stroke-linecap="round"/>
<path d="M852.465 911.346C863.564 886.789 877.21 881.331 907.948 875.298C925.041 871.944 946.468 876.841 957.671 888.085" stroke="black" stroke-width="3" stroke-linecap="round"/>
<path d="M954.621 883.188C941.302 869.234 923.691 854.54 929.378 835.443C932.821 823.884 948.47 815.763 961.059 811.23C983.04 803.314 1006.95 808.251 1029.33 812.182" stroke="black" stroke-width="3" stroke-linecap="round"/>
<path d="M1030.86 810.957C1027.69 790.911 1024.29 781.344 1050.26 773.822C1066.81 769.025 1085.03 768.109 1102.52 768.109" stroke="black" stroke-width="3" stroke-linecap="round"/>
<path d="M1088.8 770.558C1080.98 748.889 1073.94 724.722 1104.13 711.794C1139.57 696.618 1183.96 696.352 1219.92 709.345" stroke="black" stroke-width="3" stroke-linecap="round"/>
<path d="M1219.92 711.794C1219.92 692.312 1214.72 673.313 1240.68 664.252C1260.72 657.257 1279.15 660.156 1296.16 670.17" stroke="black" stroke-width="3" stroke-linecap="round"/>
<path d="M1291.59 670.17C1266.71 640.138 1203.12 567.923 1268.38 542.168C1308.71 526.25 1347.03 559.358 1369.35 583.248" stroke="black" stroke-width="3" stroke-linecap="round"/>
<path d="M1367.82 580.8C1364.85 571.994 1358.58 560.157 1363.42 551.01C1369.15 540.162 1380.28 534.54 1394.17 531.966C1423.01 526.621 1446.4 527.575 1471.5 540.4" stroke="black" stroke-width="3" stroke-linecap="round"/>
<path d="M-316.898 623.331C-340.011 593.316 -320.14 555.351 -307.315 540.121C-318.306 541.879 -321.304 540.485 -245.368 520.849C-150.448 496.305 -108.691 503.674 -75.9025 513.517C-50.0628 521.274 -31.7515 551.405 -25.5162 566.144C-27.803 560.221 -29.4241 544.427 -19.212 523.179C-5.94006 495.565 7.97996 485.016 41.258 458.884C74.5362 432.752 105.56 428.311 122.706 428.17C139.851 428.03 188.588 440.005 193.599 448.567C198.61 457.13 196.7 490.731 196.294 488.195C195.889 485.658 146.949 478.918 137.29 483.584C127.632 488.251 47.1343 567.194 34.3696 594.727C24.1579 616.754 19.4241 662.841 18.3337 683.131C20.7482 684.132 30.3742 680.998 49.5622 660.449C68.7503 639.9 91.2413 623.956 100.088 618.553C118.127 606.651 165.754 583.496 211.951 586.097C269.697 589.348 282.762 618.993 288.199 639.973C290.432 648.591 286.173 658.336 281.234 666.077C279.703 670.042 277.17 674.059 272.917 677.793C265.66 684.165 274.148 677.182 281.234 666.077C284.135 658.558 283.433 651.226 284.018 646.364C284.912 638.938 272.536 620.108 227.856 620.49C192.113 620.796 155.243 639.213 141.275 648.383C143.467 649.073 149.846 652.527 157.832 660.822C167.814 671.191 178.545 696.007 179.438 701.587C180.33 707.167 168.843 745.941 168.214 738.758C167.712 733.012 152.248 709.404 144.579 698.318C138.891 698.534 120.478 700.507 92.3309 706.673C57.1468 714.381 74.82 711.035 -7.29725 740.815C-89.4145 770.595 -168.292 898.702 -136.636 849.419C-104.979 800.137 -53.8444 755.542 -34.1207 735.74C-14.397 715.938 -4.65735 711.78 -7.90231 691.489C-11.1473 671.198 -8.81327 663.022 -35.0464 632.361C-61.2796 601.7 -134.712 620.727 -171.519 631.296C-208.327 641.864 -288.008 660.85 -316.898 623.331Z" fill="url(#paint8_linear_1204_3)"/>
<path d="M48.9075 660.439C88.0303 618.806 147.748 579.082 225.243 588.262C251.41 593.95 284.6 607.601 286.907 639.004C289.21 670.362 263.168 686.922 240.073 700.224" stroke="black" stroke-width="2" stroke-linecap="round" stroke-linejoin="round"/>
<path d="M140.539 647.867C175.643 626.645 200.804 620.414 246.937 620.975" stroke="black" stroke-width="2" stroke-linecap="round" stroke-linejoin="round"/>
<path d="M-20.7839 575.869C-14.9038 596.855 -0.428002 626.644 -5.76071 649.447C-7.51921 656.967 -14.7216 661.076 -18.4121 652.918C-43.8985 596.579 -118.584 620.758 -164.937 631.486" stroke="black" stroke-width="2" stroke-linecap="round" stroke-linejoin="round"/>
<path d="M18.2059 679.916C25.2271 606.651 33.7712 578.736 88.1471 526.247C117.639 497.778 148.813 469.772 188.781 460.946" stroke="black" stroke-width="2" stroke-linecap="round" stroke-linejoin="round"/>
<path d="M192.593 444.054C137.976 427.652 102.028 419.333 51.9295 451.354C26.8516 467.382 3.07753 486.968 -18.7448 507.159" stroke="black" stroke-width="2" stroke-linecap="round" stroke-linejoin="round"/>
<path d="M9.61792 483.078C-11.9896 511.849 -31.3333 532.797 -25.7341 567.808" stroke="black" stroke-width="2" stroke-linecap="round" stroke-linejoin="round"/>
<path d="M194.624 456.755C195.69 470.693 196.832 484.616 198.05 498.539" stroke="black" stroke-width="2" stroke-linecap="round" stroke-linejoin="round"/>
<path d="M199.701 488.507C181.032 487.151 162.363 485.794 143.693 484.438" stroke="black" stroke-width="2" stroke-linecap="round" stroke-linejoin="round"/>
<path d="M169.35 441.26C130.393 450.749 109.026 455.58 89.2076 489.896" stroke="black" stroke-width="2" stroke-linecap="round" stroke-linejoin="round"/>
<path d="M-34.5085 734.368C16.9097 670.495 136.604 582.098 178.225 700.346" stroke="black" stroke-width="2" stroke-linecap="round" stroke-linejoin="round"/>
<path d="M184.572 699.331C106.267 693.905 26.6851 719.221 -40.2563 759.528C-88.9346 788.839 -118.421 822.02 -146.411 869.491" stroke="black" stroke-width="2" stroke-linecap="round" stroke-linejoin="round"/>
<path d="M145.964 702.249C153.118 713.045 160.271 723.841 167.425 734.637" stroke="black" stroke-width="2" stroke-linecap="round" stroke-linejoin="round"/>
<path d="M181.398 699.839C176.528 716.9 171.658 733.96 166.789 751.02" stroke="black" stroke-width="2" stroke-linecap="round" stroke-linejoin="round"/>
<path d="M118.154 670.877C137.831 675.638 168.256 676.914 177.716 697.171" stroke="black" stroke-width="2" stroke-linecap="round" stroke-linejoin="round"/>
<path d="M278.561 777C230.961 798.6 192.062 855.013 209.062 861.5C247.062 876 292.561 844.5 330.561 822C360.961 804 395.228 756.5 408.561 735C385.061 740 326.161 755.4 278.561 777Z" fill="#0D3930"/>
<path d="M405.975 736.262C340.609 746.782 271.527 765.15 225.852 816.534" stroke="black" stroke-width="3" stroke-linecap="round"/>
<path d="M411.848 735.283C390.084 766.053 361.84 792.384 333.86 817.404C324.846 825.465 316.032 833.046 305.145 838.071" stroke="black" stroke-width="3" stroke-linecap="round"/>
<path d="M358.007 767.588C323.558 781.953 290.116 798.356 259.298 819.58C249.56 826.286 239.181 833.645 231.725 842.965" stroke="black" stroke-width="3" stroke-linecap="round"/>
<path d="M321.787 785.209C330.389 775.898 339.327 767.652 349.197 759.756" stroke="black" stroke-width="3" stroke-linecap="round"/>
<path d="M265.988 816.534C288.049 810.927 310.02 806.841 332.555 803.808" stroke="black" stroke-width="3" stroke-linecap="round"/>
<path d="M-14.049 692.3C-6.04902 686.548 16.751 674.649 43.951 673.071C77.951 671.098 96.451 667.154 103.451 692.3C110.451 717.447 111.451 707.585 127.451 713.502C143.451 719.419 142.951 725.829 142.451 738.649C142.051 748.905 142.284 755.084 142.451 756.892C154.118 747.031 183.951 728.787 209.951 734.704C235.951 740.621 220.784 777.272 209.951 794.858C216.618 793.215 233.051 791.506 245.451 797.817C251.26 800.774 254.663 803.702 256.552 806.215C252.901 791.23 252.16 767.442 270.451 756.892C296.951 741.607 316.451 741.607 323.951 759.851C329.951 774.445 334.784 797.817 336.451 807.678C341.451 801.761 359.251 789.928 390.451 789.928C429.451 789.928 437.951 795.351 441.451 820.991C444.951 846.63 437.451 852.547 429.951 859.943C422.451 867.339 450.451 850.082 485.451 859.943C513.451 867.832 522.451 889.199 523.451 898.896C527.284 894.622 542.451 885.78 572.451 884.597C609.951 883.117 638.951 886.569 648.451 901.854C656.051 914.082 656.951 921.412 656.451 923.549C660.784 913.688 675.051 893.373 697.451 891.007C725.451 888.048 738.951 893.965 759.951 905.305C776.751 914.378 787.618 924.864 790.951 928.973C796.618 925.193 812.151 919.407 828.951 926.507C845.751 933.608 849.284 947.545 848.951 953.626C851.784 965.788 855.751 994.452 848.951 1011.81C840.451 1033.5 3.95098 1026.6 -14.049 1011.81C-28.449 999.974 -20.049 793.872 -14.049 692.3Z" fill="#0D3930"/>
<path d="M146.211 752.893C161.249 745.337 193.107 728.03 213.664 737.073C222.369 740.902 221.368 756.077 219.473 762.581C217.254 770.192 213.122 776.189 213.122 784.35C213.122 785.602 211.728 792.392 211.728 788.213" stroke="black" stroke-width="3" stroke-linecap="round"/>
<path d="M140.998 751.53C142.161 740.479 147.323 725.638 136.691 716.588C131.303 712.002 122.408 712.647 115.152 712.647" stroke="black" stroke-width="3" stroke-linecap="round"/>
<path d="M109.12 713.329C106.138 694.216 104.374 672.565 75.6159 670.353C48.579 668.273 12.5581 675.451 -8.04883 690.135" stroke="black" stroke-width="3" stroke-linecap="round"/>
<path d="M209.92 793.141C225.166 791.271 236.899 791.209 248.928 799.281C253.685 802.472 258.166 806.397 258.166 811.559" stroke="black" stroke-width="3" stroke-linecap="round"/>
<path d="M255.581 806.102C255.581 790.085 253.264 774.168 267.068 761.156C276.557 752.212 291.975 746.224 306.747 746.224C318.763 746.224 324.68 761.092 327.806 768.091C333.159 780.074 334.384 792.197 335.704 804.738" stroke="black" stroke-width="3" stroke-linecap="round"/>
<path d="M334.844 807.467C345.762 797.933 357.475 794.078 373.278 792.118C388.966 790.172 407.164 788.811 422.529 792.686C436.429 796.193 440.727 808.875 442.823 819.063C445.24 830.811 445.608 843.704 435.644 853.171" stroke="black" stroke-width="3" stroke-linecap="round"/>
<path d="M427.026 861.357C465.634 845.396 521.504 859.917 523.518 898.194" stroke="black" stroke-width="3" stroke-linecap="round"/>
<path d="M520.074 906.379C526.549 899.038 532.453 892.391 543.288 889.174C559.339 884.408 575.958 882.021 593.113 882.807C609.638 883.564 628.578 886.888 641.79 895.237C651.486 901.364 653.942 910.146 655.336 919.34" stroke="black" stroke-width="3" stroke-linecap="round"/>
<path d="M656.196 921.387C668.723 899.261 689.909 885.939 721.577 890.462C739.26 892.988 754.511 900.092 768.435 908.805C776.367 913.767 784.773 919.091 789.734 926.162" stroke="black" stroke-width="3" stroke-linecap="round"/>
<path d="M784.564 933.325C790.235 928.749 795.625 923.67 804.188 923.168C810.226 922.814 817.089 922.7 822.999 923.699C840.748 926.699 846.473 938.401 848.318 951.061" stroke="black" stroke-width="3" stroke-linecap="round"/>
<path d="M1004.53 898.569C1002.03 882.902 1007.03 851.369 1047.03 850.569C1075.1 850.008 1089.71 854.173 1096.39 858.263C1087.99 848.472 1079.75 832.34 1092.53 820.569C1107.73 806.569 1134.2 814.736 1145.53 820.569C1141.03 808.069 1138.03 782.069 1162.03 778.069C1186.03 774.069 1217.03 776.402 1229.53 778.069C1220.53 767.402 1205.23 740.469 1216.03 718.069C1226.83 695.669 1254.53 705.069 1267.03 712.569C1271.03 701.236 1282.83 677.969 1298.03 675.569C1313.23 673.169 1337.7 674.569 1348.03 675.569C1341.87 668.902 1333.23 647.269 1348.03 614.069C1366.53 572.569 1383.03 556.069 1410.03 567.569C1431.63 576.769 1446.03 588.736 1450.53 593.569C1453.2 690.736 1456.93 887.769 1450.53 898.569C1442.53 912.069 1004.53 912.833 1004.53 898.569Z" fill="#0E3C32"/>
<path d="M1439.49 583.729C1424.49 573.544 1412.12 563.877 1391.78 564.702C1373.11 565.459 1361.32 585.018 1354.77 596.912C1342.76 618.689 1331.93 652.761 1346.09 675.509" stroke="black" stroke-width="3" stroke-linecap="round"/>
<path d="M1006.09 874.373C1009.11 867.162 1012.21 859.592 1021.51 856.234C1029.47 853.354 1039 851.859 1047.59 850.969C1063.14 849.358 1086.49 848.301 1096.56 859.846" stroke="black" stroke-width="3" stroke-linecap="round"/>
<path d="M1099.14 861.921C1093.38 852.449 1081.37 835.762 1087.84 824.567C1098.05 806.924 1129.22 810.968 1144.8 819.725" stroke="black" stroke-width="3" stroke-linecap="round"/>
<path d="M1145.59 818.069C1144.9 805.919 1139.27 789.496 1154.81 780.734C1174.39 769.688 1206.2 773.162 1229.03 775.455" stroke="black" stroke-width="3" stroke-linecap="round"/>
<path d="M1268.86 714.579C1256.95 709.977 1241.87 704.325 1228.23 707.392C1216.58 710.011 1213.62 722.049 1213.05 730.22C1212.32 740.924 1214.57 750.787 1219.37 760.772C1221.84 765.906 1225.16 770.755 1226.65 776.145" stroke="black" stroke-width="3" stroke-linecap="round"/>
<path d="M1269.72 716.654C1270.18 700.397 1273.57 687.776 1291.93 678.992C1314.36 668.263 1347.25 671.688 1370.52 677.916" stroke="black" stroke-width="3" stroke-linecap="round"/>
<path d="M1367.65 344.35C1387.16 320.579 1449.99 304.879 1478.97 300H1539.29L1544.16 649.48L1483.85 669.438C1486.07 659.09 1489.17 634.845 1483.85 620.653C1477.2 602.913 1466.11 597.147 1464.33 607.791C1462.56 618.435 1347.25 684.517 1332.17 698.709C1320.11 710.063 1323.6 765.53 1326.85 791.845C1322.12 781.94 1308.58 757.429 1292.25 738.625C1271.85 715.119 1280.28 669.438 1307.33 626.418C1334.39 583.398 1395.59 583.842 1419.98 570.093C1444.38 556.345 1437.28 558.119 1410.67 551.466C1384.06 544.814 1266.53 562.11 1212.87 570.093C1169.93 576.48 1156.54 612.374 1155.21 629.523C1147.52 620.061 1130.55 597.679 1124.17 583.842C1116.18 566.545 1116.18 477.401 1212.87 468.088C1290.21 460.637 1366.91 496.324 1395.59 515.099C1390.71 504.307 1376.16 471.99 1357 429.059C1333.06 375.396 1343.26 374.065 1367.65 344.35Z" fill="url(#paint9_linear_1204_3)"/>
<path d="M1435.95 310.572C1420.57 316.532 1417.54 317.16 1401.4 326.52C1391.17 332.448 1358.66 353.034 1350.42 362.013C1336.43 377.281 1335.72 388.878 1342.76 408.137C1349.52 426.616 1379.05 473.057 1386.7 487.877" stroke="black" stroke-width="3" stroke-linecap="round" stroke-linejoin="round"/>
<path d="M1413.44 364.045C1408.52 379.245 1403.86 393.09 1405.62 409.387C1407.58 427.616 1414.45 439.906 1421.88 455.512" stroke="black" stroke-width="3" stroke-linecap="round" stroke-linejoin="round"/>
<path d="M1392.33 510.392C1335.42 479.419 1265.38 463.155 1200.33 467.082C1173.73 468.688 1143.82 494.43 1132.32 515.203C1123.26 531.557 1121.32 551.203 1124.96 566.68" stroke="black" stroke-width="3" stroke-linecap="round" stroke-linejoin="round"/>
<path d="M1122.15 562.458C1125.95 580.125 1128.36 595.667 1139.03 610.302C1144.89 618.327 1151.1 625.164 1158.74 631.41" stroke="black" stroke-width="3" stroke-linecap="round" stroke-linejoin="round"/>
<path d="M1151.7 628.595C1156.02 616.594 1159.6 603.577 1169.52 594.823C1182.62 583.269 1199.98 577.243 1216.43 572.543C1251.34 562.57 1287.62 559.515 1323.38 554.015" stroke="black" stroke-width="3" stroke-linecap="round" stroke-linejoin="round"/>
<path d="M1316.34 559.644C1358.15 547.163 1399.32 550.799 1441.58 559.644" stroke="black" stroke-width="3" stroke-linecap="round" stroke-linejoin="round"/>
<path d="M1421.88 572.308C1409.64 576.664 1397.36 580.897 1384.82 584.348C1369.04 588.69 1352.51 590.804 1337.76 598.263C1328.94 602.723 1321.87 609.737 1315.17 616.869C1307 625.572 1301.53 631.484 1295.31 642.12C1283.59 662.176 1283.02 681.527 1276.94 703.176" stroke="black" stroke-width="3" stroke-linecap="round" stroke-linejoin="round"/>
<path d="M1281.16 680.661C1278.87 704.436 1275.92 722.919 1293.67 740.075C1309.12 755.012 1316.43 768.875 1323.38 789.014" stroke="black" stroke-width="3" stroke-linecap="round" stroke-linejoin="round"/>
<path d="M1437.36 628.595C1412.22 645.701 1383.92 655.19 1360.82 674.876C1351.32 682.975 1337.11 690.146 1330.57 700.909C1325.33 709.517 1325.95 722.664 1325.72 732.101C1325.28 750.226 1326.54 768.144 1327.6 786.2" stroke="black" stroke-width="3" stroke-linecap="round" stroke-linejoin="round"/>
<path d="M1209.39 476.62C1183.53 503.655 1159.97 529.764 1153.73 567.852C1151.58 580.967 1150.68 594.32 1148.89 607.488" stroke="black" stroke-width="3" stroke-linecap="round" stroke-linejoin="round"/>
<path d="M1406.4 596.23C1381.98 614.28 1349.38 627.995 1331.35 653.142C1318.34 671.292 1317.18 694.663 1313.53 715.84" stroke="black" stroke-width="3" stroke-linecap="round" stroke-linejoin="round"/>
<path d="M1329.21 643.365C1330.67 578.782 1379.46 480.023 1403.67 438.717C1404.87 448.752 1413.09 481.176 1436.33 530.585C1465.38 592.347 1507.82 644.176 1542.66 728.38C1570.52 795.744 1544.19 881.354 1527.55 915.738C1513.66 909.228 1479.91 892.11 1456.03 875.722C1426.18 855.237 1390.34 825.291 1363.2 783.197C1336.06 741.102 1327.4 724.095 1329.21 643.365Z" fill="url(#paint10_linear_1204_3)"/>
<path d="M1404.29 438.643C1390.8 463.625 1377.17 488.616 1365.33 514.44C1354.21 538.704 1345.72 564.787 1338.85 590.52C1331.48 618.142 1326.13 647.38 1325.58 676.031C1325.27 692.024 1327.14 707.749 1331.04 723.247C1331.98 727.01 1333.07 730.743 1334.35 734.408C1343.9 761.798 1332.48 728.386 1339.09 743.305" stroke="black" stroke-width="3" stroke-linecap="round"/>
<path d="M1393.85 577.534C1399.83 628.668 1408.01 679.373 1429.77 726.477C1444.09 757.483 1459.31 787.856 1472.17 819.478" stroke="black" stroke-width="3" stroke-linecap="round"/>
<path d="M1393.42 457.512C1397.61 450.075 1403.96 433.598 1406.42 442.549C1408.88 451.499 1434.07 534.464 1493.94 628.993C1553.8 723.521 1575.23 775.04 1553.61 860.84C1531.99 946.64 1534.31 915.852 1490.19 894.789C1446.06 873.727 1350.17 787.212 1334.34 732.249" stroke="black" stroke-width="3" stroke-linecap="round"/>
<path d="M1143.57 629.636C1135.86 622.171 1146.78 622.082 1153.21 622.971C1283.57 632.302 1356.09 674.067 1399.7 704.724C1443.3 735.382 1496.55 817.58 1471.3 811.359C1446.06 805.139 1279.9 779.813 1241.8 735.826C1203.7 691.839 1153.21 638.966 1143.57 629.636Z" fill="url(#paint11_linear_1204_3)"/>
<path d="M1140 622.773C1155.92 637.141 1170.2 652.823 1184.4 668.906C1190.97 676.349 1221.24 720.354 1260.26 750.188" stroke="black" stroke-width="3" stroke-linecap="round"/>
<path d="M1140.51 621.748C1153.96 619.837 1167.07 620.413 1180.61 621.862C1209.54 624.958 1238.96 629.56 1266.44 639.404C1302.76 652.411 1338.76 667.886 1372.52 686.591C1386.64 694.417 1396.62 700.728 1409 710.455C1412.37 713.103 1415.68 715.857 1418.68 718.913" stroke="black" stroke-width="3" stroke-linecap="round"/>
<path d="M1211.39 640.45C1236.84 645.517 1260.69 658.394 1283.26 670.729C1308.09 684.301 1333.25 699.73 1356.49 715.806C1421.06 760.487 1416.77 763.958 1476.9 812.612" stroke="black" stroke-width="3" stroke-linecap="round"/>
<path d="M1271.09 648.871C1293.92 664.418 1314.49 682.21 1335.39 700.157" stroke="black" stroke-width="3" stroke-linecap="round"/>
<path d="M1373.17 699.699C1394.06 719.212 1408.76 742.176 1423.69 766.295" stroke="black" stroke-width="3" stroke-linecap="round"/>
<path d="M1296.98 704.289C1334.01 708.274 1368.27 728.019 1398.78 747.921" stroke="black" stroke-width="3" stroke-linecap="round"/>
<path d="M1395.66 699.699C1401.96 705.142 1424.31 725.097 1429.17 731.829C1436.78 742.385 1447.38 753.465 1454.68 764.245C1463.27 776.938 1471.06 790.182 1476.02 804.764C1476.56 806.352 1478 811.016 1477.66 813.38C1477.44 814.855 1476.52 814.424 1475.86 815.483" stroke="black" stroke-width="3" stroke-linecap="round"/>
<path d="M1477.82 811.705C1463.66 816.071 1447.61 813.491 1433.76 809.858C1411.57 804.041 1387.77 798.165 1365.83 791.498" stroke="black" stroke-width="3" stroke-linecap="round"/>
<path d="M1226.29 719.273C1236.94 728.943 1247.1 739.797 1258.93 748.065C1270.11 755.887 1282.53 761.71 1295.05 767.033C1323.31 779.046 1353.12 787.125 1382.5 795.85C1401.54 801.504 1420.58 807.512 1440.01 811.628" stroke="black" stroke-width="3" stroke-linecap="round"/>
<path d="M1267.52 744.016C1201.59 736.141 1175.89 737.742 1171.29 739.526C1165.09 742.372 1203.73 768.021 1237.14 791.824C1270.55 815.627 1284.4 836.993 1382.35 871.741C1460.71 899.54 1505.63 918.712 1518.3 924.823C1519.27 904.312 1510.55 853.071 1467.91 812.198C1414.61 761.108 1349.93 753.86 1267.52 744.016Z" fill="url(#paint12_linear_1204_3)"/>
<path d="M1173.93 742.816C1183.91 750.692 1194.53 757.669 1204.81 765.13C1231.32 784.362 1256.25 805.299 1282.01 825.473" stroke="black" stroke-width="3" stroke-linecap="round"/>
<path d="M1173.11 739.286C1183.39 737.902 1193.22 737.152 1203.65 737.474C1238.23 738.542 1272.77 743.438 1306.86 749.035C1332.18 753.191 1357.22 758.4 1381.76 765.814" stroke="black" stroke-width="3" stroke-linecap="round"/>
<path d="M1225.5 759.696C1245.09 760.002 1262.95 763.075 1282.06 768.027C1315.61 776.721 1348.86 788.03 1380.64 801.885C1409.01 814.25 1431.83 831.104 1453.39 852.729" stroke="black" stroke-width="3" stroke-linecap="round"/>
<path d="M1289.82 746.213C1396.07 759.963 1458.89 792.254 1484.72 830.541C1517.01 878.401 1520.29 926.492 1516.91 930.013C1513.53 933.533 1458.98 894.531 1351.39 860.165" stroke="black" stroke-width="3" stroke-linecap="round"/>
<path d="M1234.04 787.949C1252.11 804.952 1291.32 842.378 1383.64 870.707C1460.52 894.299 1499.64 916.932 1509.95 924.171" stroke="black" stroke-width="3" stroke-linecap="round"/>
<path d="M62.4999 552.5C-2.7001 580.9 -61.0001 645 -82.0001 673.5C-115.167 737.667 -166.3 858.9 -105.5 830.5C-29.5001 795 20.9999 740.5 50.9999 684C74.9999 638.8 134.333 558.833 161 524.5C155.333 522 127.7 524.1 62.4999 552.5Z" fill="url(#paint13_linear_1204_3)"/>
<path d="M159.705 521C95.5764 533.443 33.0106 564.125 -16.8286 606.493C-38.9883 625.331 -64.992 646.521 -80.1328 671.755" stroke="black" stroke-width="3" stroke-linecap="round"/>
<path d="M160.685 522.958C119.733 574.796 83.9844 629.362 50.2835 686.113C32.9339 715.329 14.3759 747.765 -14.5435 766.712" stroke="black" stroke-width="3" stroke-linecap="round"/>
<path d="M110.759 549.389C92.5029 559.547 75.8398 570.493 59.4195 583.543C29.2085 607.553 -1.10167 633.295 -27.2158 661.803C-46.5802 682.942 -61.9186 707.837 -69.3643 735.386" stroke="black" stroke-width="3" stroke-linecap="round"/>
<path d="M-41.4998 627C-60.8331 642.5 -104.5 692.2 -124.5 767C-149.5 860.5 -119 834.5 -104.5 828.5C-89.9998 822.5 -11 778 29 721" stroke="black" stroke-width="3" stroke-linecap="round"/>
<path d="M61.5 736.5C7.5 738.5 -64.3333 781.333 -93.5 802.5C-165.1 868.1 -185 936.167 -186 962C-171.167 957.667 -131.9 945.6 -93.5 932C-45.5 915 13.5 870.5 44 850.5C74.5 830.5 126.5 764.5 150.5 748.5C174.5 732.5 129 734 61.5 736.5Z" fill="#0D222D"/>
<path d="M158.727 739.985C110.58 737.855 56.4411 731.366 9.71152 747.055C-26.3434 759.161 -57.9226 779.782 -89.9219 799.7" stroke="black" stroke-width="3" stroke-linecap="round"/>
<path d="M156.769 741.943C139.616 759.58 121.413 776.118 103.69 793.174C82.1461 813.906 61.9245 836.695 38.7538 855.662C-0.655769 887.922 -46.1468 912.45 -93.8369 929.898" stroke="black" stroke-width="3" stroke-linecap="round"/>
<path d="M75.7229 760C50.5 765.625 21 771.625 2 779.125C-35 793.731 -52.4392 813.483 -79 838.125C-98.1898 855.929 -135 895.625 -153.5 921.125" stroke="black" stroke-width="3" stroke-linecap="round"/>
<path d="M-64.5262 783C-114.5 813.5 -142.684 852.453 -171.631 914.585C-207.815 992.25 -165.5 952.945 -141.5 946.5C-117.501 940.055 -23.0354 903.207 3.49956 880.947" stroke="black" stroke-width="3" stroke-linecap="round"/>
<path d="M943.68 -140.5C930.88 -183.3 994.347 -211.333 1027.68 -220H1859.18V431.5C1854.01 436.333 1835.48 445 1802.68 441C1761.68 436 1743.68 413 1738.18 406.5C1732.68 400 1729.18 390.5 1726.68 395C1724.68 398.6 1718.18 410.5 1715.18 416C1713.18 418.167 1708.08 421.2 1703.68 416C1699.28 410.8 1705.51 376.5 1709.18 360C1696.51 367.667 1670.08 382.2 1665.68 379C1661.28 375.8 1666.51 360.333 1669.68 353C1666.85 354.333 1659.38 356.5 1652.18 354.5C1644.98 352.5 1639.18 346 1637.18 343C1630.51 346.167 1612.38 349 1593.18 335C1573.98 321 1573.18 294.5 1575.18 283C1574.18 281.667 1571.38 277.4 1568.18 271C1564.98 264.6 1565.51 252 1566.18 246.5C1565.35 246.5 1562.88 246.2 1559.68 245C1555.68 243.5 1551.18 240 1550.68 231C1550.18 222 1555.68 213.5 1546.18 220C1536.68 226.5 1509.18 232 1500.18 232C1491.18 232 1474.68 231 1484.18 220C1491.78 211.2 1518.68 200 1531.18 195.5C1529.68 195 1524.58 193.4 1516.18 191C1507.78 188.6 1512.01 171.333 1515.18 163C1514.35 163.333 1511.58 163.3 1507.18 160.5C1502.78 157.7 1496.68 149.667 1494.18 146C1495.18 153.333 1496.78 170.3 1495.18 179.5C1493.18 191 1485.68 183.5 1483.18 177.5C1480.68 171.5 1479.68 172 1476.68 173.5C1474.28 174.7 1466.68 175.333 1463.18 175.5C1459.51 187.167 1450.38 210.4 1443.18 210C1434.18 209.5 1429.68 184.5 1429.18 181C1428.68 177.5 1427.68 178 1420.18 190C1412.68 202 1404.18 203.5 1389.68 202C1375.18 200.5 1385.68 191.5 1365.18 196C1344.68 200.5 1334.68 193 1321.18 178C1310.38 166 1316.68 136 1321.18 122.5C1319.68 123.167 1314.18 123.4 1304.18 119C1294.18 114.6 1288.68 102.833 1287.18 97.5C1286.18 99.3333 1282.88 103.7 1277.68 106.5C1272.48 109.3 1258.85 109 1252.68 108.5C1249.85 114.333 1240.88 125.7 1227.68 124.5C1214.48 123.3 1211.51 108 1211.68 100.5C1209.68 101.5 1204.38 102.9 1199.18 100.5C1193.98 98.1 1193.35 87.8333 1193.68 83C1191.51 86.3333 1185.58 93.9 1179.18 97.5C1171.18 102 1139.68 112.5 1110.68 97.5C1087.48 85.5 1109.68 49.5 1123.68 33C1089.35 42.6667 1016.28 54 998.681 22C981.081 -10 1022.35 -33 1045.18 -40.5C1041.68 -40.6667 1033.28 -42.9 1027.68 -50.5C1022.08 -58.1 1025.35 -74.3333 1027.68 -81.5C1005.01 -83.3333 956.48 -97.7 943.68 -140.5Z" fill="#004122"/>
<path d="M1043.26 -40.5C1026.23 -32.3034 996.796 -21.5679 993.815 6.90788C992.161 22.7043 1006.17 30.0373 1015.49 33.7723C1047.93 46.7716 1084.48 36.9413 1117.68 34.6753" stroke="black" stroke-width="3" stroke-linecap="round"/>
<path d="M1120.88 37.7607C1113.89 47.8596 1096.46 67.3242 1101.62 84.0771C1104.39 93.0535 1115.95 100.954 1122.54 103.014C1138.69 108.069 1157.5 105.049 1173.34 99.3638C1180.41 96.8278 1186.16 93.2515 1190.68 86.0165" stroke="black" stroke-width="3" stroke-linecap="round"/>
<path d="M1195.76 79.5C1193.77 87.9645 1190.79 98.5246 1200.15 100.006C1204.26 100.656 1208.54 100.236 1212.68 100.236" stroke="black" stroke-width="3" stroke-linecap="round"/>
<path d="M1212.68 99.0652C1215.63 113.905 1218.42 127.71 1232.09 124.748C1240.01 123.033 1247.4 118.105 1251.68 109.203" stroke="black" stroke-width="3" stroke-linecap="round"/>
<path d="M1252.68 107.277C1261.23 108.178 1269.47 109.365 1277.79 105.623C1283.14 103.218 1284.7 99.5389 1288.68 95.1521" stroke="black" stroke-width="3" stroke-linecap="round"/>
<path d="M1285.68 96.4565C1294.09 112.018 1302.08 121.239 1316.68 121.239" stroke="black" stroke-width="3" stroke-linecap="round"/>
<path d="M1318.84 127.761C1316.64 139.853 1313.14 154.146 1315.42 166.705C1317.57 178.521 1329.47 188.886 1337.34 194.034C1349.14 201.753 1366.43 197.041 1378.68 193.416" stroke="black" stroke-width="3" stroke-linecap="round"/>
<path d="M1378.68 196.32C1389.1 201.419 1399.82 207.631 1410.31 199.441C1416.97 194.246 1422.28 185.852 1427.68 178.63" stroke="black" stroke-width="3" stroke-linecap="round"/>
<path d="M1427.68 178.843C1430.78 187.681 1436.61 220.933 1448.53 206.236C1455.63 197.478 1458.39 184.953 1463.68 174.717" stroke="black" stroke-width="3" stroke-linecap="round"/>
<path d="M961.567 -82.6555C951.987 -84.4295 965.558 -108.527 973.541 -120.353C1171.49 -117.544 1572.45 -110.596 1592.67 -105.274C1617.95 -98.6216 1620.17 -95.9606 1639.24 -87.0905C1658.31 -78.2205 1675.61 -62.6979 1676.05 -52.0538C1676.49 -41.4097 1634.36 -50.7233 1607.75 -52.0538C1586.46 -53.1182 1571.98 -61.663 1567.39 -65.8024C1568.87 -57.8193 1572.98 -42.0306 1577.59 -42.7402C1583.36 -43.6272 1589.57 -42.7402 1584.69 -31.2092C1579.81 -19.6781 1536.79 -23.2261 1492 -14.7995C1447.2 -6.37298 1451.64 -30.3221 1459.18 10.9236C1466.72 52.1694 1442.32 47.2909 1426.36 47.2909C1413.59 47.2909 1374.03 5.89727 1355.84 -14.7995C1356.29 1.01874 1356.91 37.3564 1355.84 56.1609C1354.51 79.6666 1344.75 75.2316 1327.9 47.2909C1311.05 19.3502 1309.72 10.9236 1302.18 40.1948C1294.64 69.466 1285.32 75.2316 1256.05 47.2909C1232.64 24.9383 1227.67 -37.4182 1228.11 -65.8024C1226.04 -48.8014 1221.9 -9.6549 1221.9 10.9236C1221.9 36.6468 1195.29 121.799 1177.11 92.5282C1162.56 69.1113 1183.17 -29.2873 1195.29 -75.5595L1168.24 -37.8617C1139.86 4.7146 1079.98 90.3994 1067.56 92.5282C1052.04 95.1892 1053.82 75.2316 1067.56 32.6553C1081.31 -9.92101 1126.99 -95.0736 1108.81 -65.8024C1090.63 -36.5312 993.056 52.1694 961.567 82.7711C930.078 113.373 925.2 121.799 923.869 75.2316C922.539 28.6638 973.541 -18.3476 993.056 -47.6188C1012.57 -76.89 1051.6 -107.048 1028.54 -95.0736C1005.47 -83.099 973.541 -80.438 961.567 -82.6555Z" fill="url(#paint14_linear_1204_3)"/>
<path d="M1043.13 -102.133C1004.97 -63.7333 965.427 -26.1468 940.767 22.7357C932.96 38.2111 926.13 54.2363 921.767 71.0424C921.328 72.7344 918.022 96.3545 921.767 92.6096" stroke="black" stroke-width="2" stroke-linecap="round" stroke-linejoin="round"/>
<path d="M916.914 91.162C919.03 95.4483 920.492 103.552 925.644 105.978C934.957 110.362 951.596 93.0384 958.995 86.2348" stroke="black" stroke-width="2" stroke-linecap="round" stroke-linejoin="round"/>
<path d="M1116.33 -79.416C1091.75 -39.5157 1059.27 -4.17786 1025.54 28.1347C998.726 53.8117 971.437 79.9179 940.912 101.051" stroke="black" stroke-width="2" stroke-linecap="round" stroke-linejoin="round"/>
<path d="M1131 -99.3904C1108.78 -54.2111 1082.47 -8.89204 1065.83 38.4759C1060.45 53.8102 1059.07 69.6381 1058 85.6096" stroke="black" stroke-width="2" stroke-linecap="round" stroke-linejoin="round"/>
<path d="M1195.83 -75.6306C1173.38 -44.7728 1151.96 -13.4942 1130.91 18.3186C1117.29 38.9042 1103.5 60.1225 1085.62 77.3523C1076.7 85.9491 1070.18 89.3124 1059.54 92.2159" stroke="black" stroke-width="2" stroke-linecap="round" stroke-linejoin="round"/>
<path d="M1225 -54.3904C1224.07 -19.9313 1224.75 21.9467 1213.64 54.1544C1210.25 63.9914 1191.1 104.69 1182 96.5373" stroke="black" stroke-width="2" stroke-linecap="round" stroke-linejoin="round"/>
<path d="M1195.83 -80.6794C1189.84 -49.8571 1181.62 -19.4915 1178.23 11.7975C1175.48 37.242 1175.64 62.8744 1175.64 88.4291" stroke="black" stroke-width="2" stroke-linecap="round" stroke-linejoin="round"/>
<path d="M1311.94 7.66284C1309.28 19.9452 1306.86 32.3363 1302.82 44.261C1300.83 50.1286 1298.35 60.725 1292.38 64.1025C1275.04 73.9002 1256.58 48.306 1248.84 36.689" stroke="black" stroke-width="2" stroke-linecap="round" stroke-linejoin="round"/>
<path d="M1228.65 -61.748C1230 -35.4806 1238.56 11.6388 1248.5 36.4999" stroke="black" stroke-width="2" stroke-linecap="round" stroke-linejoin="round"/>
<path d="M1308.15 11.4489C1316.66 28.3313 1324.72 46.304 1335.15 62.1394C1337.5 65.7149 1346.05 73.9737 1351.06 71.7447C1357.32 68.9651 1357.99 53.1953 1358.35 47.7666C1359.71 27.7744 1357.33 9.30998 1352.32 -10.0051" stroke="black" stroke-width="2" stroke-linecap="round" stroke-linejoin="round"/>
<path d="M1452.02 -23.8879C1456.25 -6.96576 1475.98 45.8178 1443.18 50.0094C1426.57 52.1323 1410.01 37.1909 1398.31 27.714C1386.93 18.4956 1375.39 9.05474 1366.2 -2.43389" stroke="black" stroke-width="2" stroke-linecap="round" stroke-linejoin="round"/>
<path d="M1276.51 -158.537H1258.32C1258.32 -143.31 1260.36 -99.2846 1268.52 -44.9998C1278.72 22.8561 1335.05 124.418 1398.91 184.735C1450 232.988 1527.23 250.373 1559.46 253.034V222.876C1540.24 220.659 1486.11 204.781 1423.31 159.012C1344.81 101.8 1314.2 27.7347 1289.81 -40.5648C1270.3 -95.2044 1272.81 -141.979 1276.51 -158.537Z" fill="#723E16"/>
<path d="M1272.24 -132.418C1272.24 -120.333 1271.94 -108.544 1274.31 -96.6159C1280.09 -67.5783 1289.94 -39.001 1298.55 -10.6838C1302.95 3.80162 1310.61 17.406 1316.91 31.1402C1324.89 48.5652 1336.83 64.0027 1346.98 80.2019C1368.95 115.24 1400.49 145.296 1433.45 170.02C1440.3 175.154 1447.71 179.308 1455.02 183.724C1461.27 187.504 1467.22 191.812 1473.58 195.411C1479.58 198.801 1486.54 202.27 1493.28 203.954" stroke="black" stroke-width="3" stroke-linecap="round" stroke-linejoin="round"/>
<path d="M1261.21 -143.013C1259.94 -130.995 1258.4 -119.303 1259.5 -107.191C1262.19 -77.7056 1268.96 -48.2493 1274.53 -19.1817C1277.38 -4.31242 1283.57 10.0244 1288.38 24.3461C1294.48 42.5166 1304.72 59.1271 1313.11 76.3075C1331.26 113.468 1359.45 146.683 1389.62 174.747C1395.88 180.575 1402.82 185.488 1409.62 190.65C1415.44 195.069 1420.9 199.981 1426.85 204.231C1432.45 208.235 1439.01 212.419 1445.53 214.804" stroke="black" stroke-width="3" stroke-linecap="round" stroke-linejoin="round"/>
<path d="M1078.7 -156.319H1089.79C1097.48 -143.31 1124.47 -105.848 1170.95 -60.0789C1229.05 -2.86702 1359.88 58.7799 1427.74 82.7291C1482.03 101.888 1580.16 117.322 1622.44 122.644L1629.53 170.099C1593.76 161.377 1512.72 140.384 1474.75 126.192C1427.3 108.452 1291.59 41.4833 1258.32 21.5257C1225.06 1.56801 1155.87 -64.0704 1130.15 -88.9066C1109.57 -108.776 1087.28 -142.127 1078.7 -156.319Z" fill="#542104"/>
<path d="M1092.12 -152.964C1103.11 -138.212 1112.82 -122.58 1124.37 -108.231C1132.36 -98.3094 1140.92 -88.8158 1149.94 -79.8274C1174.27 -55.602 1203.57 -36.9464 1232.07 -18.1168C1284.6 16.5817 1339.38 54.1133 1399.46 74.5908C1447.04 90.8069 1496.67 101.145 1545.85 111.058C1570.91 116.108 1595.56 120.225 1620.9 122.727" stroke="black" stroke-width="3" stroke-linecap="round" stroke-linejoin="round"/>
<path d="M1087.73 -148.336C1098.98 -127.908 1114.83 -110.431 1130.16 -93.0093C1149.65 -70.877 1169.54 -49.7196 1192.09 -30.613C1242.73 12.2922 1297.79 46.5135 1357.97 74.5436C1404.04 95.9978 1451.22 115.465 1499.09 132.501C1523.42 141.158 1548.01 147.562 1572.77 154.677" stroke="black" stroke-width="3" stroke-linecap="round" stroke-linejoin="round"/>
<path d="M-46 332.68C-59.2 349.88 -79.5 351.847 -88 350.68V-29.8198H469.5L426 23.1802C415.333 29.0135 388.6 39.4802 367 34.6802C345.4 29.8802 328 8.34684 322 -1.81982C323.333 0.846842 325.5 8.08018 323.5 15.6802C321.5 23.2802 310.667 23.8468 305.5 23.1802C314.333 28.6802 327.9 41.0802 311.5 46.6802C295.1 52.2802 276 41.0135 268.5 34.6802H256.5C257.833 36.6802 259.7 41.8802 256.5 46.6802C253.3 51.4802 241.833 53.0135 236.5 53.1802C238.833 61.8468 239.4 82.1802 223 94.1802C206.6 106.18 176.833 99.1802 164 94.1802C162 94.8468 156.2 95.7801 149 94.1802C142.364 92.7056 140.882 86.5872 140.951 83.0279C140.319 92.903 137.161 110.623 129 108.68C120.6 106.68 121.833 95.8468 123.5 90.6801C121.667 91.8468 116.9 94.1802 112.5 94.1802C108.1 94.1802 103 91.8468 101 90.6801C101.833 95.5135 102.4 105.38 98 106.18C92.5 107.18 80.5 96.1801 78.5 90.6801C76.5 85.1801 77.5 84.6801 73 90.6801C69.4 95.4801 62.1667 96.3468 59 96.1801C66.6667 101.18 78.5 113.98 64.5 125.18C50.5117 136.371 36.3571 128.194 31.0134 122.694C31.8295 123.559 31.4568 127.734 23.5 137.68C15.6181 147.533 4.17702 146.869 -0.781471 145.253C3.45073 146.735 11.5 153.135 11.5 167.68C11.5 182.48 -3.5 188.513 -11 189.68C2 188.013 27.1 191.08 23.5 216.68C19 248.68 2 236.18 -4.5 242.18C-9.7 246.98 -22 248.18 -27.5 248.18C-17.5 254.513 1.8 268.48 -1 273.68C-3.8 278.88 -26.1667 268.513 -37 262.68C-23 276.68 3.8 305.08 -1 306.68C-5.8 308.28 -27 296.347 -37 290.18C-34.5 297.18 -32.8 315.48 -46 332.68Z" fill="#0F6102"/>
<path d="M452.5 -8.81995C424 34.6801 372.367 40.0931 351.542 28.614C339.093 21.7526 330.956 11.3655 323.255 -0.256942" stroke="black" stroke-width="3" stroke-linecap="round"/>
<path d="M321.562 -0.668558C324.885 8.30812 325.018 17.1016 315.296 21.4562C312.561 22.6814 309.775 23.6865 306.926 24.5897" stroke="black" stroke-width="3" stroke-linecap="round"/>
<path d="M307.104 24.6329C312.154 28.4669 321.181 38.4658 313.85 44.4397C307.317 49.7636 296.87 47.9382 289.324 46.0354C281.326 44.0186 274.897 39.8759 268.327 35.2101" stroke="black" stroke-width="3" stroke-linecap="round"/>
<path d="M266.249 35.2865L259.947 35.8131" stroke="black" stroke-width="3" stroke-linecap="round"/>
<path d="M257.922 35.321C258.074 42.2435 256.882 47.6849 250.215 50.7142C247.013 52.169 243.778 52.4058 240.412 52.6771" stroke="black" stroke-width="3" stroke-linecap="round"/>
<path d="M236.738 55.9007C238.189 67.8445 238.894 78.2055 230.845 88.0781C226.457 93.4602 220.057 96.815 213.541 98.9015C197.325 104.095 181.052 99.3658 165.383 94.6304" stroke="black" stroke-width="3" stroke-linecap="round"/>
<path d="M162.611 93.3311C156.051 96.1363 146.459 96.3453 143.076 88.2171C142.198 86.1075 141.795 83.9803 140.678 81.9531" stroke="black" stroke-width="3" stroke-linecap="round"/>
<path d="M139.968 84.8681C138.69 91.0887 138.431 101.385 134.191 106.591C132.757 108.351 129.788 109.248 127.613 108.618C120.678 106.609 121.978 95.3837 123.238 90.1958" stroke="black" stroke-width="3" stroke-linecap="round"/>
<path d="M120.852 91.5428C114.037 95.2438 110.229 95.0428 103.365 91.5124" stroke="black" stroke-width="3" stroke-linecap="round"/>
<path d="M100.348 93.1381C100.726 95.5468 103.418 104.421 99.7541 105.961C96.9586 107.135 93.5456 105.319 91.393 103.707C85.4299 99.2403 78.307 91.8872 77.3889 84.0674" stroke="black" stroke-width="3" stroke-linecap="round"/>
<path d="M75.945 85.7746C72.1331 90.2624 68.5538 95.0838 62.1862 95.8093" stroke="black" stroke-width="3" stroke-linecap="round"/>
<path d="M59.5408 96.1956C65.1872 101.525 69.2369 106.846 68.5637 115.183C68.0462 121.593 64.3291 126.891 58.1938 128.844C51.1619 131.083 38.1716 129.667 32.5062 124.778" stroke="black" stroke-width="3" stroke-linecap="round"/>
<path d="M30.3635 125.124C27.1403 135.709 21.3831 143.624 9.77654 145.725C5.99261 146.409 2.06889 146.718 -1.74938 147.164" stroke="black" stroke-width="3" stroke-linecap="round"/>
<path d="M0.693604 149.816C4.3343 153.775 10.0294 158.808 10.7819 164.698C11.0865 167.083 10.1754 169.971 9.63288 172.279C7.44965 181.567 1.54279 185.038 -6.7034 188.153" stroke="black" stroke-width="3" stroke-linecap="round"/>
<path d="M-7.85789 189.237C4.60783 191.597 18.0728 193.896 22.1323 208.042C24.2499 215.421 22.5145 225.931 17.8984 232.031C12.2756 239.462 4.54921 239.889 -3.91904 240.285" stroke="black" stroke-width="3" stroke-linecap="round"/>
<path d="M-28.2451 246.723C-22.5667 251.937 -16.8497 257.109 -11.1838 262.337C-8.77808 264.557 -5.34044 267.087 -3.99821 270.28C-2.1245 274.738 -5.5603 275.437 -9.32728 274.817C-20.5921 272.964 -29.421 268.155 -39.1033 262.758" stroke="black" stroke-width="3" stroke-linecap="round"/>
<path d="M-39.5408 264.56C-29.3027 275.248 -15.9595 283.26 -7.21879 295.337C-5.95106 297.089 -1.39765 302.399 -1.99486 304.856C-3.25039 310.023 -32.8588 293.956 -36.7314 291.155" stroke="black" stroke-width="3" stroke-linecap="round"/>
<path d="M-20.5 121C-48.5 131.4 -75.1667 116.667 -85 108V-31H294.5C290.5 -22 279.3 -1.3 266.5 9.5C250.5 23 221.5 27.5 204.5 27C187.5 26.5 167 12 159.5 4.00001C152 -3.99999 152.5 -4.99999 154 4.00001C155.5 13 143 18.5 134.5 18C126 17.5 117.5 12 100.5 12C86.9 12 69.5 6.66668 62.5 4.00001C59.1667 10 50.2 24.1 41 32.5C34.1342 38.7688 14.7744 40.9719 -0.7034 41.4785C6.88445 43.8246 15.6228 50.3286 22.5 65C37.5 97 14.5 108 -20.5 121Z" fill="#117900"/>
<path d="M267.122 9.15686C252.687 17.0326 238.096 25.1842 221.294 26.7282C208.399 27.9131 195.558 24.2534 183.977 18.8671C172.097 13.3417 159.311 5.94742 152.313 -5.40516" stroke="black" stroke-width="3" stroke-linecap="round"/>
<path d="M150.51 -4.77446C153.007 2.01961 154.516 7.98505 148.25 13.2923C144.571 16.4087 139.668 17.0539 135.049 17.0933C126.925 17.1624 121.884 15.1609 115.53 10.4433" stroke="black" stroke-width="3" stroke-linecap="round"/>
<path d="M113.126 11.8679C102.093 12.0897 91.5659 12.1182 80.5198 10.0473C74.9119 8.99589 71.3261 7.34935 66.2918 5.5567" stroke="black" stroke-width="3" stroke-linecap="round"/>
<path d="M60.9439 6.39048C51.976 18.3432 43.4298 34.1162 27.7651 38.0759C15.9964 41.0507 2.92407 40.0319 -9.16646 40.8076" stroke="black" stroke-width="3" stroke-linecap="round"/>
<path d="M-11.9966 39.931C3.93762 44.742 16.7332 53.6622 23.9476 69.2983C29.0585 80.3753 28.1132 95.7783 18.6809 104.373C2.44713 119.164 -25.0269 122.012 -45.7914 121.666C-51.0107 121.579 -66.3363 122.09 -69.368 115.854" stroke="black" stroke-width="3" stroke-linecap="round"/>
<g filter="url(#filter5_f_1204_3)">
<path d="M356.237 -35.1322C370.863 -20.7039 386.432 -5.8427 400.21 9.49739C405.632 15.5339 418.963 28.7782 420.118 38.5941C421.363 49.1789 387.584 39.7113 384.568 38.5941C335.024 20.2447 284.762 -13.025 249.913 -52.8528" stroke="black" stroke-width="2" stroke-linecap="round" stroke-linejoin="round"/>
<path d="M312.92 -31.1946C295.786 12.3254 261.018 45.086 227.38 76.4415C213.099 89.7529 198.027 102.177 184.063 115.821C181.111 118.705 181 119.062 181 114.836C181 86.305 184.327 58.2235 186.907 29.843" stroke="black" stroke-width="2" stroke-linecap="round" stroke-linejoin="round"/>
<path d="M184.936 62.5004C187.877 22.5 198.662 -14.9514 203.686 -28.6771C233.834 -39.584 294.276 -60.6627 294.864 -57.7215C295.452 -54.7803 331.874 -42.2801 350.012 -36.3977C371.335 -19.1181 415.012 18.7499 419.13 31.9854C424.277 48.5296 402.953 40.809 384.571 36.3972C369.865 32.8677 322.56 5.75959 300.746 -7.3533C299.153 -3.92189 290.893 8.74982 270.599 31.9854C245.231 61.0298 191.554 109.56 184.936 114.339C178.318 119.119 181.26 112.501 184.936 62.5004Z" fill="black"/>
</g>
</g>
<defs>
<filter id="filter0_f_1204_3" x="-171.565" y="-153.432" width="920.596" height="762.891" filterUnits="userSpaceOnUse" color-interpolation-filters="sRGB">
<feFlood flood-opacity="0" result="BackgroundImageFix"/>
<feBlend mode="normal" in="SourceGraphic" in2="BackgroundImageFix" result="shape"/>
<feGaussianBlur stdDeviation="16.5" result="effect1_foregroundBlur_1204_3"/>
</filter>
<filter id="filter1_f_1204_3" x="546.344" y="-69.1272" width="1443.38" height="678.216" filterUnits="userSpaceOnUse" color-interpolation-filters="sRGB">
<feFlood flood-opacity="0" result="BackgroundImageFix"/>
<feBlend mode="normal" in="SourceGraphic" in2="BackgroundImageFix" result="shape"/>
<feGaussianBlur stdDeviation="16.5" result="effect1_foregroundBlur_1204_3"/>
</filter>
<filter id="filter2_f_1204_3" x="609.845" y="-419.968" width="1117.57" height="759.138" filterUnits="userSpaceOnUse" color-interpolation-filters="sRGB">
<feFlood flood-opacity="0" result="BackgroundImageFix"/>
<feBlend mode="normal" in="SourceGraphic" in2="BackgroundImageFix" result="shape"/>
<feGaussianBlur stdDeviation="16.5" result="effect1_foregroundBlur_1204_3"/>
</filter>
<filter id="filter3_f_1204_3" x="-163" y="354" width="1810.46" height="557.438" filterUnits="userSpaceOnUse" color-interpolation-filters="sRGB">
<feFlood flood-opacity="0" result="BackgroundImageFix"/>
<feBlend mode="normal" in="SourceGraphic" in2="BackgroundImageFix" result="shape"/>
<feGaussianBlur stdDeviation="1" result="effect1_foregroundBlur_1204_3"/>
</filter>
<filter id="filter4_f_1204_3" x="-163" y="354" width="1810.46" height="557.438" filterUnits="userSpaceOnUse" color-interpolation-filters="sRGB">
<feFlood flood-opacity="0" result="BackgroundImageFix"/>
<feBlend mode="normal" in="SourceGraphic" in2="BackgroundImageFix" result="shape"/>
<feGaussianBlur stdDeviation="1" result="effect1_foregroundBlur_1204_3"/>
</filter>
<filter id="filter5_f_1204_3" x="167" y="-71" width="267.152" height="203" filterUnits="userSpaceOnUse" color-interpolation-filters="sRGB">
<feFlood flood-opacity="0" result="BackgroundImageFix"/>
<feBlend mode="normal" in="SourceGraphic" in2="BackgroundImageFix" result="shape"/>
<feGaussianBlur stdDeviation="6.5" result="effect1_foregroundBlur_1204_3"/>
</filter>
<linearGradient id="paint0_linear_1204_3" x1="725" y1="1207.8" x2="725" y2="2026" gradientUnits="userSpaceOnUse">
<stop stop-color="#0D3930"/>
<stop offset="1" stop-color="#031B16"/>
</linearGradient>
<linearGradient id="paint1_linear_1204_3" x1="742" y1="-34" x2="742" y2="1070.05" gradientUnits="userSpaceOnUse">
<stop stop-color="#37BAE6"/>
<stop offset="0.450585" stop-color="#9CEEFA"/>
<stop offset="0.946209" stop-color="#F8E7CD"/>
</linearGradient>
<linearGradient id="paint2_linear_1204_3" x1="-157.999" y1="150.61" x2="961.402" y2="631.811" gradientUnits="userSpaceOnUse">
<stop stop-color="#7FD9F7"/>
<stop offset="1" stop-color="white"/>
</linearGradient>
<linearGradient id="paint3_linear_1204_3" x1="1819.42" y1="164.573" x2="540.335" y2="773.546" gradientUnits="userSpaceOnUse">
<stop stop-color="#7CD9F7"/>
<stop offset="1" stop-color="white"/>
</linearGradient>
<linearGradient id="paint4_linear_1204_3" x1="1631.74" y1="-5.59254" x2="419.199" y2="415.292" gradientUnits="userSpaceOnUse">
<stop stop-color="#7CD9F7"/>
<stop offset="1" stop-color="white"/>
</linearGradient>
<linearGradient id="paint5_linear_1204_3" x1="746.52" y1="416.179" x2="746.52" y2="707.754" gradientUnits="userSpaceOnUse">
<stop stop-color="#559F80"/>
<stop offset="1" stop-color="#2E675C"/>
</linearGradient>
<radialGradient id="paint6_radial_1204_3" cx="0" cy="0" r="1" gradientUnits="userSpaceOnUse" gradientTransform="translate(749.278 723.691) rotate(90.799) scale(445.234 2423.48)">
<stop stop-color="#9ACE0A"/>
<stop offset="0.74783" stop-color="#438A04"/>
</radialGradient>
<linearGradient id="paint7_linear_1204_3" x1="725" y1="609" x2="725" y2="919.5" gradientUnits="userSpaceOnUse">
<stop stop-color="#4F8044"/>
<stop offset="1" stop-color="#0D3930"/>
</linearGradient>
<linearGradient id="paint8_linear_1204_3" x1="-126.607" y1="505.498" x2="114.26" y2="775.479" gradientUnits="userSpaceOnUse">
<stop stop-color="#52B338"/>
<stop offset="1" stop-color="#256716"/>
</linearGradient>
<linearGradient id="paint9_linear_1204_3" x1="1423.47" y1="437.042" x2="1138.3" y2="637.062" gradientUnits="userSpaceOnUse">
<stop stop-color="#2D6D1C"/>
<stop offset="1" stop-color="#409729"/>
</linearGradient>
<linearGradient id="paint10_linear_1204_3" x1="1406.35" y1="438.396" x2="1520.25" y2="910.603" gradientUnits="userSpaceOnUse">
<stop stop-color="#1F4F2C"/>
<stop offset="1" stop-color="#0B2919"/>
</linearGradient>
<linearGradient id="paint11_linear_1204_3" x1="1197.83" y1="622.588" x2="1445.69" y2="811.694" gradientUnits="userSpaceOnUse">
<stop stop-color="#5D7D55"/>
<stop offset="1" stop-color="#0B1F26"/>
</linearGradient>
<linearGradient id="paint12_linear_1204_3" x1="1193.2" y1="737.151" x2="1484.96" y2="928.198" gradientUnits="userSpaceOnUse">
<stop stop-color="#135344"/>
<stop offset="1" stop-color="#0E3A30"/>
</linearGradient>
<linearGradient id="paint13_linear_1204_3" x1="149" y1="524" x2="-134" y2="841.5" gradientUnits="userSpaceOnUse">
<stop stop-color="#385B34"/>
<stop offset="1" stop-color="#0D2122"/>
</linearGradient>
<linearGradient id="paint14_linear_1204_3" x1="1299.95" y1="-120.353" x2="1012.13" y2="144.862" gradientUnits="userSpaceOnUse">
<stop stop-color="#011E22"/>
<stop offset="1" stop-color="#008658"/>
</linearGradient>
<clipPath id="clip0_1204_3">
<rect width="1440" height="2026" fill="white"/>
</clipPath>
</defs>
</svg>
