<svg width="33" height="26" viewBox="0 0 33 26" fill="none" xmlns="http://www.w3.org/2000/svg">
<path d="M30.7353 13.7116C28.043 13.7116 16.5654 16.64 13.8259 14.5618C11.0864 12.4363 15.1485 1.80889 14.3928 1.05316C13.6371 0.297433 11.1337 7.80747 9.29161 10.2163C7.44953 12.6252 3.52917 14.2311 3.24577 15.6481C2.96237 17.0651 6.17426 17.4902 7.54401 18.671C8.91377 19.8519 10.378 21.7884 11.4171 22.6386C12.4562 23.4416 13.5425 25.8504 13.7315 23.5833C13.8732 21.3161 12.3144 11.2555 12.4089 9.13C12.5034 7.00451 14.1093 11.161 14.2982 10.8304C14.4872 10.4997 15.1012 6.57941 13.4953 7.19344C11.9366 7.8547 6.22147 13.2865 4.80448 14.7035C3.43473 16.1205 4.6155 15.4592 5.22953 15.7426C5.84356 16.026 7.35499 16.026 8.39411 16.4511C9.43324 16.8762 11.0865 17.2068 11.6533 18.3876C12.2201 19.5685 11.7004 23.7722 11.7004 23.4416C11.7004 23.1109 12.3144 17.5375 11.7004 16.4511C11.0864 15.3647 8.48865 17.2068 7.87462 16.9707C7.26059 16.7345 7.92183 15.6954 7.96906 15.1286C7.96906 14.5145 7.11882 14.0894 7.92178 13.4282C8.72474 12.7669 12.0784 11.0665 12.8341 11.2082C13.5898 11.3499 12.8813 12.2946 12.5506 14.1839C12.22 16.0732 11.4171 22.9692 10.9448 22.6386C10.5197 22.308 9.43329 14.7035 9.85838 12.2474C10.2835 9.79124 12.7396 9.08276 13.4009 7.94917C14.0621 6.81558 13.637 6.10708 13.9676 5.54029C14.2983 4.97349 15.3847 4.59563 15.4319 4.59563C15.5264 4.59563 14.44 5.44582 14.3928 5.49305M32.0579 14.1839C29.5545 14.1367 17.6518 15.5537 14.7706 13.6643C11.8894 11.775 15.668 3.50926 14.8178 2.80077C13.9204 2.09228 11.7004 7.38238 9.48049 9.36616C7.26055 11.3499 2.06495 13.6171 1.59262 14.8924C1.12029 16.1205 5.22955 15.3647 6.78824 16.7817C8.34693 18.1987 10.1418 22.308 10.9448 23.4416C11.7477 24.5752 11.3226 25.756 11.7004 23.4888C12.1255 21.2216 12.9757 11.8695 13.3536 9.88571C13.7314 7.90193 14.0149 11.7278 13.9205 11.6333C13.826 11.5389 14.1093 8.70489 12.7868 9.27169C11.4643 9.83848 7.21338 13.9005 5.89086 15.0813C4.56834 16.2622 4.61548 16.2149 5.08781 16.4983C5.56014 16.7817 7.5912 16.3566 8.67756 16.7345C9.76392 17.1124 10.803 17.7736 11.606 18.7655C12.4089 19.7574 13.9676 22.7803 13.637 22.6858C13.3536 22.6386 10.5669 19.3323 9.76394 18.3876C8.96098 17.443 8.96098 17.5374 8.81928 16.9707C8.67758 16.4039 9.3388 15.3647 9.00817 14.9869C8.72477 14.609 6.2214 15.1758 6.97713 14.7035C7.73285 14.2311 12.5506 12.6252 13.4953 12.2474C14.44 11.8695 13.0702 10.6887 12.6451 12.4835C12.22 14.2784 11.1809 23.0637 10.9448 23.1582C10.7558 23.2054 10.7558 15.5537 11.4171 12.9086C12.0311 10.2636 14.4872 8.4215 14.7234 7.24068C14.9596 6.05985 12.834 6.24878 12.7868 5.91815C12.6923 5.58752 13.7787 5.54028 14.2982 5.20965C14.8178 4.87902 15.9042 3.69821 16.0459 3.88714" stroke="black" stroke-width="2"/>
</svg>
