<svg width="30" height="35" viewBox="0 0 30 35" fill="none" xmlns="http://www.w3.org/2000/svg">
<path d="M1 13.6514C1 8.05036 1.50541 7.1768 1.65703 7.07403M1.75812 8.2559C7.62094 5.01862 13.0794 5.84078 28.0397 7.17681L1.75812 8.2559ZM1.80865 8.05036C10.3502 6.71434 18.7906 7.43373 28.1913 7.74204L1.80865 8.05036ZM28.1408 7.5365C28.7473 7.5365 28.8484 9.95162 28.8989 12.9834L28.1408 7.5365ZM28.2924 6.25187C28.4946 7.99897 29 11.1849 28.8989 14.0111L28.2924 6.25187ZM29 14.4222C29 16.1179 28.7978 19.0982 28.7473 27.1657L29 14.4222ZM28.8484 14.5763C28.8989 18.3274 28.8989 22.4897 28.8989 26.7033L28.8484 14.5763ZM28.8484 26.7033C28.9494 30.7113 28.6462 33.0751 28.2419 31.7904L28.8484 26.7033ZM28.8484 25.6242C29.0505 32.8181 28.444 33.0237 28.2924 32.8695L28.8484 25.6242ZM28.1408 33.6403C19.1949 34.1028 10.5018 33.4861 1.80865 34L28.1408 33.6403ZM28.0902 32.6126C19.1444 33.2806 10.2491 32.6126 1.90974 32.8181L28.0902 32.6126ZM1.90974 33.1264C1.30324 33.6403 1.15163 30.2489 1.10109 27.8851L1.90974 33.1264ZM1.85921 32.7668C1.50542 34.8222 1.00001 29.2212 1.10109 25.7783L1.85921 32.7668ZM1.05053 26.0866C1.15161 23.8257 1.15162 17.608 1.15162 15.0388L1.05053 26.0866ZM1.15162 27.3713C1.15162 22.9521 1.1011 19.4065 1.20218 14.3194L1.15162 27.3713ZM1.15162 13.9597C1.35378 10.8766 1.30325 8.92391 2.01083 6.1491L1.15162 13.9597Z" stroke="black" stroke-width="2"/>
<path d="M7 21C9.16667 22.1667 13.7 25 14.5 27C15.3 29 23.8333 11.1667 28 2" stroke="black" stroke-width="2"/>
<path d="M5.24995 19.5713C7.24539 21.0114 11.3691 24.4134 11.9006 26.5008C12.4322 28.5883 23.2249 12.0244 28.5549 3.48158" stroke="black" stroke-width="2"/>
</svg>
