<svg width="39" height="27" viewBox="0 0 39 27" fill="none" xmlns="http://www.w3.org/2000/svg">
<path d="M6.45215 9.69873C6.45215 12.5983 6.45215 15.4978 6.45215 18.3976" stroke="black" stroke-width="2" stroke-linecap="round" stroke-linejoin="round"/>
<path d="M12.2514 8.24902C11.1425 8.24902 7.2191 8.24902 6.45215 8.24902" stroke="black" stroke-width="2" stroke-linecap="round" stroke-linejoin="round"/>
<path d="M10.8017 19.8475C8.98221 19.8475 6.70045 19.8475 5.00244 19.8475" stroke="black" stroke-width="2" stroke-linecap="round" stroke-linejoin="round"/>
<path d="M20.4863 1.72107C20.2197 9.23996 19.9946 16.6869 20.1382 24.2224" stroke="black" stroke-width="2" stroke-linecap="round" stroke-linejoin="round"/>
<path d="M19.5006 25.6466C16.9122 22.8979 13.8865 20.5172 10.8018 18.3976" stroke="black" stroke-width="2" stroke-linecap="round" stroke-linejoin="round"/>
<path d="M20.9503 0.999977C18.3619 3.74874 15.3362 6.1294 12.2515 8.24902" stroke="black" stroke-width="2" stroke-linecap="round" stroke-linejoin="round"/>
<path d="M25.2998 9.92798C27.7007 11.3966 28.0009 12.9683 28.0557 15.4747C28.0808 16.6217 27.8724 18.3748 26.8883 19.2382" stroke="black" stroke-width="2" stroke-linecap="round" stroke-linejoin="round"/>
<path d="M28.4458 3.89954C31.0577 6.86503 34.7178 10.2801 35.1385 14.4746C35.5008 18.0872 33.7537 21.4644 30.8037 23.4144" stroke="black" stroke-width="2" stroke-linecap="round" stroke-linejoin="round"/>
<path d="M35.014 1.99991C35.0998 3.90632 3.83972 21.9576 4.01413 25" stroke="black" stroke-width="2.5" stroke-linecap="round" stroke-linejoin="round"/>
<path d="M19.3047 18.9734C18.1538 19.9262 16.9628 20.8092 15.771 21.7092" stroke="black" stroke-linecap="round" stroke-linejoin="round"/>
<path d="M19.5004 14.0481C17.6115 15.563 15.6571 16.9668 13.7012 18.3975" stroke="black" stroke-linecap="round" stroke-linejoin="round"/>
<path d="M18.7754 4.62439C16.8866 6.13926 9.85774 12.6174 7.90186 14.0482" stroke="black" stroke-linecap="round" stroke-linejoin="round"/>
<path d="M18.8488 9.74023C15.2545 12.5748 11.7764 15.4627 8.47559 18.6315" stroke="black" stroke-linecap="round" stroke-linejoin="round"/>
</svg>
