<svg width="40" height="35" viewBox="0 0 40 35" fill="none" xmlns="http://www.w3.org/2000/svg">
<path d="M12.0008 30.1769C12.5441 30.188 13.2284 30.1491 13.5916 30.7386C13.9818 31.3719 14.0414 32.386 13.7369 33.083C13.4257 33.7951 12.5803 34.0151 11.9735 33.9992C11.3585 33.9831 10.6148 33.7792 10.2443 33.1245C9.64042 32.0573 10.23 30.4473 11.2046 30.1147C12.121 29.8019 13.357 30.1397 14 30.9977" stroke="black" stroke-width="2" stroke-linecap="round" stroke-linejoin="round"/>
<path d="M30.0008 30.1769C30.5441 30.188 31.2284 30.1491 31.5916 30.7386C31.9818 31.3719 32.0414 32.386 31.7369 33.083C31.4257 33.7951 30.5803 34.0151 29.9735 33.9992C29.3585 33.9831 28.6148 33.7792 28.2443 33.1245C27.6404 32.0573 28.23 30.4473 29.2046 30.1147C30.121 29.8019 31.357 30.1397 32 30.9977" stroke="black" stroke-width="2" stroke-linecap="round" stroke-linejoin="round"/>
<path d="M1 1.99998C5.5 1.49998 6.43582 3.57428 8.5 5.5" stroke="black" stroke-width="2" stroke-linecap="round" stroke-linejoin="round"/>
<path d="M8.27966 5.85382C8.51252 9.40497 8.49376 12.9548 8.49376 16.5115C8.49376 17.0376 8.49101 17.41 8.70787 17.8437" stroke="black" stroke-width="2" stroke-linecap="round" stroke-linejoin="round"/>
<path d="M8.49408 5.63973C15.9394 5.71237 23.3907 6.29104 30.8323 5.83005C32.7647 5.71035 36.2004 4.68957 38.0405 5.42563" stroke="black" stroke-width="2" stroke-linecap="round" stroke-linejoin="round"/>
<path d="M36.9697 7.35266C35.3499 12.0889 33.1953 16.5351 31.6171 21.2695" stroke="black" stroke-width="2" stroke-linecap="round" stroke-linejoin="round"/>
<path d="M31.6171 21.9118C24.8432 21.5833 17.9964 22.1199 11.2533 21.3527C9.32019 21.1328 7.38919 20.8729 5.44873 20.7223C4.44699 20.6445 4.21168 20.4518 4.21167 21.0554" stroke="black" stroke-width="2" stroke-linecap="round" stroke-linejoin="round"/>
<path d="M8.71558 21.7872C8.83674 22.8398 8.85202 23.9075 8.9763 24.955C9.16398 26.5368 11.2866 26.226 12.444 26.2391C19.3718 26.3178 26.3088 26.363 33.2368 26.363" stroke="black" stroke-width="2" stroke-linecap="round" stroke-linejoin="round"/>
<path d="M32.0405 6.48792C29.9844 10.0601 27.9192 13.6086 25.7294 17.0995C25.4882 17.4841 24.5178 19.4879 24.0405 19.4879" stroke="black" stroke-linecap="round" stroke-linejoin="round"/>
<path d="M27.0405 7.48792C24.9867 10.8751 23.1756 14.372 21.3336 17.892C21.1664 18.2116 19.3339 21.9158 19.0405 21.4469" stroke="black" stroke-linecap="round" stroke-linejoin="round"/>
<path d="M23.0405 7.48792C21.8142 10.2652 19.812 12.5666 18.2863 15.1718C17.0856 17.2222 16.0983 19.3816 15.0405 21.4879" stroke="black" stroke-linecap="round" stroke-linejoin="round"/>
<path d="M17.0405 7.48792C13.8926 11.2 11.7326 15.4825 9.04053 19.4879" stroke="black" stroke-linecap="round" stroke-linejoin="round"/>
<path d="M13.0405 7.48792C11.4121 9.0528 10.0173 10.561 9.04053 12.4879" stroke="black" stroke-linecap="round" stroke-linejoin="round"/>
</svg>
