<svg width="30" height="30" viewBox="0 0 30 30" fill="none" xmlns="http://www.w3.org/2000/svg">
<path d="M1 8.65137C1 3.05036 1.50541 2.1768 1.65703 2.07403M1.75812 3.2559C7.62094 0.0186165 13.0794 0.840784 28.0397 2.17681L1.75812 3.2559ZM1.80865 3.05036C10.3502 1.71434 18.7906 2.43373 28.1913 2.74204L1.80865 3.05036ZM28.1408 2.5365C28.7473 2.5365 28.8484 4.95162 28.8989 7.98336L28.1408 2.5365ZM28.2924 1.25187C28.4946 2.99897 29 6.18487 28.8989 9.01107L28.2924 1.25187ZM29 9.42215C29 11.1179 28.7978 14.0982 28.7473 22.1657L29 9.42215ZM28.8484 9.57631C28.8989 13.3274 28.8989 17.4897 28.8989 21.7033L28.8484 9.57631ZM28.8484 21.7033C28.9494 25.7113 28.6462 28.0751 28.2419 26.7904L28.8484 21.7033ZM28.8484 20.6242C29.0505 27.8181 28.444 28.0237 28.2924 27.8695L28.8484 20.6242ZM28.1408 28.6403C19.1949 29.1028 10.5018 28.4861 1.80865 29L28.1408 28.6403ZM28.0902 27.6126C19.1444 28.2806 10.2491 27.6126 1.90974 27.8181L28.0902 27.6126ZM1.90974 28.1264C1.30324 28.6403 1.15163 25.2489 1.10109 22.8851L1.90974 28.1264ZM1.85921 27.7668C1.50542 29.8222 1.00001 24.2212 1.10109 20.7783L1.85921 27.7668ZM1.05053 21.0866C1.15161 18.8257 1.15162 12.608 1.15162 10.0388L1.05053 21.0866ZM1.15162 22.3713C1.15162 17.9521 1.1011 14.4065 1.20218 9.31938L1.15162 22.3713ZM1.15162 8.95968C1.35378 5.87656 1.30325 3.92391 2.01083 1.1491L1.15162 8.95968Z" stroke="black" stroke-width="2"/>
</svg>
