<svg width="30" height="33" viewBox="0 0 30 33" fill="none" xmlns="http://www.w3.org/2000/svg">
<path d="M12.1502 1.16179C10.7625 1.0678 9.37458 0.984515 7.98572 1.00245C7.39559 1.01007 6.80484 1.01161 6.21572 1.07917C-3.4407 2.18658 9.03682 0.690075 4.74733 1.69289" stroke="black" stroke-width="2" stroke-linecap="round" stroke-linejoin="round"/>
<path d="M12.1504 1.69287C12.1504 5.17526 12.1504 8.64581 12.1504 12.1482C12.1504 14.2221 12.1504 16.2969 12.1504 18.3711C12.1504 31.8261 12.1504 18.2329 12.1504 31.4873" stroke="black" stroke-width="2" stroke-linecap="round" stroke-linejoin="round"/>
<path d="M2.44971 1C2.89653 7.20471 2.54395 13.449 2.64988 19.6605C2.71588 23.5309 2.49597 27.7262 3.8355 31.4874" stroke="black" stroke-width="2" stroke-linecap="round" stroke-linejoin="round"/>
<path d="M2.44971 31.4874C5.44641 31.4874 8.46173 31.4874 11.4573 31.4874" stroke="black" stroke-width="2" stroke-linecap="round" stroke-linejoin="round"/>
<path d="M4.88008 1.73669C4.10204 2.68493 3.20735 3.45616 2.31934 4.29744" stroke="black" stroke-linecap="round" stroke-linejoin="round"/>
<path d="M7.3631 2.35754C5.60421 3.98711 3.84532 5.61667 2.08643 7.24623" stroke="black" stroke-linecap="round" stroke-linejoin="round"/>
<path d="M10.467 2.90076C9.64454 4.23061 8.51156 5.25371 7.37165 6.31939C5.61164 7.96479 3.75484 9.47817 1.93115 11.0486" stroke="black" stroke-linecap="round" stroke-linejoin="round"/>
<path d="M11.8638 6.31506C9.1927 8.9997 6.03718 11.1825 3.01758 13.4541" stroke="black" stroke-linecap="round" stroke-linejoin="round"/>
<path d="M11.9413 10.8933C8.43532 13.6528 4.70497 16.0967 1 18.5755" stroke="black" stroke-linecap="round" stroke-linejoin="round"/>
<path d="M12.6396 14.3076C9.60943 16.9607 6.19272 19.0227 2.78467 21.1363" stroke="black" stroke-linecap="round" stroke-linejoin="round"/>
<path d="M11.9413 18.6532C9.43363 20.6666 6.64093 22.2597 3.94873 24.0075" stroke="black" stroke-linecap="round" stroke-linejoin="round"/>
<path d="M10.4672 23.5419C7.9614 25.56 5.14092 27.1517 2.39697 28.8186" stroke="black" stroke-linecap="round" stroke-linejoin="round"/>
<path d="M10.8549 26.4905C8.01777 28.5527 4.96972 30.2599 1.93115 32" stroke="black" stroke-linecap="round" stroke-linejoin="round"/>
<path d="M11.7086 28.5082C10.1714 29.6481 8.62359 30.7574 7.05273 31.8449" stroke="black" stroke-linecap="round" stroke-linejoin="round"/>
<path d="M28.182 1.16179C26.7943 1.0678 25.4063 0.984515 24.0175 1.00245C23.4273 1.01007 22.8366 1.01161 22.2475 1.07917C12.591 2.18658 25.0686 0.690075 20.7791 1.69289" stroke="black" stroke-width="2" stroke-linecap="round" stroke-linejoin="round"/>
<path d="M28.1821 1.69287C28.1821 5.17526 28.1821 8.64581 28.1821 12.1482C28.1821 14.2221 28.1821 16.2969 28.1821 18.3711C28.1821 31.8261 28.1821 18.2329 28.1821 31.4873" stroke="black" stroke-width="2" stroke-linecap="round" stroke-linejoin="round"/>
<path d="M18.4814 1C18.9283 7.20471 18.5757 13.449 18.6816 19.6605C18.7476 23.5309 18.5277 27.7262 19.8672 31.4874" stroke="black" stroke-width="2" stroke-linecap="round" stroke-linejoin="round"/>
<path d="M18.4814 31.4874C21.4782 31.4874 24.4935 31.4874 27.4891 31.4874" stroke="black" stroke-width="2" stroke-linecap="round" stroke-linejoin="round"/>
<path d="M20.9118 1.73669C20.1338 2.68493 19.2391 3.45616 18.3511 4.29744" stroke="black" stroke-linecap="round" stroke-linejoin="round"/>
<path d="M23.3948 2.35754C21.6359 3.98711 19.8771 5.61667 18.1182 7.24623" stroke="black" stroke-linecap="round" stroke-linejoin="round"/>
<path d="M26.4987 2.90076C25.6763 4.23061 24.5433 5.25371 23.4034 6.31939C21.6434 7.96479 19.7866 9.47817 17.9629 11.0486" stroke="black" stroke-linecap="round" stroke-linejoin="round"/>
<path d="M27.8955 6.31506C25.2244 8.9997 22.0689 11.1825 19.0493 13.4541" stroke="black" stroke-linecap="round" stroke-linejoin="round"/>
<path d="M27.9731 10.8933C24.4671 13.6528 20.7367 16.0967 17.0317 18.5755" stroke="black" stroke-linecap="round" stroke-linejoin="round"/>
<path d="M28.6714 14.3076C25.6412 16.9607 22.2245 19.0227 18.8164 21.1363" stroke="black" stroke-linecap="round" stroke-linejoin="round"/>
<path d="M27.9731 18.6532C25.4654 20.6666 22.6727 22.2597 19.9805 24.0075" stroke="black" stroke-linecap="round" stroke-linejoin="round"/>
<path d="M26.4989 23.5419C23.9931 25.56 21.1727 27.1517 18.4287 28.8186" stroke="black" stroke-linecap="round" stroke-linejoin="round"/>
<path d="M26.8867 26.4905C24.0495 28.5527 21.0015 30.2599 17.9629 32" stroke="black" stroke-linecap="round" stroke-linejoin="round"/>
<path d="M27.7404 28.5082C26.2032 29.6481 24.6553 30.7574 23.0845 31.8449" stroke="black" stroke-linecap="round" stroke-linejoin="round"/>
</svg>
