<svg width="36" height="31" viewBox="0 0 36 31" fill="none" xmlns="http://www.w3.org/2000/svg">
<path d="M18.0029 9.53058C19.9043 9.56409 22.2993 9.44722 23.5707 11.2158C24.9365 13.1158 25.1451 16.1581 24.079 18.249C22.9899 20.3852 20.0311 21.0454 17.9072 20.9976C15.7548 20.9492 13.1518 20.3376 11.855 18.3734C9.74148 15.172 11.8051 10.342 15.216 9.34402C18.4235 8.4056 22.7495 9.41906 25 11.9931" stroke="black" stroke-width="2" stroke-linecap="round" stroke-linejoin="round"/>
<path d="M20.1104 1C18.4436 1 16.7781 1 15.1104 1" stroke="black" stroke-width="2" stroke-linecap="round" stroke-linejoin="round"/>
<path d="M14.1104 1C14.1104 2.00497 14.1104 2.98492 14.1104 4" stroke="black" stroke-width="2" stroke-linecap="round" stroke-linejoin="round"/>
<path d="M21.1104 1C21.1104 2.09377 21.1104 2.98211 21.1104 4" stroke="black" stroke-width="2" stroke-linecap="round" stroke-linejoin="round"/>
<path d="M33.3319 8.98272C32.3507 7.47255 31.373 5.96157 30.3423 4.48474" stroke="black" stroke-width="2" stroke-linecap="round" stroke-linejoin="round"/>
<path d="M29.5093 3.71936C28.8436 4.34582 28.185 4.94292 27.4359 5.46572" stroke="black" stroke-width="2" stroke-linecap="round" stroke-linejoin="round"/>
<path d="M33.6527 9.65678C32.9612 10.2294 32.4116 10.7118 31.5699 10.9608" stroke="black" stroke-width="2" stroke-linecap="round" stroke-linejoin="round"/>
<path d="M5.49627 3.88392C4.45069 5.3502 3.40313 6.81364 2.40674 8.31384" stroke="black" stroke-width="2" stroke-linecap="round" stroke-linejoin="round"/>
<path d="M2 9.36975C2.82681 9.75952 3.62375 10.1536 4.38469 10.659" stroke="black" stroke-width="2" stroke-linecap="round" stroke-linejoin="round"/>
<path d="M6.00588 3.33845C6.7921 3.77204 7.44233 4.10661 7.98245 4.79854" stroke="black" stroke-width="2" stroke-linecap="round" stroke-linejoin="round"/>
<path d="M2.26948 19.4493C3.05838 21.0682 3.84384 22.6875 4.68604 24.2794" stroke="black" stroke-width="2" stroke-linecap="round" stroke-linejoin="round"/>
<path d="M5.41943 25.1409C6.15675 24.6006 6.88356 24.0886 7.691 23.6614" stroke="black" stroke-width="2" stroke-linecap="round" stroke-linejoin="round"/>
<path d="M2.03344 18.7408C2.78987 18.2571 3.39435 17.8456 4.26023 17.7015" stroke="black" stroke-width="2" stroke-linecap="round" stroke-linejoin="round"/>
<path d="M29.5165 25.3735C30.5921 23.9291 31.6696 22.4876 32.6968 21.0083" stroke="black" stroke-width="2" stroke-linecap="round" stroke-linejoin="round"/>
<path d="M33.1255 19.9609C32.3069 19.5542 31.5183 19.1438 30.7679 18.6228" stroke="black" stroke-width="2" stroke-linecap="round" stroke-linejoin="round"/>
<path d="M28.9954 25.9082C28.2183 25.4584 27.5751 25.1105 27.0494 24.4076" stroke="black" stroke-width="2" stroke-linecap="round" stroke-linejoin="round"/>
<path d="M20.1104 30C18.1103 30 16.1116 30 14.1104 30" stroke="black" stroke-width="2" stroke-linecap="round" stroke-linejoin="round"/>
<path d="M13.1104 30C13.1104 28.66 13.1104 27.3534 13.1104 26" stroke="black" stroke-width="2" stroke-linecap="round" stroke-linejoin="round"/>
<path d="M21.1104 30C21.1104 28.5416 21.1104 27.3572 21.1104 26" stroke="black" stroke-width="2" stroke-linecap="round" stroke-linejoin="round"/>
<path d="M14.1104 4C12.4638 4.38919 10.7795 4.67958 9.11035 5" stroke="black" stroke-width="2" stroke-linecap="round" stroke-linejoin="round"/>
<path d="M26.1104 5C24.4292 4.6911 22.8223 4.24378 21.1104 4" stroke="black" stroke-width="2" stroke-linecap="round" stroke-linejoin="round"/>
<path d="M4.63124 11C4.43241 12.0638 4.18928 13.1345 4.11752 14.2113C4.09307 14.5781 4.12776 14.8984 4.27456 15.244C4.52709 15.8385 4.86687 16.4021 5.11035 17" stroke="black" stroke-width="2" stroke-linecap="round" stroke-linejoin="round"/>
<path d="M8.11035 25C9.86622 25.6095 12.0436 26.2763 14.1104 25.8812" stroke="black" stroke-width="2" stroke-linecap="round" stroke-linejoin="round"/>
<path d="M26.1104 26C24.8709 26 23.5712 26 22.2939 26C21.2096 26 20.1678 26 19.1104 26" stroke="black" stroke-width="2" stroke-linecap="round" stroke-linejoin="round"/>
<path d="M31.1104 12C31.1104 13.0681 31.1104 14.1263 31.1104 15.1942C31.1104 16.1303 31.1104 17.0649 31.1104 18" stroke="black" stroke-width="2" stroke-linecap="round" stroke-linejoin="round"/>
<path d="M32 18C30.8649 18.8741 29.6502 19.6439 28.4495 20.4401C26.2479 21.8999 24.1376 23.4641 22 25" stroke="black" stroke-linecap="round" stroke-linejoin="round"/>
<path d="M30.5909 14.329C27.4321 17.2262 24.1149 19.9458 20.9594 22.8448C19.8176 23.8937 18.7439 25.0178 17.5629 26.0238C17.2542 26.2868 16.9183 26.5808 16.562 26.7335" stroke="black" stroke-linecap="round" stroke-linejoin="round"/>
<path d="M17.5216 22.3771C15.6692 23.5621 14.1871 25.2154 12.353 26.4381" stroke="black" stroke-linecap="round" stroke-linejoin="round"/>
<path d="M14.1991 21.5649C12.4246 22.939 10.5875 24.5895 8.51367 25.4783" stroke="black" stroke-linecap="round" stroke-linejoin="round"/>
<path d="M10.0642 19.6451C7.98554 21.0906 5.86012 22.4772 3.78809 23.9277" stroke="black" stroke-linecap="round" stroke-linejoin="round"/>
<path d="M9.54742 16.1011C7.61204 17.1481 5.79483 18.3111 4.00149 19.5796C3.75456 19.7542 2.20605 20.985 2.01611 20.6051" stroke="black" stroke-linecap="round" stroke-linejoin="round"/>
<path d="M11.0978 11.0801C8.41412 12.6493 5.60641 13.9734 2.82812 15.3626" stroke="black" stroke-linecap="round" stroke-linejoin="round"/>
<path d="M13.6823 5.02563C10.5355 6.81978 7.53495 8.86983 4.37891 10.6372" stroke="black" stroke-linecap="round" stroke-linejoin="round"/>
<path d="M6.52034 5.46863C4.95229 6.53372 3.21868 7.51506 1.86865 8.8651" stroke="black" stroke-linecap="round" stroke-linejoin="round"/>
<path d="M20.992 3.17969C19.0625 4.73632 17.0881 6.18609 15.0112 7.53603" stroke="black" stroke-linecap="round" stroke-linejoin="round"/>
<path d="M24.9056 5.98547C22.6755 6.96766 20.4337 7.92272 18.1865 8.86509" stroke="black" stroke-linecap="round" stroke-linejoin="round"/>
<path d="M31.7723 6.87146C28.8143 8.52857 25.7104 9.90973 22.6904 11.4493" stroke="black" stroke-linecap="round" stroke-linejoin="round"/>
<path d="M31.0336 11.3755C29.8425 12.0513 28.5731 12.4943 27.3418 13.0737" stroke="black" stroke-linecap="round" stroke-linejoin="round"/>
</svg>
