<svg width="45" height="32" viewBox="0 0 45 32" fill="none" xmlns="http://www.w3.org/2000/svg">
<path d="M2.44971 10.6989C2.44971 13.5985 2.44971 16.4979 2.44971 19.3977" stroke="black" stroke-width="2" stroke-linecap="round" stroke-linejoin="round"/>
<path d="M8.24894 9.24915C7.14006 9.24915 3.21666 9.24915 2.44971 9.24915" stroke="black" stroke-width="2" stroke-linecap="round" stroke-linejoin="round"/>
<path d="M6.79924 20.8477C4.97977 20.8477 2.69801 20.8477 1 20.8477" stroke="black" stroke-width="2" stroke-linecap="round" stroke-linejoin="round"/>
<path d="M16.4839 2.72119C16.2173 10.2401 15.9922 17.687 16.1358 25.2225" stroke="black" stroke-width="2" stroke-linecap="round" stroke-linejoin="round"/>
<path d="M15.4982 26.6468C12.9097 23.898 9.88402 21.5173 6.79932 19.3977" stroke="black" stroke-width="2" stroke-linecap="round" stroke-linejoin="round"/>
<path d="M16.9479 2.0001C14.3594 4.74886 11.3337 7.12952 8.24902 9.24915" stroke="black" stroke-width="2" stroke-linecap="round" stroke-linejoin="round"/>
<path d="M21.2969 10.928C23.6978 12.3966 23.998 13.9683 24.0528 16.4747C24.0778 17.6217 23.8694 19.3748 22.8854 20.2382" stroke="black" stroke-width="2" stroke-linecap="round" stroke-linejoin="round"/>
<path d="M24.4434 4.89966C27.0553 7.86516 30.7154 11.2802 31.136 15.4747C31.4984 19.0873 29.7512 22.4645 26.8013 24.4145" stroke="black" stroke-width="2" stroke-linecap="round" stroke-linejoin="round"/>
<path d="M33.5151 2C35.6401 5.5788 38.105 9.73898 37.9266 14.1247C37.8315 16.4625 37.3699 18.7816 36.7721 21.0456C36.3136 22.7822 35.5471 25.2162 34.8473 26.9132C31.705 34.5326 35.6263 24.9071 33.4597 29.2949" stroke="black" stroke-width="2" stroke-linecap="round" stroke-linejoin="round"/>
<path d="M15.3023 19.9735C14.1513 20.9264 12.9604 21.8094 11.7686 22.7093" stroke="black" stroke-linecap="round" stroke-linejoin="round"/>
<path d="M15.498 15.0482C13.6091 16.5631 11.6546 17.9669 9.69873 19.3976" stroke="black" stroke-linecap="round" stroke-linejoin="round"/>
<path d="M14.773 5.62451C12.8841 7.13938 5.85529 13.6175 3.89941 15.0483" stroke="black" stroke-linecap="round" stroke-linejoin="round"/>
<path d="M14.8463 10.7402C11.2521 13.5748 7.77397 16.4627 4.47314 19.6315" stroke="black" stroke-linecap="round" stroke-linejoin="round"/>
</svg>
