<svg width="330" height="437" viewBox="0 0 330 437" fill="none" xmlns="http://www.w3.org/2000/svg">
<path d="M244.655 4.4399C295.426 4.73475 328.386 31.6642 327.362 81.7885M240.561 2.67081C296.04 3.8502 326.646 28.9123 329 80.3143M325.11 356.194C325.213 406.024 298.599 430.201 245.064 432.56M323.165 358.651C328.284 409.464 296.04 433.838 247.009 436M83.9489 431.774C29.6978 434.526 6.56434 409.365 1.65103 353.541M80.7757 431.676C33.8946 435.312 3.39116 403.272 5.54073 352.754M3.59588 80.0194C0.934509 27.6347 31.2332 4.4399 80.3663 1M4.51713 81.8868C6.05254 31.566 30.9262 6.50383 83.6418 6.50383M82.1064 5.22615C122.846 4.53817 168.396 1.88455 241.584 2.96566L82.1064 5.22615ZM85.8938 4.34161C120.901 3.06393 156.523 2.67081 244.041 5.91414L85.8938 4.34161ZM324.803 78.3486C323.575 155.599 325.008 232.849 325.929 355.605L324.803 78.3486ZM326.339 80.1177C321.118 142.232 320.914 206.903 324.394 355.703L326.339 80.1177ZM247.009 434.231C208.522 433.15 178.018 432.757 84.0513 434.526L247.009 434.231ZM243.12 430.889C204.939 430.103 165.326 432.167 82.0041 430.791L243.12 430.889ZM5.64309 354.72C-1.1127 272.654 0.0132622 189.507 5.74545 78.0538L5.64309 354.72ZM2.36755 355.506C3.39116 291.819 2.06047 225.085 4.3124 80.0194L2.36755 355.506Z" stroke="black" stroke-width="2" stroke-miterlimit="8"/>
</svg>
