<svg width="67" height="68" viewBox="0 0 67 68" fill="none" xmlns="http://www.w3.org/2000/svg">
<path d="M50.8151 3.22736C59.6639 4.51688 66.437 9.20603 63.7059 16.5915M52.3445 2.17229C58.0252 2.64121 64.4706 9.20604 63.8151 18.2327M65.126 49.5329C65.4538 59.6146 62.5042 65.7105 52.0168 67M65.126 51.4085C66.7647 60.0835 61.084 64.0693 52.126 64.6554M17.1681 64.8899C5.47899 63.7176 3.84034 59.0284 3.62185 47.3055M18.1513 63.4831C8.7563 63.4831 0.563025 61.373 5.15126 47.6572M2.7479 18.5844C2.42017 8.50266 7.0084 1.93783 17.8235 1M1 17.0604C2.85714 8.61989 7.66387 4.51687 15.7479 2.99289M16.4034 1.8206C27.2185 5.4547 36.395 4.28242 50.1597 4.51687L16.4034 1.8206ZM16.9496 4.28241C25.5798 4.39964 36.8319 2.52398 51.0336 3.57904L16.9496 4.28241ZM63.4874 20.2256C63.3781 28.0799 65.2353 37.4583 63.9244 49.2984L63.4874 20.2256ZM64.4706 17.5293C66 28.6661 65.563 40.7407 66 48.3606L64.4706 17.5293ZM50.1597 64.5382C43.4958 66.2966 37.9244 63.952 18.8067 64.6554L50.1597 64.5382ZM49.9412 65.9449C42.2941 64.3037 35.521 66.0622 17.1681 65.3588L49.9412 65.9449ZM4.71429 48.8295C4.82353 35.3481 1.43697 27.7282 1.87395 16.5915L4.71429 48.8295ZM2.7479 48.9467C3.62185 39.8028 3.18487 28.1972 3.84034 17.6465L2.7479 48.9467Z" stroke="black" stroke-width="2"/>
</svg>
