<svg width="315" height="77" viewBox="0 0 315 77" fill="none" xmlns="http://www.w3.org/2000/svg">
<path d="M298.208 3.797C305.396 6.39002 311.854 8.02772 309.979 18.5363M298.833 2.1593C308.729 5.16174 311.854 7.75476 310.083 21.4022M311.541 56.2033C312.166 68.6225 306.021 71.4885 296.646 72.7168M313.312 55.248C311.541 67.9402 306.021 73.8086 296.958 73.8086M16.4441 73.6721C9.36098 73.1262 2.48614 68.3496 1.4445 55.9304M16.2358 73.5356C5.5069 73.5356 2.17365 66.166 5.19441 56.0669M3.00696 21.2658C1.34033 11.1666 7.79851 2.97815 15.1942 1.88635M1.96532 22.3576C4.67359 11.7125 9.67347 1.20397 14.6734 2.97815M18.0066 2.7052C93.9423 6.25354 168.732 7.89124 298.521 2.02283L18.0066 2.7052ZM16.0275 3.52405C86.755 1.0675 156.024 1.74988 298.417 4.75232L16.0275 3.52405ZM312.791 19.4916C311.75 32.0473 312.791 49.789 310.708 54.5656L312.791 19.4916ZM312.479 21.9481C310.812 29.0448 311.854 38.5981 312.166 55.9304L312.479 21.9481ZM299.562 75.1733C213.315 70.2603 128.941 71.2156 16.2358 75.4463L299.562 75.1733ZM297.583 74.491C199.877 72.9897 102.692 73.9451 16.6525 74.3545L297.583 74.491ZM2.38197 58.6599C1.54866 49.3796 2.27781 36.6874 1.34033 22.9035L2.38197 58.6599ZM3.00696 55.7939C2.17365 48.5607 2.27781 40.7817 2.48614 21.6752L3.00696 55.7939Z" stroke="black" stroke-width="2"/>
</svg>
