<svg width="306" height="66" viewBox="0 0 306 66" fill="none" xmlns="http://www.w3.org/2000/svg">
<path d="M287.952 2.47155C296.69 2.74747 303.312 6.70226 303.588 19.3944M288.412 3.75916C300.185 0.816056 305.243 8.35775 304.967 16.3593M303.128 48.1816C301.84 59.954 297.793 65.1044 287.86 63.4489M304.967 46.802C301.196 58.8504 298.253 64.3687 287.86 64.1847M18.2907 63.4489C7.71395 62.8971 2.10366 59.0343 2.19564 47.9057M19.9462 61.9774C8.72564 64.1847 1.6438 57.2868 1 48.6415M3.02338 17.7389C2.65549 5.78254 7.62198 1.36789 19.7623 1M1.45986 18.7506C2.19564 5.87451 6.8862 3.11535 17.8309 4.49493M17.8309 1.45986C115.321 4.12705 212.995 4.12704 286.665 3.57521L17.8309 1.45986ZM18.6586 2.93141C95.915 4.12704 172.804 4.40296 287.952 2.37958L18.6586 2.93141ZM301.84 16.0834C303.588 29.8792 302.392 42.0195 302.668 50.021L301.84 16.0834ZM303.956 18.1068C303.312 28.1317 302.576 38.1567 303.036 48.4575L303.956 18.1068ZM287.952 62.6212C225.044 65.1964 161.399 64.7365 17.463 62.3453L287.952 62.6212ZM287.309 63.7249C211.432 65.0125 136.107 64.7366 18.5666 63.357L287.309 63.7249ZM1.73578 48.2736C4.31099 38.3406 2.01169 28.5916 2.47155 19.4864L1.73578 48.2736ZM2.47155 48.3655C3.66719 41.5596 2.37958 34.8457 3.66719 17.0951L2.47155 48.3655Z" stroke="black" stroke-width="2"/>
</svg>
