<svg width="306" height="67" viewBox="0 0 306 67" fill="none" xmlns="http://www.w3.org/2000/svg">
<path d="M17.7387 3.54315L292.643 3.91103L296.69 5.38259L303.955 14.0279L304.599 53.116L300.277 59.2781L296.046 62.5891L287.308 66.176L14.4277 63.8767L9.0014 61.2095L3.39111 56.2431L4.67872 19.7302L5.32252 14.1199L7.43788 8.96949L10.7489 3.45117L18.0146 5.38259" fill="white"/>
<path d="M287.952 2.47155C296.69 2.74747 303.312 6.70226 303.588 19.3944M288.412 3.75916C300.185 0.816056 305.243 8.35775 304.967 16.3593M303.128 48.1816C301.84 59.954 297.793 65.1044 287.86 63.4489M304.967 46.802C301.196 58.8504 298.253 64.3687 287.86 64.1847M18.2907 63.4489C7.71395 62.8971 2.10366 59.0343 2.19564 47.9057M19.9462 61.9774C8.72564 64.1847 1.6438 57.2868 1 48.6415M3.02338 17.7389C2.65549 5.78254 7.62198 1.36789 19.7623 1M1.45986 18.7506C2.19564 5.87451 6.8862 3.11535 17.8309 4.49493M17.8309 1.45986C115.321 4.12705 212.995 4.12704 286.665 3.57521L17.8309 1.45986ZM18.6586 2.93141C95.915 4.12704 172.804 4.40296 287.952 2.37958L18.6586 2.93141ZM301.84 16.0834C303.588 29.8792 302.392 42.0195 302.668 50.021L301.84 16.0834ZM303.956 18.1068C303.312 28.1317 302.576 38.1567 303.036 48.4575L303.956 18.1068ZM287.952 62.6212C225.044 65.1964 161.399 64.7365 17.463 62.3453L287.952 62.6212ZM287.309 63.7249C211.432 65.0125 136.107 64.7366 18.5666 63.357L287.309 63.7249ZM1.73578 48.2736C4.31099 38.3406 2.01169 28.5916 2.47155 19.4864L1.73578 48.2736ZM2.47155 48.3655C3.66719 41.5596 2.37958 34.8457 3.66719 17.0951L2.47155 48.3655Z" stroke="black" stroke-width="2"/>
<path d="M23.6219 21.1576L281.695 19.5021L284.454 22.2612L290.34 25.7562L289.145 40.9315L287.765 45.99L281.879 48.3813L25.1854 48.6572L17.7357 47.0937L15.2524 41.1155L17.0919 25.7562L19.1153 23.2729L25.6453 20.6977" fill="#E2E2E2"/>
<path d="M16.2644 19.3181L97.9354 17.6626L98.7632 20.4218L100.603 23.9167L100.235 39.0921L99.7749 44.1505L97.9354 46.5418L16.8162 46.8177L14.4249 45.2542L13.5972 39.276L14.241 24.0087L14.8848 21.5254L16.9082 18.9502" fill="#FFBC42"/>
<path d="M94.2439 18.9091C99.3023 20.3806 100.222 20.1047 102.337 27.2785M95.2556 19.4609C98.2907 18.0813 99.8542 20.0127 101.51 25.8989M101.786 41.7181C100.958 45.0291 99.1184 49.9956 94.8877 48.3401M100.682 42.9137C100.958 47.6963 97.4629 49.6277 93.968 47.7883M23.6094 49.2598C18.459 47.6043 17.7232 46.3167 15.332 43.0057M23.9773 49.6277C16.8035 48.9839 15.9758 48.1561 17.5393 42.3619M15.9758 26.4508C15.6079 22.2201 18.2751 17.4375 25.3569 19.093M14.5962 24.9792C16.3437 23.5077 19.8386 19.4609 25.081 19.6448M24.897 19.7368C40.7162 18.4492 57.6391 18.4492 93.2322 18.2653L24.897 19.7368ZM23.5175 19.5529C48.3499 18.3572 72.0787 18.0813 93.784 19.3689L23.5175 19.5529ZM101.05 26.6347C100.682 30.2216 103.349 33.7165 101.418 41.6261L101.05 26.6347ZM101.786 26.0829C102.062 30.7734 101.326 36.5677 102.153 41.4422L101.786 26.0829ZM95.4395 47.6963C73.8261 47.4204 55.7076 47.5123 22.2299 49.9036L95.4395 47.6963ZM93.3242 48.8919C67.9399 48.708 41.6359 49.0759 23.2416 48.616L93.3242 48.8919ZM17.2634 41.6261C14.6882 36.6596 16.4356 35.1881 16.4356 26.2668L17.2634 41.6261ZM16.6196 41.1663C15.6079 36.9356 15.6999 31.8771 15.9758 26.5427L16.6196 41.1663Z" stroke="black" stroke-width="2"/>
<path d="M282.247 20.0538C288.318 20.0538 289.237 22.8129 289.881 26.2159M283.903 18.5822C286.018 20.5136 290.893 24.1925 289.697 27.3196M289.421 41.6672C290.433 46.1738 287.49 48.841 283.259 47.3694M289.421 40.3796C291.353 48.4731 285.466 48.749 284.087 48.5651M17.0004 27.2276C18.7478 23.7327 18.288 21.5253 25.1859 18.3983M15.5288 26.8597C15.7128 20.6056 20.6792 19.502 22.1508 19.502M23.0705 20.8815C80.461 17.2027 134.081 18.2143 281.236 19.6859L23.0705 20.8815ZM23.6223 20.6056C107.593 19.1341 190.643 19.8698 282.707 20.2377L23.6223 20.6056ZM290.801 27.7794C290.801 29.7108 288.869 33.0218 288.134 42.127L290.801 27.7794ZM289.237 27.9634C289.605 32.1941 289.881 36.8846 289.697 41.6672L289.237 27.9634ZM282.339 49.4848C194.414 50.0366 109.248 49.3009 23.3464 49.8527L282.339 49.4848ZM281.788 48.2892C193.77 49.0249 106.213 48.2892 24.5421 48.5651L281.788 48.2892ZM24.1742 48.841C18.104 49.4848 16.7244 45.622 16.3566 42.9548L24.1742 48.841ZM23.8983 48.4731C20.2194 50.7724 15.3449 44.4263 16.3566 40.5635L23.8983 48.4731ZM16.0806 40.9314C17.0923 38.3562 17.1843 31.3663 17.0923 28.4232L16.0806 40.9314ZM16.8164 42.311C16.6325 37.3445 16.4485 33.2977 17.1843 27.5955L16.8164 42.311Z" stroke="black" stroke-width="2"/>
</svg>
