<svg viewBox="0 0 1984 294" fill="none" xmlns="http://www.w3.org/2000/svg">
<defs>
<radialGradient id="paint0_radial" cx="0" cy="0" r="1" gradientUnits="userSpaceOnUse" gradientTransform="translate(962.765 73.6078) rotate(91.0272) scale(390.485 2732.1)">
<stop stop-color="#9ACE0A"/>
<stop offset="0.74783" stop-color="#438A04"/>
</radialGradient>
</defs>
<path d="M1094.26 11.2331C707.465 8.27603 204.098 19.2417 0.764648 25.0942V294H1982.76V25.0942C1847.76 21.7059 1481.06 14.1901 1094.26 11.2331Z" fill="url(#paint0_radial)"/>
<path d="M1983 45.9987C1880.44 51.5855 1743.13 31.9715 1622.72 31.9715C1451.79 23.5997 1270.31 32.5172 1102.27 23.5997C902.203 12.983 676.218 22.7775 477.211 32.9566C349.94 39.4663 253.104 40.9348 145.36 38.8672C98.8204 37.9741 49.9969 41.5548 3.29349 37.2253C-8.08156 36.1708 25.9662 33.8398 37.3496 32.9566C70.2318 30.4051 145.531 25.4409 174.817 23.7625C397.292 11.0129 620.097 4.37998 842.764 1.76237C1207.49 -2.52525 1580.42 11.7786 1944.75 31.9714" stroke="black" stroke-width="2" stroke-linecap="round" stroke-linejoin="round"/>
</svg>
