<svg width="2036" height="624" viewBox="0 0 2036 624" fill="none" xmlns="http://www.w3.org/2000/svg">
<defs>
<linearGradient id="paint0_linear" x1="1025.55" y1="67.8656" x2="1025.55" y2="396.608" gradientUnits="userSpaceOnUse">
<stop stop-color="#559F80"/>
<stop offset="1" stop-color="#2E675C"/>
</linearGradient>
</defs>
<path d="M637 170.5C608 152.5 592 150 587 146V283L1808 270V74.4996C1792.17 68.1663 1747.7 57.1996 1696.5 63.9996C1632.5 72.4996 1647 52.9996 1573 74.4996C1499 95.9996 1518.5 91.4996 1467.5 104C1416.5 116.5 1399.5 128 1376.5 127C1353.5 126 1363 134 1359.5 146C1356 158 1335 156 1324.5 158.5C1314 161 1317 170.5 1291.5 185C1266 199.5 1251.5 170.5 1211.5 164.5C1171.5 158.5 1172.5 163 1117 185C1072.6 202.6 876.167 203 783.5 201C757.667 196.5 702.8 187 690 185C674 182.5 666 188.5 637 170.5Z" fill="#86ACA0"/>
<path d="M1760 60C1744.01 60.6897 1727.48 60.2736 1711.53 61.5084C1697.21 62.6166 1683.34 65.8614 1668.95 66.6372C1663.06 66.9546 1657.45 66.5864 1651.66 67.5422C1638.2 69.7646 1626.36 72.2184 1612.48 72.2184C1601.36 72.2184 1588.07 73.4362 1577.3 75.2352C1544.43 80.7242 1522.45 103.443 1488.45 103.443C1472.47 103.443 1462.97 105.241 1448.77 111.589C1422.41 123.378 1395.56 127.88 1365.12 127.88C1355.7 127.88 1359.5 140.509 1356.22 145.529C1349.67 155.555 1336.5 153.148 1325.04 156.993C1311.18 161.64 1318.67 177.538 1301.65 179.996C1268.4 184.802 1233.57 166.511 1200.31 164.686C1191.1 164.18 1181.91 165.541 1173.52 165.892C1159.27 166.49 1143.33 163.612 1130.35 169.211C1111.75 177.23 1098.04 186.399 1075.98 188.67C1061.76 190.133 1048.67 186.256 1035 186.256" stroke="black" stroke-width="2" stroke-linecap="round" stroke-linejoin="round"/>
<path d="M611 150C621.389 157.055 631.899 163.446 637.868 173.037C639.724 176.019 669.605 175.592 675.024 176.741C687.778 179.443 693.903 184.919 707.386 186C731.831 187.96 755.737 195.001 780 198" stroke="black" stroke-width="2" stroke-linecap="round" stroke-linejoin="round"/>
<path d="M135.146 33.9879C133.551 20.7932 39.5507 6.74889 0.5 4V611L2036 624V4C2015.73 10.1225 1972.49 23.717 1961.72 29.1149C1948.26 35.8622 1918.85 39.9855 1908.88 39.9855C1898.91 39.9855 1917.35 49.7316 1885.45 55.7291C1853.54 61.7267 1822.63 48.9819 1785.74 49.7316C1748.85 50.4813 1763.81 72.9722 1752.84 83.0931C1741.87 93.214 1727.42 84.5925 1683.05 83.0931C1638.68 81.5937 1657.62 102.96 1613.26 103.71C1568.89 104.459 1586.83 111.207 1574.87 117.204C1562.91 123.202 1522.53 125.451 1505.08 131.449C1487.63 137.446 1506.07 155.439 1478.66 166.31C1451.24 177.18 1404.38 161.062 1368.98 179.429C1340.67 194.123 1315.97 201.046 1307.16 202.67C1293.21 200.546 1254.62 197.572 1211.95 202.67C1158.61 209.042 1159.1 209.417 1138.17 191.799C1117.23 174.181 1057.41 185.427 1016.53 185.427C975.649 185.427 943.246 206.793 920.314 202.67C897.382 198.547 887.91 212.791 879.435 202.67C870.96 192.549 892.397 185.427 834.07 196.297C775.743 207.168 657.096 189.55 623.695 185.427C590.294 181.303 610.733 168.559 613.725 155.439C616.661 142.559 613.832 143.046 597.219 145.905L596.276 146.068C578.828 149.067 529.973 141.944 497.57 137.071C465.166 132.198 441.237 113.831 383.907 103.71C326.577 93.5889 336.548 99.5865 303.147 79.7195C269.746 59.8525 251.301 66.5998 233.354 67.3495C215.408 68.0992 196.962 72.9722 192.476 59.8525C187.989 46.7328 178.019 48.2322 158.577 50.4813C139.134 52.7303 137.14 50.4813 135.146 33.9879Z" fill="url(#paint0_linear)"/>
<path d="M2030.14 1C1993.33 15.2154 1955.4 35.151 1913.22 37.4101C1905.04 37.8479 1902.72 42.3525 1898.52 46.8497C1889.68 56.3166 1875.92 57.9292 1861.35 57.1884C1834.89 55.8437 1809.33 49.3212 1782.9 48.0484C1766.54 47.2608 1762.82 56.3869 1760.31 66.7778C1759.07 71.9128 1759.26 79.9865 1753.31 83.6344C1744.14 89.2585 1726.93 87.1822 1716.34 86.4812C1703.73 85.6476 1689.44 82.4278 1676.76 83.5595C1663.44 84.7484 1650.26 91.3371 1638.19 95.1717C1625.91 99.0706 1613.91 102.262 1600.61 103.188C1593.81 103.661 1586.9 102.655 1581.02 105.735C1574.11 109.356 1568.59 114.329 1561.23 117.497C1549.97 122.349 1536.18 124.031 1523.96 127.087C1512.12 130.045 1497.11 130.276 1495.47 140.197C1494.44 146.498 1494.04 154.712 1488.08 159.676C1480.46 166.018 1464.63 166.523 1454.3 168.217C1427.63 172.59 1398.6 172.781 1372.85 179.829C1359.84 183.391 1350.23 190.333 1338.57 195.636C1319.06 204.51 1296.42 205.393 1274.21 203.728C1256.5 202.4 1239.05 199.113 1221.14 199.457C1208.03 199.709 1200.81 203.631 1189.76 207.773C1167.76 216.02 1131.1 200.424 1128.9 182.301C1128.28 177.214 1122.44 179.8 1116.71 180.428C1089.76 183.385 1062.39 184.705 1035.26 186.422C1005.13 188.328 971.765 187.564 945.615 199.233C937.529 202.84 929.528 204.477 920.13 204.477C912.276 204.477 903.531 201.613 895.945 202.154C891.648 202.461 879.352 207.768 876.258 203.128C874.031 199.79 874.445 194.904 873.859 191.291C872.69 184.085 863.442 189.431 856.47 190.842C799.202 202.43 737.393 202.575 678.98 194.887C658.983 192.255 640.115 187.218 620.816 182.676C617.985 182.01 603.547 180.544 602.227 177.357C600.913 174.182 607.46 168.676 608.823 165.894C610.83 161.799 616.562 146.322 611.921 142.595C609.043 140.283 583.147 144.907 579.242 144.992C544.636 145.742 510.861 140.325 478.304 131.807C431.936 119.674 392.242 100.138 342.788 96.1456C326.711 94.8477 322.465 94.8237 311.208 85.2076C296.288 72.4628 274.372 66.3122 252.244 63.6313C231.863 61.1621 211.081 77.8616 193.281 62.8072C187.38 57.817 191.136 51.7244 186.885 46.9995C183.694 43.4527 161.235 49.8291 156.703 50.2959C151.905 50.7902 140.177 52.5315 135.617 50.5207C131.419 48.6697 134.443 36.6662 135.017 33.7391C136.046 28.4935 131.939 27.9656 125.323 26.9216C102.157 23.2656 78.4194 22.474 55.5661 17.4819C49.4605 16.1482 35.1805 14.4111 29.7821 11.7133C21.3454 7.49691 10.8591 9.09118 1 9.09118" stroke="black" stroke-width="2" stroke-linecap="round" stroke-linejoin="round"/>
</svg>
